<svg width="307" height="202" viewBox="0 0 307 202" fill="none" xmlns="http://www.w3.org/2000/svg">
<path d="M227.078 4.29004L150.941 13.9411C153.454 10.936 156.168 8.12477 159.063 5.52914L227.078 4.29004Z" fill="#545139"/>
<path d="M283.908 90.1594C282.528 92.3907 280.962 94.5144 279.224 96.5103L213.133 89.0039L283.908 90.1594Z" fill="#545139"/>
<path d="M288.2 45.0392L176.676 30.0264L285.515 36.7047C286.561 39.4282 287.457 42.2108 288.2 45.0392Z" fill="#545139"/>
<path d="M136.995 8.04248C136.995 8.24067 136.99 8.43598 136.972 8.62843C136.885 9.82124 136.533 10.9796 135.942 12.0192C135.351 13.0588 134.535 13.9534 133.554 14.6379C132.574 15.3224 131.453 15.7795 130.273 15.976C129.093 16.1724 127.884 16.1032 126.735 15.7735C125.585 15.4438 124.523 14.8617 123.627 14.0699C122.731 13.278 122.023 12.2961 121.554 11.1959C121.085 10.0956 120.867 8.90464 120.917 7.7097C120.967 6.51475 121.282 5.34593 121.841 4.28836C122.014 3.95694 122.212 3.63912 122.433 3.33762C123.394 2.00365 124.742 0.996732 126.294 0.452677C127.846 -0.0913778 129.527 -0.146396 131.112 0.295047C132.696 0.73649 134.107 1.65316 135.154 2.9214C136.2 4.18965 136.833 5.74846 136.967 7.38759C136.987 7.603 136.995 7.8213 136.995 8.04248Z" fill="#F9A826"/>
<path d="M136.991 7.70824C136.991 8.00186 136.985 8.29122 136.969 8.57633L125.195 6.43164L136.963 6.73803C136.983 7.05716 136.991 7.38057 136.991 7.70824Z" fill="#D0CDE1"/>
<path d="M133.78 11.7979L122.821 12.8702C122.51 12.5884 122.23 12.2849 121.984 11.9632L133.78 11.7979Z" fill="#D0CDE1"/>
<path d="M131.635 3.21582L121.984 4.28817C122.167 3.96427 122.377 3.65365 122.61 3.35899L131.635 3.21582Z" fill="#D0CDE1"/>
<path d="M247.585 152.289C247.492 152.464 247.396 152.634 247.29 152.796C246.654 153.809 245.8 154.667 244.79 155.309C243.781 155.95 242.641 156.358 241.454 156.503C240.266 156.647 239.062 156.526 237.928 156.146C236.793 155.767 235.758 155.139 234.897 154.309C234.036 153.478 233.371 152.467 232.951 151.347C232.53 150.227 232.365 149.028 232.467 147.836C232.568 146.644 232.934 145.49 233.538 144.458C234.143 143.425 234.969 142.541 235.958 141.868C236.266 141.657 236.59 141.469 236.927 141.306C238.402 140.578 240.064 140.321 241.69 140.568C243.316 140.815 244.827 141.554 246.02 142.687C247.212 143.82 248.029 145.291 248.359 146.902C248.689 148.513 248.517 150.187 247.867 151.697C247.784 151.897 247.689 152.094 247.585 152.289Z" fill="#F9A826"/>
<path d="M247.163 152.795C247.069 152.985 246.97 153.169 246.863 153.344L236.727 145.838L247.45 152.153C247.365 152.37 247.269 152.583 247.163 152.795Z" fill="#D0CDE1"/>
<path d="M243.161 154.42L232.657 150.44C232.543 149.987 232.469 149.524 232.438 149.059L243.161 154.42Z" fill="#D0CDE1"/>
<path d="M244.227 144.767L235.648 142.017C235.957 141.841 236.281 141.685 236.617 141.55L244.227 144.767Z" fill="#D0CDE1"/>
<path d="M304.141 14.2209C304.279 14.3628 304.411 14.5066 304.533 14.6564C305.304 15.5711 305.861 16.6461 306.163 17.8032C306.466 18.9603 306.507 20.1702 306.282 21.345C306.058 22.5198 305.575 23.6298 304.867 24.5941C304.16 25.5584 303.246 26.3528 302.193 26.9194C301.139 27.486 299.973 27.8105 298.778 27.8694C297.583 27.9282 296.39 27.7199 295.286 27.2596C294.182 26.7992 293.195 26.0984 292.396 25.2083C291.597 24.3182 291.007 23.2611 290.668 22.1141C290.561 21.7561 290.48 21.3904 290.428 21.0203C290.185 19.3938 290.447 17.7319 291.178 16.2589C291.91 14.7858 293.075 13.5725 294.518 12.7824C295.96 11.9924 297.61 11.6637 299.246 11.8406C300.881 12.0176 302.423 12.6917 303.663 13.7721C303.827 13.9123 303.986 14.0626 304.141 14.2209Z" fill="#F9A826"/>
<path d="M296.774 15.0117L290.597 21.4458C290.482 21.1239 290.396 20.7951 290.34 20.4622L296.774 15.0117Z" fill="#D0CDE1"/>
<path d="M145.889 79.8713L145.755 79.8539L146.081 81.0836C146.388 82.7993 146.835 84.4874 147.417 86.1314L156.962 122.2C157.267 123.351 157.903 124.389 158.792 125.186C159.682 125.983 160.786 126.504 161.97 126.686L181.436 129.68C182.695 129.873 183.983 129.674 185.122 129.108C186.262 128.543 187.197 127.64 187.798 126.524L206.297 92.1775C206.876 91.2259 207.404 90.2453 207.88 89.2395L208.508 88.0734L208.41 88.0605C210.371 83.4494 211.234 78.4503 210.932 73.453C210.63 68.4558 209.172 63.5953 206.669 59.2506C204.167 54.9059 200.689 51.1942 196.507 48.405C192.325 45.6157 187.551 43.8243 182.558 43.1702C177.564 42.5162 172.486 43.0173 167.72 44.6344C162.954 46.2515 158.627 48.9409 155.078 52.493C151.529 56.0452 148.853 60.3641 147.259 65.113C145.665 69.8619 145.196 74.9126 145.889 79.8713H145.889Z" fill="#F9A826"/>
<path d="M182.5 131.899C182.155 131.899 181.809 131.873 181.468 131.821L160.954 128.7C159.651 128.502 158.435 127.934 157.456 127.066C156.477 126.198 155.777 125.068 155.441 123.814L145.382 86.2095C144.768 84.488 144.295 82.7205 143.97 80.9242L143.715 79.2791C143.031 74.0235 143.598 68.6834 145.372 63.6803C147.146 58.6772 150.078 54.1481 153.937 50.4505C157.796 46.7529 162.477 43.9881 167.608 42.3743C172.74 40.7605 178.183 40.3418 183.508 41.1514L183.419 41.7144C178.153 40.9163 172.769 41.3396 167.698 42.9506C162.628 44.5616 158.01 47.3157 154.214 50.9932C150.417 54.6707 147.548 59.1698 145.833 64.1316C144.119 69.0934 143.607 74.3806 144.339 79.5713L144.535 80.8018C144.858 82.5829 145.326 84.3355 145.936 86.0426L156.002 123.669C156.308 124.816 156.948 125.849 157.844 126.643C158.739 127.437 159.851 127.956 161.043 128.137L181.556 131.258C182.823 131.45 184.12 131.25 185.267 130.687C186.414 130.124 187.355 129.226 187.961 128.115L188.472 128.384C187.892 129.445 187.031 130.333 185.98 130.952C184.928 131.571 183.726 131.899 182.5 131.899Z" fill="#2F2E41"/>
<path d="M187.437 88.0782L175.074 121.834L175.771 122.089L188.134 88.3334L187.437 88.0782Z" fill="#2F2E41"/>
<path d="M167.249 84.9547L166.508 84.9873L168.086 120.901L168.827 120.869L167.249 84.9547Z" fill="#2F2E41"/>
<path d="M180.123 149.049L154.761 145.131C154.572 145.101 154.403 144.997 154.291 144.843C154.178 144.689 154.132 144.496 154.161 144.308C154.19 144.119 154.293 143.95 154.447 143.837C154.6 143.724 154.793 143.676 154.982 143.704L180.344 147.622C180.439 147.636 180.529 147.669 180.611 147.718C180.693 147.767 180.764 147.831 180.82 147.908C180.877 147.985 180.917 148.072 180.94 148.164C180.963 148.256 180.967 148.352 180.952 148.446C180.938 148.541 180.905 148.631 180.855 148.712C180.806 148.793 180.74 148.864 180.663 148.92C180.586 148.976 180.499 149.016 180.406 149.038C180.314 149.06 180.217 149.064 180.123 149.049Z" fill="#3F3D56"/>
<path d="M181.162 143.685L154.793 139.768C154.695 139.754 154.601 139.721 154.516 139.672C154.431 139.623 154.358 139.558 154.299 139.482C154.24 139.405 154.198 139.318 154.174 139.226C154.15 139.133 154.146 139.037 154.161 138.943C154.176 138.849 154.211 138.759 154.262 138.678C154.314 138.597 154.382 138.526 154.462 138.47C154.542 138.414 154.633 138.374 154.729 138.352C154.825 138.33 154.925 138.326 155.023 138.341L181.392 142.258C181.49 142.272 181.584 142.305 181.669 142.354C181.754 142.403 181.828 142.467 181.887 142.544C181.946 142.621 181.988 142.708 182.012 142.8C182.035 142.892 182.04 142.988 182.024 143.082C182.009 143.176 181.975 143.267 181.923 143.348C181.872 143.429 181.804 143.5 181.724 143.556C181.644 143.612 181.553 143.652 181.457 143.674C181.36 143.696 181.26 143.7 181.162 143.685Z" fill="#3F3D56"/>
<path d="M182.249 138.325L155.863 134.406C155.667 134.375 155.491 134.272 155.374 134.118C155.258 133.963 155.209 133.771 155.239 133.582C155.27 133.394 155.377 133.225 155.537 133.111C155.697 132.998 155.897 132.95 156.093 132.979L182.479 136.897C182.675 136.928 182.851 137.031 182.967 137.186C183.084 137.34 183.133 137.532 183.103 137.721C183.072 137.909 182.965 138.079 182.805 138.192C182.645 138.305 182.445 138.353 182.249 138.325H182.249Z" fill="#3F3D56"/>
<path d="M166.616 152.122C171.635 152.868 176.137 150.785 176.671 147.469L158.493 144.767C157.96 148.082 161.596 151.375 166.616 152.122Z" fill="#3F3D56"/>
<path d="M175.985 80.6777C174.843 80.5226 173.898 79.729 173.38 79.1972C173.21 79.0228 173.045 78.8419 172.879 78.6606C172.276 78.0005 171.707 77.3771 170.913 77.0521C169.163 76.334 167.1 77.337 165.314 78.4131L164.883 77.86C166.846 76.6765 169.136 75.5832 171.236 76.4441C172.19 76.8353 172.843 77.5497 173.474 78.2405C173.635 78.4164 173.795 78.5918 173.959 78.761C174.498 79.3139 175.572 80.2099 176.723 80.0032C177.208 79.879 177.659 79.669 178.048 79.3863C178.345 79.1916 178.659 79.0176 178.987 78.8659C179.651 78.5857 180.395 78.4846 181.125 78.5753C181.854 78.666 182.537 78.9443 183.087 79.3754C183.283 79.5388 183.469 79.7115 183.644 79.8928C183.987 80.2367 184.311 80.5613 184.733 80.6793C185.356 80.8545 186.015 80.5412 186.713 80.2102C187.433 79.8686 188.178 79.5152 189.022 79.6024C189.049 79.6053 189.077 79.6085 189.104 79.6122C190.607 79.8166 191.299 81.2776 191.691 82.3679L190.964 82.5698C190.431 81.0877 189.783 80.3507 188.933 80.2685C188.328 80.206 187.719 80.4947 187.075 80.8003C186.268 81.1836 185.433 81.5797 184.501 81.3183C183.877 81.1439 183.467 80.7328 183.07 80.3352C182.914 80.1725 182.748 80.0173 182.572 79.8704C182.134 79.533 181.594 79.3152 181.017 79.2435C180.44 79.1718 179.852 79.2494 179.325 79.4668C179.033 79.6033 178.754 79.7595 178.489 79.9338C178.015 80.2732 177.466 80.5208 176.876 80.6603C176.582 80.7129 176.281 80.7188 175.985 80.6777Z" fill="#2F2E41"/>
<path d="M42.5325 94.1042L11.7826 101.554L11.6824 101.578L8.33977 104.604L7.3777 105.474L5.31519 105.101L1.66406 104.441L4.2084 95.8534L4.68546 79.4743L2.93625 69.4559L12.6365 62.7771C12.6365 62.7771 31.56 61.6639 42.5325 94.1042Z" fill="#D0CDE1"/>
<path opacity="0.1" d="M11.7826 101.554C11.3659 102.443 12.2389 101.856 11.7619 102.77L7.30929 104.201L5.31517 105.1L1.66406 104.44L4.20838 95.8527L4.68544 79.4736L2.93623 69.4553L12.6365 62.7764C12.6365 62.7764 23.0476 77.5208 11.7826 101.554Z" fill="black"/>
<path d="M78.797 70.5693C78.797 70.5693 38.4057 89.3338 22.0265 92.1962C5.64735 95.0586 7.07855 111.438 7.07855 111.438L98.8336 97.1258C98.8336 97.1258 95.6532 82.3369 78.797 70.5693Z" fill="#D0CDE1"/>
<path d="M0.873227 67.39C0.873227 67.39 7.87015 84.4053 0.078125 105.555L9.14233 109.69L12.6408 105.555L12.7203 105.158L3.09951 104.283C3.09951 104.283 11.0505 82.9741 4.53068 68.1851C4.53071 68.1851 3.09952 65.0047 0.873227 67.39Z" fill="#F9A826"/>
<path d="M134.293 193.491C98.5135 185.54 65.1986 201.999 65.1986 201.999L65.108 201.918L51.8409 190.072L0 105.473L12.6422 105.553C47.7858 84.562 97.2413 87.4244 97.2413 87.4244C118.55 111.596 134.293 193.491 134.293 193.491Z" fill="#3F3D56"/>
<path opacity="0.1" d="M65.108 201.92L51.8409 190.075L0 105.476L12.6422 105.555C12.6422 105.555 63.0296 172.104 65.108 201.92Z" fill="black"/>
<path d="M70.9274 135.91C81.7587 132.588 88.8273 124.313 86.7155 117.428C84.6037 110.543 74.1113 107.655 63.2799 110.977C52.4485 114.299 45.3799 122.574 47.4917 129.459C49.6035 136.344 60.096 139.232 70.9274 135.91Z" fill="#D0CDE1"/>
</svg>
