<svg width="1440" height="752" viewBox="0 0 1440 752" fill="none" xmlns="http://www.w3.org/2000/svg">
<g clip-path="url(#clip0)">
<rect width="1440" height="752" fill="white"/>
<path fill-rule="evenodd" clip-rule="evenodd" d="M1404.85 697.002C1403.86 698.71 1401.68 699.296 1399.97 698.309L1388.83 691.881C1386.44 690.5 1383.39 691.32 1382 693.711L1375.58 704.846C1374.59 706.554 1372.41 707.139 1370.7 706.153C1368.99 705.167 1368.4 702.982 1369.39 701.274L1375.82 690.14C1377.2 687.748 1376.38 684.69 1373.99 683.309L1362.85 676.881C1361.15 675.895 1360.56 673.71 1361.55 672.002C1362.53 670.294 1364.72 669.709 1366.43 670.695L1377.56 677.124C1379.95 678.504 1383.01 677.685 1384.39 675.293L1390.82 664.159C1391.81 662.451 1393.99 661.865 1395.7 662.852C1397.41 663.838 1397.99 666.022 1397 667.73L1390.58 678.865C1389.2 681.256 1390.01 684.314 1392.41 685.695L1403.54 692.124C1405.25 693.11 1405.83 695.294 1404.85 697.002Z" fill="#FFE546" stroke="#FFE546" stroke-width="5"/>
<circle cx="44.5" cy="634.5" r="171.5" stroke="#FFE546" stroke-width="10"/>
<circle cx="316.832" cy="659.914" r="18.8812" transform="rotate(-25.0998 316.832 659.914)" fill="#FFE546"/>
<path fill-rule="evenodd" clip-rule="evenodd" d="M294.206 567.098C294.838 568.447 294.256 570.053 292.907 570.685L285.222 574.285C282.722 575.456 281.644 578.433 282.815 580.934L286.415 588.619C287.047 589.968 286.466 591.574 285.117 592.206C283.768 592.838 282.162 592.256 281.53 590.907L277.93 583.222C276.759 580.721 273.782 579.644 271.281 580.815L263.596 584.415C262.247 585.047 260.641 584.466 260.009 583.117C259.377 581.768 259.959 580.162 261.308 579.53L268.993 575.93C271.494 574.759 272.571 571.782 271.4 569.281L267.8 561.596C267.168 560.247 267.749 558.641 269.098 558.009C270.447 557.377 272.053 557.959 272.685 559.308L276.285 566.993C277.456 569.493 280.433 570.571 282.934 569.4L290.619 565.8C291.968 565.168 293.574 565.749 294.206 567.098Z" fill="#FFE546" stroke="#FFE546" stroke-width="5"/>
</g>
<defs>
<clipPath id="clip0">
<rect width="1440" height="752" fill="white"/>
</clipPath>
</defs>
</svg>
