<svg width="672" height="581" viewBox="0 0 672 581" fill="none" xmlns="http://www.w3.org/2000/svg">
<path d="M634.789 348.67C628.854 393.715 602.457 433.769 562.86 456.021C550.081 463.244 536.287 468.503 521.943 471.62C472.95 482.144 419.07 466.119 383.798 430.509C363.054 409.571 347.454 381.768 320.507 369.828C285.431 354.288 245.258 371.256 210.721 387.968C176.184 404.679 135.95 421.555 100.942 405.862C79.0251 396.03 63.9836 374.853 55.3707 352.38C32.5974 292.996 50.3644 222.87 90.8907 173.848C153.557 98.0791 269.756 65.0092 365.444 72.3014C500.751 82.6639 634.639 184.574 636.044 329.064C636.086 335.621 635.666 342.172 634.789 348.67Z" fill="#FFE546" fill-opacity="0.5"/>
<path d="M441.46 457.904C407.98 457.904 376.11 450.154 351.74 436.084C342.446 430.847 333.994 424.24 326.67 416.484C311.925 418.713 297.033 419.83 282.12 419.824C235.05 419.824 190.43 409.024 156.46 389.414C118.12 367.234 97 336.264 97 302.174C97 268.084 118.12 237.124 156.49 214.974C190.49 195.344 235.12 184.544 282.2 184.544C329.28 184.544 373.93 195.354 407.92 214.974C438.62 232.704 458.44 256.534 465.01 282.704C489.69 285.454 512.63 292.514 531.19 303.224C559.52 319.584 575.77 343.794 575.77 369.654C575.77 395.514 559.52 419.724 531.19 436.084C506.81 450.154 474.95 457.904 441.46 457.904Z" fill="#71C1EE"/>
<path opacity="0.2" d="M441.46 457.904C407.98 457.904 376.11 450.154 351.74 436.084C342.446 430.847 333.994 424.24 326.67 416.484C311.925 418.713 297.033 419.83 282.12 419.824C235.05 419.824 190.43 409.024 156.46 389.414C118.12 367.234 97 336.264 97 302.174C97 268.084 118.12 237.124 156.49 214.974C190.49 195.344 235.12 184.544 282.2 184.544C329.28 184.544 373.93 195.354 407.92 214.974C438.62 232.704 458.44 256.534 465.01 282.704C489.69 285.454 512.63 292.514 531.19 303.224C559.52 319.584 575.77 343.794 575.77 369.654C575.77 395.514 559.52 419.724 531.19 436.084C506.81 450.154 474.95 457.904 441.46 457.904Z" fill="black"/>
<path d="M525.621 314.124C503.861 301.564 475.401 295.254 446.891 295.124C446.891 294.764 446.891 294.394 446.811 294.024C448.481 268.534 432.471 242.724 398.761 223.264C334.521 186.174 230.351 186.174 166.101 223.264C134.121 241.824 118.021 266.024 117.931 290.264V297.824C118.021 322.114 134.121 346.334 166.121 364.824C213.001 391.894 281.121 399.184 339.471 386.754C344.731 396.314 353.921 405.304 367.051 412.884C410.841 438.174 481.841 438.174 525.641 412.884C547.571 400.224 558.511 383.624 558.471 367.024V360.024C558.521 343.424 547.571 326.824 525.621 314.124Z" fill="#E0E0E0"/>
<path d="M367.03 412.884C410.82 438.174 481.82 438.174 525.62 412.884C547.55 400.224 558.49 383.624 558.45 367.024V360.024C558.52 343.404 547.57 326.784 525.62 314.104C503.86 301.544 475.4 295.234 446.89 295.104C446.89 295.104 446.89 295.104 446.89 295.044L446.75 295.104L435.06 305.814L339.46 379.494V386.694C344.71 396.314 353.9 405.304 367.03 412.884Z" fill="#EBEBEB"/>
<path d="M525.62 314.124C503.83 301.544 475.3 295.224 446.74 295.124C448.95 269.274 432.96 243.004 398.74 223.264C334.5 186.174 230.33 186.174 166.08 223.264C101.83 260.354 101.86 320.534 166.12 357.624C213 384.694 281.12 391.984 339.47 379.554C344.73 389.114 353.92 398.104 367.05 405.684C410.84 430.964 481.84 430.964 525.64 405.684C569.44 380.404 569.41 339.404 525.62 314.124Z" fill="#FAFAFA"/>
<path d="M446.32 413.914C418.22 413.914 391.97 407.684 372.39 396.384C361.44 390.064 353.3 382.454 348.86 374.384L345.02 367.384L337.22 369.044C319.187 372.833 300.807 374.723 282.38 374.684C240.3 374.684 200.92 365.324 171.47 348.314C143.86 332.384 128.66 311.824 128.66 290.464C128.66 269.104 143.86 248.544 171.47 232.604C200.94 215.604 240.34 206.224 282.47 206.224C324.6 206.224 363.97 215.594 393.47 232.604C422.47 249.354 438.04 271.824 436.12 294.254L435.12 305.874H446.79C474.74 305.934 500.86 312.154 520.32 323.394C538.04 333.624 547.79 346.574 547.79 359.874C547.79 373.174 538.04 386.124 520.32 396.354C500.67 407.684 474.42 413.914 446.32 413.914Z" fill="#71C1EE"/>
<path opacity="0.7" d="M537.27 383.254C532.28 378.065 526.552 373.64 520.27 370.124C500.82 358.884 474.7 352.664 446.75 352.594H435.08V305.894H446.75C474.7 305.964 500.82 312.184 520.27 323.424C537.99 333.654 547.75 346.604 547.75 359.904C547.75 367.994 544.14 375.964 537.31 383.264L537.27 383.254Z" fill="white"/>
<path opacity="0.5" d="M436.05 294.244L435.05 305.874V327.164C431 309.524 416.44 292.604 393.4 279.304C363.92 262.304 324.52 252.914 282.4 252.914C240.28 252.914 200.91 262.294 171.45 279.304C154.12 289.294 141.71 301.124 134.85 313.824C130.857 306.684 128.725 298.654 128.65 290.474C128.65 269.104 143.86 248.554 171.48 232.614C200.94 215.614 240.34 206.224 282.48 206.224C324.62 206.224 363.97 215.604 393.48 232.614C422.41 249.354 437.96 271.824 436.05 294.244Z" fill="white"/>
<path opacity="0.6" d="M537.281 383.264C532.287 388.446 526.559 392.866 520.281 396.384C500.711 407.684 474.461 413.914 446.361 413.914C418.261 413.914 392.011 407.684 372.431 396.384C361.481 390.064 353.341 382.454 348.901 374.384L345.051 367.384L337.261 369.044C319.228 372.833 300.847 374.723 282.421 374.684C240.351 374.684 200.961 365.324 171.521 348.314C154.121 338.324 141.711 326.504 134.851 313.824C141.711 301.134 154.151 289.304 171.481 279.314C200.941 262.314 240.341 252.924 282.481 252.924C324.621 252.924 363.971 262.304 393.481 279.314C416.481 292.614 431.081 309.534 435.131 327.174V352.584H446.801C474.751 352.654 500.871 358.874 520.321 370.114C526.591 373.638 532.306 378.069 537.281 383.264Z" fill="white"/>
<path d="M436.06 294.094C434.42 274.164 419.25 254.704 393.4 239.774C363.92 222.774 324.52 213.394 282.4 213.394C240.28 213.394 200.91 222.754 171.45 239.764C145.41 254.824 130.39 273.974 128.8 294.054C128.7 292.864 128.65 291.674 128.65 290.464C128.65 269.094 143.86 248.544 171.48 232.604C200.94 215.604 240.34 206.214 282.48 206.214C324.62 206.214 363.97 215.594 393.48 232.604C422.35 249.324 437.9 271.734 436.06 294.094Z" fill="#E0E0E0"/>
<path d="M547.721 359.903C547.726 361.101 547.646 362.297 547.481 363.483C545.901 351.483 536.361 339.893 520.241 330.583C500.791 319.353 474.671 313.123 446.721 313.073H435.051V305.903H435.661H446.721C474.671 305.973 500.791 312.193 520.241 323.433C537.961 333.653 547.721 346.603 547.721 359.903Z" fill="#EBEBEB"/>
<path opacity="0.25" d="M473.83 405.664C473.257 405.892 472.753 406.267 472.371 406.752C471.988 407.236 471.74 407.813 471.65 408.424C471.378 409.668 471.321 410.95 471.48 412.214C477.154 411.434 482.782 410.352 488.34 408.974C486.26 408.034 484.16 407.104 481.91 406.344C479.3 405.444 475.99 404.824 473.83 405.664ZM352.12 222.594C347.12 221.174 341.99 219.917 336.73 218.824C337.663 219.35 338.632 219.807 339.63 220.194C343.39 221.594 347.9 221.824 352.12 222.594ZM528.12 364.394C523.89 363.65 519.759 362.422 515.81 360.734C513.797 359.862 511.843 358.86 509.96 357.734C508.15 356.664 506.24 356.114 504.44 354.934C502.24 353.484 500.61 351.654 500.69 349.884C500.77 348.114 502.43 346.714 503.31 345.114C505.31 341.444 502.62 336.734 496.91 333.864C494.05 332.434 490.12 331.024 489.91 329.004C489.7 326.984 493.26 326.084 496.09 325.234C498.424 324.548 500.672 323.599 502.79 322.404C500.24 321.464 497.62 320.594 494.95 319.794C492.976 321.422 490.699 322.642 488.25 323.384C482.61 325.224 475.25 325.484 470.25 327.794C467.64 328.994 464.98 330.794 461.4 330.144C460.394 329.981 459.438 329.589 458.607 328.998C457.777 328.406 457.093 327.632 456.61 326.734C455.92 325.304 455.87 323.844 455.11 322.434C453.86 320.094 450.76 318.074 447.48 316.354C445.27 315.194 442.91 314.114 440.48 313.064H435.3V310.824C429.24 308.184 423.37 305.474 419.3 301.824C418.08 300.744 417.02 299.454 417.6 298.374C418.8 296.104 425.17 296.974 428.26 295.504C431.35 294.034 429.85 290.784 428.07 288.254L422.64 280.604C421.35 278.774 420.04 276.934 419.74 275.064C419.44 273.194 420.32 271.274 422.74 270.284C424.201 269.757 425.749 269.516 427.3 269.574C424.65 265.619 421.637 261.919 418.3 258.524C418.801 259.146 419.239 259.816 419.61 260.524C419.913 260.98 420.095 261.505 420.141 262.05C420.186 262.596 420.093 263.144 419.87 263.644C419.073 264.627 418.041 265.394 416.87 265.874C413.92 267.514 411.15 269.294 409.51 271.494C408.655 272.506 408.155 273.77 408.084 275.093C408.014 276.416 408.378 277.726 409.12 278.824C410.91 281.494 414.84 283.644 417.45 286.134C420.06 288.624 420.9 292.194 417.09 293.454C415.785 293.805 414.442 294 413.09 294.034C408.44 294.216 403.799 293.486 399.43 291.884C397.528 291.057 395.889 289.726 394.69 288.034C392.74 285.294 392.42 282.034 392.09 278.914C391.79 276.094 391.36 272.994 389.47 270.444C387.89 268.304 385.36 267.034 383.88 264.814C383.044 263.258 382.373 261.619 381.88 259.924C378.98 252.694 368.01 253.594 365.08 246.774C363.6 243.354 367.98 240.274 373.58 239.634C379.18 238.994 385.49 240.274 390.97 242.114C397.823 244.498 404.337 247.762 410.35 251.824C411.75 252.754 413.11 253.704 414.35 254.704C408.003 249.017 401.063 244.028 393.65 239.824C391.93 238.83 390.174 237.864 388.38 236.924C382.82 235.924 377.24 235.784 371.71 235.554C371.304 235.563 370.901 235.471 370.54 235.284C370.244 235.038 370.002 234.733 369.829 234.389C369.657 234.045 369.559 233.668 369.54 233.284C369.206 231.349 368.561 229.482 367.63 227.754C364.47 226.587 361.244 225.484 357.95 224.444C362.16 226.444 364.09 229.774 364.36 232.754C364.547 233.818 364.347 234.913 363.797 235.843C363.247 236.773 362.383 237.475 361.36 237.824C360.09 238.304 358.47 238.484 357.3 239.014C356.828 239.236 356.406 239.553 356.062 239.945C355.718 240.337 355.459 240.796 355.3 241.294C354.36 244.214 356.51 247.664 360.72 249.934C362.95 251.124 365.64 251.994 368.01 253.074C370.056 253.981 371.967 255.165 373.69 256.594C375.69 258.264 376.93 260.594 374.77 261.794C373.545 262.32 372.233 262.611 370.9 262.654C364.45 263.304 356.63 263.654 351.44 260.704C347.63 258.504 346.81 255.294 344.1 252.634C342.273 250.999 340.231 249.623 338.03 248.544C329.114 243.943 319.525 240.784 309.62 239.184C306.02 238.584 301.88 237.954 299.78 236.074C298.788 235.117 298.21 233.811 298.17 232.434C297.64 228.644 297.95 224.634 300.73 222.294C302.18 221.064 308.51 218.424 304.27 215.734C302.27 214.494 299.27 214.374 296.64 213.824C293.64 213.674 290.64 213.564 287.55 213.514C290.45 214.434 294.01 214.894 296.4 216.284C296.951 216.546 297.401 216.982 297.68 217.524C298.07 218.754 295.83 219.374 294.3 220.064C293.573 220.314 292.919 220.74 292.396 221.303C291.873 221.867 291.496 222.55 291.3 223.294C291.277 223.968 291.183 224.639 291.02 225.294C290.814 225.697 290.496 226.033 290.104 226.26C289.712 226.487 289.263 226.596 288.81 226.574C287.19 226.634 285.81 225.694 284.44 225.054C279.34 222.634 272.2 223.804 266.44 222.054C264.582 221.444 262.782 220.671 261.06 219.744C257.77 218.154 254.28 216.744 250.81 215.274C248.81 215.5 246.84 215.754 244.9 216.034C247.999 217.277 251.007 218.737 253.9 220.404C258.68 223.114 263.7 226.194 269.9 226.934C274.14 227.434 278.34 226.744 282.55 227.474C289.11 228.614 293.55 233.594 290.87 236.804C289.82 238.074 287.96 238.984 286.33 239.994C283.12 241.994 280.73 244.524 280.42 247.424C280.11 250.324 282.08 253.594 286.22 255.724C288.58 256.934 294.01 258.084 292.86 259.524C291.03 261.794 283.7 258.804 279.21 257.744C275.811 256.851 272.304 256.437 268.79 256.514C264.27 256.714 259.72 257.514 255.03 256.404C251.64 255.584 247.03 253.904 245.03 250.504C243.42 247.744 244.18 244.834 242.09 242.164C239.32 238.634 232.56 236.634 226.44 235.064C220.32 233.494 213.53 231.694 210.33 228.254C209.769 227.701 209.326 227.04 209.027 226.311C208.728 225.583 208.579 224.801 208.59 224.014C206.59 224.634 204.59 225.28 202.59 225.954C203.097 227.295 203.769 228.568 204.59 229.744C205.94 231.664 207.78 233.744 207.38 235.814C207.12 237.194 205.87 238.004 204.71 238.694C203.267 239.772 201.512 240.352 199.71 240.344C197.44 240.174 195.34 238.514 193.31 237.084C190.853 235.388 188.25 233.915 185.53 232.684C180.917 234.784 176.497 237.04 172.27 239.454C175.572 238.312 179.123 238.094 182.54 238.824C186.334 239.744 189.893 241.447 192.99 243.824C194.71 245.034 196.42 246.324 197.12 247.824C197.65 248.954 197.51 250.074 197.86 251.204C198.69 254.104 202.43 256.664 206.24 258.854C209.86 260.944 214.18 263.564 213.14 266.114C212.726 266.831 212.237 267.501 211.68 268.114C210.22 270.164 211.16 272.874 213.97 274.814C217.24 277.074 222.62 278.234 225.11 280.814C227.6 283.394 225.6 286.684 221.11 287.294C216.62 287.904 211.3 286.164 207.11 287.074C203.11 287.944 201.74 290.934 197.63 291.614C193.52 292.294 189.15 290.504 184.89 289.514C180.957 288.616 176.901 288.383 172.89 288.824C170.67 289.074 168.62 289.574 166.34 289.694C164.059 289.753 161.792 289.323 159.69 288.434C157.009 287.373 154.583 285.758 152.57 283.694C150.57 281.544 149.9 278.964 151.41 276.994C153.75 273.934 160.14 272.994 165.84 272.104C171.54 271.214 177.77 269.784 178.84 266.414C180.06 262.794 174.84 259.064 171.15 255.554C167.27 251.844 164.9 247.434 166.71 243.724C167.067 243.052 167.545 242.452 168.12 241.954C165.22 243.747 162.467 245.59 159.86 247.484C160.589 250.073 161.891 252.466 163.67 254.484C164.88 255.874 166.31 257.084 167.47 258.534C168.693 259.85 169.362 261.587 169.34 263.384C169.03 265.864 166.34 267.004 163.88 267.284C160.99 267.624 157.95 267.284 155.04 267.564C152.13 267.844 149.25 268.844 147.89 271.214C147.39 272.074 147.08 273.114 146.24 273.634C145.446 273.999 144.554 274.094 143.7 273.904C141.251 273.486 138.865 272.757 136.6 271.734C135.73 273.174 134.94 274.624 134.21 276.084C135.105 276.485 135.946 276.999 136.71 277.614C139.02 279.524 139.49 281.884 141.6 283.854C143.89 286.014 147.8 287.434 151.37 288.914C154.94 290.394 158.6 292.274 159.64 294.634C160.56 296.734 159.17 298.734 159.1 300.824C159 304.034 162.1 307.304 165.49 310.194C168.88 313.084 172.83 315.864 175 319.054C176.15 320.784 176.75 322.654 175.82 324.224C174.89 325.794 172.62 326.834 170.62 327.954C168.727 328.917 167.031 330.226 165.62 331.814C164.2 333.544 164.62 335.654 163.98 337.724C163.719 338.51 163.284 339.228 162.708 339.823C162.131 340.419 161.428 340.877 160.65 341.164C164.104 343.63 167.814 346.014 171.78 348.314C174.674 349.987 177.687 351.607 180.82 353.174C183.601 353.597 186.35 354.205 189.05 354.994C191.113 355.486 193.086 356.296 194.9 357.394C196.328 358.443 197.666 359.611 198.9 360.884C205.972 363.445 213.175 365.625 220.48 367.414C219.61 367.124 218.75 366.834 217.9 366.534C211.7 364.324 205.5 360.844 205.3 356.924C205.21 354.924 206.7 353.194 208.65 351.734C212.24 349.155 216.496 347.666 220.91 347.444C226.02 347.104 231.99 348.374 235.44 350.974C237.71 352.684 238.69 354.784 240.14 356.724C241.877 359.119 244.432 360.794 247.32 361.434C251.87 362.434 256.32 360.694 260.93 361.374C265.81 362.084 268.98 365.054 271.44 367.694L277.93 374.694C279.48 374.694 281.03 374.694 282.59 374.694H283.12C281.979 372.939 280.934 371.122 279.99 369.254C275.93 362.144 268.05 355.414 257.82 350.354C252.58 347.774 246.68 345.574 242.38 342.464C238.08 339.354 235.84 334.884 239.38 332.144C242.92 329.404 251.14 329.624 257.38 331.524C263.62 333.424 268.63 336.524 274.26 339.044C275.996 339.908 277.866 340.473 279.79 340.714C284.89 341.154 287.02 336.954 292.03 336.814C293.079 336.743 294.114 337.08 294.92 337.754C296.25 339.304 294.78 342.324 293.38 344.014C291.98 345.704 289.58 347.014 287.91 348.564C286.24 350.114 285.39 352.324 287.27 354.164C290.2 357.044 297.94 357.544 300.51 360.494C302.93 363.274 299.04 365.984 299.51 368.914C299.77 370.634 301.51 372.294 303.23 373.914C308.07 373.554 312.88 373.064 317.63 372.444C315.226 371.373 312.932 370.07 310.78 368.554C308.19 366.494 307.23 363.484 310.15 362.104C311.59 361.404 313.78 361.214 315.56 360.804C320.9 357.884 324.34 353.804 325.26 349.384C325.76 346.914 325.5 344.324 326.08 341.854C326.405 340.434 327.084 339.12 328.052 338.033C329.021 336.946 330.248 336.12 331.62 335.634C332.158 335.401 332.735 335.276 333.32 335.264C334.175 335.306 335.017 335.492 335.81 335.814C340.72 337.494 346.06 339.494 348.02 342.514C349.66 345.044 348.42 347.654 346.2 349.654C344.14 351.534 341.12 353.374 341.89 355.784C342.38 357.314 344.38 358.694 346.62 359.724C351.62 362.004 357.76 362.874 363.24 364.634C368.72 366.394 374.03 369.844 372.83 373.034C371.27 377.134 360.83 377.254 357.43 380.824C356.779 381.601 356.253 382.475 355.87 383.414C357.307 384.928 358.819 386.37 360.4 387.734C365.021 386.672 369.784 386.378 374.5 386.864C378.091 387.151 381.612 388.012 384.93 389.414C392.5 392.874 394.1 399.414 389.73 403.544C389.53 403.724 389.32 403.904 389.1 404.074C390.7 404.684 392.32 405.254 393.97 405.804C395.245 405.062 396.584 404.436 397.97 403.934C403.71 401.934 412.04 402.124 418.63 404.504C421.409 405.523 424.044 406.898 426.47 408.594C428.471 409.89 430.267 411.478 431.8 413.304C434.41 413.514 437.05 413.654 439.71 413.754C437.64 410.184 433.24 406.854 427.59 404.754C425.715 404.145 423.875 403.431 422.08 402.614C420.43 401.744 419.08 400.494 419.38 399.334C419.63 398.726 420.001 398.175 420.47 397.714C421.81 395.944 421.61 393.714 419.94 391.714C418.87 390.474 417.25 388.904 418.67 388.024C419.918 387.52 421.312 387.52 422.56 388.024C423.728 388.474 424.828 389.083 425.83 389.834C428.821 391.918 432.236 393.315 435.83 393.924C442.83 394.924 448.44 391.924 452.77 389.154L459.63 384.724C461.63 383.474 464.04 382.094 467.26 382.394C469.17 382.721 471.055 383.182 472.9 383.774C475.209 384.218 477.55 384.472 479.9 384.534C490.341 385.186 500.559 387.837 510 392.344C512.954 393.763 515.733 395.522 518.28 397.584C519.03 397.174 519.78 396.774 520.51 396.354C522.22 395.354 523.83 394.354 525.39 393.354C523.525 392.144 521.475 391.249 519.32 390.704C518.136 390.558 516.972 390.279 515.85 389.874C515.274 389.661 514.764 389.299 514.374 388.825C513.984 388.35 513.727 387.78 513.63 387.174C513.63 385.234 516.21 385.074 518.15 384.944C519.482 384.838 520.78 384.469 521.967 383.856C523.155 383.244 524.209 382.401 525.067 381.377C525.925 380.353 526.571 379.168 526.967 377.892C527.362 376.616 527.499 375.274 527.37 373.944C527.3 372.944 527.14 371.834 527.82 371.264C528.387 370.911 529.061 370.772 529.72 370.874L545.51 371.374C546.271 369.633 546.866 367.825 547.29 365.974C540.89 365.584 534.51 365.574 528.04 364.394H528.12ZM348.4 273.154C348.801 271.892 349.525 270.758 350.5 269.864C353.5 267.184 359.5 266.114 365.4 266.294C373.55 266.564 382.73 269.454 385.8 274.054C388.46 278.054 386.01 282.114 387.53 286.204C389.53 291.474 397.53 295.674 405.04 299.374L429.49 311.434C438.75 316.004 448.72 321.224 450.97 327.764C451.294 328.48 451.421 329.27 451.338 330.052C451.256 330.834 450.966 331.58 450.5 332.214C448.87 334.274 444.83 335.214 440.77 335.484C433.3 335.944 428.05 334.254 420.59 332.404C419.03 332.024 417.2 331.614 416.36 331.314C415.91 331.154 414.47 330.824 414.47 330.824C409.78 329.534 408.37 329.194 404.59 327.214C402.15 325.924 399.91 324.354 399.22 322.584C398.53 320.814 399.37 319.204 398.87 317.494C398.37 315.784 396.41 313.984 394.52 312.374C391.778 309.853 388.622 307.823 385.19 306.374C381.13 304.804 376.37 304.274 371.8 303.784C367.23 303.294 362.48 302.784 358.4 301.254C354.32 299.724 351.07 296.834 352.05 294.384C352.55 293.124 354.05 292.164 355.05 291.064C358.05 287.904 357.05 283.324 352.49 280.064C351.224 279.29 350.042 278.389 348.96 277.374C348.479 276.794 348.171 276.091 348.072 275.344C347.973 274.598 348.087 273.838 348.4 273.154ZM289.97 253.284C287.65 251.004 286.49 248.284 287.71 246.064C289.66 242.524 297.06 241.124 303.86 241.864C310.66 242.604 317.01 244.954 323.08 247.264C332.02 250.664 341.69 254.624 345.14 260.264C345.617 260.884 345.832 261.667 345.74 262.444C345.408 263.202 344.871 263.853 344.19 264.324C340.47 267.514 336.88 271.104 337.61 275.264C338.15 278.344 341.01 281.364 344.38 284.044C345.95 285.314 347.77 286.774 347.26 288.144C346.88 289.144 345.36 289.754 344.64 290.644C342.99 292.724 345.8 296.064 342.7 297.444C340.04 298.624 335.38 296.944 333.79 294.924C332.2 292.904 332.48 290.734 331.9 288.634C330.95 285.284 327.61 281.964 322.83 279.634C319.68 278.104 315.41 276.384 315.83 274.254C316.027 273.707 316.307 273.195 316.66 272.734C318.14 270.294 316.26 267.044 312.31 265.174C307.834 263.438 303.466 261.434 299.23 259.174C295.69 257.474 292.3 255.564 289.97 253.284ZM222.06 273.684C221.06 273.064 220.06 272.334 219.91 271.534C219.69 270.134 222.18 269.344 223.04 268.114C224.48 266.024 220.96 263.504 217.7 261.724C214.695 260.262 211.85 258.493 209.21 256.444C205.72 253.444 204.56 249.644 206.21 246.554C207.86 243.464 212.21 241.094 217.68 240.324C223.68 239.504 231.84 241.114 234.48 244.734C235.09 245.708 235.536 246.775 235.8 247.894C237.42 252.894 242.66 258.334 251.08 260.324C256.61 261.634 262.38 261.214 268.01 261.184C278.652 261.156 289.251 262.517 299.54 265.234C304.77 266.624 310.63 269.064 310.78 272.184C310.88 274.314 308.06 275.924 304.78 276.544C301.183 277.017 297.543 277.087 293.93 276.754C291.82 277.464 287.68 278.884 286.93 280.634C286.35 282.034 287.39 283.634 288 285.114C288.61 286.594 288.64 288.384 286.64 289.114C284.84 289.804 282.07 289.384 280.05 288.534C278.221 287.654 276.48 286.603 274.85 285.394C269.88 282.201 264.285 280.107 258.44 279.254C250.35 278.034 242.25 279.254 234.19 277.894C229.92 277.259 225.806 275.831 222.06 273.684ZM256.12 354.824C257.02 355.604 257.72 356.724 256.64 357.234C255.997 357.448 255.314 357.52 254.64 357.444C251.41 357.344 248.07 357.934 245.4 355.824C242.73 353.714 241.88 351.364 239.23 349.414C234.92 346.244 228.34 344.044 221.84 343.614C215.34 343.184 209.04 344.534 205.19 347.174C204.04 347.964 203.09 348.844 201.81 349.564C198.1 351.644 191.81 351.854 186.3 350.564C181.388 349.416 176.85 347.03 173.12 343.634C171.885 342.609 170.914 341.302 170.29 339.824C169.29 336.674 172.08 333.914 175.29 331.714C178.5 329.514 182.35 327.504 183.92 324.714C185.34 322.134 184.63 319.014 182 316.374C178 312.304 170 309.604 166.53 305.374C163.06 301.144 165.65 296.324 171.94 294.594C175.94 293.494 180.94 293.594 185.62 294.394C192.722 295.605 199.538 298.125 205.72 301.824C210.28 304.524 214.37 308.124 213.42 311.464C212.55 314.524 207.55 316.704 208.11 319.924C208.56 322.624 212.79 324.924 216.85 326.604C220.91 328.284 225.5 329.964 227.72 332.524C229.58 334.664 229.4 337.044 230.72 339.294C234.62 345.874 249.29 348.824 256.12 354.824ZM262.05 316.324C261.19 318.144 258.68 319.534 258.28 321.454C257.88 323.374 259.2 325.744 256.53 326.584C254.76 327.124 252.36 326.514 250.2 326.354C246.11 326.044 242.71 327.354 238.97 327.974C235.23 328.594 228.78 327.344 225.54 325.634C223.071 324.398 220.861 322.701 219.03 320.634C217.38 318.554 217.39 316.184 219.03 314.434C221.1 312.244 225.66 310.434 224.16 307.814C223.56 306.744 222.04 305.874 220.59 305.044L209.84 298.984C207.71 297.764 205.41 296.384 205.09 294.774C204.86 293.574 205.86 292.484 207.22 291.694C211.35 289.354 219.22 289.504 224.35 292.004C227.7 293.634 229.77 295.944 232.67 297.834C236.11 300.074 240.62 301.644 245.04 303.164C249.46 304.684 253.95 306.244 257.43 308.464C260.91 310.684 263.26 313.724 262.12 316.284L262.05 316.324ZM294.62 326.964C294.536 327.234 294.412 327.491 294.25 327.724C290.87 330.774 288.99 335.114 282.65 335.914C278.37 336.464 273.51 334.624 270.45 332.394C266.72 329.644 264.78 326.174 265.23 323.014C265.65 320.014 268.13 317.304 267.78 314.214C267.51 311.744 265.43 309.274 262.78 307.074C259.414 304.313 255.67 302.05 251.66 300.354C247.75 298.654 243.42 297.294 239.76 295.404C236.1 293.514 233.02 290.874 233.24 288.294C233.42 286.034 236.15 284.294 239.6 283.454C243.409 282.71 247.313 282.592 251.16 283.104C258.813 283.846 266.28 285.907 273.23 289.194C275.71 290.414 278.12 291.884 278.84 293.644C279.37 294.904 278.95 296.144 278.84 297.374C278.54 299.924 279.84 302.994 283.84 304.574C286.59 305.654 289.96 305.784 292.99 306.494C296.02 307.204 299.06 309.244 297.78 310.754C297.194 311.248 296.553 311.674 295.87 312.024C293.72 313.554 294.8 316.024 295.43 318.134C296.302 321.056 296.023 324.201 294.65 326.924L294.62 326.964ZM338.56 331.164C337.37 332.494 333.84 332.114 331.11 332.164C326.35 332.304 322.72 334.294 320.94 336.704C319.16 339.114 318.94 341.934 318.71 344.704C318.55 346.704 318.38 348.794 318.22 350.854C318.243 352.169 317.862 353.46 317.13 354.554C315.42 356.754 310.77 357.784 306.3 357.284C301.83 356.784 297.15 355.054 294.85 352.654C294.6 352.337 294.373 352.003 294.17 351.654C293.38 349.604 294.41 348.534 295.81 346.784C296.74 345.634 298.1 344.644 299.09 343.504C301.41 340.854 301.51 337.604 301.59 334.454C301.73 328.974 301.85 323.504 301.99 318.024C302.05 316.024 302.11 313.854 303.64 312.144C305.64 309.894 310.17 308.644 314.87 309.024C319.57 309.404 324.22 311.394 326.4 313.954C327.82 315.654 328.2 317.504 329.04 319.274C330.552 322.247 332.787 324.791 335.54 326.674C337.44 328.054 339.79 329.824 338.59 331.124L338.56 331.164ZM343.15 323.414C337.52 320.524 339.69 315.484 335.9 311.784C333.21 309.154 328 307.664 323.12 306.694C319.317 305.896 315.453 305.418 311.57 305.264C307.91 305.174 304.33 305.504 300.65 305.144C297.021 304.817 293.493 303.774 290.27 302.074C288.27 300.994 286.59 299.454 287.06 298.074C287.77 296.074 292.43 295.734 294.41 294.134C297.28 291.804 293.59 288.134 293.6 285.134C293.6 281.524 299.49 278.954 305.81 279.234C312.13 279.514 318.36 282.184 321.91 285.514C324.85 288.274 326.15 291.384 328.3 294.324C330.744 297.553 333.732 300.331 337.13 302.534C339.165 303.94 341.382 305.064 343.72 305.874C349.44 307.764 355.93 307.384 362.05 307.344C366.496 307.228 370.942 307.563 375.32 308.344C379.71 309.224 383.97 310.854 386.58 313.154C388.4 314.764 390.1 317.274 388.67 318.724C387.24 320.174 383.67 319.964 380.91 318.864C380.409 318.716 379.892 318.628 379.37 318.604C375.579 318.403 371.778 318.74 368.08 319.604C363.94 320.714 360.83 322.694 356.82 323.914C352.81 325.134 347.12 325.394 343.18 323.374L343.15 323.414ZM372.85 365.824C369.6 364.664 365.06 361.824 361.93 360.634C359.71 359.754 356.71 358.884 354.44 358.064C352.17 357.244 350.12 355.824 350.12 354.424C350.05 352.684 352.7 351.624 354.58 350.424C359.4 347.354 359.33 341.954 354.44 338.044C352.91 336.824 350.98 335.744 349.62 334.454C348.26 333.164 347.62 331.534 348.83 330.454C350.96 328.604 356.34 329.654 360.24 329.174C365.7 328.504 367.88 324.824 372.93 323.614C377.98 322.404 384.61 324.014 390.16 325.774C396.16 327.684 402.01 329.774 406.76 332.714C411.51 335.654 414.97 339.374 414.95 343.034C414.93 346.694 410.82 350.034 404.63 350.404C401.96 350.574 399.13 350.214 396.38 350.134C393.63 350.054 390.7 350.334 389.17 351.504C386.99 353.204 388.55 355.864 390.24 358.064C391.93 360.264 393.67 362.894 391.73 364.694C390.466 365.622 388.999 366.236 387.45 366.484C384.939 367.137 382.34 367.386 379.75 367.224C377.411 366.98 375.1 366.511 372.85 365.824ZM453.18 381.474C452.55 383.574 450.48 385.294 448.23 386.844C446.534 388.1 444.586 388.973 442.52 389.404C439.379 389.832 436.184 389.614 433.13 388.764C430.27 388.074 427.508 387.026 424.91 385.644C422.72 384.454 420.7 383.014 417.99 382.374C413.48 381.284 408.52 383.374 409.27 386.094C409.92 388.434 413.84 390.444 414.35 392.784C414.8 394.784 412.53 396.454 410.35 397.844C408.65 399.194 406.525 399.895 404.355 399.82C402.185 399.745 400.113 398.899 398.51 397.434C397.321 396.214 396.262 394.873 395.35 393.434C392.956 390.568 389.953 388.273 386.56 386.714L385.83 386.514C382.05 384.074 375.95 384.274 370.71 383.704C369.61 383.594 368.3 383.334 367.89 382.704C367.812 382.57 367.771 382.418 367.771 382.264C367.771 382.109 367.812 381.957 367.89 381.824C369.43 378.534 378 377.824 378.53 374.364C378.68 373.364 378.1 372.244 378.6 371.364C379.36 369.974 382.26 369.514 384.92 369.574C387.58 369.634 390.32 370.044 392.83 369.754C396.36 369.344 398.83 367.424 398.54 365.274C398.16 362.184 392.95 359.094 394.05 356.194C394.74 354.434 397.71 353.404 400.83 353.084C403.95 352.764 407.29 352.994 410.52 352.944C412.608 352.804 414.703 352.804 416.79 352.944C421.1 353.394 424.86 355.324 428.13 357.224C434.403 360.832 440.357 364.967 445.93 369.584C450.32 373.234 454.37 377.514 453.18 381.444V381.474ZM520.13 377.174C517.43 379.064 512.72 379.624 508.18 379.804C503 380.004 497.49 378.094 492.26 376.404C487.46 374.844 482.67 373.134 477.83 371.884C476.01 371.414 474.31 371.164 473.53 372.944C472.93 374.314 473.77 376.124 472.65 377.274C471.18 378.754 466.92 378.514 464.21 377.274C461.5 376.034 459.92 374.214 458.27 372.494C451.35 365.284 441.27 358.864 429.47 354.104C427.38 353.254 425.14 352.414 423.88 351.154C423.36 350.597 422.973 349.93 422.746 349.203C422.519 348.476 422.459 347.707 422.57 346.954C422.57 344.544 422.64 342.124 422.68 339.694C422.647 339.392 422.683 339.087 422.785 338.801C422.887 338.515 423.053 338.256 423.27 338.044C424.12 337.354 425.92 337.314 427.51 337.434C433.51 337.884 439.63 339.944 445.4 339.504C450.05 339.154 453.4 337.234 457.05 335.744C461.212 334.082 465.555 332.917 469.99 332.274C476.09 331.364 483.23 331.274 489.27 333.414C495.31 335.554 499.14 340.414 495.78 343.364C494.7 344.364 493.01 344.984 492.1 346.014C490.1 348.224 492.35 351.284 495.44 353.554C499.1 356.244 503.85 358.374 508.37 360.554C512.89 362.734 517.37 365.204 520.08 368.184C522.79 371.164 523.35 374.874 520.12 377.144L520.13 377.174ZM129.95 300.094C130.529 302.748 131.325 305.35 132.33 307.874C132.979 308.53 133.513 309.29 133.91 310.124C134.297 310.952 134.515 311.85 134.55 312.764C135.587 314.776 136.735 316.729 137.99 318.614C138.415 317.564 138.749 316.48 138.99 315.374C139.471 313.467 139.459 311.47 138.957 309.568C138.455 307.667 137.479 305.925 136.12 304.504C134.343 302.678 132.253 301.184 129.95 300.094Z" fill="white"/>
<path d="M342.6 257.613C343.79 264.953 343.17 266.043 342.6 269.083C342.03 272.123 337.3 289.473 337.3 289.473C339.973 291.607 342.133 294.313 343.62 297.393C345.12 300.393 347.72 305.973 349.68 309.653C349.955 310.376 350.39 311.027 350.953 311.557C351.516 312.087 352.192 312.482 352.93 312.713C354.205 313.157 355.273 314.054 355.93 315.233C356.54 316.713 356.02 318.183 355.64 319.643C355.054 321.545 354.877 323.549 355.12 325.523C355.477 326.734 355.655 327.991 355.65 329.253C355.383 330.541 354.715 331.711 353.74 332.593C352.4 334.1 350.636 335.167 348.68 335.653C348.409 335.739 348.121 335.758 347.841 335.709C347.561 335.66 347.296 335.545 347.07 335.373C346.912 335.153 346.8 334.903 346.742 334.638C346.683 334.373 346.679 334.1 346.73 333.833C346.82 332.303 346.81 330.733 346.99 329.213C347.052 327.945 346.924 326.674 346.61 325.443C346.145 322.723 345.261 320.092 343.99 317.643C342.21 314.393 339.52 311.583 337.08 308.823C328.97 299.673 325.95 297.473 323.89 293.633C321.83 289.793 323 264.503 323 264.503L342.6 257.613Z" fill="#F28F8F"/>
<path d="M337.78 260.533C337.46 265.343 329.6 275.533 329.6 275.533L316.96 294.113C318.751 297.167 319.831 300.585 320.12 304.113C320.44 307.583 320.9 313.903 321.43 318.173C321.67 320.113 321.86 320.923 323.43 322.333C324.505 323.231 325.216 324.489 325.43 325.873C325.43 327.533 324.43 328.763 323.51 330.023C322.237 331.642 321.323 333.514 320.83 335.513C320.727 336.809 320.434 338.083 319.96 339.293C319.228 340.44 318.149 341.322 316.88 341.813C315.034 342.767 312.943 343.143 310.88 342.893C310.586 342.877 310.3 342.79 310.047 342.638C309.795 342.486 309.583 342.275 309.43 342.023C309.359 341.753 309.343 341.47 309.384 341.194C309.426 340.917 309.523 340.651 309.67 340.413C310.32 338.963 310.9 337.413 311.67 336.053C312.194 334.852 312.532 333.577 312.67 332.273C313.234 329.476 313.356 326.608 313.03 323.773C312.52 319.983 310.97 316.273 309.64 312.713C305.2 300.873 303.11 297.643 302.54 293.173C301.97 288.703 313.42 264.823 313.42 264.823L337.78 260.533Z" fill="#FFA8A7"/>
<path d="M313.42 263.893C317.656 265.919 322.332 266.847 327.02 266.593C337.6 265.953 341.62 260.513 342.68 258.373C344.16 264.613 343.54 268.123 341.76 275.113C340.13 281.483 338.37 286.603 338.37 286.603C338.37 286.603 333.99 291.063 322.65 288.433V286.253L319.6 291.253C316.165 291.711 312.679 290.946 309.75 289.093C304.42 285.953 304.28 283.573 304.28 283.573L313.42 263.893Z" fill="#71C1EE"/>
<path opacity="0.15" d="M330.599 274.183L322.649 286.253V288.433C323.688 288.679 324.74 288.87 325.799 289.003V286.563L331.859 276.983C338.969 274.773 339.419 270.203 339.419 270.203C337.058 272.554 333.924 273.968 330.599 274.183Z" fill="black"/>
<path d="M317.31 199.674C317.297 198.154 317.13 196.639 316.81 195.154C316.582 193.675 316.491 192.179 316.54 190.684C316.562 189.561 316.814 188.455 317.28 187.434C318.278 185.786 319.837 184.554 321.67 183.964C322.364 183.843 323.006 183.515 323.51 183.024C323.78 182.664 323.95 182.134 324.39 182.024C324.585 182.021 324.774 182.085 324.927 182.205C325.08 182.325 325.187 182.494 325.23 182.684C325.64 183.864 324.84 185.284 324.45 186.384C324 187.685 323.665 189.023 323.45 190.384C323.39 190.744 323.45 191.224 323.75 191.324C324.42 191.534 325.33 190.324 325.75 189.884C325.975 189.587 326.268 189.349 326.603 189.189C326.939 189.029 327.308 188.952 327.68 188.964C327.92 188.964 328.17 189.154 328.17 189.384C328.159 189.491 328.122 189.594 328.06 189.684C328.06 189.934 327.66 190.354 327.53 190.584L326.93 191.584C326.54 192.244 326.15 192.914 325.75 193.584C325.04 194.804 323.87 196.504 323.89 197.994C323.89 198.754 325.72 210.794 326.61 213.494C326.61 213.494 331.39 218.804 335.61 222.834C338.67 225.744 343.17 227.204 342.35 235.254C341.87 240.694 338.62 242.454 336.1 239.604C332.28 235.294 324.4 226.234 319.71 220.214C317.71 217.594 317.48 217.054 317.41 213.974C317.29 209.984 317.29 200.824 317.31 199.674Z" fill="#F28F8F"/>
<path d="M341.88 232.194C340.88 229.394 339.59 225.924 334.37 226.514C328.995 227.143 323.714 228.412 318.64 230.294C315.35 231.474 313.39 232.174 313.84 241.044C314.29 249.914 314.42 259.954 313.42 263.894C317.66 267.554 327.67 267.964 332.42 266.894C342.31 264.734 342.95 260.264 342.95 260.264C342.378 256.378 342.044 252.46 341.95 248.533C341.71 241.903 342.95 235.104 341.88 232.194Z" fill="#FFA8A7"/>
<path d="M321.729 222.804L322.809 232.914L331.859 232.924L330.809 221.474L321.729 222.804Z" fill="#FFA8A7"/>
<path d="M313.92 243.004C313.92 243.234 313.92 244.374 313.92 244.914C316.26 246.064 316.83 249.014 316.83 249.014C316.83 249.014 316.54 244.864 313.88 243.014L313.92 243.004Z" fill="#F28F8F"/>
<path d="M315.48 211.073C315.48 211.073 312.89 214.523 313.14 214.893C313.39 215.263 315.14 215.683 315.14 215.683L315.48 211.073Z" fill="#F28F8F"/>
<path d="M322.519 203.194C317.839 202.964 315.859 205.024 315.019 211.694C314.149 218.694 315.159 221.434 316.149 222.434C316.819 223.114 320.729 223.434 322.739 223.124C325.249 222.684 330.939 221.294 333.739 217.934C337.059 213.994 338.189 208.424 335.019 205.934C330.589 202.384 324.499 203.284 322.519 203.194Z" fill="#FFA8A7"/>
<path d="M318.4 206.523C318.19 206.523 317.78 207.703 318.65 208.523C318.957 208.761 319.324 208.91 319.711 208.952C320.097 208.994 320.488 208.929 320.84 208.763C320.351 209.628 320.148 210.626 320.26 211.613C320.47 212.323 320.96 212.693 321.82 213.073C321.82 213.073 322.72 210.543 325.18 211.023C327.64 211.503 327.83 214.323 326.18 215.923C324.53 217.523 323.12 216.823 323.12 216.823C323.12 216.823 322.98 220.523 324.72 222.733C326.68 223.238 328.724 223.323 330.72 222.983C333.14 222.683 335.29 220.453 337 217.823C340.55 212.363 342.12 206.563 337.93 204.703C338.226 203.624 338.146 202.476 337.705 201.448C337.263 200.42 336.486 199.572 335.5 199.043C334.63 198.498 333.641 198.17 332.617 198.088C331.594 198.006 330.565 198.173 329.62 198.573C329.49 198.633 328.97 197.513 328.92 197.433C328.528 196.896 328.009 196.463 327.41 196.173C326.542 195.769 325.597 195.561 324.64 195.563C323.543 195.513 322.452 195.744 321.47 196.233C321.013 196.457 320.609 196.776 320.286 197.169C319.963 197.563 319.729 198.021 319.6 198.513C319.6 198.283 317.82 198.203 317.66 198.183C317.168 198.135 316.672 198.214 316.22 198.413C315.255 198.78 314.454 199.479 313.961 200.386C313.467 201.292 313.314 202.344 313.53 203.353C313.624 203.849 313.807 204.323 314.07 204.753C314.597 205.374 315.265 205.858 316.019 206.166C316.772 206.474 317.589 206.597 318.4 206.523Z" fill="#263238"/>
<path d="M337.979 205.043L340.979 203.523C340.778 203.125 340.426 202.824 340.003 202.685C339.579 202.546 339.117 202.582 338.719 202.783C338.322 202.985 338.02 203.336 337.881 203.76C337.743 204.184 337.778 204.645 337.979 205.043Z" fill="#263238"/>
<path d="M290.91 211.673C290.744 210.162 290.425 208.671 289.96 207.223C289.583 205.776 289.342 204.296 289.24 202.803C289.145 201.684 289.284 200.556 289.65 199.493C290.467 197.754 291.889 196.372 293.65 195.603C294.328 195.406 294.933 195.013 295.39 194.473C295.62 194.093 295.73 193.543 296.17 193.473C296.362 193.453 296.555 193.499 296.719 193.602C296.882 193.706 297.006 193.861 297.07 194.043C297.6 195.183 296.94 196.673 296.67 197.803C296.348 199.116 296.144 200.455 296.06 201.803C296.06 202.163 296.06 202.643 296.46 202.713C297.14 202.853 297.92 201.513 298.26 201.083C298.456 200.765 298.725 200.497 299.045 200.302C299.365 200.108 299.727 199.991 300.1 199.963C300.33 199.963 300.6 200.103 300.62 200.343C300.623 200.449 300.595 200.553 300.54 200.643C300.447 200.98 300.302 201.301 300.11 201.593L299.61 202.673L298.61 204.773C298.02 206.053 297.03 207.873 297.19 209.343C297.28 210.103 300.31 221.893 301.47 224.493C301.47 224.493 303.73 225.613 309.47 227.803C311.327 228.439 313.229 228.937 315.16 229.293C316.626 229.759 318.162 229.972 319.7 229.923C320.55 234.873 317.44 246.263 314.64 243.683C310.41 239.783 303.77 236.593 296.24 232.203C294.15 230.983 293.01 230.203 292.55 227.203C292.12 223.743 291 212.823 290.91 211.673Z" fill="#FFA8A7"/>
<path opacity="0.4" d="M355.91 315.233C355.253 314.054 354.185 313.157 352.91 312.713C352.172 312.483 351.496 312.087 350.933 311.557C350.37 311.027 349.935 310.376 349.66 309.653C347.66 305.973 345.1 300.423 343.6 297.393C342.113 294.313 339.953 291.607 337.28 289.473L337.97 286.943C338.11 286.838 338.243 286.724 338.37 286.603C338.37 286.603 340.13 281.483 341.76 275.113C343.5 268.303 344.12 264.783 342.76 258.833C342.7 258.453 342.64 258.053 342.57 257.633C342.44 256.473 342.29 254.933 342.16 253.023C342.16 253.433 342.28 258.293 333.79 260.533C323.27 263.303 316.08 261.263 314.01 258.873C313.96 260.556 313.753 262.23 313.39 263.873L304.25 283.523C304.296 283.832 304.398 284.131 304.55 284.403C303.2 288.343 302.27 291.713 302.45 293.133C303.02 297.603 305.11 300.833 309.55 312.673C310.88 316.233 312.43 319.943 312.94 323.733C313.266 326.568 313.144 329.436 312.58 332.233C312.442 333.537 312.104 334.812 311.58 336.013C310.85 337.413 310.27 338.923 309.58 340.373C309.433 340.611 309.335 340.877 309.294 341.154C309.253 341.431 309.269 341.713 309.34 341.983C309.493 342.236 309.704 342.447 309.957 342.598C310.21 342.75 310.496 342.837 310.79 342.853C312.853 343.103 314.944 342.727 316.79 341.773C318.059 341.283 319.138 340.4 319.87 339.253C320.344 338.043 320.637 336.769 320.74 335.473C321.233 333.474 322.147 331.602 323.42 329.983C324.33 328.723 325.42 327.493 325.34 325.833C325.126 324.45 324.415 323.191 323.34 322.293C321.77 320.883 321.58 320.073 321.34 318.133C320.81 313.863 320.34 307.543 320.03 304.073C319.741 300.545 318.661 297.127 316.87 294.073L318.76 291.293C319.012 291.275 319.262 291.242 319.51 291.193L322.56 286.193V288.373C322.652 288.399 322.746 288.419 322.84 288.433C322.868 290.187 323.185 291.924 323.78 293.573C325.84 297.413 328.86 299.573 336.97 308.763C339.41 311.523 342.1 314.333 343.88 317.583C345.151 320.032 346.035 322.664 346.5 325.383C346.814 326.614 346.943 327.885 346.88 329.153C346.7 330.673 346.71 332.243 346.62 333.773C346.569 334.04 346.573 334.314 346.632 334.578C346.69 334.843 346.802 335.093 346.96 335.313C347.186 335.485 347.451 335.6 347.731 335.649C348.011 335.698 348.299 335.679 348.57 335.593C350.527 335.107 352.29 334.04 353.63 332.533C354.605 331.651 355.274 330.481 355.54 329.193C355.545 327.931 355.367 326.674 355.01 325.463C354.767 323.489 354.944 321.485 355.53 319.583C356 318.183 356.52 316.713 355.91 315.233Z" fill="#71C1EE"/>
<path d="M258.109 176.394C272.645 176.394 284.429 164.61 284.429 150.074C284.429 135.538 272.645 123.754 258.109 123.754C243.573 123.754 231.789 135.538 231.789 150.074C231.789 164.61 243.573 176.394 258.109 176.394Z" fill="#F5F5F5"/>
<path d="M273.819 128.964C273.808 130.295 273.366 131.586 272.559 132.644L274.979 135.474C276.734 135.227 278.522 135.346 280.229 135.824C278.52 133.172 276.349 130.848 273.819 128.964Z" fill="#71C1EE"/>
<path opacity="0.5" d="M273.819 128.964C273.808 130.295 273.366 131.586 272.559 132.644L274.979 135.474C276.734 135.227 278.522 135.346 280.229 135.824C278.52 133.172 276.349 130.848 273.819 128.964Z" fill="white"/>
<path d="M269.119 173.974C272.994 172.179 276.375 169.469 278.97 166.077C281.566 162.685 283.299 158.714 284.019 154.504C284.019 154.434 282.679 141.584 275.129 137.364L273.629 138.304C273.629 138.304 276.369 145.204 275.229 155.934C274.029 167.504 271.029 171.004 269.119 173.974Z" fill="#71C1EE"/>
<path opacity="0.5" d="M269.119 173.974C272.994 172.179 276.375 169.469 278.97 166.077C281.566 162.685 283.299 158.714 284.019 154.504C284.019 154.434 282.679 141.584 275.129 137.364L273.629 138.304C273.629 138.304 276.369 145.204 275.229 155.934C274.029 167.504 271.029 171.004 269.119 173.974Z" fill="white"/>
<path d="M246.799 143.724C235.619 153.724 235.369 163.334 235.369 163.334C237.274 166.588 239.851 169.397 242.929 171.574C243.929 171.354 251.769 169.384 260.329 160.244C269.499 150.434 271.879 137.834 271.879 137.834L268.989 135.044C268.989 135.044 257.979 133.674 246.799 143.724Z" fill="#71C1EE"/>
<path opacity="0.5" d="M246.799 143.724C235.619 153.724 235.369 163.334 235.369 163.334C237.274 166.588 239.851 169.397 242.929 171.574C243.929 171.354 251.769 169.384 260.329 160.244C269.499 150.434 271.879 137.834 271.879 137.834L268.989 135.044C268.989 135.044 257.979 133.674 246.799 143.724Z" fill="white"/>
<path d="M243.559 128.143C255.989 123.413 268.499 133.143 268.499 133.143L270.119 131.823C269.167 129.134 267.555 126.726 265.429 124.823C261.758 123.774 257.904 123.531 254.131 124.111C250.358 124.691 246.754 126.08 243.569 128.183L243.559 128.143Z" fill="#71C1EE"/>
<path opacity="0.5" d="M243.559 128.143C255.989 123.413 268.499 133.143 268.499 133.143L270.119 131.823C269.167 129.134 267.555 126.726 265.429 124.823C261.758 123.774 257.904 123.531 254.131 124.111C250.358 124.691 246.754 126.08 243.569 128.183L243.559 128.143Z" fill="white"/>
<g style="mix-blend-mode:soft-light">
<path d="M262.319 128.484L262.609 128.414C262.969 128.344 263.389 128.194 263.469 127.834C263.486 127.632 263.433 127.431 263.319 127.264C262.449 125.764 260.449 125.444 258.879 125.264C257.099 125.09 255.302 125.304 253.612 125.891C251.922 126.478 250.379 127.424 249.089 128.664C248.732 128.998 248.429 129.386 248.189 129.814C248.039 130.094 247.629 130.734 247.799 131.034C247.969 131.334 248.299 131.274 248.579 131.214C250.149 130.874 251.659 130.314 253.209 129.924C256.199 129.214 259.309 129.104 262.319 128.484Z" fill="white"/>
</g>
<g style="mix-blend-mode:soft-light">
<path d="M264.119 126.824C264.247 127.088 264.444 127.313 264.689 127.474C265.649 128.192 266.833 128.547 268.029 128.474C268.429 128.474 268.889 128.334 269.029 127.964C269.169 127.594 268.819 127.094 268.439 126.814C267.671 126.216 266.762 125.823 265.799 125.674C265.119 125.644 263.639 125.824 264.119 126.824Z" fill="white"/>
</g>
<path d="M273.449 133.354C275.099 134.904 275.739 136.904 274.869 137.834C273.999 138.764 271.959 138.264 270.309 136.724C268.659 135.184 268.019 133.174 268.889 132.244C269.759 131.314 271.799 131.824 273.449 133.354Z" fill="#455A64"/>
<path opacity="0.07" d="M284.429 150.074C284.43 147.302 283.991 144.548 283.129 141.914C287.739 167.484 256.579 175.184 244.809 160.644C230.809 143.334 243.559 128.144 252.749 124.304C247.877 125.317 243.393 127.691 239.815 131.149C236.238 134.608 233.714 139.009 232.537 143.844C231.359 148.678 231.576 153.748 233.163 158.464C234.749 163.18 237.64 167.35 241.5 170.49C245.36 173.63 250.031 175.611 254.972 176.205C259.912 176.798 264.92 175.978 269.413 173.841C273.907 171.704 277.703 168.337 280.36 164.13C283.018 159.924 284.429 155.05 284.429 150.074Z" fill="black"/>
<path opacity="0.1" d="M243.243 253.807C230.923 247.327 210.943 247.327 198.613 253.807C187.283 259.807 187.293 273.007 198.613 278.957C210.943 285.447 230.923 285.447 243.243 278.957C254.573 273.007 254.573 259.777 243.243 253.807Z" fill="black"/>
<path d="M243.662 247.157C231.342 240.047 211.362 240.047 199.042 247.157C193.702 250.237 190.882 255.087 190.572 260.037H207.132C208.022 258.863 209.15 257.892 210.442 257.187C216.442 253.717 226.232 253.717 232.262 257.187C233.555 257.892 234.683 258.863 235.572 260.037H252.132C251.822 255.037 249.002 250.157 243.662 247.157Z" fill="#455A64"/>
<path d="M243.291 286.024C243.621 286.934 242.571 289.384 238.441 291.114C234.311 292.844 230.091 293.734 229.291 292.064C228.491 290.394 227.961 286.434 230.691 284.714C233.421 282.994 237.891 281.254 240.221 282.784C241.514 283.572 242.574 284.691 243.291 286.024Z" fill="#37474F"/>
<path d="M234.44 262.014C236.68 267.384 238.53 272.804 240.6 278.614C241.951 282.48 243.014 286.44 243.78 290.464C244.12 292.104 243.51 295.354 243.26 297.034C242.21 303.804 241.26 310.594 240.26 317.384C239.73 321.114 239.2 324.764 240.38 328.444C241.187 330.956 242.582 333.239 244.45 335.104C244.98 335.644 245.87 336.214 245.75 337.104C245.63 337.994 244.75 338.254 244.04 338.414C242.823 338.725 241.546 338.704 240.341 338.352C239.135 338 238.047 337.331 237.19 336.414C235.89 334.784 235.6 332.484 234.14 331.004C233.14 330.004 231.63 329.364 231.29 328.004C231.259 327.872 231.239 327.738 231.23 327.604C231.13 326.174 232.23 324.994 232.59 323.684C232.769 322.484 232.769 321.264 232.59 320.064C232.4 316.264 232.12 312.474 231.72 308.694C230.98 301.694 229.94 301.364 232.1 295.594L221.35 273.664L234.44 262.014Z" fill="#B16668"/>
<path d="M222.93 269.495C223.74 274.235 223.93 280.175 224.27 284.105C224.49 287.035 224.88 289.855 225.19 296.305C225.28 297.975 223.96 300.425 222.06 302.695C217.66 307.955 213.06 313.365 208.85 318.755C206.53 321.705 204.24 324.605 203.41 328.375C203.04 330.078 202.939 331.829 203.11 333.565C203.199 334.446 203.36 335.319 203.59 336.175C203.78 336.915 204.26 337.855 203.71 338.555C203.16 339.255 202.31 339.065 201.59 338.825C200.379 338.479 199.285 337.814 198.42 336.899C197.556 335.984 196.955 334.853 196.68 333.625C196.37 331.565 197.28 329.435 196.75 327.415C196.4 326.055 195.41 324.735 195.75 323.415C195.791 323.285 195.841 323.158 195.9 323.035C196.53 321.755 198.07 321.285 199.04 320.325C199.794 319.378 200.401 318.323 200.84 317.195C202.58 313.805 204.08 310.735 205.63 307.265C208.5 300.865 208.16 299.455 212.1 295.335C212.1 295.335 209.1 283.155 207.73 278.085C206.73 274.315 207 270.425 207.52 263.735L208.14 262.895L222.93 269.495Z" fill="#B16668"/>
<path d="M207.52 263.695C206.8 267.505 206.15 272.695 206.87 276.825C207.59 280.955 211.06 292.575 211.06 292.575C211.06 292.575 219.3 296.495 225.78 291.905C225.68 291.115 224.99 283.035 224.99 283.035L229.33 292.035C229.33 292.035 228.93 288.435 235.33 285.535C240.69 283.115 243.33 285.995 243.33 285.995C243.33 285.995 237.04 267.505 235.43 262.555L207.52 263.695Z" fill="#455A64"/>
<path d="M224.949 283.034L224.359 275.664C224.359 275.664 228.949 273.664 231.199 270.904C231.199 270.904 230.589 274.104 226.139 276.964L225.809 283.434L226.869 287.024L224.949 283.034Z" fill="#37474F"/>
<path d="M267.52 252.684C268.697 252.567 269.863 252.363 271.01 252.074C272.051 251.854 273.026 251.396 273.86 250.734C274.648 250.033 275.244 249.141 275.59 248.144C275.8 247.514 275.91 246.844 276.15 246.214C276.329 245.84 276.456 245.443 276.53 245.034C276.556 244.837 276.522 244.636 276.433 244.458C276.344 244.28 276.203 244.132 276.03 244.034C275.832 243.985 275.626 243.976 275.425 244.009C275.224 244.041 275.032 244.115 274.86 244.224C272.965 245.105 270.98 245.775 268.94 246.224C268.71 246.274 268.4 246.294 268.29 246.084C268.18 245.874 268.29 245.644 268.48 245.464C268.916 244.877 269.195 244.189 269.29 243.464C269.33 243.283 269.33 243.095 269.29 242.914C269.264 242.825 269.213 242.746 269.144 242.684C269.075 242.622 268.991 242.581 268.9 242.564C268.694 242.581 268.504 242.678 268.37 242.834L267.54 243.584C267.31 243.824 267.055 244.039 266.78 244.224L265.09 245.074C264.239 245.636 263.288 246.029 262.29 246.234C261.57 246.284 251.41 245.784 248.79 245.164C248.79 245.164 241.49 237.094 237.49 233.474C233.81 230.154 231.49 230.984 225.76 231.754L231.3 241.504C236.9 246.904 242.05 251.244 243.8 252.334C244.844 252.926 246.02 253.246 247.22 253.264C250.52 253.434 253.85 253.264 257.16 253.264L260.37 253.194C262.7 253.074 265.1 252.944 267.52 252.684Z" fill="#B16668"/>
<path d="M233.521 236.504C234.544 235.353 235.881 234.525 237.368 234.122C238.854 233.719 240.426 233.758 241.891 234.234C241.891 234.234 247.971 239.304 247.731 244.094L246.521 242.744C244.62 242.888 242.84 243.728 241.521 245.104C239.221 247.434 239.441 248.954 239.441 248.954L240.851 250.124C239.859 250.421 238.792 250.347 237.851 249.914C236.051 249.194 231.151 244.854 231.151 244.854C231.151 244.854 228.891 241.354 233.521 236.504Z" fill="#71C1EE"/>
<path opacity="0.1" d="M233.521 236.504C234.544 235.353 235.881 234.525 237.368 234.122C238.854 233.719 240.426 233.758 241.891 234.234C241.891 234.234 247.971 239.304 247.731 244.094L246.521 242.744C244.62 242.888 242.84 243.728 241.521 245.104C239.221 247.434 239.441 248.954 239.441 248.954L240.851 250.124C239.859 250.421 238.792 250.347 237.851 249.914C236.051 249.194 231.151 244.854 231.151 244.854C231.151 244.854 228.891 241.354 233.521 236.504Z" fill="black"/>
<path opacity="0.1" d="M246.151 241.045C243.501 240.265 238.001 244.895 236.761 243.045C235.761 241.535 235.261 237.995 234.311 235.805C234.048 236.024 233.798 236.258 233.561 236.505C228.891 241.355 231.131 244.855 231.131 244.855C231.131 244.855 236.031 249.195 237.831 249.915C238.772 250.347 239.838 250.422 240.831 250.125L239.421 248.955C239.421 248.955 239.201 247.435 241.501 245.105C242.819 243.728 244.6 242.888 246.501 242.745L247.721 244.095C247.747 243.53 247.693 242.964 247.561 242.415C247.445 242.094 247.258 241.805 247.013 241.568C246.769 241.33 246.474 241.151 246.151 241.045Z" fill="black"/>
<path d="M209.729 233.094C206.839 233.684 205.969 235.094 205.629 237.664C205.415 240.018 205.639 242.392 206.289 244.664L207.429 257.274V263.664C210.679 267.864 226.819 268.664 235.339 262.554C235.339 262.554 234.339 245.844 233.759 241.554C232.759 234.154 230.839 231.294 227.279 231.554L217.009 232.234C214.564 232.33 212.13 232.617 209.729 233.094Z" fill="#B16668"/>
<path d="M233.811 212.474C233.8 213.964 233.352 215.418 232.521 216.655C231.69 217.891 230.513 218.856 229.137 219.429C227.762 220.001 226.248 220.156 224.785 219.874C223.322 219.592 221.974 218.886 220.91 217.844C219.845 216.801 219.111 215.468 218.799 214.011C218.487 212.554 218.611 211.038 219.155 209.651C219.698 208.264 220.639 207.067 221.858 206.211C223.077 205.354 224.521 204.876 226.011 204.834C228.057 204.816 230.028 205.609 231.49 207.042C232.952 208.474 233.787 210.428 233.811 212.474Z" fill="#263238"/>
<path d="M210.84 218.975C211.382 221.378 212.05 223.751 212.84 226.085C213.212 226.695 213.802 227.141 214.49 227.335L214.28 223.005L210.84 218.975Z" fill="#263238"/>
<path d="M212.231 210.104C211.767 210.066 211.3 210.136 210.868 210.31C210.436 210.483 210.05 210.755 209.741 211.104C208.741 212.234 209.401 215.664 210.841 219.014L213.311 219.224L212.231 210.104Z" fill="#263238"/>
<path d="M214.05 219.164C213.56 219.474 212.83 218.545 212.2 217.925C211.952 217.657 211.641 217.457 211.295 217.344C210.949 217.23 210.58 217.206 210.222 217.274C209.864 217.342 209.529 217.499 209.249 217.732C208.969 217.965 208.752 218.265 208.62 218.604C207.62 220.764 209.62 223.535 211.22 223.985C213.95 224.755 214.31 222.985 214.31 222.985L214.79 232.724C215.424 234.016 216.367 235.13 217.536 235.967C218.706 236.805 220.064 237.34 221.49 237.525C226.3 238.035 226.14 234.024 224.49 232.124L224.41 229.395C225.606 229.426 226.8 229.274 227.95 228.944C229.46 228.484 230.59 227.534 231.53 225.184C232.79 222.024 232.87 218.605 231.7 212.235C230.33 204.855 221.2 204.894 216.61 207.974C212.02 211.054 214.05 219.164 214.05 219.164Z" fill="#B16668"/>
<path d="M215.52 214.184C215.15 216.334 214.89 219.954 214.05 219.994C213.81 219.994 212.81 218.464 212.18 217.924C211.9 217.684 211.88 217.134 211.85 216.794C211.728 215.511 211.702 214.221 211.77 212.934C211.666 211.521 211.733 210.101 211.97 208.704C212.306 207.683 212.993 206.815 213.91 206.254C215.91 204.964 218.64 205.024 220.91 204.504C223.594 203.957 226.159 202.942 228.49 201.504L229.19 201.054C229.388 200.903 229.631 200.822 229.88 200.824C229.984 200.845 230.083 200.888 230.169 200.95C230.256 201.012 230.328 201.092 230.38 201.184C230.482 201.371 230.55 201.574 230.58 201.784C230.692 202.425 230.709 203.079 230.63 203.724C230.643 204.295 230.508 204.86 230.24 205.364L231.87 204.274C231.978 204.189 232.112 204.143 232.25 204.144C232.48 204.144 232.57 204.454 232.6 204.684C232.655 205.648 232.468 206.611 232.056 207.484C231.643 208.357 231.019 209.114 230.24 209.684C228.658 210.814 226.791 211.479 224.85 211.604C222.92 211.804 220.98 211.684 219.05 211.704C218.215 211.62 217.373 211.747 216.6 212.074C216.286 212.334 216.029 212.655 215.843 213.018C215.657 213.381 215.547 213.778 215.52 214.184Z" fill="#263238"/>
<path d="M212.25 210.654L209.25 209.134C209.34 208.929 209.471 208.745 209.634 208.592C209.798 208.439 209.991 208.322 210.201 208.246C210.412 208.17 210.635 208.138 210.859 208.151C211.082 208.165 211.3 208.223 211.5 208.324C211.898 208.544 212.196 208.908 212.335 209.34C212.475 209.773 212.444 210.243 212.25 210.654Z" fill="#263238"/>
<path d="M224.431 229.414C224.431 229.414 219.651 229.054 217.431 227.724C216.529 227.239 215.768 226.53 215.221 225.664C215.451 226.577 215.893 227.423 216.511 228.134C218.741 230.594 224.521 230.884 224.521 230.884L224.431 229.414Z" fill="#9A4A4D"/>
<path opacity="0.4" d="M230.819 292.884L232.099 295.504C229.939 301.274 230.979 301.634 231.719 308.604C232.119 312.384 232.399 316.174 232.589 319.974C232.769 321.174 232.769 322.394 232.589 323.594C232.229 324.904 231.129 326.084 231.229 327.514C231.239 327.648 231.259 327.782 231.289 327.914C231.629 329.284 233.149 329.914 234.139 330.914C235.599 332.394 235.889 334.694 237.189 336.324C238.047 337.241 239.135 337.91 240.34 338.262C241.546 338.614 242.823 338.635 244.039 338.324C244.789 338.164 245.639 337.774 245.749 337.014C245.859 336.254 244.979 335.564 244.449 335.014C242.582 333.149 241.186 330.866 240.379 328.354C239.199 324.674 239.729 321.024 240.259 317.294C241.259 310.504 242.189 303.714 243.259 296.944C243.509 295.264 244.119 292.014 243.779 290.374C243.539 289.244 243.319 288.224 243.099 287.264C243.324 286.859 243.391 286.385 243.289 285.934C243.289 285.934 236.999 267.444 235.389 262.494C235.389 262.494 235.109 257.754 234.759 252.684C234.849 255.764 231.919 258.684 223.939 259.804C215.239 261.004 208.449 258.804 207.289 255.614L207.429 257.214V263.604C206.709 267.414 206.059 272.604 206.779 276.734C207.499 280.864 210.969 292.484 210.969 292.484L211.479 292.694C211.859 294.224 212.099 295.214 212.099 295.214C208.159 299.334 208.489 300.744 205.629 307.144C204.079 310.614 202.579 313.684 200.839 317.074C200.401 318.202 199.794 319.257 199.039 320.204C198.039 321.204 196.529 321.634 195.899 322.914C195.841 323.037 195.791 323.164 195.749 323.294C195.359 324.644 196.349 325.964 196.749 327.294C197.279 329.294 196.369 331.444 196.679 333.504C196.955 334.732 197.556 335.863 198.42 336.778C199.284 337.693 200.379 338.358 201.589 338.704C202.309 338.944 203.239 339.034 203.709 338.434C204.179 337.834 203.779 336.794 203.589 336.054C203.359 335.198 203.199 334.325 203.109 333.444C202.939 331.709 203.04 329.957 203.409 328.254C204.239 324.484 206.529 321.584 208.849 318.634C213.089 313.244 217.659 307.834 222.059 302.574C223.959 300.304 225.279 297.854 225.189 296.184C225.119 294.704 225.039 293.414 224.969 292.264C225.219 292.114 225.479 291.964 225.739 291.784C225.639 290.994 224.949 282.914 224.949 282.914L229.289 291.914C229.436 292.196 229.655 292.435 229.924 292.605C230.192 292.776 230.501 292.872 230.819 292.884Z" fill="#71C1EE"/>
<path d="M252.132 259.986H235.572C234.68 261.157 233.552 262.128 232.262 262.836C226.262 266.316 216.472 266.316 210.442 262.836C209.152 262.128 208.024 261.157 207.132 259.986H190.572C190.222 265.556 193.042 271.246 199.042 274.696C211.362 281.816 231.342 281.816 243.662 274.696C249.662 271.246 252.482 265.556 252.132 259.986Z" fill="#455A64"/>
<path d="M188.27 275.024C188.336 276.205 188.494 277.378 188.74 278.534C188.907 279.582 189.318 280.575 189.94 281.434C190.61 282.252 191.478 282.885 192.46 283.274C193.08 283.514 193.75 283.654 194.37 283.924C194.737 284.116 195.127 284.261 195.53 284.354C195.734 284.399 195.947 284.379 196.139 284.296C196.331 284.214 196.492 284.073 196.6 283.894C196.658 283.7 196.676 283.496 196.652 283.295C196.628 283.094 196.562 282.899 196.46 282.724C195.668 280.792 195.084 278.781 194.72 276.724C194.72 276.484 194.72 276.184 194.89 276.074C195.06 275.964 195.33 276.144 195.5 276.294C196.063 276.747 196.73 277.053 197.44 277.184C197.621 277.224 197.809 277.224 197.99 277.184C198.08 277.161 198.16 277.112 198.224 277.045C198.288 276.978 198.331 276.895 198.35 276.804C198.343 276.6 198.257 276.407 198.11 276.264L197.4 275.404C197.166 275.166 196.961 274.901 196.79 274.614C196.52 274.044 196.27 273.464 196 272.884C195.495 272.007 195.156 271.045 195 270.044C195 269.324 195.91 259.194 196.65 256.604C196.65 256.604 205.02 249.604 208.8 245.814C212.28 242.274 211.87 238.604 211.35 232.814C204.09 233.534 203.71 234.754 199.91 239.154C196.76 242.824 190.86 249.614 189.69 251.314C189.057 252.334 188.69 253.496 188.62 254.694C188.31 257.994 188.3 261.324 188.22 264.624C188.22 265.704 188.16 266.774 188.15 267.844C188.09 270.234 188.11 272.634 188.27 275.024Z" fill="#B16668"/>
<path d="M209.6 247.594C210.23 245.894 210.21 242.324 206.52 238.774C205.578 237.814 204.412 237.103 203.127 236.707C201.842 236.311 200.478 236.241 199.16 236.504C195.886 238.567 193.544 241.824 192.63 245.584C192.51 245.862 192.476 246.169 192.532 246.466C192.587 246.763 192.729 247.037 192.94 247.254L194.35 245.584C194.35 245.584 196.66 245.244 199.2 247.854C200.408 249.235 201.054 251.019 201.01 252.854L199.88 253.854C199.88 253.854 206.12 254.534 209.6 247.594Z" fill="#71C1EE"/>
<path opacity="0.1" d="M209.6 247.594C210.23 245.894 210.21 242.324 206.52 238.774C205.578 237.814 204.412 237.103 203.127 236.707C201.842 236.311 200.478 236.241 199.16 236.504C195.886 238.567 193.544 241.824 192.63 245.584C192.51 245.862 192.476 246.169 192.532 246.466C192.587 246.763 192.729 247.037 192.94 247.254L194.35 245.584C194.35 245.584 196.66 245.244 199.2 247.854C200.408 249.235 201.054 251.019 201.01 252.854L199.88 253.854C199.88 253.854 206.12 254.534 209.6 247.594Z" fill="black"/>
<path opacity="0.1" d="M199.88 253.884C199.88 253.884 206.12 254.574 209.6 247.634C210.17 246.094 210.2 243.034 207.48 239.844C208.2 242.504 207.12 247.284 204.26 247.364C201.4 247.444 196.54 244.164 194.78 244.244C194.357 244.203 193.932 244.289 193.559 244.493C193.187 244.696 192.884 245.006 192.69 245.384C192.674 245.465 192.654 245.545 192.63 245.624C192.51 245.902 192.476 246.209 192.532 246.506C192.587 246.803 192.729 247.077 192.94 247.294L194.35 245.624C194.35 245.624 196.66 245.284 199.2 247.894C200.408 249.275 201.054 251.059 201.01 252.894L199.88 253.884Z" fill="black"/>
</svg>
