<svg width="636" height="400" viewBox="0 0 636 400" fill="none" xmlns="http://www.w3.org/2000/svg">
<path d="M462.683 344.365C498.476 341.512 535.295 339.176 565.351 319.538C595.623 299.616 618.19 269.96 629.322 235.472C636.592 212.636 638.46 187.332 629.931 164.942C620.092 139.1 596.118 119.167 568.925 114.171C545.002 109.785 520.632 116.324 496.78 121.086C472.928 125.849 446.954 128.58 425.315 117.482C404.337 106.718 391.614 85.2118 377.053 66.6603C343.544 24.013 289.829 -7.77954 236.358 1.67394C200.574 7.95934 169.34 32.2683 150.423 63.2993C131.506 94.3302 124.216 131.494 125.201 167.816C126.531 216.931 146.016 269.57 189.07 293.229C189.039 293.199 239.028 362.196 462.683 344.365Z" fill="#FFE546" fill-opacity="0.5"/>
<path d="M455.698 0.434982C437.867 1.63317 419.711 20.6417 415.325 35.5479C410.938 50.4541 416.086 67.2389 426.911 78.317C437.735 89.3952 453.545 94.9089 469.03 94.7769C489.338 94.5941 510.581 83.4652 517.628 64.4161C524.065 47.0018 517.039 26.267 502.894 14.2446C488.749 2.2221 472.3 -2.12386 454.012 1.04423" fill="#FFE546" fill-opacity="0.5"/>
<path d="M279.107 378.098L203.886 394.791L287.403 400L350.054 381.469H343.83L279.107 378.098Z" fill="#E0E0E0"/>
<path d="M278.163 373.934L209.582 390.414V393.795L291.851 396.181L342.723 382.666L342.885 377.305L278.163 373.934Z" fill="#FAFAFA"/>
<path d="M209.582 393.796V390.415L291.018 392.101L291.851 396.183L209.582 393.796Z" fill="#EBEBEB"/>
<path d="M291.019 392.1L342.886 377.306L342.723 382.667L291.851 396.182L291.019 392.1Z" fill="#E0E0E0"/>
<path d="M278.164 373.934C278.164 373.934 278.56 373.934 279.342 373.934L282.774 374.076L295.893 374.695L342.927 377.051H343.15V377.274C343.099 378.919 343.048 380.767 342.988 382.636V382.818L342.815 382.869L291.953 396.415H291.831L275.138 395.927L209.583 393.988H209.359V390.231H209.542L259.297 378.381L273.239 375.091L276.925 374.248L277.869 374.035L278.184 373.974L277.869 374.076L276.925 374.319L273.259 375.233L259.338 378.604L209.634 390.637L209.816 390.414V393.795L209.593 393.561L275.168 395.43L291.851 395.917H291.831L342.713 382.433L342.541 382.646C342.602 380.777 342.663 378.94 342.713 377.284L342.927 377.518L295.893 374.99L282.794 374.248L279.352 374.035C278.57 373.984 278.164 373.934 278.164 373.934Z" fill="#263238"/>
<path d="M288.896 389.053C288.707 389.073 288.516 389.073 288.327 389.053H286.692L280.661 388.962L260.779 388.627C253.011 388.495 245.984 388.332 240.897 388.15C238.348 388.058 236.287 387.967 234.866 387.886L233.231 387.784C233.039 387.783 232.848 387.759 232.662 387.713C232.854 387.687 233.049 387.687 233.241 387.713H234.876L240.907 387.804L260.789 388.129C268.557 388.261 275.584 388.434 280.671 388.617C283.219 388.708 285.271 388.789 286.692 388.87L288.327 388.982C288.519 388.974 288.711 388.998 288.896 389.053Z" fill="#263238"/>
<path d="M300.055 386.88C299.867 386.907 299.675 386.907 299.487 386.88H297.842H291.831L271.949 386.555C264.181 386.423 257.144 386.251 252.057 386.068C249.518 385.977 247.457 385.895 246.035 385.814L244.401 385.713C244.209 385.706 244.019 385.682 243.832 385.642C244.021 385.618 244.212 385.618 244.401 385.642H246.046L252.067 385.733L271.959 386.058C279.717 386.19 286.753 386.352 291.841 386.535C294.379 386.627 296.44 386.718 297.862 386.799L299.497 386.901C299.681 386.871 299.869 386.864 300.055 386.88Z" fill="#263238"/>
<path d="M308.179 384.535C307.99 384.559 307.799 384.559 307.61 384.535H305.965L299.944 384.444L280.062 384.119C272.294 383.987 265.257 383.824 260.17 383.641C257.632 383.55 255.57 383.459 254.149 383.377L252.514 383.276C252.322 383.276 252.131 383.252 251.945 383.205C252.134 383.179 252.325 383.179 252.514 383.205H254.159L260.18 383.296L280.072 383.621C287.83 383.753 294.867 383.916 299.954 384.109C302.492 384.2 304.554 384.281 305.975 384.362L307.61 384.464C307.801 384.47 307.992 384.494 308.179 384.535Z" fill="#263238"/>
<path d="M316.526 382.657C316.334 382.683 316.14 382.683 315.948 382.657H314.313L308.281 382.566L288.4 382.241C280.632 382.109 273.605 381.936 268.518 381.753C265.969 381.662 263.918 381.581 262.496 381.499L260.862 381.398C260.67 381.391 260.48 381.368 260.293 381.327C260.482 381.303 260.673 381.303 260.862 381.327H262.496L268.528 381.408L288.41 381.743C296.178 381.875 303.204 382.038 308.291 382.22C310.84 382.312 312.901 382.403 314.323 382.484L315.958 382.586C316.15 382.586 316.341 382.61 316.526 382.657Z" fill="#263238"/>
<path d="M405.495 198.451C405.495 198.451 445.167 188.754 463.841 203.142C478.737 214.626 489.51 233.483 489.51 233.483L457.068 274.861L475.162 366.573H334.944L312.138 305.232L276.416 264.016C276.416 264.016 309.285 226.446 319.063 221.846C328.842 217.246 405.495 198.451 405.495 198.451Z" fill="#223079"/>
<path d="M280.712 259.092C280.712 259.092 238.064 308.146 221.148 322.159C204.231 336.172 207.379 363.517 216.741 367.142C220.396 368.553 274.02 366.543 274.02 366.543L312.139 305.232L280.712 259.092Z" fill="#223079"/>
<g opacity="0.2">
<path opacity="0.2" d="M432.566 336.394C432.079 326.799 446.223 320.026 453.189 321.762C451.859 307.262 450.143 282.466 454.204 268.474C458.662 289.178 460.855 311.121 468.623 330.81" fill="black"/>
</g>
<path d="M454.926 275.602L468.381 332.16C468.381 332.16 445.92 318.279 432.679 336.729L442.833 366.826L533.722 367.141C533.722 367.141 540.668 339.918 532.433 318.076C528.97 308.938 489.542 233.482 489.542 233.482L461.181 243.332L454.926 275.602Z" fill="#223079"/>
<path d="M442.802 366.826C442.71 366.638 442.628 366.445 442.559 366.247L441.949 364.562L439.746 358.236C437.888 352.793 435.298 345.208 432.323 336.475V336.364L432.394 336.262C433.336 334.707 434.488 333.289 435.816 332.048C437.254 330.781 438.886 329.753 440.65 329.002C443.366 327.832 446.267 327.145 449.22 326.971C450.605 326.875 451.995 326.855 453.383 326.91C454.722 326.935 456.055 327.091 457.363 327.377C462.44 328.525 466.776 330.85 469.376 333.825C471.711 335.854 473.695 338.256 475.245 340.933C475.792 341.936 476.153 343.03 476.311 344.162C476.002 343.08 475.584 342.032 475.062 341.035C473.467 338.404 471.457 336.049 469.112 334.059C466.502 331.145 462.258 328.921 457.262 327.814C455.983 327.538 454.68 327.392 453.373 327.377C452.002 327.325 450.629 327.349 449.26 327.448C446.388 327.606 443.564 328.259 440.914 329.378C439.198 330.11 437.613 331.119 436.222 332.363C434.912 333.553 433.774 334.92 432.841 336.425V336.211C435.745 344.964 438.274 352.57 440.081 358.033C440.954 360.713 441.645 362.866 442.112 364.409L442.65 366.115C442.722 366.347 442.773 366.585 442.802 366.826Z" fill="#263238"/>
<path d="M485.156 334.222C485.085 334.293 484.333 333.429 482.871 332.363C480.965 330.98 478.765 330.056 476.444 329.662C475.17 329.464 473.876 329.437 472.595 329.581C471.553 329.716 470.53 329.975 469.549 330.353C467.863 331.013 466.96 331.713 466.899 331.622C466.838 331.531 467.092 331.409 467.498 331.094C468.092 330.662 468.732 330.298 469.407 330.008C470.404 329.568 471.456 329.264 472.534 329.104C474.404 328.842 476.307 328.97 478.125 329.48C479.942 329.991 481.634 330.872 483.094 332.069C483.67 332.517 484.201 333.02 484.679 333.572C485.014 333.968 485.186 334.201 485.156 334.222Z" fill="#263238"/>
<path d="M468.583 330.809C468.493 330.604 468.415 330.394 468.35 330.18C468.208 329.713 468.015 329.114 467.771 328.372C467.284 326.788 466.603 324.504 465.74 321.66C464.115 315.974 461.983 308.095 459.871 299.321C457.759 290.548 456.063 282.557 454.936 276.749C454.368 273.855 453.921 271.499 453.647 269.874C453.525 269.103 453.423 268.473 453.342 267.996C453.297 267.779 453.27 267.558 453.261 267.336C453.348 267.541 453.41 267.756 453.444 267.976C453.545 268.453 453.687 269.072 453.85 269.834C454.205 271.509 454.703 273.835 455.302 276.678C456.53 282.455 458.277 290.426 460.379 299.2C462.481 307.973 464.552 315.852 466.096 321.539C466.857 324.341 467.477 326.616 467.923 328.291C468.116 329.053 468.279 329.662 468.401 330.139C468.495 330.352 468.556 330.578 468.583 330.809Z" fill="#263238"/>
<path d="M456.439 260.117C456.122 261.596 455.628 263.032 454.967 264.392C454.474 265.818 453.817 267.181 453.007 268.454C453.332 266.974 453.826 265.536 454.479 264.169C454.972 262.746 455.63 261.387 456.439 260.117Z" fill="#263238"/>
<g opacity="0.2">
<path opacity="0.2" d="M302.278 275.602C300.329 292.864 298.369 313.294 296.409 330.566L312.179 305.181" fill="black"/>
</g>
<path d="M301.478 273.916C301.62 273.865 306.098 286.152 311.479 301.332C316.861 316.513 321.126 328.901 320.984 328.951C320.841 329.002 316.374 316.767 310.982 301.535C305.59 286.304 301.346 273.967 301.478 273.916Z" fill="#263238"/>
<path d="M432.566 336.395L409.537 344.904C409.537 344.904 400.804 341.461 399.027 341.228C396.732 340.923 379.521 346.681 367.113 350.976C358.989 353.789 352.673 358.957 350.054 367.141L442.801 366.826L432.566 336.395Z" fill="#FFBE9D"/>
<path d="M232.47 305.536L239.842 300.398L278.813 368.309L281.413 379.763L270.101 374.087L232.47 305.536Z" fill="#455A64"/>
<path d="M277.767 377.935L280.518 375.803L281.412 379.763L277.767 377.935Z" fill="#263238"/>
<path d="M278.812 368.309C278.812 368.38 278.406 368.218 277.797 368.208C277.621 368.198 277.446 368.228 277.284 368.297C277.122 368.366 276.978 368.471 276.863 368.604C276.598 368.984 276.465 369.441 276.487 369.904V370.229L276.172 370.147C275.848 370.041 275.504 370.008 275.165 370.05C274.826 370.092 274.501 370.208 274.212 370.391C273.699 370.814 273.342 371.397 273.197 372.046L273.146 372.259H272.943C272.454 372.206 271.959 372.272 271.501 372.452C271.148 372.595 270.844 372.839 270.628 373.153C270.262 373.691 270.212 374.168 270.151 374.107C270.09 374.046 270.029 373.661 270.374 372.99C270.589 372.594 270.918 372.272 271.318 372.066C271.837 371.83 272.406 371.729 272.974 371.772L272.71 371.975C272.848 371.17 273.282 370.445 273.928 369.944C274.279 369.716 274.678 369.572 275.093 369.523C275.509 369.474 275.93 369.521 276.324 369.66L276.02 369.893C276.008 369.315 276.206 368.752 276.578 368.309C276.738 368.145 276.934 368.02 277.151 367.946C277.369 367.872 277.6 367.85 277.827 367.883C278.193 367.916 278.538 368.066 278.812 368.309Z" fill="#263238"/>
<path d="M232.47 305.536C232.06 304.611 231.983 303.571 232.254 302.596C232.524 301.62 233.124 300.768 233.952 300.185C237.466 297.657 239.842 300.398 239.842 300.398L232.47 305.536Z" fill="#263238"/>
<path d="M234.022 302.328L272.903 371.995C272.903 371.995 273.014 368.888 276.213 369.964L235.982 300.398L234.022 302.328Z" fill="#263238"/>
<path d="M268.659 333.45C266.965 332.516 265.107 331.92 263.186 331.693C262.225 331.595 261.256 331.773 260.393 332.207C259.529 332.64 258.807 333.311 258.312 334.14C258.055 334.734 257.918 335.372 257.91 336.019C257.901 336.665 258.02 337.307 258.261 337.908C258.744 339.108 259.412 340.225 260.241 341.218C261.309 342.765 262.668 344.089 264.242 345.117C265.097 345.74 266.121 346.089 267.179 346.119C268.236 346.149 269.278 345.858 270.167 345.284C271.056 344.711 271.751 343.881 272.16 342.905C272.568 341.929 272.672 340.852 272.457 339.817C272.038 337.292 270.682 335.018 268.659 333.45Z" fill="#FFBE9D"/>
<path d="M242.41 324.149C242.41 324.149 236.317 322.463 234.185 327.946C234.185 327.946 225.331 333.023 225.331 341.015C223.107 344.007 221.862 347.614 221.767 351.341V354.388C221.769 356.161 222.194 357.909 223.007 359.486C223.819 361.063 224.995 362.423 226.438 363.455C228.715 365.211 231.249 366.605 233.952 367.588C235.648 368.027 237.4 368.211 239.15 368.136C239.588 368.123 240.014 367.994 240.386 367.763C240.758 367.532 241.062 367.207 241.268 366.82C241.474 366.434 241.575 366 241.56 365.563C241.544 365.125 241.414 364.699 241.181 364.328L240.349 363.252C240.349 363.252 245.162 366.573 248.736 366.298C248.736 366.298 253.63 366.136 255.031 363.14C255.549 362.023 264.729 365.669 265.775 360.815C265.775 360.815 271.045 361.242 272.101 358.713C273.157 356.185 271.887 352.387 269.785 350.062C267.684 347.737 242.41 324.149 242.41 324.149Z" fill="#FFBE9D"/>
<path d="M239.933 336.679C240.298 336.96 240.637 337.273 240.948 337.613C241.649 338.314 242.552 339.207 243.619 340.283C245.883 342.527 249.041 345.594 252.625 348.874C256.21 352.154 259.571 355.017 262.008 357.058L264.902 359.485C265.272 359.76 265.612 360.073 265.917 360.419C265.506 360.202 265.118 359.943 264.759 359.647C264.038 359.119 263.013 358.337 261.713 357.353C259.205 355.372 255.814 352.55 252.209 349.229C248.604 345.909 245.487 342.832 243.294 340.507C242.197 339.349 241.324 338.395 240.735 337.725C240.434 337.402 240.166 337.052 239.933 336.679Z" fill="#EB996E"/>
<path d="M255.032 362.927C254.951 363.039 250.463 359.749 245.02 355.586C239.578 351.423 235.222 347.94 235.313 347.828C235.404 347.716 239.892 350.996 245.335 355.169C250.778 359.343 255.124 362.805 255.032 362.927Z" fill="#EB996E"/>
<path d="M241.74 364.084C241.05 363.731 240.397 363.309 239.791 362.825C238.613 362.003 237.009 360.845 235.293 359.495C233.811 358.349 232.401 357.115 231.068 355.799C230.479 355.286 229.963 354.695 229.535 354.042C230.174 354.482 230.772 354.978 231.322 355.524C232.338 356.469 233.901 357.738 235.617 359.078C237.762 360.616 239.807 362.288 241.74 364.084Z" fill="#EB996E"/>
<path d="M350.288 220.109C355.497 229.248 366.769 233.949 377.298 233.239C387.952 232.334 397.96 227.754 405.608 220.282C410.137 215.926 411.589 206.168 415.589 207.082C419.316 207.914 422.2 220.282 422.596 224.11C423.195 229.857 421.022 235.645 417.58 240.285C414.137 244.926 409.456 248.541 404.694 251.739C395.606 257.781 385.34 262.635 374.435 263.142C363.529 263.65 351.954 259.081 346.206 249.851C340.459 240.621 342.439 226.608 351.781 220.972" fill="#223079"/>
<path d="M377.938 254.877C378.14 254.702 378.357 254.545 378.588 254.41L380.517 253.161L387.625 248.673V249.029L376.831 244.967H376.71V244.845C375.877 241.373 374.953 237.585 373.998 233.676L374.455 233.777L374.394 233.848L374.273 234.001L374.039 234.295L373.562 234.874L372.617 236.042L370.769 238.316L367.236 242.662L367.155 242.764H366.972L355.477 241.809L355.66 241.515L360.179 248.623L361.387 250.572C361.537 250.799 361.669 251.036 361.783 251.283C361.601 251.085 361.438 250.871 361.296 250.643C360.971 250.156 360.534 249.526 359.996 248.744L355.376 241.677L355.152 241.342H355.548L367.053 242.185L366.84 242.276L370.353 237.92L372.201 235.635L373.135 234.478L373.613 233.889L373.856 233.594L373.968 233.442L374.029 233.371C373.927 233.371 374.902 233.574 374.496 233.473C375.44 237.433 376.344 241.22 377.177 244.693L377.024 244.52L387.778 248.704L388.153 248.846L387.808 249.049L380.568 253.395L378.588 254.553C378.382 254.68 378.164 254.789 377.938 254.877Z" fill="#FAFAFA"/>
<path d="M358.199 259.883C358.129 259.221 358.007 258.566 357.834 257.923C357.206 256.194 356.134 254.66 354.726 253.476C353.01 251.881 350.513 250.632 347.781 249.14C346.333 248.366 344.971 247.441 343.719 246.378C341.765 244.637 340.303 242.413 339.48 239.928C338.656 237.444 338.501 234.787 339.028 232.223C339.661 229.512 340.753 226.929 342.257 224.587C343.217 222.99 344.431 221.56 345.852 220.353C346.252 220.033 346.68 219.751 347.131 219.51C347.279 219.417 347.44 219.345 347.608 219.297C347.608 219.348 346.979 219.662 345.984 220.515C344.625 221.759 343.462 223.201 342.531 224.79C341.109 227.117 340.08 229.663 339.485 232.325C338.832 235.603 339.331 239.007 340.897 241.961C341.697 243.488 342.759 244.863 344.034 246.023C345.261 247.063 346.592 247.974 348.004 248.744C350.705 250.247 353.244 251.567 354.97 253.232C356.4 254.471 357.455 256.086 358.016 257.893C358.209 258.537 358.271 259.214 358.199 259.883Z" fill="#263238"/>
<path d="M411.811 199.73C411.897 199.735 411.983 199.752 412.064 199.781L412.796 200.005C413.737 200.295 414.649 200.676 415.517 201.142C416.881 201.895 418.14 202.824 419.264 203.904C420.771 205.321 422.043 206.97 423.031 208.788C425.689 213.536 426.649 219.048 425.752 224.415C425.162 227.545 424.046 230.553 422.452 233.31C420.743 236.262 418.623 238.956 416.157 241.312C413.687 243.663 410.962 245.73 408.033 247.475C405.311 249.094 402.454 250.473 399.494 251.598C394.481 253.499 389.222 254.672 383.877 255.081C380.28 255.359 376.664 255.278 373.083 254.837C371.814 254.685 370.839 254.512 370.179 254.38L369.437 254.228C369.35 254.221 369.265 254.2 369.184 254.167C369.271 254.151 369.36 254.151 369.448 254.167L370.199 254.268C370.859 254.37 371.844 254.502 373.103 254.624C376.674 254.979 380.27 255.006 383.846 254.705C389.145 254.237 394.354 253.034 399.321 251.131C405.426 248.853 411.018 245.384 415.771 240.926C418.199 238.602 420.291 235.95 421.985 233.046C423.559 230.345 424.661 227.395 425.244 224.324C426.141 219.071 425.24 213.668 422.686 208.991C421.742 207.182 420.519 205.534 419.061 204.107C417.967 203.025 416.742 202.083 415.415 201.304C414.568 200.827 413.681 200.422 412.765 200.096L412.054 199.822L411.811 199.73Z" fill="#263238"/>
<path d="M379.664 260.787C379.92 259.885 380.047 258.952 380.039 258.014C379.872 257.091 379.568 256.197 379.136 255.364C379.136 255.364 379.481 255.506 379.816 255.953C380.232 256.548 380.488 257.24 380.557 257.962C380.626 258.685 380.508 259.413 380.212 260.076C379.979 260.583 379.725 260.817 379.664 260.787Z" fill="#263238"/>
<path d="M415.711 253.304C415.141 253.378 414.562 253.282 414.046 253.03C412.735 252.548 411.623 251.642 410.887 250.455C410.15 249.268 409.833 247.869 409.984 246.48C409.996 245.909 410.169 245.354 410.482 244.876C410.563 244.876 410.37 245.516 410.36 246.511C410.315 247.802 410.654 249.077 411.334 250.176C412.013 251.275 413.003 252.148 414.178 252.684C415.132 253.121 415.762 253.223 415.711 253.304Z" fill="#263238"/>
<path d="M411.81 211.763C411.727 211.972 411.628 212.176 411.516 212.372C411.292 212.758 411.018 213.387 410.561 214.068C409.319 216.11 407.891 218.034 406.297 219.815C401.014 225.759 394.132 230.058 386.472 232.197C378.813 234.336 370.699 234.225 363.101 231.878C360.811 231.182 358.592 230.275 356.47 229.167C355.709 228.791 355.161 228.426 354.775 228.212C354.573 228.106 354.383 227.98 354.206 227.837C354.421 227.912 354.628 228.007 354.825 228.121C355.232 228.304 355.79 228.639 356.562 228.984C358.703 230.006 360.924 230.852 363.203 231.512C371.912 234.011 381.192 233.655 389.683 230.495C398.175 227.336 405.431 221.539 410.389 213.956C410.866 213.266 411.171 212.687 411.404 212.321C411.515 212.118 411.652 211.931 411.81 211.763Z" fill="#263238"/>
<g opacity="0.2">
<path opacity="0.2" d="M376.039 255.435C375.648 255.768 375.404 256.242 375.361 256.753C375.317 257.264 375.477 257.772 375.805 258.167C376.503 258.928 377.411 259.465 378.415 259.71C387.835 262.855 398.048 262.68 407.355 259.214C416.662 255.748 424.502 249.201 429.571 240.661C433.48 234.051 435.582 225.795 432.749 218.657C432.028 216.819 430.302 214.819 428.444 215.489C426.586 216.159 426.525 218.586 426.504 220.505C426.423 231.563 418.889 241.585 409.354 247.2C399.819 252.815 388.548 254.674 377.511 255.415" fill="black"/>
</g>
<path d="M636 367.5C636 367.769 493.611 368 318.009 368C142.407 368 0 367.769 0 367.5C0 367.231 142.352 367 318.018 367C493.685 367 636 367.231 636 367.5Z" fill="#263238"/>
<path d="M570.306 393.267C564.274 393.875 558.196 393.847 552.17 393.186C550.216 392.973 548.41 392.046 547.098 390.582C545.786 389.118 545.061 387.222 545.063 385.256H577.495C577.501 387.244 576.769 389.164 575.441 390.644C574.113 392.124 572.283 393.059 570.306 393.267Z" fill="#E0E0E0"/>
<path d="M575.576 391.156C566.138 393.251 556.359 393.275 546.911 391.227C545.129 390.829 543.536 389.836 542.395 388.411C541.254 386.985 540.634 385.214 540.636 383.388V333.937C540.636 331.813 541.48 329.775 542.982 328.272C544.485 326.77 546.522 325.926 548.647 325.926H573.87C575.995 325.926 578.033 326.77 579.535 328.272C581.038 329.775 581.882 331.813 581.882 333.937V383.317C581.884 385.147 581.26 386.923 580.113 388.349C578.965 389.776 577.364 390.766 575.576 391.156Z" fill="#223079"/>
<path d="M580.42 329.469C581.06 331.5 579.507 334.14 576.064 336.344C571.562 338.875 566.489 340.22 561.324 340.252C556.158 340.284 551.07 339.002 546.536 336.526C543.064 334.364 541.459 331.774 542.099 329.703C542.739 327.631 545.287 326.321 548.719 325.54C552.84 324.741 557.032 324.366 561.229 324.423C565.426 324.325 569.623 324.665 573.749 325.438C577.161 326.129 579.771 327.357 580.42 329.469Z" fill="#223079"/>
<g opacity="0.5">
<path opacity="0.5" d="M580.42 329.469C581.06 331.5 579.507 334.14 576.064 336.344C571.562 338.875 566.489 340.22 561.324 340.252C556.158 340.284 551.07 339.002 546.536 336.526C543.064 334.364 541.459 331.774 542.099 329.703C542.739 327.631 545.287 326.321 548.719 325.54C552.84 324.741 557.032 324.366 561.229 324.423C565.426 324.325 569.623 324.665 573.749 325.438C577.161 326.129 579.771 327.357 580.42 329.469Z" fill="black"/>
</g>
<path d="M572.825 328.779C570.928 328.494 568.991 328.658 567.169 329.256C566.357 329.52 565.433 330.079 565.483 330.932C565.534 331.784 566.255 332.12 566.915 332.394C568.38 332.991 569.952 333.28 571.533 333.242C573.115 333.203 574.671 332.838 576.105 332.17C576.765 331.866 577.496 331.256 577.293 330.556C577.15 330.196 576.873 329.905 576.521 329.744C575.289 329.016 573.89 328.618 572.459 328.586" fill="#263238"/>
<path d="M581.882 353.372C581.592 353.732 581.249 354.047 580.867 354.306C579.748 355.07 578.457 355.545 577.11 355.687C574.954 355.94 572.777 355.441 570.946 354.276C569.801 353.534 568.87 352.504 568.245 351.291C567.879 350.596 567.754 349.8 567.89 349.026C567.976 348.601 568.181 348.209 568.481 347.896C568.781 347.584 569.164 347.363 569.586 347.259C570.023 347.229 570.461 347.293 570.871 347.447C571.281 347.601 571.653 347.842 571.962 348.153C572.612 348.708 573.198 349.335 573.708 350.021C574.782 351.482 575.504 353.171 575.82 354.956C576.185 356.871 576.045 358.849 575.414 360.693C574.709 362.652 573.428 364.351 571.738 365.567C569.97 366.885 567.849 367.645 565.646 367.75C563.343 367.879 561.073 367.157 559.269 365.72C557.412 364.241 556.092 362.193 555.512 359.891C555.221 358.712 555.162 357.488 555.339 356.286C555.369 355.633 555.557 354.996 555.885 354.43C556.214 353.864 556.675 353.387 557.228 353.037C557.603 352.869 558.018 352.812 558.424 352.871C558.831 352.93 559.212 353.104 559.523 353.372C560.066 353.862 560.484 354.475 560.741 355.159C561.192 356.427 561.498 357.742 561.655 359.079C561.985 361.66 561.858 364.279 561.28 366.816C560.731 369.247 559.769 371.565 558.436 373.67C557.208 375.769 555.271 377.36 552.974 378.158C551.856 378.428 550.689 378.415 549.577 378.121C548.466 377.827 547.445 377.26 546.607 376.473C545.044 375.085 543.912 373.277 543.347 371.264C542.844 369.55 542.693 367.753 542.904 365.979C543.115 364.206 543.684 362.494 544.576 360.947L544.84 360.521L545.023 360.978C545.876 363.051 546.254 365.289 546.13 367.527C546.051 369.182 545.708 370.814 545.114 372.36C544.642 373.664 543.933 374.869 543.023 375.914C543.751 374.758 544.366 373.533 544.86 372.259C545.412 370.736 545.721 369.136 545.774 367.517C545.849 365.341 545.447 363.175 544.596 361.171H545.043C544.207 362.66 543.682 364.303 543.499 366.001C543.315 367.699 543.478 369.417 543.977 371.051C544.518 372.943 545.593 374.639 547.074 375.935C547.828 376.639 548.745 377.146 549.743 377.408C550.741 377.67 551.788 377.68 552.791 377.437C554.932 376.689 556.733 375.197 557.868 373.234C559.152 371.201 560.072 368.961 560.589 366.613C561.137 364.161 561.254 361.632 560.934 359.14C560.782 357.873 560.492 356.627 560.071 355.423C559.858 354.86 559.509 354.358 559.056 353.961C558.864 353.784 558.623 353.667 558.365 353.625C558.107 353.584 557.842 353.619 557.604 353.728C557.165 354.029 556.804 354.43 556.55 354.897C556.295 355.365 556.156 355.886 556.142 356.418C555.977 357.518 556.032 358.64 556.304 359.719C556.832 361.854 558.053 363.754 559.777 365.121C561.436 366.439 563.52 367.104 565.636 366.989C567.673 366.882 569.634 366.176 571.271 364.958C572.851 363.834 574.054 362.259 574.724 360.439C575.333 358.71 575.477 356.85 575.14 355.048C574.856 353.354 574.185 351.749 573.18 350.356C572.709 349.704 572.164 349.107 571.556 348.579C571.312 348.319 571.016 348.113 570.687 347.977C570.358 347.84 570.003 347.776 569.647 347.787C569.332 347.872 569.047 348.042 568.823 348.279C568.599 348.515 568.445 348.809 568.377 349.128C568.266 349.786 568.37 350.462 568.672 351.057C569.242 352.198 570.099 353.171 571.16 353.88C572.894 355.029 574.967 355.552 577.039 355.362C578.354 355.257 579.624 354.84 580.745 354.144C581.517 353.646 581.852 353.281 581.882 353.372Z" fill="#FAFAFA"/>
<path d="M577.943 326.809C578.088 326.909 578.221 327.025 578.339 327.154C578.805 327.625 579.151 328.201 579.349 328.834C579.547 329.466 579.591 330.137 579.477 330.789C579.295 331.845 578.848 332.838 578.177 333.673C576.372 335.778 573.994 337.313 571.333 338.09C568.149 339.164 564.803 339.68 561.443 339.613C558.09 339.548 554.769 338.951 551.604 337.846C550.208 337.392 548.866 336.786 547.603 336.039C546.486 335.386 545.52 334.504 544.77 333.45C544.223 332.68 543.872 331.788 543.748 330.852C543.624 329.916 543.731 328.964 544.059 328.078C544.251 327.608 544.534 327.18 544.892 326.819C545.007 326.688 545.144 326.578 545.298 326.494C544.858 326.981 544.514 327.546 544.282 328.159C544.01 329.011 543.943 329.914 544.086 330.796C544.229 331.679 544.578 332.515 545.105 333.236C546.405 335.115 548.913 336.445 551.786 337.39C554.914 338.443 558.184 339.015 561.483 339.085C564.781 339.153 568.067 338.662 571.201 337.633C573.789 336.902 576.116 335.451 577.913 333.45C578.567 332.667 579.02 331.736 579.233 330.739C579.375 329.984 579.308 329.204 579.04 328.484C578.751 327.879 578.383 327.316 577.943 326.809Z" fill="#263238"/>
<path d="M35.7115 304.266C35.7115 304.266 18.9673 317.02 35.0108 333.875C35.2781 334.151 35.6425 334.311 36.0263 334.322L182.327 333.469C182.327 333.469 194.826 319.457 184.459 303.312L35.7115 304.266Z" fill="#263238"/>
<path d="M42.3113 334.607C42.2208 334.625 42.1276 334.625 42.0371 334.607C41.7785 334.568 41.5237 334.506 41.2756 334.424C40.3369 334.094 39.4933 333.54 38.8183 332.809C37.7633 331.676 37.1978 330.173 37.2444 328.626C37.2795 327.648 37.5419 326.693 38.0108 325.834C38.4796 324.976 39.142 324.239 39.9454 323.681L40.0164 324.138C39.0133 323.829 38.1275 323.223 37.4765 322.4C36.8255 321.577 36.44 320.575 36.3711 319.528C36.3367 318.293 36.7539 317.087 37.5446 316.138C38.3354 315.188 39.4453 314.559 40.6663 314.37L40.5851 314.826C39.7936 314.371 39.1191 313.738 38.615 312.976C38.1109 312.215 37.7912 311.346 37.681 310.44C37.5181 309.015 37.919 307.583 38.7979 306.449C39.3577 305.721 40.0859 305.139 40.9202 304.754C41.1427 304.652 41.3737 304.571 41.6106 304.51C41.763 304.51 41.8543 304.459 41.8543 304.51C41.8543 304.561 41.5396 304.642 40.9912 304.926C40.2233 305.353 39.5607 305.946 39.0518 306.663C38.2602 307.745 37.9182 309.091 38.0973 310.42C38.2147 311.25 38.521 312.043 38.9928 312.736C39.4646 313.43 40.0892 314.006 40.8186 314.42L41.4786 314.786L40.7374 314.887C39.7182 315.037 38.781 315.532 38.082 316.289C37.3829 317.045 36.9641 318.019 36.8953 319.047C36.8265 320.074 37.1117 321.095 37.7036 321.938C38.2955 322.781 39.1583 323.396 40.1484 323.681L40.6765 323.833L40.2195 324.138C39.4753 324.648 38.8584 325.323 38.4165 326.11C37.9746 326.897 37.7195 327.775 37.6708 328.677C37.6057 330.124 38.1044 331.54 39.062 332.627C39.6821 333.349 40.4604 333.919 41.3365 334.292C41.9559 334.505 42.3214 334.566 42.3113 334.607Z" fill="#E0E0E0"/>
<path d="M42.3508 329.58C42.3508 329.58 42.2289 329.58 42.0868 329.459C41.9967 329.347 41.9312 329.218 41.8944 329.08C41.8577 328.942 41.8506 328.798 41.8735 328.656C42.0446 328.208 42.3832 327.844 42.8179 327.641C43.3629 327.39 43.9542 327.255 44.5542 327.245C45.2519 327.206 45.9517 327.226 46.646 327.306C47.0115 327.306 47.3872 327.397 47.7731 327.479C48.2021 327.537 48.612 327.694 48.9713 327.935C49.1171 328.041 49.2393 328.176 49.3302 328.332C49.4211 328.487 49.4787 328.66 49.4993 328.839C49.51 329.022 49.4736 329.205 49.3936 329.371C49.3137 329.536 49.1927 329.678 49.0423 329.783C48.5572 330.088 48.0004 330.26 47.4278 330.281C46.5269 330.381 45.6176 330.381 44.7167 330.281C43.8769 330.253 43.0599 330.001 42.3508 329.55C42.3508 329.459 43.2545 329.834 44.7471 329.905C45.6233 329.945 46.5012 329.893 47.3669 329.753C47.8477 329.728 48.315 329.585 48.7275 329.337C48.8078 329.275 48.8715 329.195 48.9131 329.103C48.9547 329.011 48.9727 328.911 48.9657 328.81C48.9586 328.709 48.9267 328.612 48.8727 328.527C48.8188 328.441 48.7444 328.371 48.6565 328.321C48.3481 328.13 48.0015 328.009 47.6411 327.966C47.2823 327.886 46.9197 327.825 46.5546 327.783C45.8814 327.694 45.2027 327.653 44.5237 327.661C44.0606 327.591 43.5871 327.649 43.1542 327.828C42.7213 328.007 42.3452 328.3 42.0664 328.677C42.0107 328.905 42.0359 329.145 42.1375 329.357C42.2695 329.509 42.3609 329.55 42.3508 329.58Z" fill="#E0E0E0"/>
<path d="M41.9455 319.691C41.9455 319.691 41.8338 319.691 41.6917 319.579C41.6003 319.467 41.5339 319.336 41.4971 319.196C41.4604 319.056 41.454 318.91 41.4784 318.767C41.6467 318.317 41.9862 317.952 42.4228 317.752C42.9671 317.497 43.5584 317.359 44.1591 317.345C44.8366 317.314 45.5156 317.334 46.19 317.406C46.5657 317.406 46.9414 317.508 47.3272 317.579C47.7551 317.642 48.164 317.798 48.5254 318.036C48.6715 318.144 48.7939 318.281 48.8847 318.438C48.9756 318.595 49.033 318.769 49.0534 318.95C49.0604 319.133 49.0224 319.314 48.9427 319.479C48.863 319.644 48.7441 319.786 48.5965 319.894C48.1087 320.192 47.5529 320.359 46.982 320.382C46.0816 320.492 45.1712 320.492 44.2708 320.382C43.4276 320.355 42.607 320.103 41.8948 319.65C42.6899 319.815 43.4932 319.937 44.3013 320.016C45.1774 320.045 46.0542 319.994 46.921 319.864C47.4027 319.835 47.8699 319.689 48.2817 319.437C48.6473 319.194 48.5863 318.716 48.2005 318.422C47.8968 318.219 47.5482 318.094 47.1851 318.056C46.8094 317.975 46.454 317.924 46.0986 317.874C45.4252 317.788 44.7465 317.75 44.0677 317.762C43.6046 317.692 43.1311 317.75 42.6982 317.928C42.2652 318.107 41.8892 318.401 41.6105 318.777C41.5519 319.002 41.5771 319.24 41.6815 319.447C41.8745 319.62 41.9658 319.671 41.9455 319.691Z" fill="#E0E0E0"/>
<path d="M42.1578 310.125C42.1578 310.125 42.0461 310.125 41.8938 310.014C41.8024 309.901 41.7361 309.771 41.6993 309.631C41.6625 309.49 41.6561 309.344 41.6806 309.201C41.8474 308.754 42.1827 308.389 42.6148 308.186C43.1595 307.933 43.7506 307.794 44.3511 307.78C45.0489 307.746 45.7483 307.766 46.4429 307.841C46.8084 307.841 47.1943 307.942 47.5801 308.013C48.008 308.077 48.4169 308.233 48.7783 308.47C48.923 308.579 49.0437 308.716 49.1329 308.873C49.222 309.03 49.2776 309.204 49.2962 309.384C49.3071 309.566 49.2718 309.748 49.1937 309.914C49.1156 310.079 48.9972 310.221 48.8494 310.328C48.3616 310.626 47.8058 310.794 47.2349 310.816C46.3345 310.926 45.4241 310.926 44.5237 310.816C43.6806 310.789 42.86 310.537 42.1477 310.085C42.9426 310.251 43.746 310.373 44.5542 310.45C45.4269 310.479 46.3004 310.428 47.1638 310.298C47.6458 310.271 48.1134 310.125 48.5245 309.872C48.89 309.628 48.8392 309.151 48.4534 308.856C48.1497 308.653 47.8011 308.528 47.438 308.491C47.0724 308.409 46.7069 308.359 46.3515 308.308C45.6781 308.221 44.9994 308.184 44.3207 308.196C43.8574 308.125 43.3836 308.182 42.9504 308.361C42.5173 308.54 42.1414 308.834 41.8634 309.212C41.8048 309.436 41.8301 309.674 41.9344 309.882C42.0868 310.054 42.168 310.105 42.1578 310.125Z" fill="#E0E0E0"/>
<path d="M173.726 303.718C173.726 303.718 173.817 303.718 174 303.718C174.26 303.756 174.515 303.821 174.762 303.911C175.965 304.32 177.007 305.101 177.737 306.142C178.467 307.182 178.848 308.428 178.823 309.699C178.789 310.676 178.527 311.632 178.058 312.491C177.589 313.349 176.926 314.086 176.122 314.644L176.051 314.197C177.153 314.511 178.114 315.193 178.773 316.129C179.433 317.066 179.751 318.201 179.675 319.344C179.599 320.487 179.133 321.569 178.355 322.41C177.578 323.251 176.535 323.8 175.401 323.965L175.482 323.498C176.273 323.954 176.948 324.588 177.452 325.349C177.956 326.11 178.276 326.978 178.387 327.885C178.506 329.052 178.258 330.227 177.677 331.246C177.096 332.265 176.212 333.078 175.147 333.571C174.927 333.677 174.695 333.759 174.457 333.815C174.376 333.83 174.294 333.83 174.213 333.815C174.213 333.815 174.528 333.683 175.066 333.388C175.839 332.969 176.506 332.379 177.016 331.662C177.802 330.578 178.144 329.233 177.97 327.905C177.859 327.064 177.556 326.26 177.084 325.556C176.612 324.851 175.984 324.265 175.249 323.843L174.589 323.478L175.33 323.376C176.39 323.18 177.348 322.62 178.039 321.794C178.731 320.967 179.112 319.925 179.118 318.847C179.054 317.908 178.71 317.01 178.131 316.268C177.552 315.526 176.764 314.974 175.868 314.684L175.34 314.542L175.797 314.237C176.541 313.724 177.158 313.047 177.599 312.259C178.041 311.47 178.297 310.591 178.346 309.688C178.412 308.244 177.913 306.831 176.955 305.749C176.335 305.024 175.557 304.451 174.68 304.073C174.041 303.819 173.716 303.758 173.726 303.718Z" fill="#E0E0E0"/>
<path d="M173.684 308.745C173.684 308.745 173.806 308.745 173.948 308.856C174.04 308.969 174.106 309.099 174.143 309.239C174.18 309.38 174.186 309.526 174.162 309.669C174.081 309.891 173.957 310.096 173.797 310.27C173.636 310.445 173.443 310.585 173.228 310.684C172.683 310.938 172.092 311.076 171.491 311.09C170.793 311.124 170.094 311.104 169.399 311.029C169.034 311.029 168.658 310.928 168.272 310.857C167.844 310.793 167.436 310.637 167.074 310.4C166.927 310.293 166.803 310.157 166.712 309.999C166.621 309.842 166.565 309.667 166.546 309.486C166.534 309.303 166.57 309.119 166.65 308.954C166.73 308.788 166.852 308.646 167.003 308.542C167.491 308.244 168.047 308.076 168.618 308.054C169.518 307.944 170.428 307.944 171.329 308.054C172.169 308.079 172.987 308.332 173.695 308.785C172.903 308.62 172.103 308.498 171.298 308.42C170.422 308.391 169.545 308.442 168.678 308.572C168.197 308.601 167.73 308.747 167.318 308.999C166.952 309.242 167.003 309.72 167.389 310.014C167.693 310.215 168.042 310.341 168.404 310.38C168.77 310.461 169.135 310.512 169.491 310.562C170.164 310.648 170.843 310.686 171.522 310.674C171.985 310.744 172.458 310.686 172.891 310.507C173.324 310.328 173.7 310.035 173.979 309.659C174.038 309.434 174.012 309.196 173.908 308.988C173.766 308.816 173.674 308.765 173.684 308.745Z" fill="#E0E0E0"/>
<path d="M174.042 318.624C174.042 318.624 174.163 318.624 174.306 318.746C174.396 318.857 174.461 318.986 174.498 319.125C174.535 319.263 174.542 319.407 174.519 319.548C174.348 319.997 174.009 320.361 173.575 320.564C173.029 320.815 172.438 320.95 171.838 320.96C171.14 320.999 170.441 320.979 169.746 320.899C169.381 320.899 169.005 320.808 168.619 320.726C168.19 320.668 167.78 320.511 167.421 320.269C167.275 320.164 167.153 320.029 167.062 319.873C166.971 319.717 166.914 319.545 166.893 319.366C166.883 319.182 166.92 319 167 318.835C167.08 318.67 167.2 318.527 167.35 318.421C167.837 318.121 168.393 317.95 168.965 317.924C169.866 317.824 170.775 317.824 171.676 317.924C172.516 317.952 173.332 318.204 174.042 318.655C174.042 318.746 173.138 318.371 171.645 318.299C170.769 318.26 169.891 318.311 169.025 318.452C168.545 318.481 168.079 318.624 167.665 318.868C167.585 318.929 167.521 319.01 167.479 319.101C167.438 319.193 167.42 319.294 167.427 319.395C167.434 319.496 167.466 319.593 167.52 319.678C167.574 319.764 167.648 319.834 167.736 319.884C168.046 320.074 168.391 320.198 168.751 320.249C169.117 320.32 169.482 320.381 169.838 320.422C170.511 320.511 171.19 320.551 171.869 320.544C172.332 320.613 172.805 320.556 173.238 320.377C173.671 320.198 174.047 319.905 174.326 319.528C174.382 319.3 174.357 319.06 174.255 318.848C174.163 318.695 174.042 318.655 174.042 318.624Z" fill="#E0E0E0"/>
<path d="M173.878 328.19C173.878 328.19 173.99 328.19 174.142 328.312C174.232 328.423 174.298 328.552 174.335 328.69C174.371 328.828 174.378 328.973 174.356 329.114C174.186 329.56 173.852 329.923 173.421 330.129C172.873 330.38 172.278 330.515 171.675 330.525C170.997 330.562 170.318 330.541 169.644 330.464C169.278 330.464 168.893 330.373 168.507 330.292C168.078 330.233 167.668 330.077 167.309 329.835C167.164 329.728 167.044 329.593 166.954 329.438C166.865 329.282 166.809 329.109 166.791 328.931C166.778 328.749 166.812 328.566 166.891 328.4C166.969 328.235 167.088 328.093 167.237 327.987C167.725 327.687 168.28 327.515 168.852 327.489C169.753 327.389 170.662 327.389 171.563 327.489C172.405 327.522 173.224 327.774 173.939 328.22C173.939 328.312 173.035 327.936 171.533 327.865C170.66 327.826 169.785 327.877 168.923 328.017C168.439 328.043 167.969 328.186 167.552 328.434C167.475 328.497 167.414 328.578 167.374 328.67C167.335 328.762 167.319 328.863 167.327 328.963C167.335 329.062 167.367 329.159 167.42 329.243C167.474 329.328 167.547 329.399 167.633 329.449C167.942 329.643 168.288 329.767 168.649 329.814C169.014 329.886 169.38 329.946 169.735 329.987C170.409 330.077 171.087 330.117 171.766 330.109C172.995 330.109 173.98 329.682 174.224 329.094C174.29 328.867 174.268 328.624 174.163 328.413C173.949 328.261 173.868 328.22 173.878 328.19Z" fill="#E0E0E0"/>
<path d="M150.22 317.578C150.22 317.721 132.003 317.842 109.532 317.842C87.0612 317.842 68.8447 317.721 68.8447 317.578C68.8447 317.436 87.0612 317.314 109.532 317.314C132.003 317.314 150.22 317.436 150.22 317.578Z" fill="#E0E0E0"/>
<path d="M127.463 322.91C127.463 323.062 118.893 323.174 108.332 323.174C97.7722 323.174 89.2021 323.062 89.2021 322.91C89.2021 322.757 97.7621 322.646 108.332 322.646C118.903 322.646 127.463 322.727 127.463 322.91Z" fill="#E0E0E0"/>
<path d="M57.2675 179.107C57.2675 179.107 41.8332 190.906 56.6075 206.381C56.7389 206.517 56.897 206.624 57.0717 206.695C57.2464 206.767 57.4341 206.802 57.6229 206.797L192.317 206.005C192.317 206.005 203.822 193.099 194.277 178.224L57.2675 179.107Z" fill="#263238"/>
<path d="M162.575 191.372C162.575 191.515 145.791 191.636 125.096 191.636C104.402 191.636 87.6074 191.515 87.6074 191.372C87.6074 191.23 104.392 191.108 125.096 191.108C145.801 191.108 162.575 191.22 162.575 191.372Z" fill="#E0E0E0"/>
<path d="M141.608 196.247C141.608 196.39 133.718 196.511 123.991 196.511C114.263 196.511 106.363 196.39 106.363 196.247C106.363 196.105 114.253 195.983 123.991 195.983C133.729 195.983 141.608 196.095 141.608 196.247Z" fill="#E0E0E0"/>
<path d="M176.356 205.579C176.264 205.579 176.65 204.035 177.067 201.517C178.17 195.005 178.109 188.349 176.884 181.859C176.417 179.371 176 177.858 176.092 177.797C176.261 178.119 176.391 178.459 176.478 178.812C176.701 179.482 176.965 180.488 177.249 181.727C178.687 188.238 178.753 194.978 177.442 201.517C177.178 202.766 176.935 203.771 176.721 204.451C176.646 204.841 176.523 205.219 176.356 205.579Z" fill="#E0E0E0"/>
<path d="M186.408 178.061C186.651 178.371 186.852 178.713 187.007 179.076C187.229 179.467 187.429 179.871 187.606 180.284C187.809 180.772 188.083 181.3 188.286 181.939C188.837 183.391 189.268 184.885 189.576 186.407C189.934 188.275 190.128 190.171 190.155 192.073C190.156 193.979 189.993 195.882 189.667 197.76C189.382 199.285 188.978 200.785 188.459 202.248C188.256 202.877 187.992 203.426 187.799 203.903C187.606 204.38 187.393 204.796 187.22 205.121C187.07 205.485 186.872 205.826 186.631 206.137C186.54 206.086 187.291 204.634 188.103 202.146C188.568 200.688 188.928 199.198 189.18 197.688C189.481 195.842 189.631 193.974 189.627 192.104C189.603 190.23 189.423 188.362 189.088 186.519C188.81 185.015 188.426 183.532 187.941 182.082C187.098 179.543 186.316 178.101 186.408 178.061Z" fill="#E0E0E0"/>
<path d="M78.5209 205.761C78.2791 205.486 78.0711 205.183 77.9015 204.858C77.6671 204.496 77.4567 204.12 77.272 203.731C77.0005 203.228 76.7597 202.709 76.551 202.177C75.978 200.808 75.5393 199.387 75.2412 197.933C74.4891 194.351 74.5376 190.648 75.3833 187.088C75.7286 185.643 76.2044 184.233 76.8049 182.874C77.0486 182.285 77.3329 181.788 77.5665 181.341C77.7638 180.959 77.9842 180.589 78.2265 180.234C78.4031 179.912 78.6216 179.615 78.8763 179.351C78.9677 179.412 78.0945 180.711 77.1501 183.026C76.605 184.379 76.1737 185.775 75.8606 187.2C75.4927 188.947 75.2854 190.725 75.2412 192.51C75.236 194.295 75.3957 196.076 75.7184 197.831C75.9954 199.266 76.3894 200.675 76.8963 202.045C77.7797 204.38 78.592 205.701 78.5209 205.761Z" fill="#E0E0E0"/>
<path d="M63.9702 209.041C63.7036 208.729 63.472 208.389 63.2797 208.026C63.0235 207.616 62.7896 207.192 62.5791 206.757C62.2792 206.192 62.0081 205.612 61.7668 205.02C61.1109 203.482 60.5944 201.888 60.2234 200.258C59.7778 198.256 59.5228 196.216 59.4618 194.166C59.4405 192.124 59.6036 190.085 59.9492 188.073C60.2753 186.43 60.7372 184.817 61.3302 183.25C61.5535 182.58 61.848 182.001 62.0714 181.483C62.2563 181.036 62.47 180.602 62.7111 180.183C62.8941 179.825 63.1118 179.484 63.361 179.168C63.4524 179.168 62.5893 180.752 61.6855 183.423C61.1593 184.979 60.7587 186.575 60.4874 188.195C60.1657 190.182 60.0162 192.193 60.0406 194.206C60.1026 196.22 60.3404 198.225 60.7514 200.197C61.1011 201.805 61.5729 203.383 62.1628 204.919C63.1376 207.498 64.0616 208.991 63.9702 209.041Z" fill="#E0E0E0"/>
<path d="M11.2798 365.089L10.9346 334.221H27.7295L28.3083 365.089H11.2798Z" fill="#F5F5F5"/>
<path d="M26.7459 339.715C24.1518 339.976 21.5432 340.064 18.9374 339.979C16.3316 340.064 13.723 339.976 11.1289 339.715C13.723 339.453 16.3316 339.365 18.9374 339.451C21.5432 339.365 24.1518 339.454 26.7459 339.715Z" fill="#E0E0E0"/>
<path d="M26.7459 344.476C24.1518 344.737 21.5432 344.826 18.9374 344.74C16.3316 344.826 13.723 344.738 11.1289 344.476C13.723 344.215 16.3316 344.127 18.9374 344.212C21.5432 344.127 24.1518 344.215 26.7459 344.476Z" fill="#E0E0E0"/>
<path d="M26.7459 349.239C24.1522 349.506 21.5432 349.594 18.9374 349.503C16.3316 349.595 13.7226 349.507 11.1289 349.239C13.723 348.978 16.3316 348.889 18.9374 348.975C21.5432 348.89 24.1518 348.978 26.7459 349.239Z" fill="#E0E0E0"/>
<path d="M26.7459 354.001C24.1522 354.268 21.5432 354.356 18.9374 354.265C16.3316 354.356 13.7226 354.268 11.1289 354.001C13.723 353.739 16.3316 353.651 18.9374 353.737C21.5432 353.651 24.1518 353.74 26.7459 354.001Z" fill="#E0E0E0"/>
<path d="M26.7459 358.774C24.1518 359.035 21.5432 359.123 18.9374 359.038C16.3316 359.123 13.723 359.035 11.1289 358.774C13.7226 358.506 16.3316 358.418 18.9374 358.51C21.5432 358.418 24.1522 358.507 26.7459 358.774Z" fill="#E0E0E0"/>
<path d="M9.47266 333.195H195.689C197.994 343.421 197.72 354.671 195.689 366.562H10.2748V364.297H21.5967C23.0159 364.297 24.377 363.734 25.3806 362.73C26.3841 361.726 26.9479 360.365 26.9479 358.946V340.476C26.9533 339.77 26.8187 339.07 26.5521 338.417C26.2854 337.764 25.892 337.17 25.3944 336.669C24.8968 336.169 24.305 335.772 23.6532 335.502C23.0013 335.231 22.3024 335.093 21.5967 335.094H9.47266V333.195Z" fill="#455A64"/>
<path d="M173.47 356.931C177.292 353.109 177.292 346.911 173.47 343.088C169.647 339.266 163.449 339.266 159.627 343.088C155.804 346.911 155.804 353.109 159.627 356.931C163.449 360.754 169.647 360.754 173.47 356.931Z" fill="#263238"/>
<path d="M165.267 353.067C165.267 353.382 165.173 353.69 164.998 353.953C164.823 354.215 164.574 354.419 164.282 354.54C163.991 354.66 163.671 354.692 163.361 354.63C163.052 354.569 162.768 354.417 162.545 354.194C162.322 353.971 162.17 353.687 162.109 353.378C162.047 353.069 162.079 352.748 162.199 352.457C162.32 352.165 162.524 351.916 162.787 351.741C163.049 351.566 163.357 351.473 163.672 351.473C164.095 351.473 164.501 351.641 164.8 351.94C165.099 352.239 165.267 352.644 165.267 353.067Z" fill="#455A64"/>
<path d="M162.079 349.381C162.59 349.381 163.003 348.968 163.003 348.457C163.003 347.947 162.59 347.533 162.079 347.533C161.569 347.533 161.155 347.947 161.155 348.457C161.155 348.968 161.569 349.381 162.079 349.381Z" fill="#455A64"/>
<path d="M157.042 352.356C157.042 352.519 148.664 360.612 150.837 362.328C153.01 364.044 162.139 359.637 169.927 353.341C177.715 347.046 184.823 339.42 182.884 337.399C180.944 335.379 171.207 341.359 171.207 341.359L172.364 342.101C172.364 342.101 178.254 338.323 180.112 339.796C181.97 341.268 176.67 346.975 169.176 352.448C161.682 357.921 154.452 361.749 153.335 360.246C152.218 358.743 157.509 353.758 157.509 353.758L157.042 352.356Z" fill="#263238"/>
<g opacity="0.3">
<path opacity="0.3" d="M161.144 343.116C161.225 343.207 160.565 343.776 159.813 344.903C158.816 346.353 158.265 348.063 158.229 349.823C158.193 351.582 158.673 353.314 159.61 354.803C160.321 355.971 160.961 356.56 160.88 356.651C160.798 356.743 160.037 356.266 159.164 355.108C158.035 353.574 157.439 351.712 157.468 349.808C157.499 348.763 157.712 347.732 158.097 346.761C158.416 345.979 158.847 345.247 159.377 344.588C160.291 343.471 161.103 343.045 161.144 343.116Z" fill="#455A64"/>
</g>
<path d="M189.272 367.201C189.13 367.201 189.008 359.535 189.008 350.081C189.008 340.628 189.13 332.972 189.272 332.972C189.414 332.972 189.536 340.628 189.536 350.081C189.536 359.535 189.414 367.201 189.272 367.201Z" fill="#263238"/>
<path d="M36.8792 367.201C36.7371 367.201 36.6152 359.535 36.6152 350.081C36.6152 340.628 36.7371 332.972 36.8792 332.972C37.0214 332.972 37.1432 340.628 37.1432 350.081C37.1432 359.535 37.0315 367.201 36.8792 367.201Z" fill="#263238"/>
<path d="M192.531 367.201C192.388 367.201 192.267 359.535 192.267 350.081C192.267 340.628 192.388 332.972 192.531 332.972C192.673 332.972 192.795 340.628 192.795 350.081C192.795 359.535 192.673 367.201 192.531 367.201Z" fill="#263238"/>
<path d="M33.8226 367.201C33.6804 367.201 33.5586 359.535 33.5586 350.081C33.5586 340.628 33.6804 332.972 33.8226 332.972C33.9648 332.972 34.0866 340.628 34.0866 350.081C34.0866 359.535 33.9749 367.201 33.8226 367.201Z" fill="#263238"/>
<path d="M174.04 277.033V302.825H149.792V277.033H174.04Z" fill="#EBEBEB"/>
<path d="M41.1324 274.829C37.355 283.968 37.9034 294.02 41.1324 304.682H175.289V302.824H166.739C163.32 302.821 160.043 301.462 157.627 299.043C155.21 296.625 153.853 293.347 153.853 289.928C153.852 288.235 154.184 286.559 154.831 284.994C155.478 283.43 156.427 282.008 157.624 280.81C158.82 279.613 160.241 278.663 161.805 278.014C163.369 277.366 165.046 277.033 166.739 277.033H175.766V274.291L41.1324 274.829Z" fill="#223079"/>
<path d="M159.722 278.993C159.722 279.145 132.854 279.257 99.7214 279.257C66.5885 279.257 39.7207 279.145 39.7207 278.993C39.7207 278.84 66.5783 278.729 99.7214 278.729C132.864 278.729 159.722 278.85 159.722 278.993Z" fill="#E0E0E0"/>
<path d="M160.84 301.403C160.84 301.545 133.83 301.667 100.524 301.667C67.2187 301.667 40.1885 301.545 40.1885 301.403C40.1885 301.261 67.1984 301.139 100.524 301.139C133.85 301.139 160.84 301.261 160.84 301.403Z" fill="#E0E0E0"/>
<g opacity="0.3">
<path opacity="0.3" d="M90.3507 283.481C92.4221 283.481 93.4782 284.263 93.5188 285.826C93.5507 286.394 93.4478 286.962 93.2184 287.483C92.989 288.003 92.6395 288.462 92.1987 288.822C92.796 288.941 93.3303 289.271 93.7034 289.752C94.0764 290.234 94.2633 290.834 94.2296 291.442C94.205 291.946 94.088 292.442 93.8843 292.904C93.2074 294.339 91.6572 295.053 89.2337 295.046C88.9393 295.046 88.5026 295.046 87.9137 294.996C87.7989 294.997 87.6861 294.965 87.5888 294.904C87.4933 294.833 87.4172 294.739 87.3675 294.631C87.3179 294.523 87.2962 294.404 87.3045 294.285L88.6245 284.131C88.6103 284.05 88.6103 283.968 88.6245 283.887C88.6683 283.785 88.7425 283.699 88.837 283.641C88.9315 283.583 89.0417 283.555 89.1525 283.562C89.5492 283.504 89.9498 283.477 90.3507 283.481ZM89.0916 289.685L88.5331 293.909H89.1931C89.8801 293.922 90.565 293.83 91.2239 293.635C91.7356 293.537 92.1967 293.263 92.527 292.861C92.8573 292.458 93.0358 291.952 93.0314 291.431C93.0314 290.7 92.544 290.193 91.5895 289.918C90.7671 289.755 89.93 289.677 89.0916 289.685ZM89.7516 284.608L89.2337 288.497H89.6805C91.4778 288.395 92.3714 287.481 92.3714 285.867C92.376 285.683 92.3338 285.5 92.2485 285.337C92.1632 285.173 92.0378 285.034 91.884 284.933C91.3284 284.665 90.7117 284.549 90.0968 284.598C89.9856 284.585 89.8735 284.582 89.7618 284.588L89.7516 284.608Z" fill="black"/>
<path opacity="0.3" d="M95.5099 290.324C95.5114 289.506 95.6276 288.693 95.8551 287.907C96.1579 286.751 96.7244 285.68 97.5103 284.78C97.7949 284.402 98.1586 284.091 98.5761 283.868C98.9935 283.645 99.4545 283.516 99.9269 283.49C100.328 283.499 100.722 283.603 101.075 283.793C101.428 283.984 101.731 284.256 101.958 284.587C102.599 285.494 102.953 286.573 102.973 287.684C103.136 287.623 103.379 287.511 103.694 287.359C103.972 287.201 104.28 287.101 104.598 287.065C104.691 287.063 104.782 287.087 104.862 287.136C104.946 287.181 105.016 287.248 105.065 287.33C105.113 287.413 105.138 287.507 105.136 287.603C105.121 287.809 105.026 288.002 104.872 288.141C104.321 288.583 103.655 288.858 102.953 288.933C102.913 289.472 102.821 290.006 102.679 290.527C102.393 291.714 101.825 292.815 101.024 293.736C100.728 294.111 100.354 294.418 99.9279 294.636C99.5019 294.853 99.034 294.976 98.5561 294.995C98.4481 295.005 98.3393 295.005 98.2312 294.995C97.8361 294.927 97.4616 294.77 97.1361 294.536C96.8106 294.302 96.5427 293.997 96.3527 293.644C95.76 292.641 95.4675 291.489 95.5099 290.324ZM96.7588 290.121C96.7435 290.913 96.8743 291.701 97.1447 292.446C97.49 293.34 97.9976 293.787 98.6577 293.787C98.8417 293.785 99.0227 293.74 99.1857 293.655C99.8439 293.285 100.372 292.721 100.699 292.04C101.236 291.102 101.582 290.067 101.714 288.994C100.991 289.003 100.282 288.791 99.6832 288.385C98.8554 287.82 98.2518 286.982 97.9773 286.019C97.1728 287.235 96.7486 288.663 96.7588 290.121ZM100.16 284.831C100.039 284.828 99.9195 284.86 99.8152 284.922C99.6688 285.021 99.5531 285.159 99.4812 285.321C99.4094 285.482 99.3844 285.661 99.4091 285.836C99.3993 285.924 99.3993 286.012 99.4091 286.1C99.4688 286.388 99.5905 286.66 99.7659 286.897C99.9412 287.134 100.166 287.329 100.424 287.471C100.809 287.724 101.254 287.871 101.714 287.897C101.687 287.493 101.626 287.092 101.531 286.699C101.288 285.501 100.821 284.881 100.16 284.831Z" fill="black"/>
<path opacity="0.3" d="M112.945 284.181C112.944 284.283 112.912 284.382 112.853 284.465C112.792 284.552 112.709 284.622 112.613 284.668C112.517 284.714 112.411 284.735 112.305 284.729H108.934C108.155 290.943 107.743 294.166 107.695 294.396V294.477C107.675 294.622 107.601 294.755 107.489 294.849C107.376 294.943 107.232 294.991 107.086 294.985C106.977 294.987 106.871 294.955 106.781 294.893C106.684 294.823 106.607 294.73 106.557 294.621C106.508 294.513 106.487 294.393 106.497 294.274C106.497 294.213 106.791 291.979 107.38 287.552C107.583 286.059 107.715 285.115 107.756 284.719H104.618C104.511 284.739 104.401 284.739 104.294 284.719C104.181 284.7 104.08 284.641 104.007 284.553C103.935 284.466 103.896 284.355 103.898 284.242C103.898 284.127 103.929 284.015 103.989 283.917C104.046 283.824 104.127 283.749 104.224 283.698C104.32 283.648 104.429 283.626 104.537 283.632H112.325C112.399 283.619 112.475 283.619 112.549 283.632C112.667 283.666 112.77 283.739 112.841 283.838C112.913 283.938 112.95 284.058 112.945 284.181Z" fill="black"/>
<path opacity="0.3" d="M116.031 283.876C116.064 283.94 116.088 284.009 116.102 284.079C116.224 284.475 116.863 287.867 118.041 294.233C118.052 294.28 118.052 294.329 118.041 294.376C118.038 294.482 118.011 294.586 117.96 294.68C117.911 294.769 117.839 294.844 117.751 294.895C117.664 294.947 117.564 294.975 117.462 294.975H117.371C117.264 294.959 117.163 294.912 117.082 294.84C117.001 294.768 116.943 294.673 116.914 294.569L116.264 291.187H112.893L111.268 294.579C111.256 294.618 111.239 294.655 111.218 294.69C111.161 294.774 111.086 294.843 110.997 294.893C110.909 294.942 110.811 294.97 110.71 294.975C110.595 294.974 110.483 294.943 110.385 294.883C110.302 294.83 110.235 294.756 110.188 294.669C110.142 294.582 110.119 294.484 110.121 294.386C110.107 294.329 110.107 294.27 110.121 294.213C110.223 293.98 110.385 293.604 110.619 293.096C112.974 287.945 114.386 284.898 114.853 283.958C114.896 283.84 114.974 283.738 115.075 283.664C115.176 283.59 115.296 283.547 115.421 283.541C115.545 283.531 115.668 283.557 115.777 283.617C115.885 283.677 115.973 283.767 116.031 283.876ZM115.3 286.151L113.472 289.989H116.051L115.3 286.151Z" fill="black"/>
<path opacity="0.3" d="M126.754 294.416C126.699 294.802 126.507 294.995 126.175 294.995C126.041 294.989 125.91 294.947 125.799 294.871C125.688 294.796 125.6 294.691 125.545 294.568L121.819 286.049C121.819 286.455 121.717 286.902 121.646 287.4C121.159 291.461 120.864 293.817 120.763 294.396C120.702 294.792 120.499 294.995 120.164 294.995C120.052 294.996 119.942 294.964 119.849 294.903C119.751 294.834 119.672 294.741 119.621 294.632C119.569 294.524 119.546 294.404 119.554 294.284C120.448 287.515 120.895 284.13 120.895 284.13C120.911 284.049 120.938 283.97 120.976 283.896C121.03 283.8 121.11 283.72 121.207 283.667C121.304 283.613 121.414 283.587 121.524 283.592C121.644 283.576 121.765 283.594 121.875 283.645C121.985 283.695 122.078 283.775 122.144 283.876L125.85 292.213L126.936 284.16C126.936 284.072 126.957 283.985 126.997 283.907C127.036 283.807 127.104 283.722 127.194 283.664C127.283 283.605 127.388 283.577 127.495 283.582C127.599 283.58 127.701 283.608 127.789 283.663C127.875 283.714 127.946 283.787 127.994 283.874C128.043 283.962 128.066 284.061 128.063 284.16C128.063 284.333 128.063 284.506 128.003 284.699C127.278 290.541 126.862 293.78 126.754 294.416Z" fill="black"/>
<path opacity="0.3" d="M137.213 283.622C137.308 283.621 137.401 283.642 137.487 283.683C137.582 283.731 137.662 283.803 137.719 283.892C137.776 283.982 137.808 284.085 137.812 284.191C137 290.588 136.553 294.047 136.471 294.569C136.326 295.538 135.961 296.462 135.405 297.27C135.035 297.789 134.542 298.209 133.969 298.491C133.397 298.773 132.763 298.908 132.126 298.884C131.573 298.859 131.032 298.714 130.541 298.458C129.798 298.166 129.18 297.624 128.795 296.924C128.745 296.838 128.721 296.74 128.724 296.64C128.726 296.537 128.753 296.435 128.805 296.346C128.855 296.255 128.929 296.18 129.018 296.128C129.108 296.076 129.209 296.049 129.313 296.051C129.401 296.056 129.487 296.08 129.564 296.122C129.641 296.164 129.708 296.223 129.76 296.295C130.037 296.72 130.413 297.073 130.854 297.323C131.296 297.574 131.791 297.716 132.298 297.737C132.682 297.73 133.06 297.634 133.401 297.458C133.743 297.282 134.039 297.03 134.268 296.721C134.941 295.818 135.321 294.73 135.355 293.604C135.085 294.024 134.714 294.369 134.276 294.607C133.837 294.845 133.345 294.968 132.846 294.965H132.522C132.127 294.896 131.753 294.739 131.427 294.505C131.102 294.271 130.834 293.967 130.643 293.614C130.061 292.614 129.776 291.47 129.821 290.314C129.821 289.715 129.821 289.096 129.892 288.456C129.993 287.44 130.217 286.039 130.572 284.191C130.573 284.133 130.591 284.077 130.623 284.029C130.652 283.911 130.721 283.808 130.816 283.734C130.912 283.66 131.03 283.621 131.151 283.622C131.251 283.621 131.35 283.649 131.435 283.704C131.523 283.746 131.598 283.812 131.65 283.895C131.702 283.977 131.729 284.073 131.73 284.171C131.678 284.927 131.587 285.679 131.455 286.425C131.265 287.568 131.136 288.72 131.069 289.877C131.036 290.791 131.185 291.702 131.506 292.558C131.851 293.37 132.339 293.766 132.978 293.766H133.171C133.794 293.565 134.322 293.143 134.654 292.578C135.243 291.765 135.658 290.838 135.872 289.857L136.624 284.211C136.634 284.125 136.661 284.042 136.705 283.968C136.742 283.863 136.811 283.774 136.902 283.712C136.994 283.65 137.102 283.618 137.213 283.622Z" fill="black"/>
</g>
<g opacity="0.3">
<path opacity="0.3" d="M60.2427 295.787C61.1246 295.424 61.8899 294.825 62.4556 294.057C63.0213 293.289 63.3657 292.381 63.4514 291.431C63.3801 290.597 63.1442 289.785 62.7573 289.043C62.3703 288.3 61.8401 287.642 61.1972 287.105C59.9042 286.046 58.4771 285.162 56.9528 284.476L53.2059 282.556C53.0221 282.428 52.8118 282.342 52.5904 282.305C52.369 282.268 52.1422 282.281 51.9265 282.343C51.7394 282.474 51.5853 282.647 51.4761 282.848C51.3668 283.049 51.3056 283.272 51.297 283.501C50.7615 286.704 51.1634 289.994 52.4545 292.975C53.2466 294.782 54.3229 296.437 56.1608 297.036C57.6261 297.139 59.0764 296.686 60.2224 295.767" fill="black"/>
</g>
<path d="M62.0904 298.143C60.4377 296.162 58.9245 294.069 57.5616 291.878C56.0546 289.787 54.6973 287.592 53.5 285.309C55.1473 287.297 56.6603 289.394 58.0287 291.584C59.5274 293.677 60.8843 295.869 62.0904 298.143Z" fill="#223079"/>
<path d="M57.2675 290.945C57.2675 291.087 56.3434 291.005 55.2367 290.762C54.1299 290.518 53.3378 290.203 53.3784 290.061C53.4191 289.919 54.2923 290 55.4093 290.244C56.5262 290.488 57.2675 290.802 57.2675 290.945Z" fill="#223079"/>
<path d="M59.4811 294.062C59.4811 294.204 58.5672 294.123 57.4503 293.879C56.3333 293.635 55.5515 293.321 55.5819 293.178C55.6124 293.036 56.5059 293.117 57.6127 293.361C58.7195 293.605 59.5116 293.92 59.4811 294.062Z" fill="#223079"/>
<path d="M58.5774 292.792C58.2255 291.299 58.2255 289.745 58.5774 288.253C58.9292 289.745 58.9292 291.299 58.5774 292.792Z" fill="#223079"/>
<g opacity="0.3">
<path opacity="0.3" d="M68.4379 293.575C68.9241 294.153 69.5602 294.588 70.2765 294.829C70.9929 295.071 71.7619 295.111 72.4995 294.945C73.1069 294.698 73.6587 294.331 74.1226 293.867C74.5864 293.404 74.9529 292.852 75.2005 292.244C75.7073 291.033 76.0488 289.759 76.2159 288.457C76.3886 287.381 76.5713 286.304 76.744 285.238C76.8006 285.069 76.8173 284.89 76.7926 284.714C76.7679 284.537 76.7026 284.369 76.6018 284.223C76.4615 284.109 76.2959 284.032 76.119 283.996C75.9422 283.961 75.7595 283.969 75.5864 284.02C73.0682 284.354 70.7013 285.412 68.773 287.066C68.1665 287.498 67.6584 288.053 67.2821 288.695C66.9058 289.337 66.6699 290.052 66.5898 290.792C66.8494 291.912 67.5244 292.892 68.4785 293.534" fill="black"/>
</g>
<path d="M67.1172 295.494C68.169 293.762 69.3682 292.125 70.7016 290.599C71.8983 288.968 73.2334 287.442 74.6922 286.04C73.6487 287.771 72.4525 289.406 71.1179 290.924C69.9247 292.565 68.5857 294.094 67.1172 295.494Z" fill="#223079"/>
<path d="M71.3727 290.203C71.2306 290.203 71.0579 289.533 70.9869 288.69C70.9158 287.847 70.9869 287.136 71.129 287.126C71.2712 287.116 71.454 287.796 71.5149 288.639C71.5758 289.482 71.4844 290.193 71.3727 290.203Z" fill="#223079"/>
<path d="M69.5661 292.599C69.4239 292.599 69.2513 291.929 69.1802 291.086C69.1091 290.244 69.1802 289.533 69.3224 289.523C69.4645 289.512 69.6473 290.193 69.7082 291.046C69.7692 291.899 69.7184 292.589 69.5661 292.599Z" fill="#223079"/>
<path d="M70.3057 291.635C70.3057 291.493 70.986 291.137 71.9202 290.843C72.8544 290.548 73.6464 290.416 73.687 290.558C73.7276 290.701 73.0168 291.046 72.0725 291.34C71.1282 291.635 70.3463 291.767 70.3057 291.635Z" fill="#223079"/>
<path d="M174.041 290.274C170.693 290.535 167.334 290.623 163.978 290.538C160.621 290.623 157.262 290.535 153.915 290.274C157.262 290.006 160.621 289.918 163.978 290.01C167.334 289.918 170.693 290.006 174.041 290.274Z" fill="#E0E0E0"/>
<path d="M174.04 296.082C171.001 296.342 167.95 296.43 164.901 296.346C161.836 296.432 158.768 296.344 155.712 296.082C158.767 295.815 161.836 295.727 164.901 295.818C167.95 295.729 171.002 295.817 174.04 296.082Z" fill="#E0E0E0"/>
<path d="M174.121 301.393C171.894 301.66 169.65 301.749 167.409 301.657C165.171 301.748 162.93 301.66 160.707 301.393C162.931 301.132 165.171 301.044 167.409 301.129C169.65 301.044 171.894 301.132 174.121 301.393Z" fill="#E0E0E0"/>
<path d="M174.163 285.045C170.945 285.312 167.714 285.4 164.486 285.309C161.258 285.401 158.028 285.313 154.81 285.045C158.028 284.783 161.258 284.695 164.486 284.781C167.714 284.695 170.945 284.783 174.163 285.045Z" fill="#E0E0E0"/>
<path d="M174.041 279.826C171.556 280.093 169.055 280.181 166.557 280.09C164.056 280.182 161.552 280.093 159.063 279.826C161.552 279.565 164.056 279.476 166.557 279.562C169.055 279.476 171.555 279.565 174.041 279.826Z" fill="#E0E0E0"/>
<path d="M187.414 247.058V272.839H137.486V247.058H187.414Z" fill="#EBEBEB"/>
<path d="M26.2365 260.187V260.867C26.4775 264.633 28.1491 268.164 30.9091 270.737C33.6691 273.31 37.3085 274.731 41.0818 274.707H189.738V272.839H154.453C152.759 272.842 151.081 272.51 149.515 271.864C147.949 271.218 146.527 270.269 145.328 269.072C144.129 267.875 143.178 266.454 142.529 264.889C141.881 263.324 141.547 261.647 141.547 259.953C141.547 256.536 142.904 253.258 145.321 250.842C147.737 248.425 151.015 247.068 154.432 247.068H189.718V244.326L41.0514 244.824C39.0613 244.831 37.0928 245.237 35.2626 246.019C33.4324 246.8 31.7776 247.941 30.3962 249.373C29.0148 250.806 27.9348 252.501 27.2203 254.359C26.5058 256.216 26.1713 258.198 26.2365 260.187Z" fill="#223079"/>
<path d="M187.413 260.288C187.413 260.441 177.147 260.552 164.495 260.552C151.843 260.552 141.577 260.441 141.577 260.288C141.577 260.136 151.843 260.024 164.495 260.024C177.147 260.024 187.413 260.146 187.413 260.288Z" fill="#E0E0E0"/>
<path d="M186.692 266.107C186.692 266.249 176.985 266.371 165.003 266.371C153.021 266.371 143.324 266.249 143.324 266.107C143.324 265.965 153.032 265.843 165.003 265.843C176.975 265.843 186.692 265.954 186.692 266.107Z" fill="#E0E0E0"/>
<path d="M187.414 271.417C187.414 271.559 178.681 271.681 167.918 271.681C157.154 271.681 148.422 271.559 148.422 271.417C148.422 271.275 157.144 271.153 167.918 271.153C178.691 271.153 187.414 271.275 187.414 271.417Z" fill="#E0E0E0"/>
<path d="M187.413 255.07C187.413 255.212 177.36 255.334 164.962 255.334C152.564 255.334 142.521 255.212 142.521 255.07C142.521 254.928 152.564 254.806 164.962 254.806C177.36 254.806 187.413 254.928 187.413 255.07Z" fill="#E0E0E0"/>
<path d="M186.692 249.851C186.692 249.993 177.746 250.115 166.709 250.115C155.671 250.115 146.726 249.993 146.726 249.851C146.726 249.709 155.671 249.587 166.709 249.587C177.746 249.587 186.692 249.709 186.692 249.851Z" fill="#E0E0E0"/>
<g opacity="0.3">
<path opacity="0.3" d="M26.2365 260.187V260.867C26.4775 264.633 28.1491 268.164 30.9091 270.737C33.6691 273.31 37.3085 274.731 41.0818 274.707H189.738V272.839H154.453C152.759 272.842 151.081 272.51 149.515 271.864C147.949 271.218 146.527 270.269 145.328 269.072C144.129 267.875 143.178 266.454 142.529 264.889C141.881 263.324 141.547 261.647 141.547 259.953C141.547 256.536 142.904 253.258 145.321 250.842C147.737 248.425 151.015 247.068 154.432 247.068H189.718V244.326L41.0514 244.824C39.0613 244.831 37.0928 245.237 35.2626 246.019C33.4324 246.8 31.7776 247.941 30.3962 249.373C29.0148 250.806 27.9348 252.501 27.2203 254.359C26.5058 256.216 26.1713 258.198 26.2365 260.187Z" fill="black"/>
</g>
<path d="M44.2501 245.251C43.1014 246.418 42.0424 247.671 41.0821 248.998C38.8241 252.257 37.6363 256.138 37.6836 260.103C37.7309 264.068 39.0109 267.919 41.3461 271.124C42.3346 272.429 43.4208 273.658 44.5954 274.799C44.2219 274.584 43.8802 274.317 43.58 274.007C42.6314 273.21 41.7733 272.311 41.0211 271.327C38.5503 268.101 37.1895 264.163 37.1419 260.1C37.0943 256.037 38.3626 252.067 40.7571 248.785C41.4664 247.796 42.2763 246.884 43.1738 246.063C43.4941 245.745 43.8562 245.472 44.2501 245.251Z" fill="#E0E0E0"/>
<path d="M39.2251 244.723C38.0832 245.897 37.0278 247.153 36.0671 248.48C33.8094 251.735 32.6208 255.612 32.6663 259.573C32.7118 263.534 33.9891 267.383 36.321 270.585C37.3095 271.891 38.3957 273.12 39.5703 274.261C39.1996 274.041 38.8584 273.775 38.5549 273.469C37.6359 272.674 36.8052 271.782 36.0773 270.809C33.6019 267.585 32.2373 263.647 32.1879 259.583C32.1385 255.519 33.4069 251.549 35.8031 248.266C36.5124 247.278 37.3223 246.366 38.2198 245.545C38.5237 245.235 38.8608 244.959 39.2251 244.723Z" fill="#E0E0E0"/>
<path d="M140.206 245.251C139.059 246.417 138.004 247.67 137.048 248.998C134.795 252.255 133.61 256.132 133.657 260.093C133.705 264.053 134.982 267.901 137.312 271.103C138.294 272.415 139.38 273.644 140.562 274.779C140.168 274.566 139.806 274.3 139.485 273.987C138.564 273.194 137.733 272.302 137.008 271.327C134.531 268.104 133.166 264.164 133.118 260.1C133.071 256.035 134.343 252.065 136.744 248.785C137.447 247.792 138.258 246.879 139.16 246.063C139.47 245.746 139.822 245.472 140.206 245.251Z" fill="#E0E0E0"/>
<path d="M135.181 244.723C134.039 245.897 132.983 247.153 132.023 248.48C129.769 251.737 128.584 255.614 128.631 259.575C128.679 263.535 129.956 267.383 132.287 270.585C133.272 271.894 134.358 273.123 135.536 274.261C135.145 274.044 134.783 273.777 134.46 273.469C133.543 272.671 132.713 271.779 131.982 270.809C129.511 267.583 128.15 263.644 128.103 259.581C128.055 255.518 129.323 251.549 131.718 248.266C132.421 247.273 133.232 246.361 134.135 245.545C134.45 245.231 134.801 244.955 135.181 244.723Z" fill="#E0E0E0"/>
<path d="M61.166 263.813C61.166 260.32 61.0645 256.817 61.0239 253.324C61.0633 252.408 60.936 251.493 60.6482 250.623C60.4952 250.184 60.225 249.796 59.8669 249.501C59.5089 249.206 59.0767 249.014 58.6174 248.947C57.3075 248.368 55.2564 249.455 54.3425 250.978C53.5564 252.571 53.2061 254.344 53.3271 256.116C53.3099 258.883 53.4455 261.649 53.7332 264.402C53.8097 265.723 54.1553 267.016 54.7486 268.199C55.009 268.815 55.4572 269.332 56.0292 269.677C56.6011 270.022 57.2676 270.178 57.9333 270.121C58.599 270.065 59.2298 269.8 59.7356 269.363C60.2415 268.927 60.5964 268.342 60.7497 267.692C61.1229 266.435 61.264 265.12 61.166 263.813Z" fill="#E0E0E0"/>
<path d="M118.884 260.796C118.884 260.938 108.141 261.06 94.8897 261.06C81.6386 261.06 70.8955 260.938 70.8955 260.796C70.8955 260.654 81.6386 260.532 94.8897 260.532C108.141 260.532 118.884 260.654 118.884 260.796Z" fill="#E0E0E0"/>
<path d="M51.2058 244.214L50.9316 219.773H64.2335L64.7006 244.214H51.2058Z" fill="#F5F5F5"/>
<path d="M63.4527 224.12C61.4033 224.392 59.3347 224.49 57.2688 224.415C55.2038 224.5 53.1352 224.412 51.085 224.151C53.1352 223.89 55.2038 223.802 57.2688 223.887C59.333 223.792 61.4015 223.87 63.4527 224.12Z" fill="#E0E0E0"/>
<path d="M63.4527 227.897C61.4024 228.158 59.3339 228.247 57.2688 228.161C55.2038 228.247 53.1352 228.158 51.085 227.897C53.1347 227.63 55.2038 227.542 57.2688 227.633C59.3339 227.542 61.4029 227.63 63.4527 227.897Z" fill="#E0E0E0"/>
<path d="M63.4527 231.665C61.4029 231.931 59.3339 232.02 57.2688 231.929C55.2038 232.02 53.1347 231.931 51.085 231.665C53.1352 231.404 55.2038 231.315 57.2688 231.401C59.3339 231.315 61.4024 231.404 63.4527 231.665Z" fill="#E0E0E0"/>
<path d="M63.4527 235.441C61.4024 235.702 59.3339 235.791 57.2688 235.705C55.2038 235.791 53.1352 235.702 51.085 235.441C53.1347 235.174 55.2038 235.086 57.2688 235.177C59.3339 235.086 61.4029 235.174 63.4527 235.441Z" fill="#E0E0E0"/>
<path d="M63.4527 239.208C61.4029 239.475 59.3339 239.564 57.2688 239.472C55.2038 239.564 53.1347 239.475 51.085 239.208C53.1352 238.948 55.2038 238.859 57.2688 238.944C59.3339 238.859 61.4024 238.948 63.4527 239.208Z" fill="#E0E0E0"/>
<path d="M49.7734 218.962H197.262C199.08 227.085 198.826 235.96 197.262 245.363H50.403V243.565H59.3792C60.5022 243.565 61.5792 243.119 62.3733 242.325C63.1674 241.531 63.6135 240.454 63.6135 239.331V224.709C63.6148 224.152 63.5063 223.601 63.2941 223.086C63.0819 222.571 62.7702 222.103 62.3769 221.708C61.9836 221.314 61.5163 221.001 61.002 220.788C60.4876 220.575 59.9361 220.465 59.3792 220.465H49.7734V218.962Z" fill="#223079"/>
<path d="M192.165 245.89C192.023 245.89 191.901 239.797 191.901 232.334C191.901 224.871 192.023 218.778 192.165 218.778C192.308 218.778 192.429 224.871 192.429 232.334C192.429 239.797 192.318 245.89 192.165 245.89Z" fill="#263238"/>
<path d="M71.4847 245.89C71.3426 245.89 71.2207 239.797 71.2207 232.334C71.2207 224.871 71.3426 218.778 71.4847 218.778C71.6269 218.778 71.7487 224.871 71.7487 232.334C71.7487 239.797 71.6269 245.89 71.4847 245.89Z" fill="#263238"/>
<path d="M194.756 245.89C194.614 245.89 194.492 239.797 194.492 232.334C194.492 224.871 194.614 218.778 194.756 218.778C194.898 218.778 195.02 224.871 195.02 232.334C195.02 239.797 194.909 245.89 194.756 245.89Z" fill="#263238"/>
<path d="M69.0667 245.89C68.9144 245.89 68.8027 239.797 68.8027 232.334C68.8027 224.871 68.9144 218.778 69.0667 218.778C69.2191 218.778 69.3307 224.871 69.3307 232.334C69.3307 239.797 69.2089 245.89 69.0667 245.89Z" fill="#263238"/>
<path d="M156.413 223.247V223.196L172.01 235.777L172.152 235.889H171.98L169.949 236.437L156.748 239.89H156.698L144.767 234.813L141.385 233.371L140.502 232.985L140.268 232.883H140.197H140.279L140.512 232.975L141.406 233.34L144.807 234.752L156.759 239.748H156.708L169.908 236.275L171.939 235.726V235.879L156.302 223.298" fill="#E0E0E0"/>
<path d="M170.567 233.817L171.41 234.62L172.558 234.366L172.06 235.422L172.639 236.437L171.481 236.285L170.709 237.158L170.486 236.011L169.42 235.533L170.445 234.975L170.567 233.817Z" fill="#E0E0E0"/>
<path d="M155.611 238.772L156.189 239.26L156.92 239.057L156.636 239.757L157.063 240.387L156.301 240.336L155.834 240.925L155.651 240.194L154.94 239.93L155.58 239.524L155.611 238.772Z" fill="#E0E0E0"/>
<path d="M139.101 231.999L140.025 232.05L140.593 231.329L140.827 232.223L141.7 232.537L140.918 233.035L140.878 233.959L140.167 233.37L139.273 233.624L139.608 232.771L139.101 231.999Z" fill="#E0E0E0"/>
<path d="M177.553 223.44L178.477 223.501L179.045 222.77L179.279 223.673L180.152 223.988L179.37 224.486L179.33 225.41L178.619 224.821L177.725 225.075L178.071 224.211L177.553 223.44Z" fill="#E0E0E0"/>
<path d="M155.652 222.831L156.241 222.871L156.607 222.404L156.759 222.983L157.318 223.186L156.81 223.501L156.79 224.09L156.333 223.714L155.764 223.877L155.987 223.328L155.652 222.831Z" fill="#E0E0E0"/>
<path d="M178.854 224.089C178.854 224.15 173.777 223.977 167.594 223.713C161.41 223.449 156.333 223.185 156.343 223.125C156.353 223.064 161.42 223.236 167.604 223.5C173.788 223.764 178.854 224.028 178.854 224.089Z" fill="#E0E0E0"/>
<path d="M184.519 218.89H34.929C32.9692 214.453 32.492 210.229 34.929 206.441H184.519C185.446 208.386 185.927 210.512 185.927 212.666C185.927 214.82 185.446 216.946 184.519 218.89Z" fill="#455A64"/>
<path d="M146.949 210.006H65.9092V214.535H146.949V210.006Z" fill="#EBEBEB"/>
<path d="M40.6766 218.962C40.1779 218.55 39.7758 218.034 39.4987 217.449C38.7333 216.092 38.2692 214.585 38.138 213.032C38.0037 211.483 38.1975 209.922 38.7067 208.453C38.8795 207.828 39.1881 207.249 39.6104 206.757C39.4646 207.369 39.285 207.972 39.0722 208.564C38.674 210.004 38.5365 211.503 38.666 212.991C38.8002 214.487 39.1955 215.948 39.8338 217.307C40.1491 217.84 40.4306 218.393 40.6766 218.962Z" fill="#E0E0E0"/>
<path d="M43.9148 218.962C43.4162 218.55 43.0141 218.034 42.737 217.449C41.9716 216.092 41.5075 214.585 41.3763 213.032C41.242 211.483 41.4358 209.922 41.945 208.453C42.1172 207.83 42.422 207.251 42.8385 206.757C42.6987 207.37 42.5189 207.974 42.3003 208.564C41.9113 210.006 41.7772 211.504 41.9043 212.991C42.0273 214.487 42.4158 215.948 43.0517 217.307C43.3691 217.843 43.6572 218.395 43.9148 218.962Z" fill="#E0E0E0"/>
<path d="M178.467 218.667C179.851 214.728 179.876 210.438 178.538 206.482C179.543 208.358 180.063 210.456 180.05 212.584C180.038 214.712 179.494 216.803 178.467 218.667Z" fill="#E0E0E0"/>
<path d="M175.674 218.637C175.522 218.637 176.152 215.976 176.131 212.676C176.111 209.376 175.502 206.756 175.664 206.716C176.412 208.611 176.758 210.641 176.68 212.676C176.766 214.712 176.423 216.742 175.674 218.637Z" fill="#E0E0E0"/>
<path d="M400.67 117.137C402.186 111.513 403.131 105.75 403.491 99.9368C403.868 94.0823 402.489 88.2485 399.531 83.1821C398.036 80.6729 395.952 78.566 393.46 77.0437C390.967 75.5215 388.141 74.6298 385.226 74.4459C381.638 74.4459 378.025 75.609 374.486 74.9656C370.402 74.2231 367.21 71.1296 363.72 68.8774C358.232 65.2929 351.723 63.5984 345.183 64.0515C341.784 64.2114 338.502 65.3454 335.73 67.3183C334.333 68.2791 333.202 69.5766 332.441 71.0907C331.68 72.6048 331.313 74.2866 331.374 75.9803C327.243 75.1742 323.025 74.908 318.826 75.1883C314.59 75.5059 310.646 77.469 307.838 80.6577C306.492 82.2757 305.697 84.2804 305.568 86.3809C305.439 88.4815 305.983 90.5685 307.12 92.339C305.225 91.803 303.198 91.9835 301.427 92.8462C299.656 93.7089 298.264 95.1934 297.518 97.0165C296.85 98.8826 296.727 100.901 297.166 102.834C297.604 104.767 298.585 106.535 299.993 107.931C303.502 110.874 307.936 112.486 312.516 112.484C316.649 112.547 320.747 111.702 324.519 110.009" fill="#263238"/>
<path d="M386.934 248.279C382.878 249.221 378.666 249.288 374.582 248.473C370.498 247.658 366.634 245.982 363.249 243.555C359.865 241.128 357.036 238.007 354.954 234.4C352.871 230.794 351.582 226.784 351.173 222.639C350.232 213.21 349.416 205.315 349.243 204.053C349.243 204.053 325.558 204.499 321.227 181.507C316.896 158.516 311.625 104.787 311.625 104.787C323.741 96.86 337.753 92.3113 352.215 91.6109C366.677 90.9104 381.063 94.0836 393.889 100.803L397.774 102.832L409.431 216.675C410.184 223.781 408.312 230.916 404.168 236.737C400.024 242.559 393.895 246.664 386.934 248.279Z" fill="#FFBE9D"/>
<path d="M349.219 203.733C359.893 202.072 369.829 197.263 377.754 189.923C377.754 189.923 373.571 207.766 350.209 209.722L349.219 203.733Z" fill="#EB996E"/>
<path d="M399.18 127.309C399.552 127.061 414.203 119.884 416.504 135.698C418.806 151.513 402.398 150.548 402.299 150.077C402.2 149.607 399.18 127.309 399.18 127.309Z" fill="#FFBE9D"/>
<path d="M406.237 143.395C406.237 143.395 406.534 143.544 407.029 143.692C407.728 143.879 408.472 143.791 409.108 143.445C410.039 142.649 410.74 141.62 411.141 140.463C411.541 139.305 411.625 138.062 411.384 136.862C411.246 135.496 410.788 134.182 410.048 133.026C409.821 132.538 409.476 132.115 409.044 131.795C408.612 131.475 408.106 131.268 407.573 131.194C407.245 131.157 406.915 131.235 406.639 131.416C406.363 131.597 406.16 131.869 406.063 132.184C405.915 132.654 406.063 132.976 406.063 133.001C406.063 133.026 405.692 132.778 405.742 132.11C405.765 131.703 405.932 131.317 406.212 131.021C406.605 130.641 407.125 130.42 407.672 130.402C408.342 130.444 408.99 130.654 409.557 131.013C410.124 131.372 410.59 131.869 410.914 132.456C411.794 133.728 412.339 135.2 412.498 136.738C412.778 138.138 412.638 139.589 412.097 140.91C411.555 142.23 410.636 143.362 409.454 144.163C409.049 144.359 408.605 144.462 408.155 144.462C407.705 144.462 407.26 144.359 406.855 144.163C406.311 143.767 406.187 143.42 406.237 143.395Z" fill="#EB996E"/>
<path d="M311.797 112.162C323.433 113.229 335.108 110.569 345.133 104.565C356.27 97.9568 369.56 94.1455 372.703 96.2492C375.846 98.3528 377.331 110.232 389.037 112.88C389.037 112.88 389.903 135.673 398.936 134.213C407.969 132.753 399.728 97.9321 399.728 97.9321L376.761 88.7009L352.211 85.9043L329.541 87.5624L308.926 95.5809L311.797 112.162Z" fill="#263238"/>
</svg>
