<svg width="566" height="400" viewBox="0 0 566 400" fill="none" xmlns="http://www.w3.org/2000/svg">
<path d="M554.732 150.584C542.926 88.7421 498.904 33.1892 440.076 10.7451C381.248 -11.699 309.554 1.49776 264.831 45.8355C241.437 68.9676 224.759 99.971 195.613 115.122C165.504 130.796 129.052 125.897 96.1079 134.084C54.8251 144.336 19.721 176.743 6.26281 217.159C-7.19538 257.575 1.43272 304.541 28.3353 337.567L505.578 334.815C546.228 286.652 566.539 212.439 554.732 150.584Z" fill="#FFE546" fill-opacity="0.5"/>
<path d="M565.227 336.5C565.227 336.788 438.738 337 282.739 337C126.74 337 0.227051 336.865 0.227051 336.5C0.227051 336.135 126.681 336 282.739 336C438.797 336 565.227 336.308 565.227 336.5Z" fill="#263238"/>
<path d="M336.923 280.312C331.817 276.004 327.868 272.523 323.382 268.298C316.667 261.977 307.92 258.254 298.709 257.799L221.001 253.904H207.102C199.217 253.904 156.709 284.316 150.902 290.646L189.694 325.846L194.525 323.273L193.96 335.218L307.116 334.956L308.135 318.305L329.148 331.819L356.67 299.164C356.67 299.164 345.509 287.495 336.923 280.312Z" fill="#FF6262"/>
<path d="M308.949 264.197C307.614 265.309 306.341 266.495 305.137 267.748C302.37 270.895 300.423 274.676 299.468 278.756C298.557 282.846 298.421 287.07 299.069 291.21C299.537 294.403 300.128 296.315 300.018 296.357C299.776 295.927 299.599 295.463 299.495 294.98C299.108 293.753 298.795 292.503 298.56 291.237C297.752 287.035 297.822 282.71 298.766 278.536C299.743 274.351 301.814 270.5 304.766 267.376C305.658 266.437 306.645 265.593 307.711 264.858C308.089 264.578 308.506 264.355 308.949 264.197Z" fill="#263238"/>
<path d="M256.01 322.131C255.501 322.005 255.008 321.825 254.537 321.594C253.601 321.223 252.267 320.59 250.67 319.75C242.297 315.319 235.038 309.047 229.437 301.407C228.378 299.948 227.566 298.724 227.057 297.843C226.754 297.416 226.504 296.954 226.313 296.467C226.424 296.467 227.69 298.27 229.836 301.104C232.725 304.773 235.95 308.164 239.469 311.232C243.017 314.281 246.846 316.985 250.904 319.31C254.028 321.085 256.065 322.021 256.01 322.131Z" fill="#263238"/>
<g opacity="0.3">
<path opacity="0.3" d="M303.952 330.759C302.642 329.874 301.086 329.426 299.507 329.479C286.957 328.736 274.379 330.456 261.802 330.731C249.224 331.007 236.179 329.727 225.239 323.493C221.799 321.539 218.483 319.365 214.946 317.631C208.767 314.535 200.029 315.883 194.896 319.819L194.016 335.217C229.065 335.493 266.797 335.066 301.846 335.328C302.676 335.408 303.511 335.235 304.241 334.832C305.507 333.91 305.149 331.763 303.952 330.759Z" fill="black"/>
</g>
<path d="M203.58 295.972C203.456 295.972 203.855 294.183 204.226 291.307C205.222 283.802 204.754 276.176 202.85 268.849C202.135 266.097 201.474 264.335 201.639 264.294C201.888 264.642 202.079 265.027 202.204 265.436C202.52 266.193 202.919 267.308 203.346 268.711C204.438 272.375 205.107 276.152 205.341 279.968C205.581 283.786 205.373 287.619 204.722 291.389C204.474 292.765 204.213 293.976 203.992 294.774C203.911 295.191 203.773 295.594 203.58 295.972Z" fill="#263238"/>
<path d="M199.109 348.525L153.698 393.083H258.652C258.652 393.083 264.157 384.193 274.34 384.936C284.523 385.679 330.195 398.339 343.956 396.082L331.916 346.667C331.916 346.667 295.559 336.126 274.863 340.13C269.148 341.253 263.887 344.023 259.726 348.098L199.109 348.525Z" fill="#FAFAFA"/>
<path d="M199.108 348.524H199.741H201.64L209.03 348.427L236.965 348.139L256.767 347.96H259.519H259.822C259.491 348.097 259.822 347.96 259.684 347.96L259.945 347.726L260.441 347.244L261.5 346.322C262.972 345.097 264.558 344.014 266.234 343.088C269.764 341.121 273.661 339.903 277.683 339.51C281.916 339.005 286.185 338.88 290.44 339.139C294.923 339.374 299.392 339.833 303.829 340.515C313.352 341.91 322.778 343.9 332.053 346.473H332.232V346.666C335.988 362.01 340.062 378.688 344.3 396.054L344.396 396.453H344.011C342.564 396.632 341.107 396.715 339.649 396.701H337.461L335.273 396.536C333.814 396.439 332.342 396.274 330.883 396.082C329.424 395.889 327.938 395.724 326.466 395.49C320.576 394.595 314.631 393.481 308.659 392.242C299.591 390.398 290.687 388.334 281.922 386.587C277.559 385.816 273.128 384.646 268.959 385.899C264.868 387.151 261.335 389.775 258.955 393.329L258.831 393.495H258.652L153.642 393.398H153.023L153.463 392.972L186.875 360.4L195.93 351.606L198.296 349.349C198.819 348.84 199.108 348.593 199.108 348.593L198.324 349.418L195.985 351.744L186.999 360.647L153.807 393.261L153.642 392.834L258.652 392.738L258.363 392.903C260.855 389.198 264.557 386.474 268.835 385.197C271.007 384.601 273.279 384.456 275.509 384.77C277.738 385.018 279.926 385.458 282.128 385.871C290.921 387.619 299.811 389.683 308.879 391.527C314.838 392.751 320.783 393.88 326.645 394.761C328.103 395.008 329.576 395.201 331.034 395.366C332.493 395.531 333.952 395.724 335.397 395.806L337.571 395.985H339.718C341.138 396.009 342.559 395.936 343.97 395.765L343.681 396.192C339.456 378.825 335.424 362.147 331.667 346.79L331.888 347.024C322.65 344.448 313.26 342.449 303.774 341.038C299.233 340.377 294.788 339.882 290.44 339.662C286.218 339.401 281.981 339.516 277.78 340.006C273.823 340.379 269.987 341.564 266.509 343.487C264.863 344.395 263.306 345.454 261.858 346.652C261.487 346.941 261.156 347.258 260.812 347.561L260.303 348.028L260.056 348.262C259.973 348.262 260.207 348.262 259.863 348.359H256.849L237.088 348.455L209.168 348.551H199.755L199.108 348.524Z" fill="#263238"/>
<path d="M258.651 393.082C258.458 393.082 258.651 382.954 258.967 370.487C259.284 358.02 259.807 347.892 260.013 347.905C260.219 347.919 260.013 358.02 259.683 370.501C259.352 382.982 258.843 393.082 258.651 393.082Z" fill="#263238"/>
<path d="M247.56 383.532C247.322 383.561 247.082 383.561 246.844 383.532L244.78 383.601L237.184 383.821L212.222 383.89L187.259 383.78L179.691 383.684H177.64C177.402 383.702 177.163 383.702 176.925 383.684C177.834 383.529 178.755 383.464 179.677 383.491C181.466 383.491 184.053 383.395 187.246 383.353C193.631 383.271 202.465 383.243 212.208 383.243C221.951 383.243 230.785 383.243 237.184 383.395L244.739 383.518L246.803 383.601C247.049 383.536 247.305 383.512 247.56 383.532Z" fill="#263238"/>
<path d="M248.8 377.285C248.579 377.337 248.352 377.36 248.126 377.354H246.172H239.016L215.402 377.106L191.775 376.707L184.619 376.514L182.679 376.446C182.454 376.461 182.229 376.461 182.004 376.446C182.868 376.304 183.745 376.253 184.619 376.294C186.312 376.294 188.747 376.294 191.775 376.294C197.829 376.294 206.169 376.377 215.402 376.514C224.636 376.652 232.961 376.817 239.002 376.982L246.158 377.202L248.112 377.299C248.339 377.258 248.571 377.254 248.8 377.285Z" fill="#263238"/>
<path d="M334.791 384.289C334.549 384.321 334.304 384.321 334.062 384.289H331.97C330.154 384.289 327.525 384.165 324.291 383.904C315.856 383.197 307.51 381.671 299.37 379.349C294.595 377.973 290.178 376.335 286.091 375.124C282.5 373.972 278.768 373.319 275 373.184C272.449 373.119 269.904 373.458 267.459 374.189C265.739 374.739 264.844 375.207 264.817 375.152C264.789 375.097 265.023 374.987 265.45 374.767C266.072 374.443 266.716 374.163 267.376 373.927C269.82 373.088 272.389 372.674 274.972 372.703C278.796 372.772 282.591 373.383 286.242 374.519C290.371 375.702 294.802 377.367 299.549 378.647C307.65 380.955 315.939 382.544 324.319 383.395C327.525 383.711 330.14 383.876 331.956 383.986L334.034 384.11C334.294 384.134 334.548 384.194 334.791 384.289Z" fill="#263238"/>
<path d="M334.888 375.688C334.646 375.73 334.4 375.73 334.158 375.688C333.69 375.688 332.989 375.688 332.08 375.688C330.264 375.688 327.636 375.578 324.402 375.317C315.967 374.611 307.62 373.085 299.481 370.762C294.706 369.386 290.288 367.748 286.201 366.537C282.605 365.386 278.869 364.729 275.096 364.583C272.56 364.516 270.029 364.85 267.597 365.574C265.877 366.111 264.982 366.592 264.955 366.524C265.146 366.376 265.354 366.251 265.574 366.152C266.196 365.828 266.84 365.548 267.5 365.313C269.947 364.468 272.522 364.054 275.11 364.088C278.913 364.161 282.686 364.782 286.312 365.932C290.44 367.115 294.857 368.78 299.605 370.06C307.708 372.356 315.996 373.94 324.374 374.794C327.594 375.124 330.209 375.289 332.012 375.399L334.103 375.523C334.37 375.546 334.634 375.602 334.888 375.688Z" fill="#263238"/>
<path d="M334.887 367.101C334.645 367.134 334.4 367.134 334.158 367.101C333.676 367.101 332.974 367.101 332.066 367.101C330.25 367.101 327.635 366.991 324.401 366.716C315.966 366.017 307.62 364.496 299.48 362.175C294.691 360.799 290.274 359.148 286.187 357.95C282.599 356.786 278.866 356.129 275.096 355.996C272.554 355.922 270.018 356.256 267.582 356.987C265.862 357.524 264.981 357.992 264.954 357.937C264.926 357.882 265.147 357.785 265.573 357.551C266.198 357.233 266.841 356.953 267.5 356.712C269.945 355.88 272.513 355.466 275.096 355.487C278.925 355.556 282.725 356.172 286.38 357.317C290.508 358.501 294.925 360.152 299.673 361.446C307.776 363.742 316.064 365.326 324.442 366.179C327.663 366.51 330.277 366.661 332.08 366.785L334.158 366.909C334.409 366.936 334.655 367.001 334.887 367.101Z" fill="#263238"/>
<path d="M318.112 352.749C318.112 352.749 317.933 352.832 317.589 352.901C317.085 353.016 316.575 353.103 316.062 353.162C314.182 353.402 312.286 353.484 310.392 353.41C305.562 353.327 299.039 352.034 291.953 350.355C288.623 349.6 285.256 349.021 281.866 348.621C279.102 348.308 276.314 348.257 273.54 348.47C270.993 348.743 268.474 349.24 266.013 349.956C266.013 349.956 266.165 349.846 266.495 349.708C266.825 349.571 267.293 349.35 267.871 349.158C269.66 348.571 271.504 348.17 273.375 347.96C276.18 347.671 279.006 347.671 281.811 347.96C285.231 348.317 288.627 348.878 291.98 349.639C299.094 351.249 305.535 352.68 310.282 352.887C312.156 353.008 314.036 353.008 315.91 352.887C316.641 352.795 317.376 352.749 318.112 352.749Z" fill="#263238"/>
<path d="M387.99 329.135C384.124 325.075 355.116 301.062 355.116 301.062L332.837 327.511L346.515 334.859C345.414 335.203 326.107 343.543 320.369 346.075C317.232 343.832 310.42 339.194 307.902 338.85C304.572 338.451 295.159 338.85 295.159 338.85C295.159 338.85 290.659 344.134 291.636 344.726C291.636 344.726 285.76 349.033 286.545 351.772L287.329 354.524C286.95 354.437 286.555 354.443 286.179 354.54C285.802 354.638 285.455 354.825 285.166 355.086C284.877 355.347 284.655 355.673 284.519 356.037C284.383 356.402 284.337 356.794 284.384 357.18C284.384 360.4 283.999 361.762 285.76 362.684C285.645 363.735 285.78 364.798 286.156 365.786C286.531 366.774 287.136 367.659 287.921 368.367C289.56 370.009 291.327 371.518 293.205 372.881C292.912 373.229 292.706 373.643 292.605 374.087C292.504 374.531 292.512 374.993 292.626 375.433C292.741 375.874 292.959 376.281 293.264 376.62C293.568 376.958 293.949 377.219 294.375 377.381C297.697 378.958 301.287 379.892 304.957 380.133C306.553 380.133 319.681 375.729 324.525 374.092C324.525 374.092 386.091 356.987 390.055 350.85C393.453 345.579 393.453 334.859 387.99 329.135Z" fill="#FFBE9D"/>
<path d="M377.023 327.195C374.108 326.573 371.116 326.392 368.147 326.659C364.946 327.052 361.809 327.862 358.817 329.067C355.137 330.554 351.544 332.249 348.056 334.145C341.703 337.615 335.171 340.748 328.488 343.53C325.887 344.548 323.754 345.263 322.268 345.69C321.525 345.924 320.892 346.062 320.534 346.158C320.336 346.229 320.126 346.266 319.915 346.268C320.647 345.935 321.401 345.655 322.172 345.429C323.644 344.919 325.736 344.052 328.295 343.048C333.415 340.943 340.24 337.461 347.726 333.512C351.238 331.603 354.864 329.912 358.583 328.448C361.637 327.25 364.842 326.477 368.106 326.15C370.309 325.943 372.531 326.068 374.697 326.521C375.285 326.63 375.865 326.782 376.431 326.975C376.641 327.01 376.841 327.085 377.023 327.195Z" fill="#EB996E"/>
<path d="M305.88 344.176C305.88 344.272 305.096 343.846 303.816 343.474C302.149 343.027 300.412 342.901 298.697 343.103C296.961 343.328 295.245 343.686 293.564 344.176C292.872 344.439 292.143 344.597 291.404 344.644C292.012 344.21 292.692 343.889 293.413 343.694C295.086 343.049 296.834 342.615 298.615 342.401C300.425 342.179 302.263 342.381 303.981 342.993C305.289 343.502 305.99 344.107 305.88 344.176Z" fill="#EB996E"/>
<path d="M298.174 354.717C294.717 355.784 291.003 355.668 287.62 354.387C287.62 354.194 290 354.649 292.89 354.717C295.78 354.786 298.133 354.497 298.174 354.717Z" fill="#EB996E"/>
<path d="M299.507 363.648C297.231 364.588 294.761 364.966 292.308 364.748C289.855 364.53 287.49 363.723 285.416 362.396C287.68 363.157 290.012 363.706 292.379 364.033C294.761 364.12 297.147 363.991 299.507 363.648Z" fill="#EB996E"/>
<path d="M304.613 371.313C302.996 372.46 301.088 373.128 299.108 373.24C297.156 373.587 295.147 373.387 293.301 372.662C293.301 372.442 295.902 372.923 299.012 372.524C302.122 372.125 304.503 371.121 304.613 371.313Z" fill="#EB996E"/>
<path d="M196.096 320.7L231.406 369.578L242.099 373.886L240.323 361.803L205.921 313.282C205.328 312.425 204.527 311.732 203.593 311.268C202.66 310.803 201.624 310.583 200.582 310.627H200.43C199.316 310.736 198.251 311.142 197.346 311.802C196.442 312.463 195.731 313.354 195.289 314.383C194.846 315.412 194.687 316.541 194.829 317.652C194.971 318.763 195.409 319.815 196.096 320.7Z" fill="#455A64"/>
<path d="M196.22 320.947C196.137 320.947 196.371 320.19 197.031 319.172C197.93 317.853 199.086 316.729 200.43 315.869C201.781 315.021 203.288 314.45 204.861 314.19C205.503 314.028 206.174 314.028 206.815 314.19C204.715 314.648 202.693 315.413 200.816 316.461C199.064 317.713 197.514 319.226 196.22 320.947Z" fill="#263238"/>
<path d="M231.405 369.579C231.405 369.579 231.212 369.455 231.033 369.125C230.771 368.649 230.643 368.112 230.661 367.57C230.671 367.37 230.717 367.174 230.799 366.992L231.019 366.496C231.183 366.117 231.371 365.749 231.583 365.395C232.149 364.616 232.859 363.952 233.675 363.441C234.449 362.934 235.253 362.474 236.083 362.065C236.792 361.726 237.557 361.521 238.34 361.46C239.716 361.377 240.445 361.859 240.404 361.928C239.735 361.883 239.064 361.883 238.395 361.928C237.693 362.047 237.014 362.279 236.386 362.616C235.67 363.015 234.859 363.483 234.074 363.992C233.337 364.46 232.682 365.046 232.134 365.726C231.914 366.056 231.735 366.4 231.556 366.716L231.294 367.198C231.228 367.318 231.182 367.448 231.157 367.583C231.168 368.255 231.251 368.924 231.405 369.579Z" fill="#263238"/>
<path d="M233.264 364.556C233.099 364.68 225.434 354.153 216.132 341.08C206.829 328.007 199.412 317.287 199.618 317.163C199.825 317.039 207.448 327.566 216.751 340.653C226.053 353.74 233.429 364.446 233.264 364.556Z" fill="#263238"/>
<path d="M237.459 360.951C237.294 361.061 229.739 350.809 220.575 338.067C211.41 325.324 204.062 314.88 204.268 314.769C204.474 314.659 211.988 324.897 221.153 337.64C230.317 350.383 237.611 360.827 237.459 360.951Z" fill="#263238"/>
<path d="M241.313 368.519C240.794 368.367 240.247 368.34 239.716 368.44C239.185 368.541 238.685 368.766 238.258 369.097C237.86 369.444 237.55 369.881 237.353 370.372C237.157 370.862 237.081 371.392 237.13 371.918L242.097 373.886L241.313 368.519Z" fill="#263238"/>
<path d="M231.46 351.359C234.708 349.392 231.46 342.318 231.46 342.318C231.46 342.318 215.732 333.071 213.434 332.589C212.14 332.314 203.402 333.209 195.957 334.048L170.499 323.411L180.132 317.218L152.445 291.458C152.445 291.458 127.675 309.622 120.244 317.04C114.658 322.64 115.662 333.649 115.662 333.649C119.419 343.571 177.586 357.043 181.715 357.965L203.264 370.693C203.264 370.693 212.47 371.904 216.31 372.386C220.149 372.868 220.713 367.487 220.713 367.487C221.571 367.616 222.447 367.551 223.277 367.298C224.108 367.045 224.871 366.61 225.511 366.024C226.152 365.439 226.654 364.718 226.981 363.914C227.308 363.11 227.451 362.244 227.401 361.377C227.979 361.712 228.621 361.92 229.286 361.989C229.95 362.058 230.621 361.985 231.255 361.776C231.89 361.567 232.473 361.226 232.966 360.775C233.459 360.324 233.851 359.775 234.116 359.162C236.442 354.524 231.46 351.359 231.46 351.359Z" fill="#FFBE9D"/>
<path d="M170.362 323.727C170.265 323.837 168.834 322.351 166.151 320.535C164.585 319.452 162.932 318.5 161.211 317.686C159.101 316.714 156.909 315.931 154.661 315.347C152.403 314.796 150.1 314.45 147.78 314.315C145.88 314.217 143.975 314.272 142.083 314.48C138.849 314.838 136.909 315.443 136.868 315.319C137.297 315.078 137.761 314.906 138.244 314.81C138.776 314.636 139.318 314.494 139.868 314.384C140.514 314.26 141.244 314.067 142.056 313.971C143.937 313.694 145.838 313.583 147.739 313.641C150.11 313.738 152.465 314.07 154.771 314.631C157.089 315.229 159.343 316.054 161.5 317.095C163.24 317.95 164.899 318.963 166.454 320.122C167.128 320.576 167.678 321.099 168.188 321.498C168.62 321.852 169.029 322.234 169.412 322.64C169.77 322.964 170.089 323.329 170.362 323.727Z" fill="#EB996E"/>
<path d="M228.035 361.418C226.616 360.289 225.127 359.25 223.577 358.308C221.911 357.578 220.201 356.953 218.458 356.437C220.358 356.355 222.247 356.772 223.936 357.646C225.626 358.52 227.058 359.82 228.09 361.418H228.035Z" fill="#EB996E"/>
<path d="M233.291 353.148C231.148 351.842 228.929 350.665 226.645 349.625C224.266 348.827 221.845 348.161 219.393 347.63C221.961 347.561 224.517 348.013 226.905 348.959C229.294 349.905 231.466 351.326 233.291 353.134V353.148Z" fill="#EB996E"/>
<path d="M220.878 366.882C220.741 367.047 219.062 365.643 216.75 364.419C214.438 363.194 212.291 362.575 212.333 362.368C215.679 362.693 218.765 364.312 220.933 366.882H220.878Z" fill="#EB996E"/>
<path d="M336.263 217.039C336.551 211.727 341.12 207.09 340.46 201.819C339.799 196.549 334.336 193.425 331.391 189.008C327.827 183.641 328.157 176.706 327.098 170.362C325.705 162.57 322.054 155.359 316.598 149.624C317.467 148.806 318.386 148.043 319.35 147.34C322.226 145.193 325.378 143.019 326.671 139.675C327.22 138.067 327.369 136.35 327.106 134.672C326.842 132.993 326.173 131.404 325.157 130.042C323.503 127.706 321.104 126.002 318.353 125.209C315.602 124.417 312.663 124.583 310.02 125.681C307.376 126.779 305.184 128.743 303.804 131.251C302.424 133.759 301.937 136.661 302.424 139.482C299.775 138.318 297.006 137.445 294.168 136.882C292.091 135.07 289.842 133.466 287.452 132.093C283.975 130.322 280.02 129.717 276.172 130.366C272.323 131.015 268.786 132.884 266.082 135.698C264.609 141.836 262.986 147.959 261.472 154.11L207.887 189.049C202.575 187.081 196.506 190.109 192.942 194.554C189.378 198.998 187.644 204.517 185.443 209.691C183.241 214.865 180.145 220.204 175.122 222.819C172.37 224.264 168.668 225.282 167.953 228.323C167.807 229.365 167.963 230.427 168.402 231.383C168.841 232.339 169.544 233.149 170.429 233.717C172.228 234.809 174.225 235.533 176.305 235.85L197.428 240.501C200.206 237.932 203.447 235.914 206.979 234.557C205.437 236.758 206.483 240.061 208.534 241.754C210.735 243.328 213.293 244.331 215.978 244.671L262.38 254.538C271.793 256.533 282.099 258.418 290.617 253.946C294.264 252.033 297.292 249.047 301.035 247.354C305.644 245.276 310.887 245.304 315.924 245.497C320.96 245.689 326.148 246.006 330.937 244.423C335.726 242.841 340.102 238.823 340.46 233.786C340.859 228.007 336.001 222.819 336.263 217.039Z" fill="#263238"/>
<path d="M315.622 149.886C313.838 147.726 311.862 145.732 309.719 143.927C307.429 142.323 304.991 140.941 302.439 139.799C305.282 140.301 307.944 141.539 310.159 143.39C312.508 145.05 314.389 147.287 315.622 149.886Z" fill="#FF6262"/>
<path d="M317.301 125.708C317.301 125.708 317.632 125.708 318.072 126.107C318.703 126.618 319.18 127.295 319.448 128.061C319.84 129.192 319.939 130.404 319.737 131.584C319.518 132.994 319.153 134.377 318.65 135.712C317.746 138.133 316.449 140.388 314.811 142.386C314.193 143.26 313.419 144.012 312.526 144.602C314.801 141.843 316.655 138.764 318.031 135.465C319.035 132.712 319.641 130.029 319.022 128.24C318.679 127.26 318.086 126.387 317.301 125.708Z" fill="#455A64"/>
<path d="M306.663 179.333C306.663 179.113 306.663 178.893 306.663 178.672C305.865 156.077 286.999 137.981 264.404 138.766C263.316 138.766 262.188 138.862 261.06 138.945C259.283 139.08 257.515 139.305 255.762 139.619C236.235 143.197 222.446 160.88 222.735 180.737C222.942 196.906 223.368 218.442 224.277 224.772C225.79 235.395 225.57 239.193 225.57 239.193L226.162 263.963C226.326 270.971 229.182 277.647 234.138 282.605C239.093 287.563 245.768 290.422 252.776 290.59C256.409 290.678 260.023 290.039 263.406 288.71C266.789 287.382 269.872 285.391 272.475 282.854C275.077 280.316 277.147 277.285 278.561 273.937C279.975 270.589 280.706 266.992 280.71 263.357V250.615C297.54 248.44 305.301 232.202 306.402 212.786C306.939 202.438 307.365 201.653 306.663 179.333Z" fill="#FFBE9D"/>
<path d="M223.781 194.651C223.327 194.458 205.7 189.146 206.14 207.201C206.58 225.255 224.593 221.058 224.621 220.549C224.648 220.04 223.781 194.651 223.781 194.651Z" fill="#FFBE9D"/>
<path d="M218.939 213.845C218.856 213.845 218.636 214.079 218.1 214.327C217.364 214.666 216.525 214.705 215.76 214.437C213.834 213.79 212.155 210.804 211.99 207.557C211.907 206.009 212.17 204.462 212.76 203.029C212.916 202.462 213.208 201.941 213.611 201.511C214.014 201.082 214.516 200.758 215.072 200.566C215.43 200.464 215.812 200.49 216.153 200.638C216.494 200.786 216.773 201.047 216.944 201.378C217.191 201.873 217.095 202.245 217.191 202.272C217.288 202.3 217.563 201.956 217.398 201.213C217.286 200.77 217.03 200.377 216.668 200.098C216.159 199.744 215.535 199.597 214.921 199.685C214.184 199.852 213.502 200.203 212.938 200.706C212.375 201.209 211.949 201.848 211.701 202.561C210.975 204.142 210.645 205.875 210.737 207.612C210.944 211.244 212.884 214.602 215.513 215.29C216 215.42 216.511 215.439 217.007 215.343C217.502 215.248 217.97 215.042 218.375 214.74C218.925 214.286 219.008 213.873 218.939 213.845Z" fill="#EB996E"/>
<path d="M280.642 250.615C280.642 250.615 259.037 250.959 253.932 247.229C253.932 247.229 257.758 257.702 280.642 256.587V250.615Z" fill="#EB996E"/>
<path d="M244.726 209.621C244.56 209.621 244.492 209.167 244.588 208.672C244.684 208.176 244.904 207.832 245.083 207.86C245.262 207.887 245.331 208.314 245.221 208.809C245.111 209.305 244.904 209.649 244.726 209.621Z" fill="#EB996E"/>
<path d="M252.321 208.039C252.156 208.039 251.936 207.915 251.84 207.626C251.743 207.337 251.84 207.048 251.977 206.993C252.115 206.938 252.363 207.117 252.459 207.406C252.555 207.695 252.445 207.984 252.321 208.039Z" fill="#EB996E"/>
<path d="M248.454 212.594C248.275 212.594 248.083 212.236 248.041 211.754C248 211.273 248.041 210.86 248.275 210.846C248.509 210.832 248.633 211.204 248.688 211.686C248.743 212.167 248.633 212.58 248.454 212.594Z" fill="#EB996E"/>
<path d="M238.932 211.727C238.767 211.727 238.74 211.232 238.932 210.75C239.125 210.268 239.331 209.911 239.51 209.966C239.689 210.021 239.703 210.461 239.51 210.943C239.318 211.424 239.111 211.81 238.932 211.727Z" fill="#EB996E"/>
<path d="M289.119 207.86C288.94 207.86 288.761 207.544 288.72 207.117C288.678 206.691 288.72 206.305 288.954 206.291C289.188 206.278 289.311 206.608 289.366 207.035C289.421 207.461 289.298 207.846 289.119 207.86Z" fill="#EB996E"/>
<path d="M296.177 207.681C295.998 207.681 295.847 207.296 295.847 206.814C295.847 206.333 295.998 205.934 296.177 205.934C296.356 205.934 296.507 206.319 296.507 206.814C296.507 207.31 296.356 207.681 296.177 207.681Z" fill="#EB996E"/>
<path d="M302.012 207.324C301.833 207.324 301.612 206.994 301.516 206.512C301.42 206.031 301.516 205.604 301.668 205.577C301.819 205.549 302.053 205.907 302.163 206.389C302.273 206.87 302.19 207.297 302.012 207.324Z" fill="#EB996E"/>
<path d="M292.847 213.654C292.668 213.654 292.64 213.172 292.847 212.69C293.053 212.209 293.246 211.851 293.425 211.906C293.604 211.961 293.617 212.388 293.425 212.869C293.232 213.351 293.012 213.709 292.847 213.654Z" fill="#EB996E"/>
<path d="M299.48 212.787C299.301 212.787 299.123 212.512 299.068 212.126C299.012 211.741 299.068 211.397 299.301 211.383C299.535 211.37 299.673 211.659 299.714 212.044C299.756 212.429 299.659 212.759 299.48 212.787Z" fill="#EB996E"/>
<path d="M321.483 238.312C323.09 237.703 324.552 236.766 325.776 235.56C327.185 234.111 328.265 232.374 328.941 230.469C329.876 227.962 330.219 225.273 329.946 222.611C329.565 219.388 328.668 216.247 327.29 213.309C325.914 210.089 324.001 206.827 322.157 203.291C320.118 199.633 318.639 195.69 317.768 191.594C317.377 189.395 317.317 187.15 317.589 184.934C317.864 182.691 318.359 180.461 318.827 178.232C319.337 176.05 319.641 173.825 319.735 171.586C319.815 169.436 319.411 167.296 318.552 165.324C316.718 161.644 313.885 158.554 310.378 156.407C307.103 154.233 303.704 152.554 300.663 150.752C297.622 148.949 294.814 147.243 292.296 145.605C287.26 142.316 283.338 139.44 280.682 137.348C279.306 136.33 278.343 135.504 277.654 134.94L276.898 134.294C276.719 134.142 276.636 134.06 276.65 134.06C276.664 134.06 276.76 134.06 276.939 134.238L277.751 134.83L280.861 137.128C283.613 139.11 287.521 141.931 292.571 145.151C295.09 146.761 297.897 148.467 300.966 150.215C304.034 151.963 307.406 153.641 310.75 155.843C314.376 158.044 317.305 161.226 319.199 165.022C320.097 167.09 320.525 169.332 320.451 171.586C320.357 173.871 320.048 176.142 319.529 178.37C319.061 180.613 318.566 182.815 318.304 185.003C318.03 187.149 318.081 189.325 318.456 191.456C319.304 195.488 320.751 199.371 322.749 202.974C324.552 206.497 326.437 209.786 327.827 213.047C329.213 216.053 330.101 219.265 330.455 222.556C330.702 225.291 330.316 228.045 329.327 230.606C328.594 232.542 327.454 234.297 325.983 235.753C325.042 236.657 323.953 237.392 322.763 237.927C322.453 238.057 322.136 238.167 321.813 238.257L321.483 238.312Z" fill="#455A64"/>
<path d="M308.314 168.917C304.594 157.297 296.908 147.356 286.599 140.831L273.884 132.395C271.025 128.271 267.126 124.975 262.582 122.843C258.039 120.711 253.013 119.817 248.013 120.253C243.013 120.689 238.218 122.439 234.112 125.325C230.006 128.211 226.736 132.132 224.634 136.689C223.67 138.78 222.927 141.037 221.95 143.129C222.758 138.53 221.81 133.796 219.294 129.863C215.95 124.923 209.414 122.088 203.703 123.781C200.928 124.724 198.523 126.522 196.834 128.918C195.145 131.314 194.259 134.184 194.305 137.115C194.456 140.046 195.408 142.878 197.058 145.305C198.708 147.731 200.992 149.658 203.662 150.876C204.809 151.386 206.009 151.769 207.24 152.018C204.34 152.306 201.508 153.074 198.859 154.289C196.43 155.607 194.452 157.622 193.179 160.074C191.906 162.527 191.397 165.305 191.717 168.05C192.117 171.022 193.465 174.173 192.158 176.871C191.14 178.948 188.855 179.994 186.984 181.357C184.638 183.131 182.819 185.511 181.723 188.241C180.627 190.971 180.296 193.947 180.764 196.851C177.716 200.751 175.284 205.095 173.553 209.732C169.136 221.318 177.833 221.855 180.544 224.373L196.493 207.86C198.597 207.035 200.825 206.569 203.084 206.484C206.403 206.38 209.726 206.481 213.033 206.787C216.904 207.142 220.807 206.816 224.565 205.824C226.615 205.211 228.514 204.175 230.138 202.782C231.797 201.291 233.144 199.485 234.101 197.471C235.897 193.25 237.114 188.807 237.72 184.26C238.601 179.733 239.757 175.261 242.234 171.752C243.442 170.037 245.029 168.625 246.871 167.623C248.679 166.713 250.613 166.082 252.61 165.752C256.531 165.022 260.412 164.857 263.962 163.935C267.324 163.171 270.324 161.283 272.467 158.582C274.112 156.312 275.256 153.718 275.824 150.972C276.272 148.93 276.558 146.854 276.677 144.766C276.677 144.037 276.76 143.39 276.774 142.798C284.093 154.154 294.025 163.592 305.741 170.32C306.621 170.83 308.011 171.187 308.493 170.32C308.615 169.847 308.551 169.345 308.314 168.917ZM276.223 144.725C276.034 146.779 275.693 148.817 275.205 150.821C274.612 153.468 273.463 155.959 271.834 158.128C269.769 160.673 266.893 162.432 263.687 163.11C260.247 163.977 256.394 164.114 252.376 164.816C250.278 165.155 248.245 165.814 246.348 166.77C244.374 167.827 242.669 169.324 241.367 171.146C238.725 174.875 237.555 179.471 236.661 184.04C236.072 188.504 234.887 192.868 233.138 197.017C232.245 198.913 230.988 200.616 229.436 202.026C227.914 203.344 226.133 204.328 224.207 204.915C220.559 205.894 216.769 206.233 213.006 205.92C209.668 205.658 206.318 205.598 202.974 205.741C201.1 205.858 199.25 206.219 197.47 206.814L198.502 205.989C204.383 201.501 211.674 199.261 219.06 199.672C220.748 199.718 222.407 199.237 223.808 198.296C229.312 196.796 233.22 189.641 235.422 183.916C237.307 179.017 236.977 173.169 240.128 168.999C242.427 165.972 246.156 164.472 249.761 163.66C253.366 162.848 257.206 162.587 260.77 161.417C264.503 160.128 267.848 157.915 270.495 154.984C273.142 152.054 275.004 148.501 275.907 144.656C276.118 143.755 276.205 142.829 276.168 141.904C276.251 142.028 276.347 142.152 276.416 142.276C276.375 143.005 276.306 143.831 276.223 144.725Z" fill="#263238"/>
<path d="M180.434 224.071C180.344 223.976 180.262 223.874 180.186 223.768C180.035 223.561 179.787 223.259 179.526 222.832C178.709 221.601 178.034 220.28 177.516 218.897C176.7 216.689 176.236 214.367 176.14 212.016C176.016 208.894 176.6 205.785 177.847 202.92C179.366 199.446 181.76 196.426 184.796 194.154C188.044 191.622 192.323 190.329 196.713 189.366C201.103 188.402 205.892 187.549 209.882 184.769C211.876 183.334 213.502 181.448 214.63 179.265C215.788 176.999 216.71 174.619 217.382 172.164C218.909 167.224 219.969 162.078 222.886 157.922C224.297 155.878 226.187 154.21 228.391 153.064C230.512 152.047 232.785 151.382 235.12 151.096C239.647 150.491 243.954 150.642 247.917 150.092C251.585 149.602 255.133 148.451 258.39 146.693C264.473 143.471 269.353 138.369 272.302 132.148C272.508 131.735 272.66 131.391 272.797 131.116C272.851 130.998 272.91 130.883 272.976 130.771C272.339 132.656 271.47 134.454 270.389 136.125C267.452 140.718 263.412 144.502 258.637 147.133C255.333 148.943 251.73 150.141 248 150.67C243.982 151.248 239.647 151.124 235.216 151.743C232.95 152.02 230.746 152.671 228.693 153.67C226.605 154.775 224.811 156.365 223.464 158.307C220.712 162.298 219.625 167.389 218.097 172.357C217.388 174.86 216.429 177.284 215.235 179.595C214.048 181.869 212.342 183.83 210.254 185.32C206.125 188.223 201.185 188.994 196.837 189.999C192.488 191.003 188.291 192.173 185.113 194.608C182.132 196.811 179.763 199.738 178.232 203.113C176.996 205.905 176.394 208.936 176.471 211.989C176.529 214.297 176.951 216.582 177.723 218.759C178.432 220.622 179.341 222.403 180.434 224.071Z" fill="#455A64"/>
<path d="M222.599 140.252C222.532 141.316 222.236 142.353 221.732 143.293C220.655 145.642 218.997 147.678 216.916 149.21C214.83 150.738 212.393 151.718 209.829 152.059C208.781 152.256 207.703 152.233 206.664 151.99C206.664 151.866 207.875 151.907 209.747 151.55C212.179 151.085 214.481 150.094 216.489 148.646C218.469 147.156 220.103 145.254 221.278 143.073C222.173 141.353 222.489 140.252 222.599 140.252Z" fill="#FF6262"/>
<path d="M218.443 147.422C218.023 147.487 217.596 147.487 217.177 147.422C216.036 147.27 214.916 146.998 213.833 146.61C210.208 145.337 207.069 142.969 204.85 139.832C202.631 136.696 201.442 132.948 201.448 129.106C201.438 127.959 201.553 126.815 201.792 125.693C201.849 125.272 201.974 124.863 202.163 124.482C202.301 124.482 201.833 126.258 201.957 129.092C202.088 132.803 203.302 136.394 205.449 139.424C207.596 142.453 210.582 144.789 214.039 146.142C216.654 147.133 218.456 147.284 218.443 147.422Z" fill="#455A64"/>
<path d="M271.985 131.514C271.985 131.514 271.449 130.84 270.293 129.89C268.626 128.578 266.65 127.715 264.554 127.386C261.443 126.886 258.254 127.302 255.376 128.583C251.853 130.187 248.603 132.332 245.743 134.94C242.619 137.693 239.73 140.376 236.757 142.468C234.173 144.393 231.237 145.795 228.115 146.596C226.003 147.141 223.8 147.239 221.648 146.885C221.067 146.783 220.496 146.631 219.941 146.431C219.556 146.293 219.363 146.211 219.377 146.183C219.391 146.156 220.189 146.403 221.689 146.61C223.798 146.848 225.932 146.68 227.978 146.114C231.011 145.28 233.859 143.879 236.372 141.986C239.275 139.894 242.124 137.17 245.275 134.445C248.191 131.791 251.513 129.622 255.114 128.019C258.108 126.73 261.417 126.357 264.623 126.945C266.782 127.316 268.799 128.267 270.458 129.697C270.906 130.086 271.307 130.524 271.655 131.005C271.903 131.307 272.013 131.486 271.985 131.514Z" fill="#455A64"/>
<path d="M275.783 132.712C275.988 133.134 276.172 133.565 276.334 134.005C276.866 135.227 277.502 136.401 278.233 137.515C281.06 141.556 284.65 145.006 288.801 147.67C291.361 149.445 294.305 151.234 297.347 153.271C300.68 155.382 303.752 157.881 306.498 160.715C309.586 163.87 311.719 167.835 312.649 172.151C313.502 176.706 312.401 181.467 310.942 185.994C310.213 188.279 309.374 190.48 308.851 192.71C308.263 194.873 308.23 197.149 308.754 199.329C309.42 201.398 310.45 203.332 311.796 205.039C313.062 206.773 314.41 208.425 315.525 210.186C317.659 213.583 318.625 217.584 318.277 221.58C318.038 225.026 317.102 228.387 315.525 231.46C313.15 235.826 310.094 239.784 306.47 243.185C305.218 244.409 304.213 245.331 303.525 245.937L302.741 246.639C302.567 246.795 302.47 246.863 302.452 246.845C302.523 246.752 302.602 246.665 302.686 246.584L303.429 245.841L306.264 242.992C309.779 239.545 312.749 235.582 315.071 231.24C316.596 228.217 317.499 224.918 317.727 221.539C318.028 217.668 317.062 213.804 314.974 210.53C313.873 208.81 312.525 207.186 311.231 205.425C309.837 203.655 308.77 201.652 308.08 199.508C307.522 197.216 307.551 194.822 308.163 192.544C308.699 190.233 309.539 188.031 310.254 185.76C311.713 181.274 312.773 176.637 311.961 172.261C311.057 168.069 308.992 164.216 306.002 161.142C303.31 158.332 300.294 155.851 297.016 153.752C293.975 151.702 291.072 149.886 288.512 148.069C284.342 145.34 280.766 141.797 277.999 137.652C277.284 136.511 276.68 135.304 276.196 134.047C276.031 133.606 275.948 133.262 275.866 133.042C275.821 132.937 275.793 132.826 275.783 132.712Z" fill="#455A64"/>
<path d="M377.326 393.702L431.282 399.991L440.667 395.505L431.557 389.326L378.371 382.652C377.442 382.519 376.493 382.626 375.616 382.964C374.739 383.301 373.964 383.857 373.362 384.579L373.28 384.689C372.674 385.495 372.295 386.449 372.182 387.452C372.07 388.455 372.229 389.469 372.642 390.39C373.055 391.31 373.708 392.103 374.531 392.686C375.355 393.268 376.32 393.619 377.326 393.702Z" fill="#FF6262"/>
<path d="M377.547 393.771C377.464 393.771 377.12 393.207 376.831 392.147C376.497 390.744 376.455 389.288 376.708 387.868C376.951 386.45 377.49 385.1 378.29 383.904C378.923 382.996 379.46 382.528 379.515 382.625C378.57 384.308 377.861 386.114 377.409 387.991C377.182 389.915 377.228 391.861 377.547 393.771Z" fill="#263238"/>
<path d="M431.284 399.991C431.284 399.991 430.472 400.142 429.481 399.275C429.359 399.145 429.257 398.996 429.178 398.835L428.986 398.381C428.834 398.041 428.705 397.692 428.6 397.335C428.428 396.481 428.428 395.602 428.6 394.748C428.72 393.914 428.904 393.09 429.151 392.285C429.353 391.604 429.685 390.968 430.128 390.413C430.899 389.45 431.683 389.257 431.71 389.326C431.738 389.395 431.132 389.78 430.527 390.702C430.192 391.248 429.941 391.842 429.784 392.464C429.605 393.179 429.426 394.005 429.302 394.844C429.179 395.615 429.179 396.4 429.302 397.17C429.385 397.514 429.495 397.844 429.605 398.161L429.77 398.628C429.806 398.743 429.862 398.85 429.935 398.945C430.555 399.716 431.353 399.867 431.284 399.991Z" fill="#263238"/>
<path d="M429.096 395.697C429.096 395.89 417.399 394.61 403.046 392.821C388.694 391.032 377.066 389.436 377.093 389.229C377.121 389.023 388.776 390.33 403.129 392.105C417.482 393.881 429.11 395.504 429.096 395.697Z" fill="#263238"/>
<path d="M429.231 390.702C429.231 390.895 417.796 389.698 403.746 388.019C389.696 386.34 378.33 384.826 378.343 384.634C378.357 384.441 389.779 385.638 403.842 387.317C417.906 388.996 429.259 390.523 429.231 390.702Z" fill="#263238"/>
<path d="M436.607 392.753C436.195 393.009 435.847 393.358 435.592 393.771C435.336 394.184 435.18 394.65 435.134 395.134C435.124 395.612 435.227 396.085 435.435 396.516C435.644 396.946 435.951 397.322 436.332 397.611L440.666 395.505L436.607 392.753Z" fill="#263238"/>
</svg>
