<svg width="550" height="428" viewBox="0 0 550 428" fill="none" xmlns="http://www.w3.org/2000/svg">
<path d="M537.024 85.8201C520.388 45.6709 486.084 15.1993 443.99 4.44259C430.395 0.932139 416.349 -0.51152 402.324 0.160148C354.453 2.56551 308.638 30.7104 284.866 72.3434C270.883 96.8241 263.352 126.374 241.412 144.077C212.851 167.119 171.533 161.387 135.486 154.496C99.4397 147.606 58.0877 141.975 29.6281 165.141C11.8127 179.652 3.15791 202.941 0.76379 225.837C-5.57556 286.342 28.2006 346.734 77.7802 381.994C154.437 436.485 269.984 438.272 356.588 407.846C479.037 364.774 577.51 237.47 543.037 103.624C541.453 97.5559 539.443 91.6065 537.024 85.8201Z" fill="#FFE546" fill-opacity="0.5"/>
<path d="M450.026 268.661H190.596V284.453H450.026V268.661Z" fill="#455A64"/>
<path d="M442.854 35.4766H205.342V270.718H442.854V35.4766Z" fill="#455A64"/>
<path d="M435.457 42.873H211.343V266.987H435.457V42.873Z" fill="#E0E0E0"/>
<path d="M438.549 39.6807H326.588V270.213H438.549V39.6807Z" fill="#455A64"/>
<path d="M435.728 42.3662H329.432V266.48H435.728V42.3662Z" fill="#FAFAFA"/>
<path d="M350.381 180.09C350.269 179.977 365.409 164.646 384.203 145.841C402.996 127.037 418.338 111.897 418.451 112.02C418.563 112.144 403.423 127.464 384.618 146.257C365.814 165.051 350.494 180.202 350.381 180.09Z" fill="#263238"/>
<path d="M359.532 157.61C359.419 157.498 374.571 142.167 393.364 123.373C412.157 104.58 427.511 89.4285 427.601 89.5071C427.691 89.5858 412.573 104.985 393.791 123.789C375.009 142.594 359.644 157.723 359.532 157.61Z" fill="#263238"/>
<path d="M438.549 98.3193H327.588V101.422H438.549V98.3193Z" fill="#455A64"/>
<path d="M438.549 153.991H327.588V157.093H438.549V153.991Z" fill="#455A64"/>
<path d="M438.549 209.674H327.588V212.776H438.549V209.674Z" fill="#455A64"/>
<path d="M365.018 39.6807H362.646V266.481H365.018V39.6807Z" fill="#455A64"/>
<path d="M401.93 39.6807H399.559V266.481H401.93V39.6807Z" fill="#455A64"/>
<path d="M213.12 39.6807H101.158V270.213H213.12V39.6807Z" fill="#455A64"/>
<path d="M210.287 42.3662H103.99V266.48H210.287V42.3662Z" fill="#FAFAFA"/>
<path d="M124.955 180.09C124.842 179.977 139.983 164.646 158.776 145.841C177.569 127.037 192.912 111.897 193.024 112.02C193.136 112.144 177.985 127.464 159.192 146.257C140.398 165.051 125.067 180.202 124.955 180.09Z" fill="#263238"/>
<path d="M134.146 157.611C134.034 157.499 149.174 142.167 167.967 123.374C186.761 104.581 202.103 89.4292 202.216 89.5416C202.328 89.654 187.188 104.985 168.383 123.79C149.579 142.594 134.214 157.723 134.146 157.611Z" fill="#263238"/>
<path d="M213.11 98.3193H102.148V101.422H213.11V98.3193Z" fill="#455A64"/>
<path d="M213.11 153.991H102.148V157.093H213.11V153.991Z" fill="#455A64"/>
<path d="M213.11 209.674H102.148V212.776H213.11V209.674Z" fill="#455A64"/>
<path d="M139.577 39.6807H137.205V266.481H139.577V39.6807Z" fill="#455A64"/>
<path d="M176.5 39.6807H174.128V266.481H176.5V39.6807Z" fill="#455A64"/>
<path d="M340.825 102.107C337.7 100.298 333.508 102.478 330.226 100.983C328.225 100.084 327.033 98.0498 325.415 96.5773C324.145 95.4425 322.63 94.6174 320.988 94.1669C319.346 93.7164 317.622 93.6527 315.951 93.9809C312.77 94.7677 310.589 95.8805 309.454 98.949C307.206 96.8696 302.148 99.1176 299.945 101.916C297.742 104.715 297.36 108.042 297.405 111.605C297.5 117.75 298.795 123.817 301.215 129.466C301.44 129.971 301.822 130.59 302.339 130.443C302.699 130.365 302.901 129.983 303.047 129.634C304.096 126.607 304.772 123.462 305.059 120.271C305.347 117.071 306.28 113.963 307.802 111.133C309.476 108.413 312.421 106.244 315.614 106.356C317.991 106.569 320.217 107.616 321.897 109.312C323.639 110.908 325.055 112.83 326.662 114.561C328.2 116.375 330.201 117.739 332.451 118.507C333.581 118.866 334.79 118.894 335.936 118.587C337.081 118.28 338.115 117.652 338.914 116.776C340.375 114.921 339.971 111.706 337.79 110.706C338.858 110.858 339.946 110.634 340.867 110.071C341.788 109.508 342.484 108.642 342.835 107.621C343.186 106.601 343.171 105.49 342.792 104.48C342.413 103.469 341.693 102.622 340.757 102.085L340.825 102.107Z" fill="#263238"/>
<path d="M302.028 113.696L297.251 149.271C297.059 150.705 297.16 152.163 297.548 153.556C297.936 154.95 298.604 156.25 299.51 157.378C300.416 158.506 301.542 159.438 302.819 160.118C304.096 160.797 305.498 161.21 306.94 161.331C309.672 161.554 312.386 160.72 314.521 159.001C316.657 157.282 318.051 154.809 318.416 152.092C318.776 149.417 319.079 147.18 319.124 146.91C319.124 146.91 328.296 147.27 330.151 138.402C331.05 134.108 332.185 125.127 333.107 116.989C333.596 112.774 332.479 108.529 329.976 105.102C327.474 101.675 323.771 99.3172 319.607 98.4996L318.753 98.331C309.357 97.0722 303.04 104.311 302.028 113.696Z" fill="#FFBE9D"/>
<path d="M319.167 146.831C315.04 146.086 311.229 144.129 308.219 141.211C308.219 141.211 309.702 148.146 318.739 149.079L319.167 146.831Z" fill="#EB996E"/>
<path d="M301.456 120.428C301.321 120.327 295.701 117.416 294.712 123.542C293.723 129.668 300.062 129.398 300.107 129.229C300.152 129.061 301.456 120.428 301.456 120.428Z" fill="#FFBE9D"/>
<path d="M298.599 126.6C298.599 126.6 298.476 126.656 298.285 126.712C298.014 126.775 297.73 126.735 297.487 126.6C297.134 126.285 296.871 125.881 296.725 125.431C296.578 124.981 296.554 124.5 296.655 124.037C296.726 123.508 296.915 123.001 297.206 122.554C297.295 122.373 297.426 122.216 297.589 122.097C297.751 121.978 297.94 121.899 298.139 121.868C298.266 121.857 298.394 121.89 298.5 121.962C298.606 122.033 298.685 122.139 298.723 122.261C298.723 122.452 298.723 122.565 298.723 122.576C298.723 122.587 298.869 122.497 298.858 122.239C298.853 122.081 298.794 121.93 298.689 121.812C298.535 121.662 298.331 121.574 298.116 121.564C297.858 121.572 297.607 121.647 297.386 121.781C297.165 121.915 296.983 122.104 296.857 122.329C296.506 122.817 296.282 123.385 296.205 123.981C296.084 124.52 296.126 125.082 296.327 125.597C296.527 126.111 296.876 126.555 297.329 126.87C297.485 126.947 297.656 126.987 297.83 126.987C298.003 126.987 298.174 126.947 298.33 126.87C298.566 126.746 298.622 126.6 298.599 126.6Z" fill="#EB996E"/>
<path d="M335.342 115.505C333.272 115.627 331.202 115.254 329.304 114.417C327.407 113.581 325.735 112.305 324.428 110.694C322.63 108.446 321.483 105.468 318.932 104.108C317.177 103.255 315.156 103.134 313.312 103.771C311.472 104.431 309.788 105.464 308.366 106.805C309.198 111.661 307.051 116.483 304.994 120.945C304.817 121.462 304.473 121.905 304.016 122.204C303.184 122.62 302.195 121.979 301.689 121.193C300.991 119.88 300.69 118.391 300.824 116.91C300.827 113.525 301.503 110.174 302.813 107.053C304.141 103.925 306.356 101.256 309.187 99.3758C312.807 97.179 317.134 96.4624 321.269 97.375C325.412 98.32 329.149 100.551 331.947 103.748C333.32 105.156 334.314 106.888 334.836 108.784" fill="#263238"/>
<path d="M342.952 104.748C342.935 104.93 342.882 105.106 342.795 105.265C342.552 105.753 342.158 106.147 341.671 106.389C340.913 106.744 340.064 106.85 339.243 106.693C338.735 106.625 338.236 106.497 337.759 106.311C337.207 106.097 336.719 105.745 336.343 105.288C336.136 105.029 335.99 104.727 335.918 104.403C335.846 104.08 335.849 103.744 335.927 103.422C336.039 103.074 336.25 102.766 336.533 102.535C336.816 102.304 337.16 102.159 337.523 102.118C337.899 102.055 338.284 102.082 338.647 102.197C339.023 102.32 339.352 102.556 339.591 102.871C339.827 103.19 339.993 103.555 340.078 103.943C340.163 104.33 340.166 104.731 340.086 105.119C339.998 105.535 339.829 105.928 339.587 106.277C339.346 106.627 339.038 106.925 338.681 107.154C337.952 107.641 337.106 107.925 336.23 107.974C334.416 108.016 332.64 107.45 331.184 106.367C329.731 105.324 328.4 104.121 327.216 102.781C326.126 101.558 324.934 100.43 323.653 99.4093C322.493 98.4856 321.128 97.8535 319.674 97.566C318.399 97.3581 317.094 97.4349 315.852 97.7908C314.048 98.3232 312.411 99.3101 311.098 100.657C310.626 101.129 310.288 101.534 310.064 101.781C309.839 102.028 309.738 102.197 309.726 102.197C309.715 102.197 309.726 102.197 309.794 102.073C309.863 101.96 309.938 101.852 310.019 101.747C310.318 101.326 310.648 100.927 311.008 100.556C312.309 99.1529 313.956 98.1177 315.785 97.5548C317.06 97.1753 318.405 97.0869 319.719 97.2962C321.215 97.5767 322.622 98.2128 323.821 99.1508C325.118 100.174 326.328 101.302 327.441 102.523C328.602 103.851 329.915 105.039 331.352 106.063C332.769 107.108 334.493 107.654 336.253 107.615C337.074 107.561 337.867 107.298 338.557 106.85C339.208 106.421 339.667 105.756 339.838 104.996C339.922 104.639 339.927 104.268 339.854 103.909C339.78 103.55 339.629 103.211 339.411 102.916C339.199 102.648 338.917 102.442 338.595 102.324C338.274 102.205 337.927 102.176 337.59 102.242C337.274 102.277 336.974 102.402 336.725 102.601C336.477 102.8 336.29 103.065 336.185 103.366C336.117 103.655 336.114 103.956 336.179 104.246C336.243 104.536 336.372 104.808 336.556 105.041C336.898 105.475 337.347 105.812 337.86 106.018C338.328 106.203 338.814 106.335 339.31 106.412C340.096 106.573 340.913 106.487 341.648 106.165C342.119 105.953 342.512 105.599 342.772 105.153C342.843 105.024 342.904 104.888 342.952 104.748Z" fill="#455A64"/>
<path d="M297.837 106.962C298.4 107.293 298.99 107.575 299.602 107.805C300.275 108.007 300.982 108.072 301.681 107.996C302.541 107.905 303.382 107.685 304.176 107.344C305.602 106.701 306.783 105.618 307.548 104.253C307.84 103.67 308.095 103.07 308.313 102.455C308.328 102.634 308.305 102.814 308.245 102.983C308.133 103.459 307.963 103.92 307.739 104.355C306.985 105.815 305.751 106.97 304.244 107.625C303.418 107.978 302.542 108.198 301.647 108.277C300.913 108.342 300.174 108.25 299.478 108.008C299.013 107.851 298.576 107.62 298.185 107.322C298.052 107.22 297.935 107.098 297.837 106.962Z" fill="#455A64"/>
<path d="M297.239 111.414C297.239 111.358 297.936 111.661 299.093 111.819C300.603 112.038 302.144 111.847 303.556 111.268C304.967 110.689 306.198 109.742 307.119 108.525C307.827 107.592 308.097 106.907 308.153 106.929C308.121 107.098 308.064 107.261 307.984 107.413C307.784 107.841 307.535 108.244 307.242 108.615C306.341 109.906 305.089 110.913 303.634 111.515C302.171 112.11 300.569 112.278 299.015 111.998C298.551 111.912 298.096 111.784 297.655 111.616C297.396 111.526 297.228 111.436 297.239 111.414Z" fill="#455A64"/>
<path d="M311.167 123.52C311.147 123.518 311.127 123.513 311.108 123.504C311.089 123.494 311.073 123.482 311.059 123.466C311.046 123.45 311.035 123.432 311.029 123.412C311.022 123.393 311.02 123.372 311.021 123.351C311.018 123.33 311.019 123.309 311.025 123.288C311.031 123.268 311.041 123.249 311.055 123.233C311.069 123.217 311.086 123.204 311.106 123.195C311.125 123.187 311.146 123.182 311.167 123.183C311.189 123.183 311.21 123.187 311.23 123.196C311.25 123.204 311.268 123.217 311.283 123.233C311.298 123.248 311.309 123.267 311.316 123.288C311.323 123.308 311.326 123.33 311.325 123.351C311.325 123.394 311.309 123.435 311.279 123.467C311.25 123.498 311.21 123.517 311.167 123.52Z" fill="#EB996E"/>
<path d="M313.897 123.43C313.874 123.429 313.851 123.423 313.831 123.412C313.81 123.402 313.792 123.387 313.777 123.369C313.762 123.351 313.751 123.33 313.745 123.308C313.738 123.285 313.737 123.262 313.74 123.239C313.737 123.193 313.751 123.148 313.78 123.112C313.81 123.076 313.851 123.053 313.897 123.048C313.942 123.056 313.982 123.079 314.011 123.114C314.04 123.149 314.055 123.194 314.055 123.239C314.058 123.262 314.056 123.285 314.05 123.308C314.043 123.33 314.032 123.351 314.018 123.369C314.003 123.387 313.985 123.402 313.964 123.412C313.943 123.423 313.92 123.429 313.897 123.43Z" fill="#EB996E"/>
<path d="M315.662 123.733C315.583 123.733 315.515 123.609 315.527 123.474C315.538 123.339 315.617 123.227 315.695 123.238C315.774 123.249 315.841 123.362 315.83 123.497C315.819 123.631 315.751 123.744 315.662 123.733Z" fill="#EB996E"/>
<path d="M312.131 125.408C312.042 125.408 311.985 125.329 311.997 125.284C312.008 125.239 312.086 125.194 312.165 125.217C312.244 125.239 312.311 125.284 312.3 125.341C312.289 125.397 312.21 125.475 312.131 125.408Z" fill="#EB996E"/>
<path d="M314.639 125.318C314.617 125.316 314.596 125.308 314.577 125.297C314.558 125.286 314.542 125.271 314.529 125.253C314.516 125.235 314.507 125.214 314.503 125.193C314.499 125.171 314.499 125.149 314.504 125.127C314.507 125.084 314.526 125.044 314.557 125.015C314.588 124.986 314.63 124.97 314.673 124.97C314.714 124.98 314.751 125.005 314.775 125.04C314.8 125.075 314.811 125.118 314.807 125.161C314.807 125.182 314.803 125.204 314.794 125.224C314.786 125.244 314.773 125.261 314.757 125.276C314.742 125.291 314.723 125.302 314.702 125.31C314.682 125.317 314.66 125.32 314.639 125.318Z" fill="#EB996E"/>
<path d="M327.397 126.284C327.375 126.283 327.354 126.277 327.334 126.267C327.314 126.257 327.296 126.244 327.281 126.227C327.267 126.21 327.256 126.191 327.248 126.17C327.241 126.149 327.238 126.126 327.24 126.104C327.234 126.081 327.233 126.056 327.237 126.033C327.242 126.009 327.252 125.986 327.267 125.967C327.281 125.948 327.3 125.932 327.322 125.922C327.344 125.911 327.368 125.905 327.392 125.905C327.416 125.905 327.44 125.911 327.462 125.922C327.483 125.932 327.502 125.948 327.517 125.967C327.532 125.986 327.542 126.009 327.546 126.033C327.551 126.056 327.55 126.081 327.543 126.104C327.547 126.147 327.533 126.19 327.506 126.223C327.479 126.257 327.44 126.279 327.397 126.284Z" fill="#EB996E"/>
<path d="M329.205 126.464C329.115 126.464 329.059 126.363 329.07 126.262C329.081 126.161 329.16 126.071 329.238 126.082C329.261 126.086 329.282 126.094 329.301 126.107C329.32 126.119 329.336 126.136 329.349 126.154C329.362 126.173 329.37 126.195 329.374 126.217C329.379 126.239 329.378 126.262 329.373 126.284C329.362 126.397 329.283 126.475 329.205 126.464Z" fill="#EB996E"/>
<path d="M325.812 126.015C325.793 126.016 325.774 126.014 325.755 126.008C325.737 126.002 325.72 125.993 325.706 125.98C325.691 125.968 325.679 125.952 325.67 125.935C325.662 125.918 325.656 125.899 325.655 125.88C325.65 125.848 325.656 125.816 325.67 125.787C325.684 125.759 325.707 125.735 325.735 125.72C325.763 125.704 325.795 125.698 325.827 125.701C325.859 125.704 325.889 125.717 325.913 125.738C325.937 125.759 325.955 125.787 325.963 125.818C325.971 125.849 325.969 125.881 325.959 125.911C325.948 125.941 325.928 125.968 325.902 125.986C325.875 126.005 325.844 126.015 325.812 126.015Z" fill="#EB996E"/>
<path d="M326.779 128.06C326.736 128.064 326.693 128.05 326.66 128.023C326.626 127.996 326.604 127.957 326.599 127.914C326.592 127.894 326.589 127.873 326.59 127.852C326.591 127.831 326.597 127.81 326.606 127.792C326.616 127.773 326.629 127.756 326.645 127.742C326.661 127.729 326.68 127.718 326.7 127.712C326.743 127.705 326.787 127.716 326.823 127.741C326.858 127.766 326.883 127.804 326.891 127.847C326.898 127.868 326.901 127.891 326.899 127.913C326.897 127.936 326.89 127.957 326.88 127.977C326.869 127.997 326.855 128.015 326.838 128.029C326.82 128.043 326.8 128.054 326.779 128.06Z" fill="#EB996E"/>
<path d="M328.364 128.049C328.347 128.043 328.331 128.034 328.317 128.021C328.304 128.008 328.293 127.993 328.286 127.976C328.278 127.96 328.275 127.941 328.274 127.923C328.274 127.905 328.278 127.886 328.285 127.87C328.312 127.847 328.346 127.834 328.381 127.834C328.416 127.834 328.45 127.847 328.476 127.87C328.512 127.884 328.54 127.913 328.555 127.949C328.57 127.985 328.57 128.025 328.555 128.061C328.542 128.072 328.526 128.082 328.509 128.087C328.493 128.093 328.475 128.096 328.457 128.095C328.439 128.094 328.422 128.089 328.406 128.081C328.39 128.074 328.376 128.063 328.364 128.049Z" fill="#EB996E"/>
<path d="M321.755 358.93L326.476 382.612L335.614 400.259C335.762 400.559 335.849 400.886 335.868 401.22C335.887 401.554 335.839 401.889 335.725 402.204C335.612 402.519 335.436 402.808 335.208 403.053C334.981 403.298 334.706 403.495 334.4 403.631C334.04 403.787 333.649 403.854 333.258 403.829C332.867 403.803 332.488 403.686 332.152 403.485C327.78 400.855 311.74 391.054 311.515 389.311C311.223 387.277 303.872 361.515 303.872 361.515L321.755 358.93Z" fill="#865E41"/>
<g opacity="0.6">
<path opacity="0.6" d="M334.398 403.665L311.153 387.716L311.378 388.716C311.569 389.577 312.059 390.341 312.761 390.874C314.66 392.302 319.954 396.123 332.071 403.53C332.417 403.745 332.811 403.87 333.217 403.894C333.624 403.917 334.029 403.839 334.398 403.665Z" fill="white"/>
</g>
<g opacity="0.6">
<path opacity="0.6" d="M314.29 379.039C314.629 379.186 314.902 379.453 315.056 379.789C315.209 380.126 315.233 380.507 315.122 380.86C314.983 381.201 314.721 381.476 314.387 381.631C314.053 381.785 313.673 381.807 313.323 381.691C312.966 381.533 312.68 381.247 312.52 380.891C312.36 380.534 312.338 380.13 312.458 379.758C312.636 379.414 312.941 379.153 313.307 379.03C313.674 378.906 314.075 378.929 314.425 379.095" fill="white"/>
</g>
<path d="M326.711 394.572C327.056 393.681 327.633 392.899 328.382 392.306C329.131 391.713 330.025 391.332 330.971 391.2C330.971 391.132 330.634 391.02 330.072 391.065C329.326 391.142 328.619 391.435 328.037 391.908C327.45 392.371 327.013 392.996 326.778 393.706C326.61 394.212 326.655 394.572 326.711 394.572Z" fill="#263238"/>
<path d="M329.093 397.348C329.228 397.427 329.812 396.494 330.959 395.876C331.69 395.558 332.441 395.288 333.207 395.066C332.793 394.922 332.351 394.878 331.917 394.939C331.483 394.999 331.069 395.162 330.711 395.415C329.396 396.123 328.958 397.314 329.093 397.348Z" fill="#263238"/>
<path d="M322.688 391.222C323.532 390.332 324.441 389.505 325.408 388.749C326.489 388.132 327.617 387.599 328.78 387.153C327.49 387.183 326.235 387.582 325.166 388.303C324.096 389.025 323.255 390.038 322.744 391.222H322.688Z" fill="#263238"/>
<path d="M320.651 384.153C320.741 384.277 321.921 383.445 323.607 383.029C325.293 382.613 326.721 382.692 326.732 382.534C325.676 382.151 324.518 382.151 323.461 382.534C322.364 382.728 321.369 383.301 320.651 384.153Z" fill="#263238"/>
<path d="M319.091 377.251C320.044 376.691 321.069 376.264 322.137 375.981C323.233 375.856 324.342 375.887 325.43 376.071C325.43 376.015 325.138 375.767 324.52 375.576C323.71 375.347 322.858 375.308 322.031 375.464C321.204 375.62 320.424 375.967 319.754 376.476C319.259 376.847 319.046 377.251 319.091 377.251Z" fill="#263238"/>
<path d="M321.855 374.655C321.861 374.347 321.803 374.041 321.686 373.756C321.421 372.955 321.001 372.214 320.45 371.575C320.092 371.074 319.578 370.706 318.988 370.53C318.788 370.487 318.579 370.509 318.391 370.592C318.204 370.674 318.047 370.814 317.943 370.991C317.76 371.336 317.712 371.736 317.808 372.115C318.037 372.893 318.531 373.567 319.204 374.021C319.877 374.474 320.687 374.679 321.495 374.599C322.292 374.504 323.044 374.174 323.654 373.652C324.265 373.13 324.706 372.438 324.923 371.665C324.972 371.475 324.981 371.276 324.948 371.083C324.915 370.889 324.841 370.704 324.732 370.541C324.6 370.379 324.419 370.264 324.217 370.213C324.014 370.163 323.801 370.179 323.608 370.26C323.059 370.506 322.585 370.894 322.237 371.384C321.706 372.031 321.298 372.77 321.034 373.565C320.911 373.848 320.849 374.155 320.854 374.464C321.263 373.438 321.824 372.479 322.518 371.62C322.84 371.199 323.261 370.863 323.743 370.642C323.847 370.601 323.961 370.592 324.07 370.619C324.178 370.645 324.276 370.704 324.35 370.788C324.476 371.027 324.504 371.305 324.428 371.564C324.22 372.224 323.826 372.811 323.294 373.256C322.762 373.7 322.115 373.982 321.427 374.07C320.743 374.138 320.055 373.97 319.479 373.594C318.903 373.217 318.472 372.656 318.258 372.002C318.165 371.744 318.165 371.462 318.258 371.204C318.314 371.107 318.4 371.029 318.503 370.983C318.606 370.936 318.72 370.923 318.831 370.946C319.331 371.094 319.775 371.392 320.101 371.8C320.847 372.643 321.44 373.609 321.855 374.655Z" fill="#263238"/>
<g opacity="0.3">
<path opacity="0.3" d="M305.23 366.303L322.675 363.538L322.012 360.256L304.77 364.651L305.23 366.303Z" fill="black"/>
</g>
<path d="M355.573 350.972L351.504 369.383C351.504 369.383 368.903 379.679 368.488 383.163L332.43 376.61L337.589 347.645L355.573 350.972Z" fill="#865E41"/>
<g opacity="0.6">
<path opacity="0.6" d="M340.635 365.831C340.269 365.875 339.932 366.051 339.688 366.327C339.444 366.602 339.309 366.958 339.309 367.326C339.337 367.694 339.506 368.036 339.78 368.283C340.054 368.53 340.412 368.662 340.781 368.652C341.168 368.608 341.525 368.421 341.783 368.128C342.041 367.835 342.18 367.457 342.175 367.067C342.106 366.686 341.892 366.346 341.577 366.12C341.263 365.893 340.872 365.798 340.489 365.854" fill="white"/>
</g>
<g opacity="0.6">
<path opacity="0.6" d="M332.43 376.655L333.059 373.755L367.397 381.117C367.397 381.117 368.87 382.117 368.521 383.208L332.43 376.655Z" fill="white"/>
</g>
<path d="M352.123 369.383C352.123 369.552 351.191 369.473 350.224 369.889C349.257 370.305 348.65 370.945 348.504 370.844C348.358 370.743 348.808 369.777 349.988 369.304C351.168 368.832 352.202 369.192 352.123 369.383Z" fill="#263238"/>
<path d="M355.574 371.631C355.574 371.811 354.765 371.968 354.034 372.609C353.304 373.25 352.989 374.003 352.809 373.958C352.629 373.913 352.708 372.901 353.63 372.126C354.551 371.35 355.642 371.429 355.574 371.631Z" fill="#263238"/>
<path d="M356.946 376.509C356.778 376.509 356.699 375.599 357.317 374.711C357.936 373.823 358.846 373.587 358.891 373.756C358.936 373.924 358.34 374.34 357.834 375.071C357.329 375.801 357.126 376.532 356.946 376.509Z" fill="#263238"/>
<path d="M352.572 365.033C352.471 365.191 351.707 364.797 350.706 364.685C349.706 364.572 348.863 364.741 348.796 364.572C348.728 364.404 349.594 363.909 350.774 364.067C351.954 364.224 352.685 364.887 352.572 365.033Z" fill="#263238"/>
<g opacity="0.3">
<path opacity="0.3" d="M354.744 354.625L354.025 357.918L336.333 354.535L336.85 351.545L354.744 354.625Z" fill="black"/>
</g>
<path d="M353.327 361.301C352.705 361.351 352.08 361.234 351.517 360.964C350.887 360.729 350.287 360.419 349.73 360.042C349.414 359.804 349.113 359.545 348.831 359.267C348.647 359.117 348.487 358.938 348.359 358.738C348.269 358.593 348.23 358.422 348.246 358.251C348.262 358.081 348.333 357.92 348.449 357.794C348.561 357.687 348.696 357.606 348.845 357.56C348.993 357.513 349.15 357.501 349.303 357.524C349.53 357.567 349.75 357.642 349.955 357.749C350.324 357.912 350.678 358.108 351.012 358.334C351.571 358.716 352.065 359.187 352.473 359.728C353.17 360.66 353.338 361.369 353.271 361.391C353.203 361.414 352.878 360.807 352.147 360.009C351.723 359.548 351.239 359.148 350.708 358.817C350.397 358.622 350.07 358.453 349.73 358.311C349.359 358.131 349.045 358.075 348.91 358.221C348.775 358.367 348.854 358.311 348.91 358.435C349.006 358.579 349.124 358.708 349.258 358.817C349.529 359.073 349.814 359.313 350.112 359.536C350.623 359.918 351.168 360.249 351.742 360.526C352.29 360.742 352.82 361.001 353.327 361.301Z" fill="#263238"/>
<path d="M353.046 361.515C352.799 360.937 352.744 360.295 352.889 359.683C352.977 359.008 353.183 358.354 353.496 357.75C353.68 357.39 353.902 357.05 354.159 356.738C354.297 356.515 354.491 356.332 354.722 356.208C354.953 356.084 355.212 356.022 355.474 356.03C355.634 356.062 355.782 356.14 355.9 356.253C356.017 356.367 356.1 356.512 356.137 356.671C356.185 356.9 356.208 357.133 356.205 357.367C356.191 357.781 356.115 358.19 355.98 358.581C355.754 359.242 355.368 359.837 354.856 360.312C353.979 361.122 353.215 361.189 353.204 361.133C353.192 361.077 353.844 360.807 354.541 360.009C354.945 359.546 355.244 359.002 355.418 358.413C355.523 358.07 355.576 357.714 355.575 357.356C355.575 356.963 355.508 356.637 355.35 356.648C355.193 356.659 354.822 356.839 354.609 357.12C354.377 357.402 354.171 357.703 353.99 358.019C353.677 358.562 353.45 359.15 353.316 359.762C353.08 360.807 353.147 361.515 353.046 361.515Z" fill="#263238"/>
<path d="M310.785 233.615L368.783 245.361C371.521 245.92 374.107 247.057 376.37 248.696C378.633 250.336 380.519 252.439 381.902 254.867C383.286 257.295 384.135 259.99 384.392 262.772C384.65 265.554 384.31 268.359 383.395 270.999L360.668 355.637L331.556 352.917L349.158 273.236L287.338 258.624L310.785 233.615Z" fill="#263238"/>
<path d="M266.284 246.867C264.336 249.714 263.075 252.974 262.599 256.391C262.123 259.808 262.446 263.288 263.541 266.559C263.619 266.789 263.709 267.014 263.811 267.234C264.441 268.504 283.144 280.924 283.144 280.924L299.453 366.011L325.766 359.267L319.348 281.834C318.53 271.958 314.435 262.637 307.715 255.353L299.374 246.316L268.813 243.191L266.284 246.867Z" fill="#263238"/>
<path d="M357.541 256.275C357.009 257.193 356.423 258.078 355.787 258.928C354.384 261.048 353.136 263.268 352.056 265.57C350.779 268.352 349.737 271.236 348.942 274.191L348.717 275.001V274.169C348.659 273.623 348.659 273.073 348.717 272.528C348.865 273.056 348.956 273.599 348.987 274.146H348.717C349.34 271.12 350.317 268.177 351.628 265.379C352.715 263.05 354.021 260.829 355.529 258.748C356.113 257.95 356.653 257.331 356.979 256.916C357.305 256.5 357.518 256.252 357.541 256.275Z" fill="#455A64"/>
<path d="M350.223 257.691C350.079 258.553 349.884 259.405 349.639 260.243C349.163 262.279 348.851 264.35 348.706 266.436C348.582 268.53 348.623 270.631 348.829 272.719C348.96 273.583 349.035 274.454 349.054 275.327C348.753 274.501 348.556 273.64 348.47 272.764C348.176 270.661 348.097 268.533 348.234 266.414C348.39 264.293 348.767 262.195 349.358 260.153C349.537 259.298 349.828 258.47 350.223 257.691Z" fill="#455A64"/>
<path d="M321.09 302.921C321.038 302.734 321.008 302.541 321.001 302.347C321.001 301.909 320.899 301.369 320.832 300.695C320.697 299.2 320.506 297.154 320.281 294.648C319.779 287.996 318.863 281.381 317.539 274.843C316.772 271.266 315.504 267.815 313.773 264.592C312.271 262.001 310.537 259.552 308.592 257.275C306.973 255.297 305.613 253.723 304.703 252.622L303.657 251.34C303.421 251.037 303.298 250.879 303.32 250.868C303.472 250.989 303.611 251.124 303.736 251.273L304.86 252.487C305.815 253.555 307.22 255.083 308.884 257.05C310.882 259.31 312.658 261.757 314.189 264.356C315.97 267.609 317.268 271.104 318.044 274.731C319.382 281.292 320.253 287.941 320.652 294.625C320.866 297.177 320.956 299.256 321.034 300.684C321.034 301.358 321.09 301.909 321.113 302.336C321.132 302.531 321.124 302.728 321.09 302.921Z" fill="#455A64"/>
<path d="M299.455 366.011C299.416 365.929 299.389 365.842 299.376 365.752C299.376 365.561 299.275 365.314 299.196 364.999L298.589 362.088L296.476 351.331C294.723 342.216 292.329 329.683 289.732 315.836C287.136 301.988 284.742 289.433 282.988 280.317C282.123 275.821 281.426 272.134 280.943 269.549C280.695 268.313 280.504 267.301 280.369 266.627C280.234 265.952 280.145 265.615 280.145 265.615C280.588 266.884 280.918 268.189 281.134 269.516C281.684 272.045 282.437 275.709 283.382 280.25C285.191 289.32 287.619 301.864 290.238 315.746C292.857 329.627 295.172 342.148 296.881 351.275C297.701 355.771 298.376 359.458 298.848 362.043L299.354 364.988C299.354 365.291 299.444 365.55 299.477 365.752C299.477 365.839 299.47 365.925 299.455 366.011Z" fill="#455A64"/>
<path d="M325.058 188.171C325.058 189.183 331.476 234.379 336.702 237.504C341.929 240.628 380.302 236.009 380.302 236.009L377.661 218.969L348.234 217.946L344.716 180.011C344.487 177.557 343.681 175.192 342.362 173.109C341.043 171.026 339.25 169.286 337.129 168.029L325.058 188.171Z" fill="#865E41"/>
<path d="M272.398 149.281C280.583 147.364 289.015 146.723 297.396 147.382C302.319 153.676 312.199 157.408 318.752 153.002L338.534 169.064L319.426 220.464L320.618 235.627L300.217 247.26L268.745 243.203L266.036 174.56L272.398 149.281Z" fill="#865E41"/>
<path d="M295.351 149.282C295.351 149.068 295.418 148.866 295.463 148.664C295.44 148.406 295.395 148.15 295.328 147.899L295.351 149.282Z" fill="#865E41"/>
<path d="M331.803 182.799C331.938 182.799 330.241 188.902 328.015 196.287C325.79 203.671 323.879 209.775 323.744 209.685C323.609 209.595 325.306 203.582 327.532 196.141C329.757 188.7 331.668 182.799 331.803 182.799Z" fill="#263238"/>
<path d="M341.064 228.287C340.813 227.652 340.72 226.965 340.794 226.286C340.843 224.62 341.368 223.002 342.309 221.625C343.249 220.249 344.565 219.171 346.1 218.519C346.711 218.214 347.383 218.049 348.067 218.036C348.067 218.126 347.336 218.295 346.246 218.845C344.831 219.551 343.62 220.608 342.728 221.914C341.837 223.221 341.295 224.733 341.154 226.309C341.031 227.511 341.154 228.276 341.064 228.287Z" fill="#263238"/>
<g opacity="0.2">
<path opacity="0.2" d="M337.738 238.752C340.027 238.273 342.174 237.271 344.011 235.824C345.848 234.377 347.325 232.525 348.326 230.412C348.716 229.314 349.286 228.288 350.012 227.377C351.208 226.368 352.682 225.745 354.239 225.59L374.302 221.543C374.246 220.622 374.19 219.767 374.122 218.846L355.093 218.25L340.762 223.87L337.738 237.875" fill="black"/>
</g>
<g opacity="0.3">
<path opacity="0.3" d="M266.285 179.642L272.501 176.112L266.858 194.22L266.285 179.642Z" fill="black"/>
</g>
<path d="M385.922 200.547C385.607 198.794 387.349 197.277 389.092 196.906C390.834 196.535 392.643 196.906 394.419 196.737C399.342 196.288 403.209 191.971 408.11 191.286C410.182 191.056 412.275 191.457 414.116 192.435C415.956 193.414 417.459 194.925 418.428 196.771C419.341 198.646 419.719 200.737 419.521 202.813C419.322 204.889 418.555 206.871 417.304 208.539C416.008 210.172 414.325 211.456 412.407 212.274C410.49 213.093 408.398 213.42 406.322 213.226C404.333 213.035 402.287 212.406 400.388 212.99C399.263 213.454 398.187 214.026 397.173 214.699C395.859 215.462 394.327 215.759 392.823 215.542C392.08 215.418 391.383 215.097 390.806 214.613C390.229 214.129 389.792 213.498 389.541 212.788" fill="#263238"/>
<path d="M282.424 199.85C274.938 196.298 268.352 194.758 260.079 195.354C257.144 195.573 254.231 196.027 251.368 196.714C237.599 200.086 222.605 213.72 224.977 231.76C226.539 243.607 236.857 266.166 259.607 267.807C266.068 268.213 272.519 266.878 278.288 263.94C282.41 261.872 286.414 259.576 290.281 257.062C294.179 254.555 298.757 253.314 303.387 253.51C310.232 253.802 320.101 252.453 327.351 248.609C340.839 241.505 343.087 231.412 340.254 220.262C338.006 211.337 335.668 200.03 323.001 194.534C316.088 191.521 306.703 191.251 294.901 198.962C293.027 200.052 290.928 200.699 288.765 200.853C286.603 201.007 284.434 200.664 282.424 199.85Z" fill="#263238"/>
<path d="M278.84 204.301C275.806 203.979 272.859 203.09 270.152 201.682C263.11 198.093 255.036 197.076 247.323 198.804C233.555 202.109 221.741 216.429 224.079 234.143C225.574 245.574 230.61 266.256 252.505 268.492C259.357 269.129 266.251 267.829 272.4 264.738C276.605 262.654 280.691 260.339 284.64 257.803C288.368 255.419 292.74 254.241 297.162 254.431C303.996 254.735 314.617 254.296 321.451 249.587C332.23 242.168 335.883 232.727 332.579 222.217C329.87 213.574 328.386 202.221 317.214 196.444C310.548 192.993 301.107 194.601 289.271 202.199C286.124 204.038 282.454 204.777 278.84 204.301Z" fill="#455A64"/>
<path d="M299.968 230.835C300.079 223.281 294.045 217.067 286.491 216.957C278.937 216.846 272.723 222.88 272.613 230.434C272.502 237.988 278.536 244.201 286.09 244.312C293.644 244.423 299.857 238.389 299.968 230.835Z" fill="#263238"/>
<path d="M272.016 227.546L401.939 197.501C402.762 197.31 403.616 197.284 404.45 197.425C405.284 197.565 406.081 197.87 406.797 198.32C407.513 198.77 408.133 199.358 408.62 200.049C409.108 200.74 409.454 201.521 409.638 202.346C410.007 204.002 409.704 205.736 408.796 207.169C407.888 208.602 406.448 209.616 404.794 209.989L275.253 239.213C272.398 235.481 271.128 231.626 272.016 227.546Z" fill="#455A64"/>
<path d="M282.795 243.586C282.461 243.582 282.131 243.521 281.817 243.406C280.943 243.168 280.102 242.825 279.311 242.383C276.637 240.94 274.561 238.594 273.454 235.764C272.346 232.934 272.279 229.803 273.264 226.928C273.539 226.066 273.917 225.239 274.388 224.467C274.544 224.174 274.745 223.909 274.983 223.68C274.437 224.768 273.972 225.895 273.59 227.052C272.723 229.854 272.833 232.867 273.901 235.599C274.968 238.33 276.931 240.619 279.468 242.091C280.539 242.669 281.651 243.169 282.795 243.586Z" fill="#263238"/>
<path d="M411.033 208.326C411.033 208.472 380.865 215.407 343.593 223.815C306.321 232.222 276.074 239 276.052 238.809C276.029 238.618 306.209 231.739 343.492 223.32C380.775 214.902 410.999 208.191 411.033 208.326Z" fill="#263238"/>
<path d="M352.451 208.516C352.451 208.662 334.759 212.9 312.886 217.991C291.013 223.083 273.243 227.118 273.209 226.983C273.175 226.848 290.89 222.611 312.774 217.508C334.658 212.405 352.417 208.381 352.451 208.516Z" fill="#263238"/>
<path d="M299.5 233.109C298.752 231.288 298.158 229.408 297.724 227.489C297.133 225.607 296.705 223.678 296.442 221.723C297.194 223.542 297.788 225.422 298.218 227.343C298.815 229.223 299.244 231.153 299.5 233.109Z" fill="#263238"/>
<path d="M290.381 235.313C289.637 233.491 289.043 231.611 288.606 229.693C288.015 227.811 287.586 225.882 287.324 223.927C288.668 227.627 289.691 231.437 290.381 235.313Z" fill="#263238"/>
<path d="M281.153 237.504C279.804 233.798 278.781 229.98 278.096 226.096C279.441 229.804 280.464 233.621 281.153 237.504Z" fill="#263238"/>
<path d="M308.545 231.278C307.793 229.459 307.199 227.578 306.769 225.658C306.179 223.775 305.75 221.846 305.487 219.892C306.241 221.71 306.836 223.59 307.263 225.512C307.854 227.394 308.282 229.323 308.545 231.278Z" fill="#263238"/>
<path d="M317.594 229.445C316.249 225.737 315.226 221.92 314.537 218.036C315.886 221.743 316.909 225.56 317.594 229.445Z" fill="#263238"/>
<path d="M326.599 227.208C325.841 225.391 325.247 223.51 324.823 221.588C324.225 219.703 323.793 217.77 323.53 215.811C324.28 217.63 324.875 219.51 325.306 221.431C325.897 223.317 326.33 225.249 326.599 227.208Z" fill="#263238"/>
<path d="M335.601 225.028C334.841 223.212 334.246 221.331 333.825 219.408C333.228 217.527 332.795 215.597 332.532 213.642C333.284 215.461 333.878 217.341 334.308 219.262C334.899 221.144 335.331 223.073 335.601 225.028Z" fill="#263238"/>
<path d="M344.604 222.892C343.854 221.072 343.26 219.192 342.828 217.272C342.238 215.39 341.809 213.461 341.547 211.506C342.293 213.327 342.887 215.207 343.323 217.126C343.913 219.008 344.342 220.937 344.604 222.892Z" fill="#263238"/>
<path d="M354.316 220.656C353.565 218.836 352.971 216.956 352.54 215.036C351.949 213.153 351.517 211.224 351.247 209.27C352.005 211.086 352.599 212.967 353.023 214.89C353.62 216.77 354.053 218.7 354.316 220.656Z" fill="#263238"/>
<path d="M364.028 218.419C363.272 216.602 362.678 214.721 362.253 212.799C361.655 210.918 361.223 208.989 360.96 207.033C361.712 208.852 362.306 210.732 362.736 212.653C363.327 214.536 363.759 216.465 364.028 218.419Z" fill="#263238"/>
<path d="M373.726 216.182C372.982 214.36 372.388 212.481 371.95 210.562C371.36 208.68 370.931 206.751 370.669 204.796C371.421 206.615 372.015 208.495 372.445 210.416C373.035 212.298 373.464 214.227 373.726 216.182Z" fill="#263238"/>
<path d="M383.439 213.946C382.689 212.126 382.095 210.246 381.663 208.326C381.073 206.444 380.644 204.515 380.382 202.56C381.134 204.379 381.728 206.259 382.158 208.18C382.748 210.062 383.177 211.991 383.439 213.946Z" fill="#263238"/>
<path d="M393.151 211.708C392.401 209.889 391.807 208.009 391.375 206.088C390.785 204.206 390.356 202.277 390.094 200.322C390.846 202.141 391.44 204.021 391.87 205.942C392.461 207.824 392.89 209.753 393.151 211.708Z" fill="#263238"/>
<path d="M402.861 209.472C402.111 207.652 401.517 205.772 401.085 203.852C400.488 201.972 400.059 200.042 399.804 198.086C400.55 199.907 401.144 201.787 401.58 203.706C402.171 205.588 402.6 207.517 402.861 209.472Z" fill="#263238"/>
<path d="M393.892 194.174C393.928 194.432 393.886 194.695 393.772 194.929C393.658 195.164 393.477 195.359 393.252 195.49C393.027 195.621 392.768 195.683 392.508 195.667C392.248 195.651 391.999 195.558 391.792 195.399C391.584 195.241 391.429 195.025 391.345 194.779C391.261 194.532 391.252 194.266 391.319 194.014C391.386 193.763 391.527 193.537 391.723 193.365C391.919 193.193 392.161 193.084 392.42 193.05C392.764 193.005 393.112 193.098 393.387 193.309C393.663 193.519 393.845 193.83 393.892 194.174Z" fill="#263238"/>
<path d="M398.017 192.735C398.053 192.993 398.011 193.256 397.897 193.49C397.783 193.724 397.602 193.919 397.377 194.051C397.152 194.182 396.893 194.243 396.633 194.227C396.373 194.211 396.124 194.118 395.917 193.96C395.709 193.802 395.554 193.586 395.47 193.339C395.386 193.093 395.377 192.827 395.444 192.575C395.511 192.323 395.652 192.097 395.848 191.926C396.044 191.754 396.286 191.644 396.545 191.611C396.889 191.566 397.237 191.659 397.512 191.869C397.788 192.08 397.97 192.391 398.017 192.735Z" fill="#263238"/>
<path d="M402.545 191.173C402.58 191.431 402.538 191.694 402.424 191.928C402.31 192.163 402.13 192.358 401.904 192.489C401.679 192.62 401.42 192.682 401.16 192.666C400.9 192.65 400.651 192.557 400.444 192.399C400.237 192.24 400.081 192.024 399.997 191.778C399.913 191.531 399.904 191.265 399.971 191.013C400.039 190.762 400.179 190.536 400.375 190.364C400.571 190.192 400.814 190.083 401.072 190.049C401.416 190.004 401.764 190.097 402.04 190.308C402.316 190.518 402.497 190.829 402.545 191.173Z" fill="#263238"/>
<path d="M393.791 197.95C393.656 197.95 393.285 197.22 392.948 196.219C392.611 195.219 392.453 194.376 392.588 194.331C392.723 194.286 393.094 195.062 393.431 196.062C393.768 197.062 393.926 197.905 393.791 197.95Z" fill="#263238"/>
<path d="M398.109 196.985C397.974 196.985 397.592 196.266 397.266 195.265C396.94 194.265 396.76 193.422 396.895 193.377C397.03 193.332 397.412 194.107 397.749 195.097C398.086 196.086 398.289 196.94 398.109 196.985Z" fill="#263238"/>
<path d="M402.569 195.265C402.434 195.265 402.063 194.534 401.726 193.534C401.389 192.533 401.232 191.69 401.367 191.645C401.501 191.6 401.872 192.376 402.21 193.376C402.547 194.377 402.704 195.22 402.569 195.265Z" fill="#263238"/>
<path d="M406.02 215.395C406.061 215.065 406.225 214.762 406.479 214.547C406.733 214.332 407.059 214.22 407.392 214.235C407.725 214.249 408.04 214.388 408.275 214.623C408.51 214.859 408.648 215.175 408.661 215.508C408.62 215.838 408.456 216.141 408.201 216.356C407.947 216.571 407.621 216.683 407.288 216.669C406.956 216.654 406.641 216.516 406.405 216.28C406.17 216.044 406.033 215.728 406.02 215.395Z" fill="#263238"/>
<path d="M401.715 216.148C401.755 215.818 401.918 215.515 402.172 215.3C402.425 215.084 402.75 214.972 403.082 214.984C403.414 214.997 403.73 215.134 403.966 215.368C404.202 215.603 404.341 215.917 404.356 216.249C404.365 216.433 404.335 216.616 404.269 216.787C404.203 216.958 404.102 217.114 403.973 217.244C403.843 217.374 403.688 217.476 403.518 217.544C403.347 217.611 403.164 217.642 402.981 217.635C402.797 217.628 402.617 217.583 402.452 217.503C402.287 217.423 402.14 217.309 402.021 217.169C401.902 217.03 401.814 216.867 401.761 216.691C401.708 216.515 401.693 216.33 401.715 216.148Z" fill="#263238"/>
<path d="M396.995 216.946C397.006 216.688 397.093 216.438 397.246 216.229C397.398 216.02 397.608 215.86 397.85 215.77C398.093 215.68 398.356 215.663 398.608 215.722C398.86 215.781 399.089 215.912 399.266 216.101C399.444 216.289 399.562 216.525 399.605 216.78C399.649 217.035 399.617 217.297 399.512 217.533C399.408 217.77 399.236 217.971 399.018 218.11C398.801 218.25 398.547 218.322 398.288 218.317C398.112 218.315 397.939 218.277 397.778 218.206C397.618 218.135 397.473 218.032 397.352 217.905C397.232 217.777 397.138 217.626 397.077 217.462C397.016 217.297 396.988 217.122 396.995 216.946Z" fill="#263238"/>
<path d="M406.738 211.697C406.873 211.697 407.121 212.495 407.289 213.541C407.458 214.586 407.48 215.44 407.289 215.463C407.098 215.485 406.907 214.653 406.738 213.619C406.579 212.988 406.579 212.328 406.738 211.697Z" fill="#263238"/>
<path d="M402.333 211.934C402.468 211.934 402.715 212.743 402.884 213.777C403.052 214.811 403.064 215.677 402.884 215.699C402.704 215.721 402.502 214.901 402.333 213.856C402.164 212.81 402.187 211.956 402.333 211.934Z" fill="#263238"/>
<path d="M397.634 212.911C397.78 212.911 398.028 213.709 398.185 214.754C398.342 215.8 398.376 216.654 398.185 216.665C397.994 216.677 397.792 215.867 397.634 214.833C397.477 213.799 397.499 212.934 397.634 212.911Z" fill="#263238"/>
<path d="M284.155 204.155C284.155 204.155 284.009 204.369 283.717 204.762L282.435 206.403C281.311 207.909 279.648 210.023 277.647 212.619C275.375 215.773 272.792 218.691 269.937 221.33C266.28 224.415 262.047 226.742 257.483 228.175C252.661 229.794 247.805 230.232 243.511 230.974C241.471 231.303 239.458 231.78 237.487 232.401C235.777 232.953 234.139 233.708 232.609 234.649C230.373 235.999 228.517 237.894 227.213 240.157C226.877 240.783 226.595 241.438 226.37 242.113C226.235 242.574 226.146 242.81 226.146 242.81C226.146 242.81 226.146 242.562 226.314 242.09C226.519 241.406 226.783 240.74 227.101 240.101C228.388 237.796 230.246 235.861 232.496 234.481C234.031 233.508 235.681 232.73 237.408 232.165C239.387 231.522 241.412 231.034 243.466 230.704C247.782 229.94 252.604 229.501 257.393 227.883C261.918 226.472 266.12 224.18 269.757 221.139C272.614 218.525 275.204 215.633 277.49 212.507L282.345 206.347C282.907 205.661 283.346 205.111 283.683 204.684C284.02 204.256 284.155 204.155 284.155 204.155Z" fill="#E0E0E0"/>
<path d="M273.399 203.177C273.399 203.177 273.219 203.278 272.871 203.435C272.363 203.667 271.867 203.926 271.387 204.211C269.631 205.291 268.044 206.624 266.678 208.167C264.89 210.078 263.126 212.663 261.058 215.383C259.953 216.827 258.74 218.184 257.427 219.441C255.987 220.767 254.381 221.9 252.65 222.813C249.291 224.544 245.647 225.656 241.893 226.095C238.842 226.453 235.767 226.554 232.699 226.399C230.08 226.275 227.967 226.084 226.517 225.949L224.842 225.78C224.46 225.78 224.258 225.69 224.258 225.69H224.842L226.528 225.803C227.978 225.904 230.091 226.073 232.71 226.163C235.765 226.287 238.825 226.163 241.86 225.792C245.574 225.343 249.178 224.235 252.504 222.521C254.217 221.606 255.804 220.473 257.225 219.149C258.532 217.909 259.738 216.567 260.833 215.136C262.957 212.416 264.744 209.853 266.565 207.954C267.936 206.458 269.523 205.178 271.275 204.155C271.947 203.757 272.659 203.429 273.399 203.177Z" fill="#E0E0E0"/>
<path d="M246.714 209.427C246.064 209.966 245.332 210.399 244.545 210.708C242.41 211.595 240.047 211.776 237.801 211.225C237.031 211.09 236.308 210.762 235.699 210.27C235.527 210.123 235.407 209.924 235.357 209.704C235.306 209.483 235.328 209.252 235.418 209.045C235.642 208.667 235.96 208.353 236.34 208.134C239.496 205.873 243.319 204.737 247.198 204.908C248.272 204.953 249.337 205.13 250.367 205.437C251.444 205.756 252.417 206.353 253.189 207.168C253.966 208.004 254.396 209.105 254.391 210.247C254.369 210.8 254.226 211.342 253.972 211.833C253.717 212.324 253.358 212.754 252.919 213.091C251.236 214.248 249.316 215.016 247.299 215.339C243.988 216.132 240.587 216.487 237.183 216.396C234.896 216.317 232.628 215.939 230.439 215.272C229.634 215.029 228.848 214.725 228.09 214.361L228.697 214.564C229.101 214.721 229.697 214.923 230.473 215.159C232.67 215.776 234.935 216.115 237.217 216.171C240.604 216.226 243.985 215.848 247.276 215.047C249.236 214.74 251.105 214.008 252.75 212.9C253.155 212.59 253.486 212.194 253.721 211.742C253.956 211.289 254.089 210.791 254.11 210.281C254.111 209.215 253.71 208.187 252.986 207.404C252.245 206.631 251.316 206.066 250.289 205.763C249.289 205.457 248.254 205.283 247.209 205.246C245.221 205.148 243.232 205.399 241.331 205.987C239.61 206.52 237.986 207.324 236.52 208.37C236.171 208.567 235.874 208.845 235.654 209.18C235.586 209.345 235.572 209.528 235.615 209.702C235.657 209.875 235.754 210.031 235.89 210.146C236.473 210.601 237.155 210.913 237.88 211.057C240.095 211.623 242.432 211.473 244.556 210.63C245.133 210.399 245.689 210.121 246.22 209.798C246.378 209.665 246.543 209.541 246.714 209.427Z" fill="#E0E0E0"/>
<path d="M333.6 232.121H332.476C331.404 232.157 330.336 232.281 329.284 232.492C327.619 232.815 325.989 233.301 324.417 233.942C322.336 234.793 320.325 235.807 318.404 236.976C316.257 238.246 314.009 239.809 311.559 241.472C308.986 243.27 306.298 244.896 303.511 246.339C300.396 247.908 297.029 248.912 293.564 249.307C289.846 249.681 286.097 249.59 282.402 249.037C274.804 247.98 267.79 245.811 261.282 244.799C258.202 244.271 255.078 244.03 251.953 244.08C249.229 244.138 246.524 244.55 243.905 245.305C240.094 246.361 236.613 248.369 233.789 251.139C233.05 251.916 232.373 252.75 231.766 253.634C231.362 254.252 231.137 254.567 231.137 254.567C231.137 254.567 231.328 254.23 231.71 253.6C232.298 252.697 232.963 251.847 233.699 251.06C236.503 248.238 239.987 246.186 243.815 245.103C246.445 244.322 249.166 243.891 251.908 243.822C255.052 243.767 258.194 244.004 261.294 244.53C267.858 245.519 274.849 247.688 282.414 248.733C286.078 249.287 289.798 249.377 293.485 249.003C296.922 248.622 300.264 247.633 303.354 246.081C306.134 244.649 308.818 243.038 311.39 241.259C313.829 239.629 316.1 238.067 318.269 236.763C320.202 235.593 322.228 234.585 324.327 233.75C325.91 233.118 327.552 232.644 329.228 232.334C330.289 232.142 331.364 232.037 332.443 232.02L333.6 232.121Z" fill="#E0E0E0"/>
<path d="M245.344 262.502C245.512 262.485 245.682 262.485 245.85 262.502L247.311 262.592L252.661 262.986L256.359 263.267C257.761 263.433 259.174 263.5 260.585 263.469C261.334 263.431 262.068 263.244 262.743 262.918C263.084 262.749 263.386 262.511 263.63 262.219C263.874 261.926 264.054 261.587 264.16 261.221C264.298 260.417 264.177 259.59 263.816 258.859C263.454 258.128 262.87 257.53 262.148 257.152C260.662 256.405 259.041 255.966 257.382 255.859C255.83 255.688 254.267 255.631 252.706 255.691C250.062 255.8 247.444 256.253 244.917 257.04C243.207 257.56 241.548 258.233 239.96 259.052C239.387 259.321 238.971 259.569 238.679 259.737C238.533 259.828 238.379 259.904 238.218 259.962C238.355 259.861 238.498 259.767 238.645 259.681C238.926 259.501 239.342 259.231 239.904 258.939C241.482 258.08 243.138 257.373 244.849 256.826C247.397 256.006 250.043 255.529 252.717 255.41C254.293 255.335 255.871 255.388 257.438 255.567C259.141 255.672 260.805 256.123 262.328 256.894C263.11 257.301 263.74 257.949 264.125 258.743C264.509 259.537 264.628 260.433 264.463 261.3C264.348 261.704 264.15 262.08 263.881 262.404C263.612 262.727 263.278 262.99 262.901 263.177C262.198 263.515 261.433 263.707 260.653 263.739C259.226 263.768 257.799 263.697 256.382 263.525L252.695 263.199L247.345 262.705L245.895 262.558L245.344 262.502Z" fill="#E0E0E0"/>
<path d="M329.723 240.528C329.662 240.622 329.59 240.709 329.509 240.787L328.869 241.506C328.588 241.821 328.239 242.192 327.801 242.63C327.363 243.069 326.902 243.529 326.317 244.013C325.001 245.174 323.603 246.241 322.136 247.205C320.344 248.386 318.465 249.431 316.516 250.33C314.55 251.21 312.521 251.942 310.446 252.521C308.752 252.983 307.028 253.328 305.287 253.556C304.545 253.679 303.871 253.713 303.275 253.758C302.68 253.803 302.151 253.837 301.758 253.848H300.791C300.68 253.865 300.566 253.865 300.454 253.848H300.791L301.747 253.78C302.163 253.78 302.68 253.724 303.264 253.645C303.849 253.567 304.523 253.533 305.265 253.398C306.99 253.126 308.698 252.751 310.379 252.274C312.43 251.678 314.439 250.945 316.392 250.082C318.333 249.184 320.211 248.155 322.012 247.003C323.478 246.047 324.882 244.999 326.216 243.867C326.801 243.406 327.273 242.934 327.722 242.529C328.172 242.124 328.52 241.776 328.846 241.484L329.532 240.809C329.723 240.596 329.723 240.517 329.723 240.528Z" fill="#E0E0E0"/>
<path d="M327.554 208.281C327.554 208.281 327.431 208.438 327.172 208.708C326.796 209.112 326.39 209.488 325.958 209.832C324.364 211.089 322.56 212.055 320.63 212.687C317.772 213.609 314.788 214.079 311.785 214.08C308.123 214.015 304.469 213.749 300.837 213.282C297.221 212.816 293.566 212.737 289.934 213.046C286.971 213.362 284.097 214.247 281.47 215.654C279.706 216.614 278.147 217.913 276.884 219.476C276.008 220.6 275.682 221.319 275.637 221.297L275.906 220.779C276.17 220.299 276.467 219.837 276.794 219.397C278.039 217.794 279.595 216.46 281.369 215.474C284.007 214.019 286.906 213.098 289.9 212.765C293.554 212.436 297.232 212.508 300.87 212.979C304.491 213.446 308.135 213.72 311.785 213.799C314.76 213.81 317.721 213.366 320.563 212.484C322.478 211.879 324.276 210.952 325.879 209.742C327.015 208.854 327.532 208.247 327.554 208.281Z" fill="#E0E0E0"/>
<path d="M308.478 200.862C308.523 201.005 308.58 201.144 308.646 201.278C308.764 201.452 308.917 201.599 309.095 201.709C309.273 201.819 309.473 201.891 309.68 201.918C310.002 201.992 310.338 201.963 310.642 201.836C310.947 201.709 311.204 201.49 311.378 201.21C311.581 200.823 311.68 200.388 311.664 199.951C311.648 199.513 311.518 199.087 311.288 198.715C310.68 197.823 309.789 197.161 308.759 196.838C307.613 196.353 306.371 196.134 305.128 196.197C304.472 196.255 303.843 196.488 303.307 196.872C302.758 197.287 302.331 197.842 302.071 198.479C301.799 199.152 301.693 199.88 301.764 200.603C301.834 201.325 302.078 202.019 302.476 202.627C303.275 203.852 304.462 204.774 305.848 205.246C307.157 205.665 308.535 205.825 309.905 205.718C312.253 205.57 314.546 204.951 316.649 203.897C318.069 203.19 319.392 202.302 320.583 201.255C320.999 200.884 321.314 200.581 321.527 200.379C321.627 200.264 321.736 200.159 321.853 200.064C321.776 200.192 321.681 200.309 321.572 200.412C321.37 200.648 321.067 200.952 320.662 201.345C319.491 202.436 318.175 203.359 316.75 204.088C314.633 205.18 312.316 205.83 309.939 205.999C308.528 206.117 307.107 205.956 305.758 205.527C304.289 205.052 303.027 204.088 302.183 202.795C301.759 202.147 301.5 201.404 301.427 200.632C301.355 199.861 301.472 199.083 301.768 198.367C302.048 197.679 302.51 197.08 303.105 196.636C303.685 196.225 304.364 195.977 305.072 195.916C306.356 195.857 307.636 196.091 308.815 196.602C309.895 196.948 310.823 197.655 311.445 198.603C311.683 199.012 311.808 199.478 311.808 199.951C311.808 200.425 311.683 200.891 311.445 201.3C311.252 201.602 310.969 201.835 310.637 201.968C310.304 202.101 309.938 202.127 309.591 202.042C309.359 202.011 309.138 201.928 308.944 201.8C308.749 201.671 308.586 201.5 308.467 201.3C308.431 201.156 308.435 201.004 308.478 200.862Z" fill="#E0E0E0"/>
<path d="M273.791 237.673H273.297L271.88 237.561C271.262 237.561 270.509 237.448 269.632 237.426C268.756 237.403 267.766 237.325 266.665 237.336C264.417 237.336 261.843 237.392 258.943 237.628C252.648 238.187 246.445 239.519 240.476 241.596C237.722 242.574 235.294 243.563 233.305 244.507C232.293 244.945 231.416 245.417 230.63 245.811C229.843 246.204 229.191 246.553 228.651 246.856L227.404 247.531C227.263 247.62 227.112 247.692 226.954 247.744C226.954 247.744 227.089 247.643 227.37 247.474L228.595 246.755C229.123 246.429 229.775 246.058 230.551 245.631C231.326 245.204 232.203 244.743 233.215 244.282C235.548 243.17 237.938 242.179 240.375 241.315C243.369 240.265 246.424 239.398 249.524 238.718C252.626 238.067 255.763 237.602 258.921 237.325C261.496 237.113 264.081 237.038 266.665 237.1C267.789 237.1 268.767 237.19 269.644 237.235C270.52 237.28 271.273 237.347 271.892 237.426L273.297 237.583L273.791 237.673Z" fill="#E0E0E0"/>
<path d="M317.707 231.255C317.494 231.386 317.268 231.495 317.033 231.581C316.594 231.783 315.909 232.042 315.155 232.345C313.059 233.126 310.92 233.787 308.749 234.323C306.578 234.855 304.379 235.26 302.162 235.537C301.308 235.639 300.611 235.706 300.139 235.728C299.888 235.748 299.636 235.748 299.386 235.728C299.628 235.658 299.876 235.613 300.128 235.594L302.128 235.301C303.814 235.043 306.141 234.627 308.681 234.009C311.221 233.39 313.458 232.671 315.077 232.12L316.988 231.457C317.218 231.359 317.459 231.291 317.707 231.255Z" fill="#E0E0E0"/>
<path d="M284.179 167.321C283.051 165.622 282.088 163.819 281.302 161.937C280.339 160.143 279.548 158.261 278.941 156.317C280.074 158.016 281.041 159.819 281.83 161.701C282.787 163.497 283.573 165.379 284.179 167.321Z" fill="#FAFAFA"/>
<path d="M287.305 187.655C286.228 188.613 285.026 189.419 283.73 190.049C282.534 190.86 281.228 191.496 279.853 191.938C282.133 190.182 284.64 188.742 287.305 187.655Z" fill="#FAFAFA"/>
<path d="M302.015 182.439C301.169 180.738 300.506 178.952 300.037 177.112C299.379 175.333 298.908 173.491 298.632 171.615C299.465 173.32 300.124 175.105 300.599 176.943C301.251 178.724 301.725 180.565 302.015 182.439Z" fill="#FAFAFA"/>
<path d="M317.528 167.119C316.027 166.808 314.607 166.187 313.358 165.298C312 164.582 310.808 163.586 309.862 162.376C311.168 163.121 312.436 163.932 313.661 164.804C314.99 165.508 316.28 166.281 317.528 167.119Z" fill="#FAFAFA"/>
<path d="M323.832 180.641C322.851 181.449 321.757 182.108 320.584 182.596C319.491 183.251 318.305 183.732 317.065 184.024C319.128 182.562 321.402 181.425 323.809 180.652L323.832 180.641Z" fill="#FAFAFA"/>
<path d="M339.008 180.405C338.11 179.11 337.374 177.709 336.816 176.235C336.081 174.843 335.53 173.362 335.175 171.829C336.065 173.127 336.797 174.527 337.355 175.999C338.083 177.395 338.637 178.875 339.008 180.405Z" fill="#FAFAFA"/>
<path d="M339.356 200.064C338.957 198.91 338.744 197.7 338.727 196.479C338.539 195.272 338.539 194.044 338.727 192.837C339.132 193.989 339.345 195.201 339.356 196.422C339.543 197.629 339.543 198.858 339.356 200.064Z" fill="#FAFAFA"/>
<path d="M354.519 227.377C353.879 228.841 353.155 230.268 352.349 231.648C351.716 233.117 351.003 234.551 350.214 235.942C350.914 232.773 352.394 229.829 354.519 227.377Z" fill="#FAFAFA"/>
<path d="M372.996 231.435C372.85 231.514 371.468 229.187 369.478 226.411C367.489 223.635 365.679 221.611 365.803 221.499C368.909 224.236 371.366 227.63 372.996 231.435Z" fill="#FAFAFA"/>
<path d="M380.46 236.571C380.103 235.787 379.835 234.965 379.662 234.121C379.257 232.57 378.763 230.423 378.358 228.029C377.954 225.635 377.684 223.432 377.56 221.847C377.443 220.99 377.42 220.123 377.493 219.262C377.709 220.094 377.852 220.944 377.92 221.802C378.133 223.376 378.448 225.545 378.853 227.939C379.257 230.333 379.696 232.435 379.977 234.031C380.211 234.862 380.373 235.712 380.46 236.571Z" fill="#263238"/>
<path d="M379.853 206.403C379.853 209.078 380.718 216.317 380.718 216.317L377.639 220.431L379.774 234.278L393.791 219.239C394.755 218.226 395.39 216.945 395.611 215.564C396.364 210.989 397.994 200.569 397.5 199.963C396.713 199.03 395.319 200.255 394.813 202.559C394.544 203.762 392.341 210.584 392.341 210.584C392.341 210.584 391.026 201.075 390.149 199.996C388.766 198.299 388.047 201.188 388.171 203.233C388.317 205.785 388.339 208.853 388.339 210.562C388.343 210.588 388.341 210.615 388.334 210.641C388.328 210.667 388.316 210.692 388.3 210.713C388.284 210.735 388.263 210.753 388.24 210.766C388.217 210.78 388.191 210.789 388.165 210.792C388.111 210.8 388.057 210.786 388.014 210.753C387.97 210.72 387.942 210.672 387.935 210.618C387.035 207.527 384.765 200.345 383.439 200.985C382.112 201.626 382.697 204.672 383.034 206.111C384.416 212.09 383.54 212.135 383.54 212.135L381.314 205.279C381.265 205.116 381.153 204.979 381.004 204.897C380.855 204.816 380.68 204.795 380.516 204.841C379.797 205.088 379.842 205.807 379.853 206.403Z" fill="#FFBE9D"/>
<path d="M387.811 210.091C388.074 210.45 388.262 210.859 388.362 211.294C388.707 212.32 388.837 213.407 388.744 214.486C388.646 215.588 388.174 216.623 387.406 217.419C386.788 218.004 386.282 218.139 386.282 218.082C386.282 218.026 386.687 217.768 387.17 217.172C387.806 216.388 388.196 215.434 388.294 214.429C388.369 213.409 388.294 212.382 388.069 211.383C387.845 210.608 387.732 210.125 387.811 210.091Z" fill="#EB996E"/>
<path d="M391.968 209.078C392.036 209.078 392.272 209.505 392.519 210.281C392.867 211.303 393.001 212.386 392.912 213.462C392.813 214.566 392.337 215.602 391.563 216.395C390.956 216.991 390.439 217.115 390.439 217.059C390.439 217.002 390.844 216.755 391.339 216.148C391.97 215.361 392.36 214.409 392.463 213.406C392.541 212.388 392.461 211.364 392.227 210.371C392.076 209.955 391.989 209.52 391.968 209.078Z" fill="#EB996E"/>
<path d="M255.922 268.46C255.922 268.46 255.652 268.46 255.124 268.46C254.373 268.456 253.623 268.414 252.876 268.336C250.073 268.038 247.328 267.334 244.727 266.245C240.853 264.641 237.314 262.323 234.296 259.412C230.574 255.861 227.671 251.542 225.788 246.755C224.827 244.28 224.144 241.705 223.753 239.078C223.403 236.633 223.282 234.161 223.394 231.694C223.598 227.513 224.416 223.385 225.821 219.442C226.759 216.787 228 214.249 229.519 211.878C229.922 211.23 230.357 210.604 230.823 210.001C230.98 209.781 231.148 209.571 231.329 209.371C231.206 209.609 231.067 209.838 230.913 210.057C230.621 210.495 230.171 211.113 229.688 211.979C228.244 214.375 227.061 216.918 226.159 219.566C224.834 223.484 224.077 227.572 223.911 231.705C223.812 234.143 223.94 236.585 224.293 239C225.425 246.658 229.075 253.721 234.667 259.074C237.638 261.956 241.108 264.276 244.907 265.919C247.472 267.04 250.18 267.797 252.955 268.167C254.821 268.392 255.922 268.392 255.922 268.46Z" fill="#263238"/>
<path d="M275.771 218.992C275.771 218.992 281.278 221.858 282.796 222.005C284.313 222.151 289.652 222.005 289.652 222.005C289.652 222.005 290.338 223.477 287.033 224.354L283.166 225.332C282.975 225.376 282.799 225.47 282.655 225.604C282.512 225.738 282.406 225.907 282.348 226.094C282.29 226.282 282.282 226.481 282.325 226.673C282.368 226.865 282.461 227.041 282.593 227.186C284.369 229.221 287.505 232.739 287.943 232.806C288.382 232.874 291.315 230.131 291.821 229.558C292.586 228.715 295.025 229.277 293.26 231.952C291.72 234.324 288.359 237.471 287.28 236.515C286.46 235.785 283.245 232.986 283.245 232.986C283.245 232.986 288.494 239.325 288.865 241.304C289.236 243.282 287.078 243.552 285.774 242.147C285.133 241.461 279.513 234.919 279.513 234.919C279.513 234.919 287.078 245.283 284.335 245.474C282.739 245.586 277.917 237.999 277.917 237.999L280.401 243.81C280.568 244.069 280.625 244.384 280.56 244.686C280.495 244.987 280.312 245.25 280.053 245.417C279.794 245.584 279.479 245.641 279.177 245.576C278.876 245.511 278.613 245.328 278.446 245.069C277.344 243.69 276.345 242.233 275.456 240.708C274.59 239.303 266.464 228.501 266.464 228.501L275.771 218.992Z" fill="#FFBE9D"/>
<path d="M232.204 211.585L264.8 230.198L277.524 217.182L245.31 191.623L272.208 176.347L272.118 149.518L232.721 170.716C229.612 172.386 226.922 174.739 224.855 177.6C222.787 180.46 221.395 183.752 220.785 187.228C219.945 191.97 220.591 196.855 222.636 201.215C224.68 205.576 228.022 209.197 232.204 211.585Z" fill="#865E41"/>
<path d="M238.207 186.228C241.128 187.456 243.764 189.274 245.951 191.567C244.606 190.756 243.308 189.871 242.062 188.914C240.728 188.091 239.441 187.194 238.207 186.228Z" fill="#263238"/>
<path d="M243.175 181.676C244.392 182.993 245.291 184.571 245.803 186.29C246.315 188.008 246.428 189.821 246.131 191.589C245.995 189.851 245.721 188.125 245.31 186.43C244.734 184.788 244.019 183.198 243.175 181.676Z" fill="#263238"/>
<path d="M261.564 172.324C261.406 172.246 262.463 169.975 263.452 167.053C264.441 164.13 264.992 161.691 265.16 161.725C264.834 165.496 263.6 169.133 261.564 172.324Z" fill="#FAFAFA"/>
<path d="M254.796 177.966C253.507 177.054 252.337 175.985 251.311 174.785C250.145 173.72 249.117 172.511 248.254 171.188C249.537 172.103 250.704 173.171 251.727 174.369C252.891 175.44 253.921 176.648 254.796 177.966Z" fill="#FAFAFA"/>
<path d="M232.003 187.891C232.282 186.464 232.676 185.062 233.183 183.699C233.503 182.279 233.939 180.888 234.487 179.54C234.511 181.016 234.259 182.484 233.745 183.867C233.416 185.304 232.825 186.668 232.003 187.891Z" fill="#FAFAFA"/>
<path d="M236.364 202.66C235.054 202.176 233.817 201.515 232.688 200.693C231.455 200.034 230.32 199.205 229.316 198.231C230.629 198.709 231.866 199.372 232.992 200.198C234.225 200.858 235.36 201.686 236.364 202.66Z" fill="#FAFAFA"/>
<path d="M250.11 210.439C249.123 207.583 249.151 204.475 250.188 201.638C250.357 201.638 249.986 203.616 249.975 206.033C249.964 208.449 250.278 210.405 250.11 210.439Z" fill="#FAFAFA"/>
<path d="M271.275 223.421C269.285 222.984 267.339 222.363 265.464 221.566C263.52 220.94 261.639 220.135 259.844 219.161C261.837 219.587 263.783 220.209 265.655 221.016C267.604 221.628 269.486 222.434 271.275 223.421Z" fill="#FAFAFA"/>
<path d="M301.173 84.4483C301.057 85.1457 300.736 85.7929 300.251 86.308C299.767 86.8231 299.141 87.183 298.452 87.3421C297.763 87.5012 297.042 87.4524 296.381 87.2019C295.72 86.9514 295.148 86.5104 294.737 85.9348C294.327 85.3591 294.096 84.6746 294.075 83.9678C294.053 83.2611 294.242 82.5639 294.617 81.9644C294.992 81.3649 295.536 80.89 296.181 80.5999C296.826 80.3098 297.542 80.2174 298.239 80.3345C299.174 80.4914 300.008 81.0128 300.558 81.7842C301.108 82.5556 301.329 83.5138 301.173 84.4483Z" fill="#263238"/>
<path d="M300.858 83.1898C300.667 83.2909 298.868 79.9864 297.486 75.614C296.103 71.2417 294.934 67.746 295.114 67.6673C295.294 67.5887 296.811 71.0393 298.228 75.3667C299.644 79.6941 301.049 83.0886 300.858 83.1898Z" fill="#263238"/>
<path d="M302.207 64.8794C302.387 64.9693 301.331 66.689 299.139 67.6107C296.947 68.5324 294.98 68.1614 295.036 67.9591C295.093 67.7568 296.857 67.7568 298.824 66.8351C300.791 65.9134 302.028 64.7782 302.207 64.8794Z" fill="#263238"/>
<path d="M303.174 68.4538C303.377 68.5325 302.387 70.2747 300.184 71.039C297.981 71.8033 296.127 71.039 296.239 70.8816C296.352 70.7243 297.993 70.994 299.926 70.2972C301.859 69.6003 302.994 68.3077 303.174 68.4538Z" fill="#263238"/>
<path d="M270.263 61.4065C269.696 61.5974 269.086 61.6159 268.509 61.4599C267.932 61.3038 267.414 60.9801 267.02 60.5297C266.627 60.0794 266.376 59.5225 266.299 58.9296C266.223 58.3366 266.323 57.7342 266.589 57.1985C266.854 56.6628 267.273 56.2178 267.791 55.9198C268.309 55.6219 268.905 55.4842 269.501 55.5244C270.098 55.5646 270.669 55.7807 271.143 56.1454C271.616 56.5102 271.971 57.0072 272.163 57.5737C272.29 57.9501 272.341 58.3478 272.315 58.7442C272.288 59.1406 272.183 59.5278 272.007 59.8838C271.831 60.2397 271.586 60.5574 271.287 60.8187C270.987 61.08 270.64 61.2797 270.263 61.4065Z" fill="#263238"/>
<path d="M271.073 60.6871C270.837 60.5298 272.523 57.7984 275.22 54.966C277.918 52.1335 280.132 49.9754 280.346 50.144C280.559 50.3126 278.66 52.8753 275.985 55.6741C273.309 58.4728 271.275 60.8557 271.073 60.6871Z" fill="#263238"/>
<path d="M286.056 58.1134C285.977 58.3495 283.56 57.6189 281.56 55.2922C280.682 54.3222 280.09 53.1277 279.851 51.8415C279.694 50.8299 279.986 50.2117 280.11 50.2455C280.233 50.2792 280.267 50.8412 280.57 51.6617C280.984 52.7462 281.59 53.7474 282.358 54.6178C284.145 56.7084 286.213 57.8212 286.056 58.1134Z" fill="#263238"/>
<path d="M275.961 69.3978C275.395 69.5886 274.784 69.6071 274.207 69.4511C273.63 69.295 273.112 68.9713 272.719 68.521C272.325 68.0706 272.075 67.5137 271.998 66.9208C271.921 66.3278 272.022 65.7254 272.287 65.1897C272.553 64.654 272.971 64.209 273.489 63.911C274.008 63.6131 274.603 63.4755 275.199 63.5156C275.796 63.5558 276.367 63.7719 276.841 64.1367C277.315 64.5014 277.67 64.9984 277.861 65.5649C277.988 65.9413 278.04 66.3391 278.013 66.7354C277.986 67.1318 277.882 67.519 277.705 67.875C277.529 68.2309 277.284 68.5486 276.985 68.8099C276.686 69.0712 276.338 69.271 275.961 69.3978Z" fill="#263238"/>
<path d="M276.785 68.6671C276.537 68.4985 278.235 65.7672 280.921 62.9347C283.607 60.1022 285.844 57.9442 286.058 58.1128C286.271 58.2814 284.372 60.8553 281.696 63.6541C279.021 66.4528 277.021 68.8245 276.785 68.6671Z" fill="#263238"/>
<path d="M284.761 59.6762C284.761 59.946 282.345 59.3952 280.4 57.2821C278.456 55.169 278.062 52.7861 278.332 52.7861C278.602 52.7861 279.456 54.7194 281.176 56.5965C282.895 58.4736 284.817 59.384 284.761 59.6762Z" fill="#263238"/>
<path d="M285.597 133.702L278.707 121.574C282.957 114.672 284.472 106.429 282.954 98.4656C281.436 90.5025 276.994 83.3953 270.501 78.541C264.009 73.6867 255.936 71.4363 247.868 72.2322C239.801 73.028 232.323 76.8126 226.904 82.8421C221.486 88.8715 218.518 96.7097 218.585 104.816C218.652 112.922 221.749 120.71 227.266 126.649C232.784 132.588 240.323 136.249 248.403 136.911C256.482 137.574 264.517 135.19 270.929 130.229L285.597 133.702Z" fill="white"/>
<path d="M285.594 133.703L270.881 130.387L270.656 130.331L270.802 130.151L271.005 130.353C266.483 133.893 261.104 136.17 255.415 136.951C253.706 137.192 251.98 137.278 250.256 137.21C249.379 137.21 248.469 137.142 247.569 137.064L244.816 136.659C236.624 135.056 229.352 130.389 224.482 123.609C221.768 119.863 219.89 115.578 218.975 111.043C218.03 106.248 218.161 101.304 219.357 96.5659C220.571 91.6077 222.957 87.0131 226.315 83.1678C229.716 79.2149 234.013 76.132 238.847 74.1759C243.487 72.3394 248.481 71.5711 253.459 71.9279C258.159 72.2482 262.73 73.6031 266.846 75.8956C274.245 80.0081 279.773 86.8162 282.278 94.9024C283.289 98.3346 283.763 101.902 283.683 105.479C283.515 111.188 281.836 116.75 278.817 121.597V121.451L285.561 133.658L278.558 121.597V121.519V121.451C281.503 116.63 283.124 111.116 283.256 105.468C283.312 101.939 282.83 98.4218 281.829 95.0373C279.317 87.0874 273.855 80.4022 266.565 76.3564C262.513 74.1205 258.02 72.8007 253.403 72.4899C248.518 72.1567 243.62 72.9249 239.072 74.7378C234.308 76.6438 230.069 79.6614 226.708 83.5388C223.413 87.3131 221.063 91.8168 219.852 96.6783C218.679 101.335 218.545 106.193 219.458 110.908C220.349 115.369 222.189 119.585 224.853 123.272C229.632 129.958 236.778 134.572 244.838 136.176L247.547 136.603C248.446 136.67 249.334 136.704 250.2 136.749C251.9 136.825 253.605 136.746 255.291 136.513C260.92 135.774 266.255 133.565 270.757 130.106L271.657 129.409L270.96 130.308L270.881 130.084L285.594 133.703Z" fill="#263238"/>
<path d="M257.27 111.156C257.382 109.717 257.449 107.199 257.618 104.333C257.899 99.837 257.708 96.1615 257.348 96.1728C257.27 95.8019 254.617 96.3526 251.481 95.8356C250.155 95.6335 248.876 95.1957 247.704 94.543C247.311 94.3078 246.936 94.0449 246.58 93.7562C246.58 93.5089 246.468 93.374 246.4 93.374C246.086 93.374 245.737 96.9708 245.456 101.478C245.342 103.222 245.342 104.972 245.456 106.716C244.882 106.086 244.098 105.687 243.251 105.592C242.404 105.496 241.551 105.712 240.851 106.198C240.151 106.685 239.651 107.409 239.445 108.236C239.238 109.063 239.339 109.937 239.729 110.695C240.118 111.454 240.77 112.045 241.562 112.359C242.355 112.672 243.234 112.688 244.038 112.402C244.841 112.116 245.513 111.549 245.929 110.805C246.345 110.061 246.476 109.191 246.299 108.357C246.412 106.918 246.468 104.4 246.648 101.534C246.738 100.152 246.771 98.8367 246.783 97.6902C248.186 98.8371 249.901 99.5378 251.706 99.7021C253.45 99.9483 255.227 99.7071 256.842 99.0053C256.696 100.41 256.55 102.254 256.427 104.277C256.312 106.021 256.312 107.771 256.427 109.515C256.196 109.272 255.936 109.061 255.651 108.885C254.96 108.466 254.146 108.299 253.347 108.411C252.547 108.523 251.81 108.907 251.261 109.5C250.712 110.092 250.384 110.856 250.333 111.662C250.282 112.468 250.51 113.267 250.98 113.924C251.45 114.581 252.132 115.055 252.911 115.267C253.69 115.48 254.519 115.417 255.257 115.089C255.995 114.76 256.597 114.188 256.962 113.467C257.326 112.747 257.431 111.922 257.258 111.133L257.27 111.156ZM251.829 98.4995C250.107 98.2163 248.411 97.7877 246.76 97.2181C246.76 96.2065 246.76 95.341 246.659 94.6891C246.82 94.8866 246.997 95.0708 247.187 95.2399C248.36 96.2013 249.776 96.8198 251.279 97.027C253.288 97.4362 255.375 97.192 257.236 96.3301C257.055 97.0304 256.935 97.7449 256.876 98.4657C255.199 98.6406 253.509 98.6519 251.829 98.4995Z" fill="#263238"/>
</svg>
