<svg width="597" height="400" viewBox="0 0 597 400" fill="none" xmlns="http://www.w3.org/2000/svg">
<path d="M34.9329 152.349C46.8782 89.7826 91.4156 33.5784 150.933 10.8711C210.451 -11.8362 282.986 1.51532 328.234 46.3729C351.902 69.7763 368.776 101.143 398.263 116.472C428.725 132.329 465.605 127.373 498.935 135.657C540.702 146.029 576.218 178.816 589.834 219.705C603.45 260.595 594.72 308.112 567.502 341.526L84.6633 338.741C43.5369 290.013 22.9875 214.93 34.9329 152.349Z" fill="#FFE546" fill-opacity="0.5"/>
<path d="M596 338.88C596 339.168 462.571 339.38 298.012 339.38C133.454 339.38 0 339.245 0 338.88C0 338.515 133.392 338.38 298.012 338.38C462.633 338.38 596 338.688 596 338.88Z" fill="#263238"/>
<path d="M276.982 276.412C276.982 276.412 265.664 277.024 261.306 278.737C256.948 280.449 236.009 290.445 236.009 290.445C236.009 290.445 207.635 302.544 201.969 305.76C194.729 309.839 178.649 314.419 181.656 339.605H209.821L221.516 321.784L235.007 322.494L261.348 338.895H367.575H443.925C443.925 338.895 447.127 312.944 433.97 301.903C420.814 290.863 369.259 279.099 369.259 279.099C369.259 279.099 351.16 275.242 346.733 275.242L276.982 276.412Z" fill="#84D783"/>
<g opacity="0.3">
<path opacity="0.3" d="M257.462 313.014C261.011 312.318 264.689 312.786 267.951 314.349C271.212 315.912 273.881 318.486 275.561 321.688C276.954 324.472 277.608 327.73 279.989 329.679C282.369 331.628 285.363 331.684 288.273 331.753L311.62 332.296C313.607 332.526 315.62 332.208 317.44 331.377C320.308 329.762 321.115 326.115 322.466 323.108C325.038 317.791 329.599 313.7 335.163 311.719C340.71 309.785 346.67 309.348 352.44 310.452C356.227 311.093 360.529 312.109 363.578 309.812C365.583 308.308 366.46 305.774 367.755 303.644C369.05 301.514 371.514 299.565 373.895 300.359C377.097 301.417 377.723 306.638 381.065 307.083C382.54 307.278 383.933 306.401 385.38 306.067C386.828 305.733 398.314 303.018 398.189 304.507C398.189 304.507 388.123 309.965 387.552 310.466C376.192 320.448 364.734 329.79 353.373 339.773L245.378 338.561L257.462 313.014Z" fill="black"/>
</g>
<path d="M372.977 291.559C372.689 291.499 372.395 291.466 372.1 291.461C371.71 291.502 371.334 291.63 371.001 291.838C370.668 292.045 370.387 292.326 370.179 292.659C368.694 294.947 367.523 297.424 366.698 300.024C365.64 303.752 365.087 307.606 365.056 311.482C364.75 310.363 364.632 309.201 364.708 308.043C364.718 305.245 365.159 302.465 366.016 299.801C366.85 297.119 368.12 294.593 369.775 292.325C370.045 291.963 370.395 291.669 370.799 291.469C371.203 291.268 371.649 291.165 372.1 291.169C372.741 291.225 373.005 291.531 372.977 291.559Z" fill="#263238"/>
<path d="M257.13 319.251C256.88 318.815 256.692 318.347 256.573 317.859C256.212 316.534 255.946 315.184 255.779 313.821C255.321 309.32 255.256 304.787 255.584 300.275C255.905 294.998 256.447 290.251 256.977 286.812C257.213 285.1 257.436 283.721 257.603 282.775C257.654 282.27 257.771 281.773 257.951 281.299C257.98 281.801 257.957 282.305 257.881 282.802C257.77 283.93 257.645 285.281 257.492 286.882C257.13 290.32 256.67 295.068 256.35 300.317C256.034 304.794 256.034 309.288 256.35 313.766C256.559 317.107 257.241 319.14 257.13 319.251Z" fill="#263238"/>
<path d="M220.471 319.25C218.543 316.427 216.141 313.959 213.37 311.955C210.473 310.155 207.291 308.86 203.959 308.127C204.98 308.028 206.01 308.128 206.994 308.419C209.414 308.977 211.712 309.973 213.774 311.357C215.842 312.737 217.632 314.494 219.051 316.536C219.69 317.344 220.171 318.265 220.471 319.25Z" fill="#263238"/>
<path d="M421.149 299.675C421.149 299.8 419.033 299.856 415.58 300.19C411.182 300.598 406.849 301.532 402.674 302.975C398.531 304.537 394.534 306.461 390.728 308.725C389.169 309.713 387.556 310.615 385.897 311.426C386.259 311.08 386.656 310.772 387.081 310.507C387.861 309.95 389.016 309.198 390.464 308.279C394.229 305.87 398.238 303.863 402.423 302.293C406.651 300.803 411.064 299.903 415.538 299.619C417.25 299.522 418.629 299.48 419.589 299.522C420.113 299.508 420.637 299.56 421.149 299.675Z" fill="#263238"/>
<path d="M394.765 299.355C393.877 299.744 392.971 300.088 392.05 300.386C387.738 302.131 384.125 305.254 381.775 309.268C380.87 310.799 380.466 311.844 380.383 311.802C380.52 310.82 380.847 309.875 381.343 309.017C383.528 304.702 387.324 301.421 391.91 299.884C392.817 299.521 393.788 299.341 394.765 299.355Z" fill="#263238"/>
<path d="M215.419 314.197C215.419 314.323 213.497 314.81 210.49 315.91C206.538 317.246 202.936 319.454 199.951 322.37C197.056 325.357 195.425 329.347 195.398 333.507C195.499 335.229 195.865 336.924 196.484 338.533C196.19 338.162 195.951 337.749 195.774 337.308C195.259 336.113 194.962 334.835 194.897 333.535C194.823 331.381 195.185 329.235 195.963 327.225C196.74 325.215 197.917 323.383 199.422 321.841C202.48 318.841 206.221 316.629 210.323 315.395C211.869 314.893 213.108 314.573 214.027 314.378C214.481 314.259 214.949 314.199 215.419 314.197Z" fill="#263238"/>
<path d="M395.936 338.742C396.49 337.353 396.955 335.93 397.328 334.482C398.058 330.957 398.086 327.324 397.412 323.789C397.081 321.836 396.422 319.953 395.463 318.22C394.643 316.844 393.577 315.631 392.316 314.642C390.13 312.958 388.585 312.164 388.655 312.053C389.054 312.147 389.435 312.307 389.782 312.526C390.755 313.022 391.686 313.595 392.567 314.239C393.936 315.209 395.095 316.445 395.978 317.872C397.006 319.643 397.717 321.579 398.08 323.594C398.767 327.221 398.663 330.954 397.774 334.537C397.499 335.623 397.102 336.674 396.59 337.67C396.242 338.477 395.978 338.825 395.936 338.742Z" fill="#263238"/>
<path d="M293.996 291.935V291.545C278.167 289.484 270.871 274.211 269.827 255.945C269.27 246.2 268.839 245.462 269.521 224.453C269.908 212.064 271.692 199.757 274.839 187.768C274.839 187.768 287.662 171.674 311.886 173.498C336.111 175.321 348.711 207.872 348.711 207.872C348.711 207.872 348.544 257.338 347.11 267.334C346.328 271.812 345.923 276.348 345.898 280.894L345.328 293.118C345.023 299.718 342.187 305.948 337.408 310.511C332.63 315.075 326.276 317.621 319.669 317.621C316.296 317.621 312.957 316.957 309.841 315.666C306.725 314.375 303.895 312.482 301.511 310.097C299.127 307.711 297.236 304.88 295.946 301.763C294.657 298.647 293.994 295.307 293.996 291.935Z" fill="#FFBE9D"/>
<path d="M347.5 238.877C347.917 238.696 364.513 233.711 364.095 250.683C363.677 267.654 346.734 263.728 346.72 263.213C346.706 262.698 347.5 238.877 347.5 238.877Z" fill="#FFBE9D"/>
<path d="M352.05 256.948C352.134 256.948 352.342 257.157 352.844 257.394C353.186 257.554 353.556 257.646 353.934 257.662C354.311 257.679 354.688 257.621 355.043 257.491C356.853 256.879 358.44 254.067 358.594 251.018C358.674 249.561 358.427 248.105 357.87 246.757C357.724 246.224 357.45 245.734 357.071 245.332C356.693 244.929 356.221 244.625 355.698 244.446C355.362 244.345 355.001 244.366 354.68 244.506C354.358 244.646 354.097 244.897 353.943 245.212C353.693 245.671 353.79 246.02 353.707 246.047C353.623 246.075 353.345 245.755 353.498 245.059C353.608 244.639 353.852 244.268 354.194 244.001C354.669 243.66 355.259 243.52 355.837 243.611C356.532 243.767 357.176 244.098 357.708 244.573C358.239 245.049 358.64 245.652 358.872 246.326C359.554 247.812 359.864 249.441 359.777 251.073C359.582 254.498 357.758 257.645 355.28 258.299C354.822 258.421 354.343 258.438 353.878 258.349C353.412 258.26 352.973 258.066 352.593 257.784C352.078 257.352 351.994 256.976 352.05 256.948Z" fill="#EB996E"/>
<path d="M293.98 291.545C293.98 291.545 314.321 291.865 319.124 288.356C319.124 288.356 316.061 298.102 294.523 297.086L293.98 291.545Z" fill="#EB996E"/>
<path d="M259.495 204.6C259.245 200.619 258.033 196.72 258.02 192.725C258.07 189.742 258.739 186.802 259.986 184.091C261.232 181.381 263.028 178.959 265.259 176.979C269.8 173.041 275.58 170.824 281.59 170.714C286.059 170.602 290.556 171.549 294.969 170.895C298.728 170.352 302.209 168.667 305.898 167.748C309.718 166.823 313.69 166.717 317.553 167.437C321.416 168.157 325.083 169.686 328.313 171.925C328.313 171.925 336.096 176.45 345.688 187.601C345.688 187.601 363.063 188.116 362.284 212.48C361.504 236.844 359.791 239.893 359.791 239.893L354.056 238.153C354.543 240.938 355.016 243.847 353.499 246.409C353.113 247.108 352.546 247.691 351.858 248.095C351.17 248.499 350.385 248.71 349.586 248.706C346.231 248.539 345.117 244.669 344.742 241.536C343.721 233.257 343.099 224.946 342.876 216.601C342.806 214.262 342.305 211.311 340.091 210.768C338.699 210.462 337.446 211.186 336.124 211.534C334.793 211.863 333.397 211.817 332.092 211.399C330.786 210.981 329.623 210.208 328.731 209.167C328.452 212.355 324.136 213.789 321.241 212.439C318.345 211.088 316.632 208.109 315.101 205.31C315.332 207.074 315.194 208.866 314.697 210.573C314.428 211.423 313.904 212.169 313.197 212.712C312.49 213.254 311.634 213.567 310.743 213.608C308.683 213.511 307.277 211.534 306.316 209.71C304.002 205.301 302.377 200.563 301.499 195.662C300.023 203.267 295.612 209.984 289.219 214.36C288.495 212.225 287.776 210.095 287.061 207.97C286.267 209.271 285.244 210.417 284.04 211.353C283.437 211.823 282.719 212.124 281.96 212.224C281.201 212.325 280.43 212.221 279.724 211.924C279.26 211.659 278.882 211.266 278.635 210.792C278.388 210.318 278.283 209.783 278.332 209.25C277.651 210.273 276.613 211.004 275.421 211.303C274.229 211.602 272.969 211.446 271.886 210.865C271.086 210.368 270.433 209.666 269.993 208.833C270.814 221.251 271.622 234.714 269.324 246.534L263.616 233.656C260.205 226.013 258.769 217.635 259.44 209.292C259.57 207.732 259.588 206.164 259.495 204.6Z" fill="#263238"/>
<path d="M344.491 190.901C344.602 190.901 344.811 189.787 345.702 188.214C346.889 186.176 348.693 184.567 350.853 183.62C353.038 182.735 355.452 182.583 357.731 183.188C359.485 183.647 360.446 184.288 360.515 184.19C360.585 184.093 360.32 183.968 359.889 183.689C359.239 183.316 358.548 183.021 357.828 182.812C355.458 182.049 352.894 182.148 350.589 183.091C348.302 184.076 346.431 185.829 345.298 188.047C344.958 188.708 344.705 189.41 344.546 190.135C344.463 190.609 344.449 190.901 344.491 190.901Z" fill="#263238"/>
<path d="M342.335 190.4C342.335 190.4 342.627 190.247 343.072 189.871C343.695 189.337 344.255 188.734 344.743 188.075C346.408 185.887 347.378 183.249 347.527 180.504C347.676 177.759 346.997 175.032 345.578 172.677C345.154 171.97 344.66 171.307 344.103 170.7C343.713 170.282 343.462 170.087 343.434 170.115C343.407 170.143 344.242 171.103 345.203 172.899C346.465 175.22 347.058 177.845 346.916 180.483C346.773 183.121 345.9 185.667 344.395 187.838C343.253 189.495 342.265 190.316 342.335 190.4Z" fill="#263238"/>
<path d="M353.653 216.602C353.773 216.213 353.843 215.811 353.862 215.404C353.96 214.639 354.085 213.511 354.196 212.119C354.546 208.476 354.349 204.802 353.612 201.217C352.839 197.588 350.985 194.277 348.293 191.722C347.46 190.963 346.522 190.325 345.509 189.829C345.151 189.63 344.767 189.485 344.367 189.397C345.65 190.157 346.853 191.043 347.959 192.043C350.475 194.612 352.213 197.841 352.971 201.357C353.664 204.876 353.893 208.47 353.653 212.049C353.563 213.565 353.563 215.085 353.653 216.602Z" fill="#455A64"/>
<path d="M338.881 210.295C339.675 209.593 340.348 208.765 340.872 207.845C342.262 205.712 343.279 203.358 343.879 200.883C344.478 198.397 344.652 195.827 344.395 193.282C344.347 192.227 344.126 191.188 343.74 190.205C343.643 190.205 343.866 191.402 343.963 193.31C344.092 195.803 343.862 198.302 343.281 200.73C342.682 203.169 341.745 205.513 340.496 207.691C339.55 209.265 338.798 210.225 338.881 210.295Z" fill="#455A64"/>
<path d="M302.236 195.342C302.259 195.148 302.259 194.952 302.236 194.758C302.236 194.312 302.236 193.755 302.236 193.087C302.268 191.046 302.426 189.01 302.71 186.989C303.098 184.008 304.222 181.171 305.982 178.733C307.054 177.343 308.424 176.211 309.991 175.42C311.693 174.592 313.534 174.087 315.421 173.93C319.097 173.636 322.786 174.303 326.127 175.865C327.595 176.54 328.994 177.356 330.304 178.301C331.428 179.141 332.48 180.072 333.45 181.086C334.855 182.552 336.05 184.206 337 186.001C337.697 187.267 337.975 188.019 338.031 188.005C338.086 187.991 338.031 187.796 337.864 187.434C337.68 186.907 337.466 186.391 337.223 185.889C336.321 184.027 335.153 182.306 333.757 180.78C332.793 179.726 331.74 178.757 330.61 177.884C329.303 176.902 327.904 176.049 326.433 175.336C323.01 173.701 319.216 173 315.435 173.303C313.472 173.46 311.557 173.994 309.796 174.877C308.152 175.708 306.722 176.909 305.62 178.385C303.818 180.903 302.696 183.842 302.362 186.919C302.104 188.96 302.011 191.018 302.083 193.073C302.083 193.797 302.083 194.368 302.083 194.744C302.101 194.95 302.153 195.152 302.236 195.342Z" fill="#455A64"/>
<path d="M282.761 199.017C282.851 198.833 282.912 198.636 282.942 198.432C283.039 197.987 283.164 197.416 283.317 196.748C283.652 195.272 284.111 193.142 284.863 190.566C285.683 187.538 286.891 184.627 288.455 181.907C290.365 178.58 293.226 175.899 296.669 174.208C300.161 172.612 303.969 171.831 307.807 171.924C310.948 171.989 314.075 172.381 317.135 173.094C319.752 173.679 321.854 174.263 323.316 174.639L324.987 175.085C325.181 175.147 325.382 175.184 325.586 175.196C325.41 175.095 325.223 175.015 325.029 174.959L323.372 174.417C321.98 173.957 319.85 173.303 317.232 172.676C314.152 171.865 310.99 171.398 307.807 171.284C303.878 171.161 299.975 171.952 296.404 173.595C292.856 175.33 289.919 178.103 287.981 181.545C286.413 184.314 285.228 187.283 284.459 190.371C283.749 192.989 283.359 195.147 283.067 196.623C282.942 197.374 282.858 197.945 282.802 198.349C282.762 198.569 282.748 198.794 282.761 199.017Z" fill="#455A64"/>
<path d="M273.209 202.22C273.306 202.22 273.07 200.34 272.833 197.333C272.383 193.439 272.816 189.495 274.1 185.791C274.854 183.796 276.082 182.014 277.678 180.598C278.934 179.481 280.447 178.692 282.081 178.3C283.716 177.909 285.422 177.929 287.048 178.357C287.048 178.357 286.95 178.287 286.741 178.19C286.44 178.06 286.128 177.958 285.809 177.883C284.611 177.623 283.372 177.623 282.175 177.883C280.384 178.232 278.711 179.033 277.316 180.209C275.62 181.662 274.318 183.52 273.529 185.61C272.196 189.39 271.809 193.439 272.402 197.403C272.569 198.92 272.764 200.187 272.917 200.967C272.961 201.395 273.06 201.816 273.209 202.22Z" fill="#455A64"/>
<path d="M327.785 252.967C327.952 252.967 328.007 252.535 327.924 252.076C327.84 251.616 327.618 251.268 327.451 251.31C327.284 251.352 327.228 251.742 327.325 252.201C327.423 252.66 327.618 252.995 327.785 252.967Z" fill="#EB996E"/>
<path d="M320.685 251.477C320.852 251.477 321.061 251.352 321.144 251.073C321.228 250.795 321.144 250.544 321.019 250.489C320.894 250.433 320.657 250.614 320.574 250.878C320.49 251.143 320.532 251.421 320.685 251.477Z" fill="#EB996E"/>
<path d="M324.29 255.765C324.457 255.765 324.624 255.431 324.68 254.971C324.736 254.512 324.68 254.136 324.443 254.108C324.206 254.08 324.109 254.456 324.067 254.915C324.025 255.375 324.123 255.751 324.29 255.765Z" fill="#EB996E"/>
<path d="M333.242 254.943C333.395 254.943 333.423 254.483 333.242 254.024C333.061 253.564 332.866 253.244 332.699 253.286C332.532 253.328 332.518 253.745 332.699 254.205C332.88 254.664 333.075 254.984 333.242 254.943Z" fill="#EB996E"/>
<path d="M286.018 251.31C286.186 251.31 286.353 251.017 286.394 250.6C286.436 250.182 286.394 249.848 286.172 249.82C285.949 249.792 285.837 250.126 285.796 250.53C285.754 250.934 285.838 251.296 286.018 251.31Z" fill="#EB996E"/>
<path d="M279.378 251.143C279.545 251.143 279.684 250.767 279.684 250.322C279.684 249.876 279.545 249.486 279.378 249.486C279.211 249.486 279.071 249.862 279.071 250.322C279.071 250.781 279.211 251.143 279.378 251.143Z" fill="#EB996E"/>
<path d="M273.879 250.809C274.046 250.809 274.255 250.489 274.352 250.043C274.45 249.598 274.352 249.18 274.213 249.152C274.074 249.124 273.837 249.458 273.754 249.918C273.67 250.377 273.712 250.767 273.879 250.809Z" fill="#EB996E"/>
<path d="M282.51 256.753C282.677 256.753 282.705 256.308 282.51 255.848C282.315 255.389 282.12 255.055 281.967 255.111C281.814 255.166 281.786 255.57 281.967 256.015C282.148 256.461 282.357 256.809 282.51 256.753Z" fill="#EB996E"/>
<path d="M276.271 255.931C276.439 255.931 276.606 255.681 276.647 255.319C276.689 254.957 276.647 254.637 276.425 254.623C276.202 254.609 276.09 254.873 276.049 255.235C276.007 255.597 276.104 255.917 276.271 255.931Z" fill="#EB996E"/>
<path d="M251.812 343.796L205.868 388.876H312.123C312.123 388.876 317.692 379.883 327.981 380.634C338.269 381.386 384.505 394.195 398.427 391.911L386.245 341.93C386.245 341.93 349.463 331.266 328.524 335.303C322.742 336.447 317.419 339.254 313.209 343.378L251.812 343.796Z" fill="#FAFAFA"/>
<path d="M251.81 343.796H252.464H254.371L261.862 343.698L290.124 343.406L310.144 343.225H312.928H313.277C312.942 343.364 313.207 343.225 313.137 343.225L313.277 342.919L313.792 342.431C314.154 342.125 314.488 341.805 314.864 341.499C316.353 340.259 317.957 339.164 319.653 338.227C323.223 336.235 327.167 335.002 331.236 334.607C335.518 334.095 339.838 333.97 344.142 334.231C348.556 334.412 353.08 334.913 357.689 335.623C367.323 337.035 376.86 339.049 386.243 341.652H386.424V341.847C390.225 357.37 394.346 374.244 398.634 391.814L398.732 392.218H398.342C396.878 392.398 395.403 392.482 393.928 392.468H391.715L389.501 392.301C388.011 392.204 386.536 392.037 385.06 391.842C383.584 391.647 382.081 391.48 380.591 391.243C374.632 390.338 368.618 389.196 362.575 387.957C353.387 386.092 344.393 384.003 335.524 382.235C331.111 381.456 326.628 380.258 322.41 381.539C318.269 382.809 314.691 385.464 312.274 389.057L312.163 389.224H311.982L205.727 389.127H205.114L205.56 388.695L239.488 355.741L248.663 346.845L251.044 344.562L251.865 343.796L251.072 344.631L248.719 346.984L239.628 355.992L206.047 389.057L205.866 388.626L312.121 388.528L311.815 388.695C314.313 384.937 318.038 382.161 322.354 380.843C324.552 380.24 326.85 380.093 329.106 380.411C331.362 380.662 333.575 381.108 335.803 381.525C344.685 383.293 353.679 385.382 362.868 387.247C368.896 388.486 374.897 389.628 380.841 390.519C382.317 390.77 383.807 390.965 385.283 391.132C386.758 391.299 388.22 391.494 389.696 391.577L391.882 391.758H394.068C395.505 391.782 396.942 391.708 398.37 391.535L398.077 391.967C393.803 374.397 389.724 357.523 385.923 341.986L386.146 342.223C376.799 339.616 367.3 337.594 357.703 336.166C353.108 335.498 348.611 334.997 344.212 334.774C339.941 334.51 335.654 334.627 331.403 335.122C327.4 335.498 323.518 336.697 320.001 338.645C318.333 339.566 316.754 340.638 315.281 341.847C314.919 342.139 314.585 342.459 314.223 342.766L313.722 343.239L313.471 343.476C313.388 343.476 313.625 343.476 313.263 343.573H310.214L290.235 343.671L261.987 343.768H252.534L251.81 343.796Z" fill="#263238"/>
<path d="M312.065 388.862C311.857 388.862 312.065 378.615 312.386 366.002C312.706 353.388 313.235 343.141 313.43 343.155C313.625 343.169 313.43 353.388 313.11 366.016C312.789 378.643 312.26 388.862 312.065 388.862Z" fill="#263238"/>
<path d="M297.42 380.258C296.862 379.008 295.983 377.927 294.872 377.126C293.547 376.182 292.014 375.571 290.403 375.344C288.24 375.077 286.048 375.171 283.915 375.622C270.925 378.456 257.593 379.394 244.334 378.406L243.499 378.337L244.139 377.794C249.889 372.878 256.44 368.983 263.505 366.28C268.439 364.389 273.58 363.09 278.82 362.41C280.087 362.257 281.34 362.117 282.593 362.034C283.874 361.816 285.19 361.941 286.408 362.396C286.739 362.544 287.027 362.776 287.242 363.069C287.457 363.361 287.591 363.705 287.633 364.066C287.652 364.416 287.595 364.765 287.465 365.09C287.335 365.414 287.136 365.707 286.881 365.946C285.95 366.749 284.872 367.364 283.707 367.756C279.549 369.428 275.057 370.1 270.592 369.719C268.579 369.556 266.59 369.173 264.661 368.577C263.741 368.308 262.842 367.968 261.974 367.561C261.134 367.156 260.363 366.62 259.691 365.974C258.995 365.369 258.508 364.56 258.298 363.663C258.22 363.23 258.23 362.786 258.328 362.358C258.426 361.93 258.61 361.526 258.869 361.171C259.916 360.041 261.206 359.165 262.642 358.609C264.807 357.571 267.034 356.669 269.311 355.908C271.19 355.282 272.68 354.906 273.683 354.669C274.198 354.544 274.574 354.46 274.838 354.418C274.972 354.397 275.108 354.397 275.242 354.418C275.118 354.478 274.987 354.52 274.852 354.544L273.724 354.864C272.722 355.142 271.26 355.574 269.408 356.256C267.161 357.056 264.963 357.986 262.823 359.041C261.46 359.582 260.237 360.425 259.245 361.505C259.027 361.81 258.872 362.156 258.791 362.522C258.71 362.888 258.703 363.266 258.772 363.635C258.966 364.431 259.404 365.146 260.025 365.681C260.664 366.281 261.392 366.778 262.183 367.157C263.028 367.531 263.898 367.847 264.786 368.104C266.685 368.68 268.641 369.044 270.62 369.19C274.985 369.539 279.371 368.862 283.428 367.213C284.499 366.845 285.491 366.278 286.352 365.542C286.547 365.369 286.699 365.153 286.798 364.912C286.897 364.671 286.94 364.41 286.923 364.15C286.892 363.906 286.797 363.674 286.648 363.479C286.499 363.283 286.301 363.13 286.073 363.036C284.963 362.64 283.768 362.539 282.607 362.744C281.382 362.827 280.129 362.967 278.876 363.134C273.709 363.807 268.643 365.097 263.784 366.976C256.789 369.645 250.301 373.487 244.599 378.337L244.404 377.724C257.604 378.732 270.881 377.884 283.846 375.204C286.028 374.763 288.269 374.697 290.473 375.009C292.123 375.273 293.685 375.932 295.025 376.931C295.859 377.556 296.547 378.354 297.044 379.27C297.218 379.578 297.345 379.912 297.42 380.258Z" fill="#263238"/>
<path d="M394.027 391.646C394.027 391.646 394.125 391.758 394.25 391.994C394.375 392.231 394.584 392.649 394.821 393.08C395.322 394.111 396.032 395.517 396.909 397.257L397.007 397.438L396.798 397.508C391.264 399.184 385.511 400.024 379.729 400C371.434 399.941 363.243 398.144 355.685 394.723C349.587 391.939 344.032 388.89 338.631 386.955C333.916 385.056 328.832 384.251 323.762 384.602C320.346 384.896 317.053 386.019 314.169 387.873C313.134 388.58 312.152 389.361 311.231 390.212C312.008 389.203 312.949 388.332 314.016 387.637C316.91 385.645 320.264 384.423 323.762 384.087C328.916 383.662 334.099 384.429 338.909 386.328C344.394 388.263 349.977 391.354 356.033 394.055C363.506 397.441 371.596 399.251 379.799 399.373C385.492 399.447 391.168 398.721 396.659 397.215L396.547 397.466C395.726 395.642 395.085 394.222 394.598 393.164C394.417 392.718 394.25 392.356 394.125 392.05C394.071 391.922 394.038 391.785 394.027 391.646Z" fill="#263238"/>
<path d="M333.701 365.625C333.033 360.69 332.847 355.7 333.144 350.729C333.812 355.664 333.998 360.653 333.701 365.625Z" fill="#263238"/>
<path d="M348.084 374.536C347.006 373.96 345.972 373.304 344.993 372.573C342.546 370.956 340.018 369.464 337.419 368.104C334.37 366.516 331.516 365.319 329.414 364.442C328.254 364.072 327.127 363.606 326.045 363.05C327.261 363.221 328.452 363.534 329.595 363.983C332.401 364.939 335.129 366.112 337.754 367.491C340.387 368.845 342.911 370.405 345.299 372.155C346.323 372.829 347.259 373.629 348.084 374.536Z" fill="#263238"/>
<path d="M371.082 363.913C367.362 365.985 363.528 367.845 359.597 369.482C355.765 371.342 351.833 372.988 347.818 374.411C351.54 372.342 355.375 370.483 359.304 368.842C363.133 366.974 367.065 365.329 371.082 363.913Z" fill="#263238"/>
<path d="M362.006 366.781C361.69 363.445 361.616 360.09 361.783 356.743C361.707 353.39 361.87 350.035 362.27 346.705C362.587 350.041 362.666 353.396 362.507 356.743C362.573 360.097 362.406 363.451 362.006 366.781Z" fill="#263238"/>
<path d="M356.438 373.659C356.23 373.659 356.007 373.116 355.923 372.406C355.84 371.696 355.923 371.097 356.146 371.013C356.369 370.93 356.564 371.556 356.647 372.266C356.731 372.976 356.661 373.631 356.438 373.659Z" fill="#263238"/>
<path d="M358.677 373.367C358.482 373.367 358.26 372.559 358.19 371.529C358.12 370.499 358.19 369.663 358.413 369.635C358.635 369.608 358.844 370.457 358.914 371.487C358.984 372.517 358.886 373.353 358.677 373.367Z" fill="#263238"/>
<path d="M357.94 377.097C358.023 377.097 358.19 377.835 358.859 378.921C359.051 379.232 359.309 379.497 359.615 379.699C359.92 379.901 360.265 380.035 360.627 380.09C360.83 380.116 361.035 380.09 361.225 380.014C361.415 379.939 361.583 379.816 361.713 379.659C361.863 379.508 361.962 379.314 361.994 379.103C362.027 378.893 361.992 378.678 361.894 378.489L362.409 378.183C362.792 378.78 363.297 379.29 363.889 379.681C364.481 380.071 365.148 380.334 365.848 380.452C366.637 380.604 367.452 380.547 368.211 380.285C368.971 380.024 369.649 379.568 370.177 378.963C370.9 378.204 371.352 377.228 371.466 376.187C371.579 375.145 371.346 374.095 370.804 373.199C370.313 372.437 369.552 371.89 368.674 371.667C367.886 371.486 367.067 371.486 366.279 371.667C365.116 371.982 364.018 372.501 363.035 373.199C362.676 373.476 362.289 373.714 361.88 373.909C361.88 373.909 362.186 373.519 362.868 372.976C363.828 372.154 364.946 371.538 366.154 371.166C367.022 370.934 367.932 370.905 368.813 371.083C369.856 371.32 370.767 371.947 371.361 372.837C372.013 373.802 372.308 374.963 372.196 376.122C372.076 377.364 371.553 378.533 370.707 379.45C370.097 380.143 369.315 380.664 368.44 380.96C367.565 381.255 366.628 381.316 365.722 381.134C364.933 380.99 364.183 380.68 363.523 380.224C362.863 379.768 362.308 379.177 361.894 378.489L362.409 378.169C362.563 378.468 362.619 378.807 362.569 379.14C362.519 379.472 362.365 379.78 362.13 380.021C361.935 380.218 361.695 380.365 361.431 380.45C361.167 380.535 360.886 380.555 360.613 380.508C360.188 380.436 359.787 380.266 359.439 380.013C359.091 379.759 358.806 379.428 358.608 379.046C358.362 378.584 358.175 378.093 358.051 377.584C357.926 377.292 357.912 377.111 357.94 377.097Z" fill="#263238"/>
<path d="M383.238 371.5C383.238 371.5 383.461 371.305 383.962 371.305C384.31 371.333 384.649 371.435 384.954 371.606C385.259 371.776 385.524 372.011 385.73 372.294C386.075 372.709 386.291 373.216 386.353 373.753C386.415 374.289 386.319 374.832 386.078 375.315C385.74 375.87 385.263 376.328 384.694 376.642C384.125 376.957 383.484 377.119 382.834 377.111C382.188 377.121 381.55 376.973 380.975 376.679C380.4 376.385 379.905 375.955 379.534 375.426C379.21 374.998 379.016 374.485 378.976 373.949C378.937 373.413 379.053 372.876 379.312 372.405C379.476 372.095 379.706 371.824 379.984 371.61C380.263 371.396 380.584 371.245 380.927 371.166C381.414 371.082 381.678 371.166 381.665 371.166C381.651 371.166 381.4 371.166 380.996 371.361C380.452 371.603 380.012 372.033 379.757 372.572C379.589 372.964 379.532 373.394 379.591 373.816C379.65 374.238 379.823 374.636 380.091 374.967C380.407 375.408 380.825 375.766 381.311 376.009C381.796 376.251 382.333 376.372 382.876 376.359C383.403 376.372 383.924 376.251 384.392 376.007C384.859 375.764 385.257 375.406 385.549 374.967C385.748 374.595 385.838 374.174 385.809 373.752C385.779 373.331 385.631 372.927 385.382 372.586C385.065 372.081 384.567 371.718 383.99 371.57C383.502 371.5 383.252 371.57 383.238 371.5Z" fill="#263238"/>
<path d="M382.208 368.786C382.013 368.786 381.79 367.839 381.707 366.655C381.623 365.472 381.707 364.497 381.916 364.484C382.124 364.47 382.347 365.416 382.431 366.614C382.514 367.811 382.417 368.772 382.208 368.786Z" fill="#263238"/>
<path d="M383.111 381.386C382.916 381.386 382.749 380.69 382.749 379.812C382.749 378.935 382.916 378.239 383.111 378.239C383.306 378.239 383.473 378.949 383.473 379.812C383.473 380.676 383.32 381.386 383.111 381.386Z" fill="#263238"/>
<path d="M378.53 376.235C378.669 376.374 378.029 377.307 377.068 378.337C376.108 379.367 375.231 380.091 375.091 379.952C374.952 379.813 375.593 378.88 376.484 377.85C377.375 376.82 378.377 376.096 378.53 376.235Z" fill="#263238"/>
<path d="M390.533 379.116C390.422 379.283 389.642 378.949 388.793 378.364C387.944 377.78 387.331 377.181 387.401 376.972C387.471 376.763 388.292 377.153 389.155 377.724C390.018 378.295 390.645 378.977 390.533 379.116Z" fill="#263238"/>
<path d="M390.574 371.933C390.574 372.128 390.031 372.476 389.182 372.713C388.332 372.949 387.706 372.991 387.65 372.796C387.594 372.601 388.179 372.253 389.042 372.017C389.906 371.78 390.504 371.738 390.574 371.933Z" fill="#263238"/>
<path d="M388.333 367.115C388.5 367.241 388.165 367.909 387.609 368.619C387.052 369.329 386.453 369.788 386.3 369.663C386.147 369.538 386.467 368.87 387.038 368.159C387.609 367.449 388.179 366.99 388.333 367.115Z" fill="#263238"/>
<path d="M378.559 369.886C378.447 370.054 377.723 369.803 376.944 369.33C376.164 368.856 375.552 368.327 375.691 368.146C375.83 367.965 376.526 368.23 377.32 368.703C378.113 369.176 378.712 369.705 378.559 369.886Z" fill="#263238"/>
<path d="M375.929 372.225C375.929 372.42 375.275 372.587 374.537 372.587C373.799 372.587 373.145 372.42 373.145 372.225C373.145 372.03 373.785 371.863 374.537 371.863C375.289 371.863 375.929 372.016 375.929 372.225Z" fill="#263238"/>
<path d="M350.45 347.86C350.557 348.874 350.557 349.896 350.45 350.909C350.367 352.803 350.214 355.434 349.991 358.413V358.762H349.643L347.93 358.692L343.336 358.455H343.002V358.135C343.002 355.88 343.002 353.958 343.099 352.566C343.069 351.847 343.13 351.126 343.28 350.422C343.452 351.123 343.527 351.845 343.503 352.566C343.573 353.958 343.628 355.838 343.67 358.135L343.35 357.801L347.958 357.982L349.671 358.065L349.295 358.386C349.531 355.406 349.782 352.817 349.991 350.895C350.025 349.869 350.18 348.851 350.45 347.86Z" fill="#263238"/>
<path d="M379.687 351.481C374.959 351.386 370.252 350.812 365.64 349.768C368.008 349.682 370.379 349.85 372.712 350.269C375.072 350.439 377.409 350.845 379.687 351.481Z" fill="#263238"/>
<path d="M331.238 352.358C327.234 352.799 323.192 352.766 319.195 352.26C321.185 351.914 323.209 351.807 325.224 351.94C327.238 351.833 329.258 351.973 331.238 352.358Z" fill="#263238"/>
<path d="M385.966 311.482L362.006 316.744C362.006 316.744 354.919 311.259 351.87 311.092C348.821 310.925 337.697 311.092 337.697 311.092C337.697 311.092 326.56 319.626 326.56 321.728C326.705 323.414 327.178 325.055 327.952 326.559C327.952 326.559 326.295 327.729 327.284 332.059C328.272 336.389 329.08 336.695 329.08 336.695C329.08 336.695 326.977 340.732 329.553 342.333C332.052 343.602 334.705 344.538 337.447 345.118L345.55 343.726C342.598 344.31 366.419 342.918 367.575 338.741H395.934C398.51 326.434 398.566 314.907 385.966 311.482Z" fill="#FFBE9D"/>
<path d="M343.434 319.974C340.678 320.535 337.976 321.336 335.359 322.369C332.843 323.625 330.399 325.02 328.036 326.545C328.534 325.86 329.152 325.271 329.86 324.805C331.464 323.56 333.212 322.513 335.067 321.687C337.662 320.403 340.544 319.813 343.434 319.974Z" fill="#EB996E"/>
<path d="M345.648 327.353C345.648 327.562 341.471 328.383 336.473 329.664C333.939 330.291 331.684 330.945 330.069 331.502C329.222 331.871 328.347 332.169 327.451 332.393C328.174 331.787 328.999 331.316 329.888 331.001C334.937 329.025 340.245 327.788 345.648 327.325V327.353Z" fill="#EB996E"/>
<path d="M343.643 336.737C341.225 336.838 338.803 336.796 336.39 336.612C332.408 336.472 329.206 336.89 329.164 336.695C331.501 335.956 333.961 335.682 336.404 335.888C338.845 335.826 341.283 336.112 343.643 336.737Z" fill="#EB996E"/>
<path d="M369.928 328.551C370.221 329.252 370.368 330.005 370.359 330.764C370.516 332.611 370.283 334.47 369.677 336.222C369.328 337.193 368.814 338.097 368.16 338.895C367.618 339.543 366.974 340.098 366.252 340.538C365.619 340.983 364.879 341.252 364.108 341.318C364.108 341.192 364.888 340.9 365.974 340.106C366.604 339.644 367.167 339.096 367.645 338.477C368.233 337.717 368.702 336.872 369.037 335.971C369.605 334.299 369.897 332.545 369.9 330.778C369.822 330.037 369.831 329.29 369.928 328.551Z" fill="#EB996E"/>
<path d="M265.704 339.173C265.704 339.173 264.145 345.397 272.888 345.007L273.848 328.105C273.848 328.105 273.473 321.896 264.534 322.87L262.78 330.054C263.88 331.111 264.686 332.435 265.119 333.897C265.406 335.644 265.601 337.406 265.704 339.173Z" fill="#FFBE9D"/>
<path d="M234.491 303.936L269.186 346.566L279.154 349.935L276.899 339.048L243.04 296.682C242.454 295.933 241.689 295.344 240.815 294.969C239.942 294.595 238.988 294.446 238.042 294.538H237.916C236.906 294.694 235.957 295.119 235.167 295.767C234.377 296.416 233.776 297.264 233.426 298.225C233.076 299.185 232.99 300.221 233.178 301.226C233.365 302.23 233.819 303.166 234.491 303.936Z" fill="#455A64"/>
<path d="M234.616 304.187C234.533 304.187 234.7 303.477 235.243 302.502C235.987 301.25 236.983 300.164 238.166 299.314C239.349 298.463 240.696 297.866 242.12 297.56C242.696 297.37 243.313 297.346 243.902 297.49C242.028 298.048 240.239 298.858 238.584 299.899C237.064 301.132 235.728 302.576 234.616 304.187Z" fill="#263238"/>
<path d="M269.186 346.594C269.186 346.594 268.49 346.134 268.379 344.812C268.38 344.626 268.413 344.443 268.476 344.269L268.657 343.809C269.038 342.594 269.837 341.554 270.913 340.872C271.588 340.357 272.3 339.891 273.043 339.479C273.671 339.127 274.361 338.9 275.076 338.811C276.315 338.672 277.025 339.076 276.983 339.145C276.941 339.215 276.245 339.062 275.159 339.326C274.527 339.467 273.924 339.717 273.377 340.064C272.751 340.468 271.985 340.927 271.358 341.456C270.71 341.914 270.145 342.479 269.688 343.127C269.507 343.433 269.353 343.754 269.2 344.06L268.991 344.505C268.938 344.615 268.905 344.733 268.894 344.854C268.852 345.884 269.312 346.552 269.186 346.594Z" fill="#263238"/>
<path d="M270.619 341.944C270.466 342.069 262.92 332.908 253.759 321.478C244.598 310.048 237.317 300.692 237.47 300.595C237.623 300.497 245.169 309.63 254.33 321.046C263.491 332.463 270.772 341.818 270.619 341.944Z" fill="#263238"/>
<path d="M274.296 338.421C274.143 338.547 266.708 329.636 257.701 318.512C248.693 307.389 241.523 298.256 241.676 298.13C241.829 298.005 249.264 306.915 258.272 318.053C267.279 329.191 274.394 338.296 274.296 338.421Z" fill="#263238"/>
<path d="M278.151 345.119C277.666 344.998 277.16 344.997 276.674 345.116C276.189 345.235 275.74 345.47 275.366 345.801C275.019 346.136 274.757 346.551 274.605 347.009C274.452 347.467 274.412 347.955 274.489 348.432L279.112 349.964L278.151 345.119Z" fill="#263238"/>
<path d="M217.214 314.614L235.118 320.392C235.118 320.392 242.984 313.779 246.047 313.612L256.405 313.097C256.405 313.097 269.214 321.631 269.214 323.719C269.068 325.405 268.595 327.046 267.822 328.55C267.822 328.55 271.344 329.943 270.606 332.908C270.382 333.88 269.891 334.769 269.187 335.476C268.483 336.182 267.595 336.677 266.624 336.904C266.624 336.904 268.782 342.723 266.207 344.324C263.709 345.594 261.055 346.53 258.313 347.109C258.313 347.109 253.649 350.812 250.586 350.492C247.523 350.172 232.222 349.197 230.454 346.315L211.854 341.804L197.723 338.268C197.723 338.268 192.307 331.224 200.647 322.703C205.03 318.12 210.905 315.252 217.214 314.614Z" fill="#FFBE9D"/>
<path d="M268.572 322.703C265.977 321.936 263.336 321.336 260.664 320.907C257.966 320.728 255.259 320.728 252.562 320.907C255.214 320.123 257.997 319.877 260.747 320.183C263.496 320.489 266.157 321.341 268.572 322.689V322.703Z" fill="#EB996E"/>
<path d="M267.712 328.551C267.712 328.718 264.816 328.133 261.266 327.632C259.753 327.41 258.228 327.289 256.699 327.27C255.53 327.27 254.875 327.521 254.82 327.437C254.764 327.353 255.446 326.88 256.671 326.755C258.236 326.617 259.812 326.674 261.363 326.922C264.969 327.423 267.865 328.328 267.712 328.551Z" fill="#EB996E"/>
<path d="M266.512 336.904C266.442 337.043 264.117 336.528 261.124 336.277C258.131 336.026 255.764 336.04 255.722 335.887C255.68 335.734 258.173 335.233 261.194 335.553C264.215 335.873 266.609 336.667 266.512 336.904Z" fill="#EB996E"/>
<path d="M197.724 338.269C197.93 338.286 198.135 338.319 198.336 338.366L200.09 338.756L206.745 340.287L230.413 345.954H230.525L230.608 346.079C231.337 346.806 232.252 347.317 233.253 347.555C234.33 347.897 235.428 348.171 236.539 348.376C238.794 348.836 241.175 349.142 243.625 349.42C246.076 349.699 248.651 349.935 251.13 350.075C252.378 349.913 253.584 349.511 254.68 348.891C255.834 348.269 256.937 347.556 257.979 346.761H258.049H258.132C259.759 346.392 261.363 345.927 262.936 345.369C263.824 345.077 264.686 344.709 265.511 344.269C265.895 344.093 266.226 343.818 266.47 343.474C266.715 343.129 266.864 342.727 266.904 342.306C267.074 340.519 266.826 338.718 266.18 337.043L266.04 336.654L266.444 336.556C267.341 336.345 268.162 335.888 268.814 335.236C269.465 334.584 269.922 333.764 270.133 332.867C270.248 332.452 270.265 332.016 270.183 331.593C270.101 331.17 269.922 330.772 269.66 330.43C269.111 329.748 268.397 329.216 267.586 328.885L267.238 328.732L267.405 328.398C267.854 327.505 268.223 326.573 268.505 325.613C268.644 325.16 268.737 324.693 268.783 324.221C268.809 324.013 268.809 323.802 268.783 323.594C268.718 323.402 268.619 323.223 268.491 323.065C267.274 321.667 265.911 320.402 264.425 319.292C261.557 317.037 258.759 315.116 256.169 313.292H256.323L246.577 313.724C245.27 313.782 244.002 314.185 242.901 314.893C241.945 315.431 241.015 316.017 240.117 316.647C238.446 317.775 237.193 318.722 236.344 319.362L235.383 320.086C235.161 320.253 235.049 320.337 235.035 320.323C235.021 320.309 235.119 320.211 235.328 320.03L236.247 319.237C237.068 318.555 238.293 317.566 239.936 316.452C240.771 315.868 241.704 315.227 242.72 314.615C243.863 313.863 245.184 313.426 246.549 313.348L256.295 312.805H256.378C259.01 314.559 261.822 316.508 264.732 318.777C266.262 319.915 267.663 321.218 268.908 322.662C269.079 322.889 269.211 323.143 269.298 323.413C269.324 323.566 269.324 323.721 269.298 323.873C269.305 324.003 269.305 324.133 269.298 324.263C269.238 324.776 269.135 325.284 268.992 325.78C268.706 326.771 268.324 327.732 267.85 328.648L267.669 328.175C268.609 328.55 269.435 329.164 270.064 329.957C270.385 330.38 270.605 330.871 270.709 331.392C270.813 331.913 270.797 332.45 270.663 332.964C270.409 333.984 269.878 334.915 269.129 335.652C268.38 336.389 267.441 336.905 266.416 337.141L266.695 336.668C267.391 338.465 267.658 340.401 267.474 342.32C267.382 342.819 267.188 343.293 266.904 343.712C266.595 344.142 266.183 344.486 265.706 344.715C264.845 345.178 263.946 345.57 263.019 345.884C261.416 346.436 259.785 346.9 258.132 347.276L258.272 347.193C257.204 348.028 256.062 348.765 254.861 349.392C253.677 350.066 252.37 350.496 251.018 350.659C248.331 350.52 245.881 350.242 243.389 349.977C240.897 349.713 238.544 349.365 236.247 348.905C235.117 348.685 234.001 348.397 232.905 348.042C231.758 347.764 230.72 347.148 229.926 346.274L230.121 346.413L206.453 340.496L199.854 338.784L198.127 338.31C197.992 338.304 197.857 338.29 197.724 338.269Z" fill="#EB996E"/>
</svg>
