<svg width="500" height="450" viewBox="0 0 500 450" fill="none" xmlns="http://www.w3.org/2000/svg">
<path d="M448.896 27.5684C414.434 -0.662867 363.465 -8.96161 323.587 10.8934C280.064 32.5709 252.234 83.5269 204.393 92.1876C180.065 96.5955 155.273 88.8138 130.609 88.1933C69.3119 86.6551 10.7682 135.594 1.34485 196.193C-8.07851 256.792 33.0663 321.101 91.9719 338.113L361.85 340.401C402.632 322.485 421.04 301.04 450.098 267.263C479.157 233.486 498.585 190.57 499.93 146.039C501.274 101.508 483.345 55.7997 448.896 27.5684Z" fill="#FFE546" fill-opacity="0.5"/>
<path d="M266.564 347.059L228.974 392.417C227.561 394.123 226.859 396.307 227.013 398.516C227.167 400.725 228.165 402.791 229.801 404.284L279.193 449.332C279.193 449.332 286.406 448.35 264.12 411.212L299.177 374.178L266.564 347.059Z" fill="#BA68C8"/>
<g opacity="0.2">
<path opacity="0.2" d="M266.564 347.059L228.974 392.417C227.561 394.123 226.859 396.307 227.013 398.516C227.167 400.725 228.165 402.791 229.801 404.284L279.193 449.332C279.193 449.332 286.406 448.35 264.12 411.212L299.177 374.178L266.564 347.059Z" fill="black"/>
</g>
<path d="M264.613 436.251C265.759 434.536 267.372 433.184 269.262 432.357C271.152 431.53 273.239 431.262 275.277 431.585C273.312 431.825 271.381 432.294 269.525 432.981C267.768 433.88 266.12 434.977 264.613 436.251Z" fill="#FAFAFA"/>
<path d="M240.298 414.095C241.374 412.797 242.342 411.414 243.193 409.959C245.183 406.403 245.874 402.266 245.148 398.256C244.422 394.247 242.323 390.615 239.212 387.984C237.906 386.918 236.514 385.963 235.05 385.127C235.504 385.216 235.94 385.377 236.342 385.605C237.482 386.143 238.55 386.82 239.522 387.622C242.82 390.252 245.05 393.99 245.799 398.141C246.548 402.293 245.764 406.574 243.594 410.191C242.964 411.278 242.204 412.285 241.332 413.19C241.032 413.539 240.684 413.844 240.298 414.095Z" fill="#FAFAFA"/>
<path d="M246.919 374.114C247.38 374.335 247.814 374.608 248.212 374.929C249.001 375.484 250.112 376.312 251.495 377.346C254.236 379.44 257.959 382.4 261.953 385.813C265.947 389.225 269.437 392.457 271.919 394.861C273.212 396.05 274.155 397.033 274.828 397.718C275.196 398.059 275.53 398.435 275.823 398.842C275.391 398.585 274.996 398.272 274.647 397.912L271.596 395.21C269.011 392.909 265.495 389.755 261.513 386.343C257.532 382.93 253.861 379.879 251.172 377.734L248.018 375.148C247.611 374.849 247.243 374.502 246.919 374.114Z" fill="#FAFAFA"/>
<path d="M305.73 257.233C309.142 269.785 367.13 297.757 367.13 297.757L387.145 289.497L341.174 239.55C341.937 236.499 338.524 232.324 338.524 232.324C338.524 232.324 331.789 178.886 328.183 160.285C325.274 145.187 307.281 135.906 297.082 131.782V131.562L292.945 130.205C291.162 129.585 290.076 129.274 290.076 129.274L268.631 122.281L224.552 123.574L202.784 129.313C200.121 129.313 174.255 137.353 165.698 157.493C161.445 167.511 161.936 225.706 157.942 253.148C156.779 261.214 157.735 270.431 162.246 277.23C166.99 284.366 167.895 288.114 176.259 289.963L192.352 294.991C192.507 298.572 192.611 300.911 192.611 300.911C192.611 300.911 238.732 334.662 270.841 324.541C302.95 314.419 330.703 289.497 330.703 289.497L300.132 263.076L299.654 248.598L301.878 232.22C303.48 244.63 304.876 254.118 305.73 257.233Z" fill="#BA68C8"/>
<path d="M242.302 291.747C242.302 291.747 242.302 291.669 242.302 291.501C242.302 291.333 242.302 291.075 242.302 290.79C242.302 290.118 242.379 289.187 242.444 287.985C242.586 285.49 242.793 281.884 243.065 277.308L243.155 277.476L199.852 253.368L199.684 253.278V253.071C199.877 244.552 200.084 235.284 200.304 225.667C200.537 213.038 200.821 201.016 200.718 190.08C200.729 184.895 200.413 179.714 199.774 174.569C199.231 170.125 198.083 165.775 196.361 161.642C194.847 158.262 192.717 155.194 190.079 152.594C188.098 150.619 185.794 148.997 183.267 147.798C181.654 147.071 179.962 146.533 178.226 146.195L176.855 146.014L176.39 145.924H176.855L178.239 146.053C180.02 146.328 181.757 146.832 183.409 147.553C185.993 148.723 188.355 150.333 190.389 152.309C193.091 154.925 195.283 158.019 196.853 161.436C198.629 165.616 199.816 170.023 200.382 174.53C201.046 179.674 201.383 184.855 201.39 190.042C201.532 201.003 201.261 213.025 201.028 225.654C200.808 235.271 200.588 244.539 200.382 253.071L200.214 252.774L243.284 277.166H243.388V277.282C243.052 281.858 242.78 285.452 242.599 287.946C242.496 289.136 242.418 290.066 242.354 290.738L242.289 291.449L242.302 291.747Z" fill="#263238"/>
<path d="M295.494 169.527C295.736 169.737 295.961 169.966 296.166 170.212C296.803 170.873 297.399 171.572 297.95 172.307C300.016 174.991 301.691 177.955 302.927 181.109C304.764 185.787 305.909 190.708 306.326 195.716C306.831 201.839 306.666 207.998 305.835 214.085C304.969 220.548 303.715 226.623 302.629 232.182C301.543 237.74 300.626 242.704 300.044 246.918C299.462 251.132 299.242 254.57 299.178 256.949C299.178 258.138 299.178 259.069 299.178 259.689C299.2 260.008 299.2 260.327 299.178 260.646C299.118 260.33 299.092 260.01 299.1 259.689C299.1 259.069 299.01 258.138 299.036 256.949C299.061 253.574 299.281 250.203 299.695 246.853C300.173 242.613 300.988 237.598 302.099 232.065C303.211 226.533 304.374 220.432 305.24 213.968C306.068 207.929 306.25 201.82 305.783 195.742C305.398 190.785 304.314 185.906 302.565 181.252C301.373 178.119 299.779 175.156 297.821 172.436C296.334 170.549 295.442 169.579 295.494 169.527Z" fill="#263238"/>
<path d="M341.395 240.688C341.395 240.804 340.373 240.688 338.809 240.933C336.771 241.261 334.835 242.048 333.146 243.235C331.457 244.422 330.061 245.977 329.063 247.784C328.313 249.18 328.068 250.163 327.951 250.137C327.974 249.233 328.208 248.348 328.636 247.552C329.554 245.587 330.977 243.901 332.76 242.665C334.53 241.412 336.598 240.646 338.758 240.442C339.644 240.314 340.548 240.398 341.395 240.688Z" fill="#263238"/>
<path d="M319.95 248.534C319.891 248.196 319.891 247.85 319.95 247.513C320.069 246.589 320.282 245.679 320.584 244.798C321.558 241.846 323.337 239.225 325.722 237.231C328.107 235.237 331.001 233.95 334.079 233.513C334.999 233.381 335.929 233.333 336.858 233.371C337.2 233.364 337.541 233.417 337.866 233.526C337.866 233.643 336.418 233.526 334.156 233.992C331.211 234.541 328.457 235.839 326.159 237.761C323.861 239.683 322.097 242.165 321.036 244.966C320.235 247.112 320.079 248.547 319.95 248.534Z" fill="#263238"/>
<path d="M295.133 264.615C294.845 265.148 294.516 265.658 294.15 266.141C293.2 267.487 292.177 268.782 291.087 270.018C289.477 271.88 287.75 273.638 285.916 275.28C283.677 277.29 281.302 279.143 278.806 280.825C276.3 282.488 273.683 283.978 270.973 285.285C268.759 286.342 266.479 287.257 264.148 288.025C262.583 288.545 260.991 288.977 259.378 289.318C258.794 289.476 258.197 289.584 257.594 289.641C258.146 289.389 258.722 289.194 259.313 289.059C260.438 288.749 262.041 288.232 263.993 287.534C266.278 286.7 268.517 285.746 270.702 284.677C273.377 283.353 275.967 281.863 278.457 280.217C282.953 277.199 287.071 273.653 290.725 269.657C292.121 268.118 293.207 266.826 293.93 265.908C294.289 265.439 294.691 265.007 295.133 264.615Z" fill="#263238"/>
<path d="M211.276 202.93C210.94 201.734 210.758 200.5 210.733 199.259C210.542 196.265 210.694 193.26 211.186 190.301C211.673 187.345 212.502 184.456 213.655 181.692C214.075 180.525 214.644 179.417 215.348 178.396C214.986 179.575 214.554 180.732 214.055 181.86C213.05 184.639 212.298 187.503 211.806 190.417C211.338 193.332 211.126 196.281 211.173 199.233C211.28 200.462 211.315 201.697 211.276 202.93Z" fill="#FAFAFA"/>
<path d="M214.897 174.673C215.085 175.767 215.05 176.888 214.794 177.969C214.759 179.077 214.504 180.166 214.044 181.175C213.841 180.082 213.872 178.959 214.135 177.879C214.168 176.769 214.427 175.678 214.897 174.673Z" fill="#FAFAFA"/>
<path d="M216.695 175.514C216.876 175.514 216.592 176.806 215.881 178.099C215.17 179.391 214.342 180.322 214.2 180.219C214.058 180.115 214.614 179.068 215.286 177.789C215.958 176.509 216.527 175.449 216.695 175.514Z" fill="#FAFAFA"/>
<path d="M218.26 177.064C218.389 177.193 217.562 178.137 216.424 179.158C215.287 180.179 214.266 180.89 214.136 180.761C214.007 180.632 214.834 179.675 215.972 178.654C217.109 177.633 218.144 176.922 218.26 177.064Z" fill="#FAFAFA"/>
<path d="M219.138 179.262C219.138 179.443 218.207 179.947 216.928 180.386C215.648 180.826 214.549 181.045 214.498 180.864C214.446 180.683 215.428 180.192 216.708 179.753C217.988 179.313 219.035 179.093 219.138 179.262Z" fill="#FAFAFA"/>
<path d="M218.892 187.457C217.151 188.043 215.521 188.916 214.07 190.042C212.764 191.332 211.688 192.836 210.89 194.489C210.813 194.489 210.89 193.829 211.252 192.847C211.776 191.573 212.59 190.44 213.631 189.538C214.658 188.62 215.883 187.952 217.211 187.586C217.748 187.384 218.331 187.339 218.892 187.457Z" fill="#FAFAFA"/>
<path d="M220.816 184.794C220.933 184.949 220.183 185.686 219.291 186.591C218.399 187.495 217.675 188.232 217.52 188.129C217.365 188.025 217.882 187.056 218.813 186.112C219.743 185.169 220.713 184.652 220.816 184.794Z" fill="#FAFAFA"/>
<path d="M222.137 186.358C222.137 186.552 221.155 186.758 220.03 187.198C218.906 187.637 218.04 188.167 217.91 188.025C217.781 187.883 218.531 187.056 219.785 186.577C221.039 186.099 222.137 186.19 222.137 186.358Z" fill="#FAFAFA"/>
<path d="M222.382 189.008C222.317 189.189 221.387 189.008 220.288 188.724C219.189 188.439 218.349 187.987 218.401 187.806C218.452 187.625 219.396 187.806 220.482 188.09C221.568 188.375 222.434 188.827 222.382 189.008Z" fill="#FAFAFA"/>
<path d="M219.966 190.327C219.811 190.43 219.255 189.836 218.673 189.034C218.091 188.233 217.833 187.444 217.988 187.341C218.143 187.237 218.699 187.832 219.281 188.633C219.862 189.435 220.121 190.223 219.966 190.327Z" fill="#FAFAFA"/>
<path d="M297.888 137.276C297.311 138.377 296.595 139.398 295.755 140.314C291.904 144.946 287.039 148.631 281.536 151.082C280.423 151.633 279.246 152.045 278.033 152.31C279.101 151.696 280.201 151.139 281.329 150.642C283.968 149.317 286.482 147.755 288.839 145.976C291.186 144.181 293.371 142.183 295.367 140.004C296.153 139.046 296.995 138.135 297.888 137.276Z" fill="#FAFAFA"/>
<path d="M275.765 155.27C275.649 155.127 276.696 154.093 278.092 152.943C279.488 151.792 280.677 150.991 280.845 151.146C281.013 151.301 279.927 152.322 278.518 153.473C277.109 154.623 275.907 155.425 275.765 155.27Z" fill="#FAFAFA"/>
<path d="M275.032 153.422C274.955 153.267 275.976 152.582 277.398 152.129C278.233 151.728 279.172 151.592 280.087 151.742C280.087 151.923 278.988 152.297 277.618 152.763C276.248 153.228 275.11 153.59 275.032 153.422Z" fill="#FAFAFA"/>
<path d="M274.952 151.237C275.843 150.924 276.797 150.831 277.731 150.965C279.257 150.965 280.498 151.185 280.485 151.379C279.595 151.678 278.648 151.766 277.718 151.637C276.778 151.719 275.831 151.581 274.952 151.237Z" fill="#FAFAFA"/>
<path d="M275.912 149.026C275.976 148.858 277.049 149.181 278.277 149.737C279.505 150.293 280.449 150.887 280.371 151.03C280.294 151.172 279.234 150.887 278.006 150.319C276.778 149.75 275.77 149.194 275.912 149.026Z" fill="#FAFAFA"/>
<path d="M281.636 143.248C283.309 144.017 285.101 144.494 286.935 144.657C288.774 144.613 290.592 144.259 292.313 143.61C292.313 143.61 291.873 144.114 290.917 144.554C289.659 145.118 288.287 145.383 286.91 145.329C285.532 145.292 284.182 144.934 282.967 144.282C282.049 143.778 281.597 143.3 281.636 143.248Z" fill="#FAFAFA"/>
<path d="M278.416 143.856C278.416 143.662 279.476 143.649 280.743 143.598C282.01 143.546 283.057 143.52 283.096 143.701C283.135 143.882 282.101 144.231 280.769 144.27C279.438 144.309 278.391 144.024 278.416 143.856Z" fill="#FAFAFA"/>
<path d="M278.495 141.8C278.611 141.658 279.478 142.201 280.602 142.641C281.727 143.08 282.709 143.313 282.696 143.507C282.683 143.701 281.585 143.778 280.344 143.274C279.103 142.77 278.405 141.943 278.495 141.8Z" fill="#FAFAFA"/>
<path d="M280.176 139.719C280.331 139.629 280.926 140.366 281.469 141.361C282.012 142.356 282.374 143.235 282.206 143.326C282.038 143.416 281.456 142.68 280.913 141.684C280.37 140.689 280.008 139.81 280.176 139.719Z" fill="#FAFAFA"/>
<path d="M282.826 140.418C283.007 140.418 283.007 141.272 282.826 142.241C282.645 143.21 282.348 143.96 282.167 143.921C281.986 143.883 281.986 143.081 282.167 142.112C282.348 141.142 282.645 140.38 282.826 140.418Z" fill="#FAFAFA"/>
<path d="M275.211 214.667C274.868 213.473 274.685 212.238 274.669 210.996C274.472 208.007 274.62 205.006 275.108 202.051C275.602 199.093 276.43 196.2 277.577 193.429C277.998 192.26 278.571 191.151 279.283 190.133C279.374 190.133 278.792 191.425 277.991 193.597C275.965 199.165 274.983 205.059 275.095 210.983C275.202 212.208 275.241 213.438 275.211 214.667Z" fill="#FAFAFA"/>
<path d="M278.883 186.423C279.071 187.517 279.04 188.637 278.793 189.719C278.756 190.824 278.497 191.91 278.03 192.912C277.841 191.822 277.872 190.706 278.12 189.629C278.163 188.521 278.422 187.432 278.883 186.423Z" fill="#FAFAFA"/>
<path d="M280.692 187.263C280.86 187.263 280.589 188.555 279.878 189.848C279.167 191.14 278.34 192.084 278.198 191.981C278.055 191.877 278.598 190.817 279.283 189.538C279.968 188.258 280.511 187.198 280.692 187.263Z" fill="#FAFAFA"/>
<path d="M282.255 188.801C282.371 188.943 281.556 189.887 280.419 190.908C279.281 191.929 278.26 192.64 278.131 192.498C278.002 192.356 278.829 191.425 279.967 190.404C281.104 189.383 282.125 188.659 282.255 188.801Z" fill="#FAFAFA"/>
<path d="M283.125 191.012C283.19 191.18 282.195 191.684 280.915 192.123C279.635 192.563 278.55 192.783 278.485 192.602C278.42 192.421 279.416 191.93 280.695 191.49C281.975 191.051 283.074 190.831 283.125 191.012Z" fill="#FAFAFA"/>
<path d="M282.892 199.207C281.147 199.782 279.515 200.657 278.07 201.792C276.761 203.087 275.681 204.595 274.878 206.252C274.851 205.678 274.976 205.108 275.24 204.597C275.776 203.331 276.588 202.2 277.618 201.288C278.647 200.374 279.872 199.706 281.199 199.336C282.22 199.091 282.879 199.117 282.892 199.207Z" fill="#FAFAFA"/>
<path d="M284.817 196.544C284.921 196.686 284.184 197.423 283.292 198.328C282.4 199.233 281.663 199.982 281.508 199.866C281.353 199.75 281.87 198.793 282.801 197.849C283.732 196.906 284.701 196.389 284.817 196.544Z" fill="#FAFAFA"/>
<path d="M286.135 198.108C286.135 198.302 285.153 198.496 284.028 198.948C282.904 199.401 282.025 199.918 281.908 199.763C281.792 199.608 282.529 198.806 283.783 198.315C285.037 197.824 286.135 197.927 286.135 198.108Z" fill="#FAFAFA"/>
<path d="M286.368 200.744C286.368 200.925 285.385 200.744 284.287 200.473C283.188 200.202 282.348 199.723 282.399 199.542C282.451 199.361 283.382 199.542 284.48 199.827C285.579 200.111 286.419 200.576 286.368 200.744Z" fill="#FAFAFA"/>
<path d="M283.962 202.064C283.806 202.167 283.251 201.573 282.669 200.771C282.087 199.97 281.842 199.194 281.997 199.091C282.152 198.987 282.708 199.582 283.289 200.383C283.871 201.185 284.117 201.973 283.962 202.064Z" fill="#FAFAFA"/>
<path d="M314.276 234.509C313.94 233.313 313.758 232.08 313.733 230.838C313.535 227.844 313.687 224.838 314.185 221.88C314.667 218.923 315.495 216.033 316.654 213.271C317.074 212.104 317.643 210.996 318.347 209.975C317.978 211.151 317.546 212.308 317.055 213.439C315.027 219.002 314.049 224.892 314.172 230.812C314.28 232.041 314.314 233.276 314.276 234.509Z" fill="#FAFAFA"/>
<path d="M317.947 206.2C318.109 208.39 317.818 210.59 317.093 212.663C316.946 210.474 317.236 208.277 317.947 206.2Z" fill="#FAFAFA"/>
<path d="M319.756 207.027C319.937 207.092 319.653 208.32 318.942 209.613C318.231 210.905 317.403 211.849 317.261 211.732C317.119 211.616 317.675 210.582 318.347 209.302C319.019 208.023 319.588 206.963 319.756 207.027Z" fill="#FAFAFA"/>
<path d="M321.319 208.579C321.448 208.708 320.621 209.652 319.483 210.673C318.346 211.694 317.325 212.418 317.195 212.276C317.066 212.133 317.893 211.19 319.031 210.169C320.168 209.147 321.151 208.436 321.319 208.579Z" fill="#FAFAFA"/>
<path d="M322.188 210.789C322.253 210.957 321.27 211.461 319.991 211.901C318.711 212.34 317.612 212.56 317.561 212.379C317.509 212.198 318.478 211.707 319.771 211.267C321.064 210.828 322.137 210.608 322.188 210.789Z" fill="#FAFAFA"/>
<path d="M321.953 218.997C320.212 219.583 318.582 220.456 317.131 221.582C315.82 222.872 314.744 224.381 313.951 226.042C313.874 226.042 313.951 225.37 314.3 224.387C314.837 223.118 315.655 221.986 316.692 221.078C317.717 220.158 318.943 219.489 320.272 219.126C320.809 218.924 321.392 218.879 321.953 218.997Z" fill="#FAFAFA"/>
<path d="M323.88 216.308C323.996 216.464 323.246 217.2 322.354 218.105C321.462 219.01 320.725 219.747 320.583 219.643C320.441 219.54 320.932 218.571 321.876 217.627C322.82 216.683 323.737 216.166 323.88 216.308Z" fill="#FAFAFA"/>
<path d="M325.198 217.886C325.198 218.079 324.216 218.273 323.091 218.713C321.966 219.152 321.087 219.682 320.971 219.54C320.855 219.398 321.591 218.584 322.845 218.092C324.099 217.601 325.198 217.705 325.198 217.886Z" fill="#FAFAFA"/>
<path d="M325.432 220.523C325.432 220.704 324.45 220.523 323.351 220.238C322.252 219.954 321.412 219.502 321.464 219.321C321.515 219.14 322.446 219.321 323.545 219.605C324.644 219.889 325.497 220.29 325.432 220.523Z" fill="#FAFAFA"/>
<path d="M323.027 221.841C322.872 221.945 322.316 221.35 321.734 220.549C321.153 219.747 320.894 218.959 321.049 218.855C321.204 218.752 321.76 219.359 322.342 220.148C322.923 220.936 323.182 221.738 323.027 221.841Z" fill="#FAFAFA"/>
<path d="M183.954 238.451C183.618 237.256 183.436 236.022 183.411 234.78C183.22 231.791 183.372 228.79 183.863 225.835C184.349 222.875 185.178 219.982 186.332 217.213C186.752 216.046 187.321 214.938 188.026 213.917C187.666 215.097 187.234 216.254 186.733 217.381C185.728 220.16 184.975 223.024 184.484 225.939C184.016 228.853 183.804 231.803 183.85 234.754C183.958 235.984 183.993 237.218 183.954 238.451Z" fill="#FAFAFA"/>
<path d="M187.636 210.207C187.823 211.297 187.788 212.414 187.532 213.49C187.504 214.6 187.244 215.692 186.77 216.696C186.583 215.606 186.618 214.489 186.873 213.413C186.901 212.303 187.161 211.211 187.636 210.207Z" fill="#FAFAFA"/>
<path d="M189.435 211.035C189.616 211.1 189.331 212.328 188.62 213.62C187.909 214.913 187.082 215.857 186.94 215.74C186.798 215.624 187.354 214.59 188.026 213.31C188.698 212.03 189.305 210.97 189.435 211.035Z" fill="#FAFAFA"/>
<path d="M190.998 212.535C191.127 212.677 190.3 213.607 189.162 214.629C188.025 215.65 187.003 216.374 186.874 216.231C186.745 216.089 187.572 215.159 188.71 214.137C189.847 213.116 190.881 212.444 190.998 212.535Z" fill="#FAFAFA"/>
<path d="M191.887 214.796C191.887 214.964 190.956 215.468 189.676 215.908C188.397 216.347 187.298 216.567 187.246 216.386C187.194 216.205 188.177 215.714 189.456 215.274C190.736 214.835 191.809 214.615 191.887 214.796Z" fill="#FAFAFA"/>
<path d="M191.631 222.978C189.891 223.564 188.261 224.438 186.81 225.564C185.502 226.857 184.426 228.365 183.63 230.023C183.552 230.023 183.63 229.351 183.992 228.369C184.526 227.101 185.34 225.969 186.371 225.059C187.403 224.148 188.626 223.481 189.951 223.108C190.489 222.914 191.07 222.869 191.631 222.978Z" fill="#FAFAFA"/>
<path d="M193.556 220.289C193.672 220.444 192.923 221.181 192.031 222.086C191.139 222.991 190.415 223.728 190.26 223.624C190.105 223.521 190.622 222.551 191.552 221.608C192.483 220.664 193.452 220.173 193.556 220.289Z" fill="#FAFAFA"/>
<path d="M194.877 221.892C194.877 222.086 193.895 222.28 192.77 222.733C191.645 223.185 190.779 223.689 190.65 223.547C190.521 223.405 191.271 222.59 192.524 222.099C193.778 221.608 194.877 221.711 194.877 221.892Z" fill="#FAFAFA"/>
<path d="M195.122 224.53C195.057 224.711 194.126 224.53 193.028 224.258C191.929 223.987 191.089 223.508 191.14 223.327C191.192 223.146 192.136 223.327 193.222 223.612C194.307 223.896 195.173 224.349 195.122 224.53Z" fill="#FAFAFA"/>
<path d="M192.704 225.849C192.549 225.952 191.993 225.357 191.411 224.556C190.829 223.754 190.571 222.966 190.726 222.875C190.881 222.785 191.437 223.367 192.019 224.168C192.6 224.97 192.859 225.758 192.704 225.849Z" fill="#FAFAFA"/>
<path d="M223.002 216.477C223.464 215.321 224.082 214.234 224.838 213.245C228.24 208.287 232.739 204.178 237.984 201.237C239.039 200.579 240.172 200.058 241.358 199.686C240.346 200.391 239.298 201.043 238.217 201.637C235.714 203.207 233.356 204.998 231.172 206.989C228.995 208.984 227.005 211.173 225.226 213.53C224.535 214.549 223.793 215.533 223.002 216.477Z" fill="#FAFAFA"/>
<path d="M243.335 196.531C243.464 196.661 242.521 197.824 241.228 199.052C239.935 200.28 238.772 201.236 238.643 201.107C238.513 200.978 239.457 199.815 240.75 198.522C242.042 197.229 243.206 196.389 243.335 196.531Z" fill="#FAFAFA"/>
<path d="M244.241 198.315C244.331 198.47 243.375 199.233 242.005 199.841C241.222 200.296 240.324 200.516 239.419 200.474C239.419 200.293 240.454 199.815 241.785 199.181C243.116 198.548 244.138 198.134 244.241 198.315Z" fill="#FAFAFA"/>
<path d="M244.515 200.474C244.515 200.668 243.3 200.9 241.774 200.991C240.849 201.159 239.898 201.11 238.995 200.849C238.995 200.655 240.21 200.422 241.736 200.332C242.66 200.163 243.612 200.212 244.515 200.474Z" fill="#FAFAFA"/>
<path d="M243.841 202.749C243.776 202.93 242.69 202.749 241.411 202.27C240.131 201.792 239.136 201.327 239.2 201.146C239.265 200.965 240.351 201.146 241.63 201.637C242.91 202.128 243.893 202.581 243.841 202.749Z" fill="#FAFAFA"/>
<path d="M238.591 209.043C236.855 208.432 235.028 208.117 233.187 208.113C231.358 208.325 229.578 208.85 227.926 209.664C227.926 209.664 228.314 209.108 229.219 208.578C230.42 207.903 231.759 207.512 233.135 207.434C234.51 207.355 235.886 207.592 237.156 208.126C238.138 208.552 238.629 208.979 238.591 209.043Z" fill="#FAFAFA"/>
<path d="M241.747 208.14C241.747 208.334 240.7 208.45 239.446 208.605C238.192 208.76 237.145 208.902 237.094 208.721C237.042 208.54 238.037 208.101 239.356 207.946C240.674 207.791 241.76 207.959 241.747 208.14Z" fill="#FAFAFA"/>
<path d="M241.81 210.194C241.706 210.349 240.801 209.897 239.638 209.548C238.475 209.199 237.466 209.082 237.466 208.888C237.466 208.694 238.552 208.513 239.832 208.888C241.112 209.263 241.926 210.052 241.81 210.194Z" fill="#FAFAFA"/>
<path d="M240.375 212.418C240.22 212.521 239.561 211.849 238.902 210.906C238.242 209.962 237.829 209.122 237.984 209.018C238.139 208.915 238.798 209.587 239.457 210.531C240.117 211.474 240.517 212.315 240.375 212.418Z" fill="#FAFAFA"/>
<path d="M237.66 211.965C237.479 211.965 237.401 211.138 237.492 210.155C237.582 209.173 237.815 208.397 237.996 208.41C238.177 208.423 238.254 209.238 238.164 210.22C238.073 211.202 237.841 211.991 237.66 211.965Z" fill="#FAFAFA"/>
<path d="M243.4 250.81C244.584 251.187 245.714 251.717 246.761 252.387C249.362 253.874 251.782 255.657 253.974 257.699C256.166 259.746 258.118 262.036 259.791 264.525C260.53 265.524 261.138 266.615 261.601 267.769C260.815 266.818 260.081 265.826 259.403 264.796C255.863 260.038 251.482 255.968 246.477 252.787C245.414 252.189 244.387 251.528 243.4 250.81Z" fill="#FAFAFA"/>
<path d="M264.912 269.488C263.897 269.042 262.982 268.396 262.223 267.588C260.853 266.399 259.845 265.326 259.974 265.183C260.103 265.041 261.267 265.894 262.663 267.084C264.059 268.273 265.028 269.41 264.912 269.488Z" fill="#FAFAFA"/>
<path d="M263.215 270.535C263.06 270.638 262.22 269.746 261.509 268.428C260.798 267.109 260.501 265.907 260.669 265.843C260.837 265.778 261.406 266.825 262.104 268.105C262.802 269.385 263.37 270.419 263.215 270.535Z" fill="#FAFAFA"/>
<path d="M261.071 270.974C260.877 270.974 260.554 269.798 260.335 268.285C260.088 267.374 260.062 266.417 260.257 265.493C260.962 267.229 261.241 269.108 261.071 270.974Z" fill="#FAFAFA"/>
<path d="M258.742 270.483C258.562 270.483 258.742 269.333 259.027 268.027C259.311 266.722 259.79 265.687 259.97 265.739C260.151 265.791 259.97 266.877 259.686 268.195C259.402 269.514 258.923 270.535 258.742 270.483Z" fill="#FAFAFA"/>
<path d="M252.049 265.753C252.625 263.995 252.793 262.129 252.54 260.297C252.287 258.465 251.619 256.714 250.588 255.179C250.588 255.179 251.17 255.528 251.764 256.394C252.532 257.537 253.029 258.84 253.218 260.204C253.406 261.569 253.28 262.958 252.85 264.266C252.514 265.261 252.113 265.791 252.049 265.753Z" fill="#FAFAFA"/>
<path d="M253.197 268.828C253.016 268.828 252.81 267.82 252.551 266.579C252.293 265.338 252.073 264.304 252.254 264.239C252.435 264.175 252.952 265.131 253.21 266.437C253.469 267.742 253.378 268.828 253.197 268.828Z" fill="#FAFAFA"/>
<path d="M251.168 269.062C251 268.971 251.388 268.028 251.634 266.838C251.879 265.649 251.931 264.641 252.125 264.628C252.319 264.615 252.577 265.675 252.293 266.981C252.009 268.286 251.349 269.165 251.168 269.062Z" fill="#FAFAFA"/>
<path d="M248.831 267.807C248.715 267.665 249.336 266.954 250.215 266.217C251.094 265.481 251.908 265.015 252.037 265.157C252.166 265.3 251.533 266.011 250.654 266.734C249.775 267.458 248.961 267.949 248.831 267.807Z" fill="#FAFAFA"/>
<path d="M249.064 265.067C249.064 264.886 249.866 264.744 250.861 264.757C251.857 264.77 252.645 264.938 252.632 265.119C252.619 265.3 251.831 265.442 250.848 265.429C249.866 265.416 249.064 265.248 249.064 265.067Z" fill="#FAFAFA"/>
<path d="M258.693 195.238C258.271 194.083 257.913 192.905 257.62 191.71C256.76 188.884 255.648 186.141 254.298 183.514C252.924 180.898 251.324 178.406 249.516 176.069C248.713 175.138 247.958 174.167 247.253 173.16C248.217 173.914 249.085 174.782 249.839 175.745C251.784 178.024 253.462 180.518 254.841 183.178C256.218 185.841 257.289 188.651 258.034 191.554C258.411 192.749 258.633 193.987 258.693 195.238Z" fill="#FAFAFA"/>
<path d="M246.49 169.502C247.239 170.32 247.818 171.277 248.196 172.32C248.768 173.269 249.141 174.325 249.295 175.422C247.965 173.661 247.011 171.646 246.49 169.502Z" fill="#FAFAFA"/>
<path d="M245.015 170.86C245.17 170.743 246.023 171.571 247.057 172.579C248.091 173.587 248.97 174.414 248.854 174.569C248.738 174.725 247.678 174.104 246.592 173.07C245.506 172.036 244.886 170.976 245.015 170.86Z" fill="#FAFAFA"/>
<path d="M244.019 172.811C244.958 172.87 245.87 173.149 246.681 173.625C248.077 174.245 249.15 174.918 249.073 175.06C248.133 175.002 247.221 174.723 246.41 174.245C245.014 173.625 243.941 172.979 244.019 172.811Z" fill="#FAFAFA"/>
<path d="M243.864 175.176C243.864 174.995 244.963 174.866 246.32 174.879C247.677 174.892 248.776 175.086 248.776 175.267C248.776 175.448 247.664 175.577 246.307 175.564C244.95 175.551 243.864 175.357 243.864 175.176Z" fill="#FAFAFA"/>
<path d="M246.619 182.895C246.619 182.817 247.214 182.585 248.274 182.52C249.649 182.465 251.019 182.721 252.281 183.269C253.544 183.818 254.666 184.644 255.564 185.687C256.236 186.501 256.482 187.109 256.417 187.148C255.215 185.741 253.707 184.627 252.009 183.89C250.312 183.153 248.468 182.813 246.619 182.895Z" fill="#FAFAFA"/>
<path d="M243.968 180.955C243.968 180.787 245.093 180.955 246.282 181.588C247.471 182.221 248.247 182.958 248.13 183.1C248.014 183.243 247.096 182.764 245.972 182.183C244.847 181.601 243.903 181.136 243.968 180.955Z" fill="#FAFAFA"/>
<path d="M243.192 182.803C243.192 182.635 244.162 182.195 245.506 182.286C246.851 182.376 247.807 182.906 247.73 183.074C247.652 183.242 246.67 183.074 245.455 182.945C244.239 182.816 243.244 183.048 243.192 182.803Z" fill="#FAFAFA"/>
<path d="M243.789 185.388C243.685 185.233 244.358 184.587 245.301 183.927C246.245 183.268 247.085 182.867 247.188 183.023C247.292 183.178 246.62 183.824 245.676 184.483C244.732 185.143 243.892 185.595 243.789 185.388Z" fill="#FAFAFA"/>
<path d="M246.489 185.958C246.308 185.958 246.36 185.092 246.606 184.148C246.851 183.204 247.213 182.455 247.394 182.506C247.575 182.558 247.51 183.36 247.265 184.316C247.019 185.273 246.657 186.009 246.489 185.958Z" fill="#FAFAFA"/>
<path d="M257.126 175.435C256.589 177.149 256.191 178.904 255.937 180.683C255.91 182.482 256.031 184.281 256.299 186.06C255.375 184.41 255.012 182.505 255.265 180.631C255.291 178.74 255.946 176.912 257.126 175.435Z" fill="#FAFAFA"/>
<path d="M254.503 171.583C254.671 171.492 255.356 172.475 255.886 173.832C256.416 175.189 256.584 176.417 256.403 176.417C256.222 176.417 255.769 175.409 255.252 174.091C254.735 172.772 254.335 171.673 254.503 171.583Z" fill="#FAFAFA"/>
<path d="M258.239 171.505C258.407 171.583 258.136 172.643 257.774 173.922C257.412 175.202 257.076 176.236 256.882 176.197C256.688 176.159 256.74 175.047 257.127 173.728C257.515 172.41 258.071 171.44 258.239 171.505Z" fill="#FAFAFA"/>
<path d="M261.189 174.336C261.189 174.53 260.31 174.879 259.276 175.422C258.241 175.965 257.414 176.521 257.285 176.379C257.156 176.236 257.828 175.422 258.965 174.827C260.103 174.233 261.15 174.168 261.189 174.336Z" fill="#FAFAFA"/>
<path d="M260.54 177.697C260.424 177.852 259.661 177.49 258.679 177.361C257.696 177.231 256.856 177.361 256.791 177.193C256.727 177.025 257.593 176.533 258.769 176.702C259.946 176.87 260.656 177.555 260.54 177.697Z" fill="#FAFAFA"/>
<path d="M227.321 167.95C226.899 166.795 226.54 165.617 226.248 164.421C224.542 158.749 221.794 153.445 218.143 148.781C216.76 146.984 215.804 145.937 215.881 145.872C216.856 146.613 217.726 147.483 218.467 148.457C222.371 153.032 225.174 158.44 226.662 164.266C227.04 165.461 227.262 166.699 227.321 167.95Z" fill="#FAFAFA"/>
<path d="M215.156 142.215C216.483 143.979 217.441 145.993 217.974 148.135C217.219 147.32 216.634 146.362 216.255 145.317C215.683 144.368 215.31 143.312 215.156 142.215Z" fill="#FAFAFA"/>
<path d="M213.659 143.572C213.802 143.456 214.655 144.283 215.689 145.292C216.723 146.3 217.602 147.114 217.486 147.269C217.369 147.425 216.309 146.817 215.224 145.77C214.138 144.723 213.504 143.676 213.659 143.572Z" fill="#FAFAFA"/>
<path d="M212.649 145.523C212.714 145.342 213.942 145.717 215.312 146.338C216.682 146.958 217.781 147.63 217.704 147.759C217.626 147.889 216.411 147.566 215.041 146.945C213.671 146.325 212.572 145.691 212.649 145.523Z" fill="#FAFAFA"/>
<path d="M212.495 147.902C212.495 147.708 213.606 147.579 214.951 147.605C216.295 147.631 217.407 147.799 217.407 147.993C217.407 148.187 216.295 148.303 214.938 148.277C213.58 148.251 212.495 148.07 212.495 147.902Z" fill="#FAFAFA"/>
<path d="M215.247 155.658C215.247 155.58 215.841 155.347 216.901 155.283C218.276 155.228 219.646 155.484 220.909 156.032C222.171 156.58 223.293 157.407 224.192 158.45C224.864 159.251 225.109 159.872 225.045 159.91C223.847 158.497 222.341 157.379 220.642 156.641C218.943 155.904 217.097 155.567 215.247 155.658Z" fill="#FAFAFA"/>
<path d="M212.571 153.668C212.571 153.5 213.695 153.668 214.885 154.301C216.074 154.934 216.849 155.671 216.733 155.813C216.617 155.956 215.699 155.477 214.574 154.896C213.45 154.314 212.571 153.849 212.571 153.668Z" fill="#FAFAFA"/>
<path d="M211.82 155.567C211.82 155.399 212.789 154.96 214.134 155.037C215.478 155.115 216.435 155.671 216.357 155.839C216.279 156.007 215.297 155.839 214.095 155.71C212.893 155.58 211.872 155.748 211.82 155.567Z" fill="#FAFAFA"/>
<path d="M212.415 158.153C212.311 157.998 212.984 157.351 213.927 156.692C214.871 156.033 215.711 155.632 215.827 155.787C215.944 155.942 215.246 156.589 214.315 157.248C213.384 157.907 212.57 158.308 212.415 158.153Z" fill="#FAFAFA"/>
<path d="M215.156 158.67C214.975 158.67 215.027 157.804 215.272 156.847C215.518 155.891 215.88 155.167 216.061 155.206C216.242 155.244 216.177 156.072 215.931 157.028C215.686 157.985 215.298 158.709 215.156 158.67Z" fill="#FAFAFA"/>
<path d="M225.756 148.147C225.217 149.861 224.819 151.617 224.567 153.396C224.54 155.195 224.661 156.993 224.929 158.773C224.105 157.089 223.748 155.216 223.893 153.347C224.039 151.479 224.682 149.683 225.756 148.147Z" fill="#FAFAFA"/>
<path d="M223.133 144.296C223.301 144.205 223.986 145.175 224.516 146.532C225.046 147.889 225.214 149.117 225.033 149.117C224.852 149.117 224.413 148.096 223.883 146.778C223.353 145.459 222.913 144.373 223.133 144.296Z" fill="#FAFAFA"/>
<path d="M226.868 144.218C227.036 144.295 226.765 145.355 226.403 146.622C226.041 147.889 225.705 148.949 225.511 148.91C225.317 148.871 225.369 147.76 225.757 146.441C226.145 145.123 226.7 144.153 226.868 144.218Z" fill="#FAFAFA"/>
<path d="M229.812 147.049C229.812 147.243 228.933 147.592 227.899 148.135C226.865 148.678 226.05 149.234 225.908 149.092C225.766 148.949 226.451 148.135 227.589 147.54C228.726 146.946 229.773 146.881 229.812 147.049Z" fill="#FAFAFA"/>
<path d="M229.17 150.396C229.053 150.564 228.291 150.202 227.308 150.073C226.326 149.944 225.486 150.073 225.421 149.905C225.356 149.737 226.222 149.246 227.399 149.401C228.575 149.556 229.286 150.267 229.17 150.396Z" fill="#FAFAFA"/>
<path d="M317.559 175.913C317.129 174.76 316.771 173.582 316.486 172.384C314.765 166.718 312.018 161.417 308.381 156.743C307.569 155.817 306.809 154.846 306.106 153.835C307.076 154.581 307.945 155.45 308.691 156.42C312.608 160.986 315.413 166.397 316.887 172.229C317.271 173.423 317.497 174.661 317.559 175.913Z" fill="#FAFAFA"/>
<path d="M305.344 150.19C306.687 151.94 307.647 153.953 308.162 156.098C306.833 154.34 305.874 152.33 305.344 150.19Z" fill="#FAFAFA"/>
<path d="M303.881 151.534C304.036 151.418 304.877 152.258 305.924 153.253C306.971 154.249 307.824 155.089 307.708 155.244C307.591 155.399 306.531 154.792 305.458 153.745C304.385 152.698 303.739 151.651 303.881 151.534Z" fill="#FAFAFA"/>
<path d="M302.877 153.486C303.816 153.544 304.729 153.823 305.54 154.301C306.936 154.921 308.009 155.593 307.944 155.736C307.001 155.678 306.084 155.399 305.268 154.921C303.872 154.365 302.799 153.654 302.877 153.486Z" fill="#FAFAFA"/>
<path d="M302.734 155.851C302.734 155.67 303.833 155.541 305.19 155.567C306.548 155.593 307.634 155.761 307.634 155.942C307.634 156.123 306.535 156.265 305.178 156.239C303.82 156.213 302.722 156.045 302.734 155.851Z" fill="#FAFAFA"/>
<path d="M305.485 163.568C305.987 163.293 306.555 163.163 307.127 163.193C308.503 163.14 309.875 163.397 311.139 163.945C312.403 164.493 313.528 165.319 314.43 166.36C315.089 167.175 315.348 167.782 315.27 167.821C314.002 166.492 312.516 165.39 310.875 164.564C309.148 163.928 307.325 163.592 305.485 163.568Z" fill="#FAFAFA"/>
<path d="M302.825 161.642C302.89 161.461 303.963 161.642 305.139 162.262C306.315 162.883 307.104 163.633 307.001 163.788C306.897 163.943 305.966 163.452 304.829 162.87C303.691 162.288 302.774 161.81 302.825 161.642Z" fill="#FAFAFA"/>
<path d="M302.062 163.53C302.062 163.362 303.031 162.923 304.362 163.013C305.694 163.104 306.663 163.647 306.586 163.802C306.508 163.957 305.539 163.802 304.324 163.685C303.109 163.569 302.113 163.724 302.062 163.53Z" fill="#FAFAFA"/>
<path d="M302.644 166.115C302.54 165.973 303.225 165.314 304.156 164.667C305.087 164.021 305.953 163.607 306.056 163.75C306.16 163.892 305.487 164.564 304.544 165.21C303.6 165.857 302.76 166.27 302.644 166.115Z" fill="#FAFAFA"/>
<path d="M305.343 166.632C305.162 166.632 305.227 165.778 305.473 164.822C305.718 163.865 306.067 163.129 306.248 163.18C306.429 163.232 306.377 164.033 306.119 164.99C305.86 165.947 305.524 166.683 305.343 166.632Z" fill="#FAFAFA"/>
<path d="M315.983 156.11C315.43 157.826 315.027 159.586 314.781 161.371C314.755 163.167 314.88 164.961 315.156 166.736C314.326 165.054 313.965 163.179 314.11 161.309C314.256 159.44 314.903 157.644 315.983 156.11Z" fill="#FAFAFA"/>
<path d="M313.398 152.258C313.553 152.167 314.239 153.15 314.768 154.507C315.194 155.298 315.379 156.197 315.298 157.092C315.118 157.092 314.665 156.071 314.148 154.753C313.631 153.434 313.204 152.348 313.398 152.258Z" fill="#FAFAFA"/>
<path d="M317.093 152.194C317.274 152.258 317.003 153.318 316.628 154.598C316.253 155.878 315.982 156.95 315.749 156.95C315.516 156.95 315.607 155.8 315.982 154.481C316.357 153.163 316.925 152.116 317.093 152.194Z" fill="#FAFAFA"/>
<path d="M320.042 155.025C320.042 155.206 319.176 155.555 318.129 156.11C317.082 156.666 316.28 157.196 316.151 157.054C316.022 156.912 316.681 156.097 317.818 155.503C318.956 154.908 320.016 154.844 320.042 155.025Z" fill="#FAFAFA"/>
<path d="M319.396 158.372C319.293 158.527 318.53 158.166 317.535 158.049C316.539 157.933 315.725 158.049 315.66 157.868C315.596 157.687 316.449 157.209 317.625 157.377C318.801 157.545 319.525 158.243 319.396 158.372Z" fill="#FAFAFA"/>
<path d="M278.082 231.433C278.268 232.653 278.384 233.883 278.431 235.117C278.706 238.055 279.247 240.962 280.047 243.803C280.863 246.644 281.927 249.408 283.227 252.063C283.831 253.132 284.379 254.233 284.868 255.359C284.048 254.431 283.357 253.396 282.813 252.283C279.907 247.015 278.244 241.152 277.953 235.142C277.839 233.905 277.882 232.659 278.082 231.433Z" fill="#FAFAFA"/>
<path d="M284.96 259.07C284.38 258.123 284.002 257.067 283.849 255.967C283.474 254.924 283.316 253.816 283.383 252.71C283.954 253.661 284.332 254.715 284.495 255.812C284.868 256.856 285.027 257.964 284.96 259.07Z" fill="#FAFAFA"/>
<path d="M286.587 258.061C286.419 258.151 285.76 257.169 284.933 255.967C284.105 254.765 283.446 253.795 283.64 253.666C283.834 253.537 284.7 254.351 285.54 255.592C286.38 256.833 286.755 257.983 286.587 258.061Z" fill="#FAFAFA"/>
<path d="M287.973 256.355C287.869 256.51 286.771 255.915 285.53 255.062C284.289 254.209 283.358 253.33 283.461 253.175C283.565 253.02 284.677 253.627 285.917 254.467C287.158 255.308 288.076 256.199 287.973 256.355Z" fill="#FAFAFA"/>
<path d="M288.591 254.066C288.591 254.247 287.441 254.157 286.122 253.86C284.804 253.562 283.757 253.174 283.808 252.993C283.86 252.812 284.946 252.903 286.265 253.2C287.583 253.498 288.63 253.898 288.591 254.066Z" fill="#FAFAFA"/>
<path d="M287.443 245.949C286.89 246.111 286.302 246.111 285.749 245.949C284.389 245.735 283.098 245.208 281.975 244.411C280.843 243.624 279.906 242.59 279.235 241.386C278.743 240.455 278.627 239.809 278.705 239.783C279.593 241.406 280.844 242.803 282.359 243.866C283.874 244.928 285.614 245.628 287.443 245.91V245.949Z" fill="#FAFAFA"/>
<path d="M289.652 248.38C289.561 248.535 288.553 248.134 287.519 247.294C286.485 246.454 285.864 245.562 285.993 245.445C286.123 245.329 286.95 245.975 287.932 246.738C288.915 247.501 289.742 248.212 289.652 248.38Z" fill="#FAFAFA"/>
<path d="M290.788 246.673C290.788 246.854 289.715 247.074 288.423 246.673C287.13 246.272 286.29 245.6 286.406 245.445C286.523 245.29 287.414 245.716 288.591 246.027C289.767 246.337 290.775 246.479 290.788 246.673Z" fill="#FAFAFA"/>
<path d="M290.724 244.023C290.801 244.191 290 244.695 288.953 245.148C287.906 245.6 286.988 245.833 286.91 245.665C286.833 245.497 287.634 244.98 288.694 244.527C289.754 244.075 290.659 243.855 290.724 244.023Z" fill="#FAFAFA"/>
<path d="M288.189 242.976C288.357 243.066 288.189 243.842 287.697 244.734C287.206 245.626 286.767 246.272 286.612 246.182C286.457 246.091 286.612 245.316 287.09 244.437C287.568 243.558 288.021 242.898 288.189 242.976Z" fill="#FAFAFA"/>
<path d="M275.65 251.158C276.524 249.584 277.268 247.941 277.873 246.246C278.26 244.489 278.498 242.704 278.584 240.907C279.167 242.705 279.144 244.644 278.52 246.427C278.1 248.273 277.093 249.933 275.65 251.158Z" fill="#FAFAFA"/>
<path d="M277.447 255.45C277.266 255.45 276.801 254.416 276.542 252.981C276.295 252.137 276.295 251.239 276.542 250.396C276.723 250.396 276.956 251.52 277.202 252.916C277.447 254.312 277.628 255.398 277.447 255.45Z" fill="#FAFAFA"/>
<path d="M273.776 254.778C273.621 254.674 274.099 253.692 274.707 252.516C275.314 251.339 275.87 250.383 275.999 250.447C276.129 250.512 275.909 251.611 275.276 252.826C274.642 254.041 273.931 254.881 273.776 254.778Z" fill="#FAFAFA"/>
<path d="M271.465 251.417C271.465 251.223 272.422 251.068 273.546 250.732C274.671 250.396 275.588 250.034 275.679 250.202C275.769 250.37 274.968 251.029 273.74 251.378C272.512 251.727 271.452 251.598 271.465 251.417Z" fill="#FAFAFA"/>
<path d="M272.756 248.263C272.898 248.12 273.571 248.637 274.514 248.948C275.458 249.258 276.298 249.31 276.324 249.503C276.35 249.697 275.419 249.982 274.294 249.594C273.17 249.206 272.614 248.366 272.756 248.263Z" fill="#FAFAFA"/>
<path d="M261.059 247.242C260.633 246.083 260.275 244.9 259.986 243.7C259.12 240.874 258.004 238.132 256.651 235.504C255.289 232.888 253.692 230.4 251.881 228.072C251.07 227.14 250.311 226.165 249.606 225.15C250.576 225.896 251.445 226.765 252.191 227.736C256.109 232.307 258.918 237.722 260.4 243.558C260.781 244.751 261.002 245.99 261.059 247.242Z" fill="#FAFAFA"/>
<path d="M248.844 221.505C250.187 223.255 251.147 225.267 251.662 227.412C250.908 226.603 250.327 225.649 249.956 224.607C249.379 223.659 249.001 222.604 248.844 221.505Z" fill="#FAFAFA"/>
<path d="M247.379 222.875C247.534 222.759 248.375 223.599 249.422 224.607C250.469 225.615 251.322 226.43 251.206 226.585C251.089 226.74 250.029 226.132 248.956 225.085C247.883 224.038 247.237 222.966 247.379 222.875Z" fill="#FAFAFA"/>
<path d="M246.375 224.801C247.314 224.859 248.226 225.138 249.037 225.615C250.433 226.236 251.506 226.908 251.442 227.05C250.498 226.993 249.581 226.714 248.766 226.236C247.37 225.615 246.297 224.969 246.375 224.801Z" fill="#FAFAFA"/>
<path d="M246.183 227.178C246.183 226.985 247.281 226.855 248.639 226.881C249.996 226.907 251.082 227.075 251.082 227.256C251.082 227.437 249.983 227.579 248.626 227.553C247.268 227.528 246.183 227.359 246.183 227.178Z" fill="#FAFAFA"/>
<path d="M248.984 234.897C249.483 234.613 250.053 234.478 250.626 234.509C252.003 234.455 253.374 234.712 254.638 235.261C255.903 235.809 257.027 236.634 257.929 237.676C258.602 238.49 258.847 239.098 258.77 239.136C257.502 237.807 256.015 236.705 254.375 235.879C252.65 235.236 250.825 234.904 248.984 234.897Z" fill="#FAFAFA"/>
<path d="M246.321 232.958C246.321 232.777 247.459 232.958 248.635 233.592C249.812 234.225 250.6 234.884 250.497 235.104C250.393 235.324 249.463 234.768 248.325 234.186C247.187 233.604 246.27 233.139 246.321 232.958Z" fill="#FAFAFA"/>
<path d="M245.559 234.858C245.559 234.677 246.529 234.237 247.86 234.328C249.191 234.418 250.161 234.961 250.083 235.116C250.006 235.271 249.036 235.116 247.821 235C246.606 234.883 245.611 235.039 245.559 234.858Z" fill="#FAFAFA"/>
<path d="M246.18 237.442C246.077 237.287 246.762 236.628 247.693 235.981C248.623 235.335 249.489 234.921 249.593 235.077C249.696 235.232 249.024 235.878 248.08 236.524C247.137 237.171 246.258 237.584 246.18 237.442Z" fill="#FAFAFA"/>
<path d="M248.843 237.947C248.662 237.947 248.726 237.094 248.972 236.137C249.218 235.181 249.567 234.444 249.748 234.496C249.929 234.547 249.877 235.349 249.618 236.305C249.36 237.262 249.024 237.999 248.843 237.947Z" fill="#FAFAFA"/>
<path d="M259.495 227.438C258.941 229.149 258.539 230.905 258.293 232.687C258.266 234.482 258.392 236.277 258.668 238.051C257.831 236.373 257.466 234.5 257.611 232.63C257.757 230.761 258.408 228.966 259.495 227.438Z" fill="#FAFAFA"/>
<path d="M256.871 223.573C257.026 223.495 257.712 224.465 258.242 225.822C258.668 226.613 258.852 227.512 258.772 228.407C258.591 228.407 258.138 227.386 257.621 226.067C257.104 224.749 256.703 223.663 256.871 223.573Z" fill="#FAFAFA"/>
<path d="M260.595 223.509C260.776 223.574 260.505 224.634 260.13 225.914C259.755 227.193 259.432 228.227 259.251 228.201C259.07 228.176 259.109 227.051 259.483 225.733C259.858 224.414 260.401 223.432 260.595 223.509Z" fill="#FAFAFA"/>
<path d="M263.543 226.34C263.543 226.52 262.677 226.869 261.63 227.425C260.583 227.981 259.782 228.511 259.652 228.369C259.523 228.227 260.182 227.412 261.32 226.831C262.457 226.249 263.517 226.159 263.543 226.34Z" fill="#FAFAFA"/>
<path d="M262.894 229.688C262.791 229.843 262.028 229.481 261.033 229.364C260.037 229.248 259.223 229.364 259.158 229.183C259.094 229.003 259.947 228.537 261.123 228.692C262.299 228.847 262.984 229.558 262.894 229.688Z" fill="#FAFAFA"/>
<path d="M263.735 317.044C263.307 315.89 262.949 314.712 262.662 313.515C261.798 310.689 260.682 307.946 259.327 305.32C257.967 302.698 256.371 300.206 254.557 297.874C253.746 296.943 252.986 295.968 252.282 294.953C253.252 295.699 254.121 296.568 254.867 297.538C258.799 302.106 261.622 307.521 263.114 313.36C263.482 314.556 263.691 315.794 263.735 317.044Z" fill="#FAFAFA"/>
<path d="M251.516 291.308C252.268 292.12 252.853 293.073 253.235 294.113C253.805 295.063 254.179 296.118 254.334 297.215C253.58 296.406 252.999 295.452 252.628 294.41C252.051 293.462 251.672 292.406 251.516 291.308Z" fill="#FAFAFA"/>
<path d="M250.059 292.678C250.214 292.549 251.054 293.389 252.101 294.397C253.148 295.406 254.001 296.22 253.885 296.375C253.768 296.53 252.708 295.923 251.636 294.876C250.563 293.829 249.916 292.769 250.059 292.678Z" fill="#FAFAFA"/>
<path d="M249.05 294.604C249.99 294.67 250.901 294.953 251.713 295.431C253.109 296.051 254.182 296.723 254.117 296.853C253.174 296.795 252.257 296.516 251.442 296.038C250.059 295.418 248.973 294.784 249.05 294.604Z" fill="#FAFAFA"/>
<path d="M248.904 296.982C248.904 296.788 250.003 296.659 251.36 296.685C252.718 296.711 253.804 296.879 253.804 297.073C253.804 297.267 252.705 297.383 251.348 297.357C249.99 297.331 248.891 297.163 248.904 296.982Z" fill="#FAFAFA"/>
<path d="M251.662 304.699C252.164 304.424 252.732 304.294 253.304 304.324C254.68 304.256 256.053 304.513 257.311 305.074C258.58 305.618 259.707 306.445 260.607 307.491C261.279 308.293 261.525 308.9 261.447 308.939C260.172 307.618 258.687 306.518 257.052 305.681C255.324 305.054 253.501 304.721 251.662 304.699Z" fill="#FAFAFA"/>
<path d="M248.997 302.761C248.997 302.58 250.135 302.761 251.311 303.394C252.487 304.028 253.276 304.764 253.172 304.907C253.069 305.049 252.138 304.571 251.001 303.989C249.863 303.407 248.945 302.942 248.997 302.761Z" fill="#FAFAFA"/>
<path d="M248.233 304.66C248.233 304.492 249.203 304.053 250.534 304.13C251.866 304.208 252.835 304.764 252.758 304.932C252.68 305.1 251.711 304.867 250.496 304.802C249.28 304.738 248.285 304.841 248.233 304.66Z" fill="#FAFAFA"/>
<path d="M248.766 307.246C248.662 307.091 249.347 306.431 250.278 305.785C251.209 305.139 252.075 304.725 252.178 304.88C252.282 305.035 251.61 305.682 250.666 306.341C249.722 307 248.934 307.401 248.766 307.246Z" fill="#FAFAFA"/>
<path d="M251.519 307.75C251.338 307.75 251.402 306.897 251.648 305.94C251.893 304.983 252.242 304.26 252.423 304.298C252.604 304.337 252.553 305.164 252.294 306.108C252.036 307.052 251.7 307.801 251.519 307.75Z" fill="#FAFAFA"/>
<path d="M262.171 297.24C260.85 300.618 260.562 304.311 261.344 307.853C260.507 306.175 260.141 304.301 260.287 302.432C260.433 300.563 261.084 298.768 262.171 297.24Z" fill="#FAFAFA"/>
<path d="M259.547 293.376C259.702 293.299 260.387 294.268 260.917 295.626C261.343 296.417 261.528 297.316 261.447 298.211C261.266 298.211 260.814 297.19 260.297 295.871C259.78 294.553 259.379 293.467 259.547 293.376Z" fill="#FAFAFA"/>
<path d="M263.269 293.311C263.45 293.388 263.178 294.435 262.804 295.715C262.429 296.995 262.106 298.042 261.925 298.003C261.744 297.964 261.782 296.853 262.157 295.534C262.532 294.216 263.101 293.246 263.269 293.311Z" fill="#FAFAFA"/>
<path d="M266.214 296.141C266.214 296.335 265.347 296.671 264.3 297.227C263.253 297.783 262.452 298.313 262.323 298.171C262.193 298.029 262.853 297.214 263.99 296.632C265.128 296.051 266.188 295.96 266.214 296.141Z" fill="#FAFAFA"/>
<path d="M265.57 299.489C265.466 299.657 264.704 299.283 263.708 299.166C262.713 299.05 261.899 299.166 261.834 298.985C261.769 298.804 262.623 298.339 263.799 298.494C264.975 298.649 265.699 299.36 265.57 299.489Z" fill="#FAFAFA"/>
<path d="M362.517 283.629C362.097 282.473 361.738 281.295 361.444 280.1C360.58 277.276 359.468 274.534 358.122 271.905C356.754 269.285 355.153 266.793 353.339 264.459C352.511 263.569 351.734 262.633 351.012 261.654C351.976 262.408 352.844 263.276 353.597 264.24C357.498 268.821 360.301 274.232 361.793 280.061C362.183 281.216 362.426 282.414 362.517 283.629Z" fill="#FAFAFA"/>
<path d="M350.24 257.944C350.997 258.753 351.582 259.708 351.959 260.749C352.529 261.7 352.903 262.755 353.058 263.852C352.304 263.043 351.723 262.088 351.351 261.047C350.781 260.095 350.404 259.041 350.24 257.944Z" fill="#FAFAFA"/>
<path d="M348.777 259.302C348.932 259.173 349.772 260.013 350.819 261.021C351.866 262.03 352.719 262.844 352.616 262.999C352.513 263.154 351.427 262.547 350.354 261.5C349.281 260.453 348.635 259.406 348.777 259.302Z" fill="#FAFAFA"/>
<path d="M347.767 261.24C348.711 261.298 349.628 261.577 350.443 262.055C351.839 262.675 352.912 263.347 352.835 263.489C351.895 263.432 350.983 263.153 350.172 262.675C348.763 262.055 347.703 261.408 347.767 261.24Z" fill="#FAFAFA"/>
<path d="M347.628 263.619C347.628 263.425 348.727 263.296 350.084 263.322C351.441 263.347 352.54 263.516 352.527 263.696C352.514 263.877 351.428 264.02 350.071 263.994C348.714 263.968 347.628 263.8 347.628 263.619Z" fill="#FAFAFA"/>
<path d="M350.38 271.337C350.38 271.259 350.975 271.014 352.022 270.962C353.4 270.898 354.774 271.15 356.04 271.699C357.306 272.248 358.43 273.079 359.325 274.129C359.997 274.93 360.243 275.538 360.178 275.577C358.897 274.257 357.408 273.156 355.77 272.319C354.043 271.684 352.22 271.352 350.38 271.337Z" fill="#FAFAFA"/>
<path d="M347.729 269.41C347.729 269.229 348.853 269.41 350.043 270.044C351.232 270.677 352.007 271.414 351.891 271.556C351.775 271.698 350.857 271.22 349.732 270.638C348.608 270.057 347.664 269.578 347.729 269.41Z" fill="#FAFAFA"/>
<path d="M347.006 271.297C347.006 271.116 347.976 270.69 349.307 270.767C350.639 270.845 351.608 271.401 351.544 271.569C351.479 271.737 350.484 271.504 349.268 271.439C348.053 271.375 347.006 271.478 347.006 271.297Z" fill="#FAFAFA"/>
<path d="M347.547 273.883C347.43 273.727 348.115 273.068 349.059 272.422C350.003 271.776 350.843 271.362 350.946 271.517C351.05 271.672 350.377 272.318 349.434 272.978C348.49 273.637 347.65 274.025 347.547 273.883Z" fill="#FAFAFA"/>
<path d="M350.238 274.387C350.057 274.387 350.122 273.533 350.368 272.577C350.613 271.62 350.975 270.883 351.143 270.935C351.311 270.987 351.272 271.801 351.027 272.745C350.781 273.688 350.419 274.438 350.238 274.387Z" fill="#FAFAFA"/>
<path d="M360.891 263.878C360.345 265.59 359.947 267.346 359.702 269.126C359.675 270.921 359.796 272.715 360.064 274.491C359.132 272.848 358.768 270.944 359.03 269.074C359.052 267.183 359.708 265.354 360.891 263.878Z" fill="#FAFAFA"/>
<path d="M358.265 260.013C358.433 259.936 359.105 260.905 359.648 262.262C360.191 263.62 360.346 264.848 360.165 264.848C359.984 264.848 359.532 263.826 359.015 262.508C358.498 261.189 358.097 260.104 358.265 260.013Z" fill="#FAFAFA"/>
<path d="M361.987 259.948C362.167 260.026 361.896 261.073 361.534 262.353C361.172 263.632 360.823 264.667 360.642 264.641C360.461 264.615 360.5 263.49 360.888 262.172C361.276 260.853 361.818 259.884 361.987 259.948Z" fill="#FAFAFA"/>
<path d="M364.947 262.779C364.947 262.96 364.068 263.309 363.034 263.865C362 264.421 361.173 264.951 361.044 264.808C360.914 264.666 361.587 263.852 362.724 263.27C363.862 262.688 364.909 262.598 364.947 262.779Z" fill="#FAFAFA"/>
<path d="M364.301 266.127C364.185 266.295 363.422 265.92 362.439 265.804C361.457 265.688 360.617 265.804 360.552 265.623C360.488 265.442 361.354 264.977 362.53 265.132C363.706 265.287 364.417 265.998 364.301 266.127Z" fill="#FAFAFA"/>
<path d="M202.411 278.705C201.334 278.117 200.289 277.47 199.283 276.766C196.772 275.205 194.124 273.877 191.372 272.798C188.619 271.733 185.777 270.915 182.879 270.355C180.643 269.915 179.234 269.76 179.247 269.657C180.488 269.569 181.735 269.643 182.957 269.876C188.908 270.73 194.582 272.942 199.542 276.34C200.598 276.999 201.562 277.794 202.411 278.705Z" fill="#FAFAFA"/>
<path d="M176.261 267.419C177.366 267.518 178.437 267.853 179.402 268.401C180.46 268.739 181.44 269.284 182.284 270.004C181.182 269.889 180.114 269.555 179.143 269.022C178.086 268.682 177.107 268.138 176.261 267.419Z" fill="#FAFAFA"/>
<path d="M176.053 269.41C176.053 269.216 177.281 269.294 178.729 269.41C180.176 269.526 181.314 269.526 181.378 269.72C180.539 270.108 179.602 270.235 178.69 270.082C177.763 270.125 176.845 269.891 176.053 269.41Z" fill="#FAFAFA"/>
<path d="M176.584 271.53C176.584 271.349 177.67 270.832 179.169 270.38C180.03 269.998 180.969 269.826 181.91 269.876C181.91 270.057 180.824 270.574 179.324 271.026C178.461 271.4 177.524 271.573 176.584 271.53Z" fill="#FAFAFA"/>
<path d="M178.031 273.404C177.914 273.262 178.651 272.435 179.685 271.569C180.719 270.703 181.663 270.095 181.779 270.276C181.896 270.457 181.159 271.246 180.125 272.112C179.091 272.978 178.16 273.547 178.031 273.404Z" fill="#FAFAFA"/>
<path d="M185.193 277.386C185.193 277.386 185.439 276.765 186.189 276.015C187.186 275.066 188.386 274.354 189.698 273.933C191.01 273.512 192.399 273.393 193.764 273.585C194.798 273.753 195.379 274.051 195.354 274.128C193.524 273.861 191.657 274.016 189.896 274.581C188.135 275.145 186.527 276.105 185.193 277.386Z" fill="#FAFAFA"/>
<path d="M181.924 277.683C181.846 277.515 182.79 276.959 184.083 276.636C185.375 276.313 186.461 276.364 186.474 276.545C186.487 276.726 185.479 276.972 184.238 277.282C182.997 277.592 182.001 277.851 181.924 277.683Z" fill="#FAFAFA"/>
<path d="M182.595 279.622C182.439 279.531 182.918 278.523 183.978 277.709C185.038 276.894 186.123 276.662 186.175 276.83C186.227 276.998 185.348 277.489 184.391 278.239C183.435 278.988 182.75 279.751 182.595 279.622Z" fill="#FAFAFA"/>
<path d="M184.74 281.174C184.559 281.174 184.637 280.191 184.921 279.08C185.206 277.968 185.568 277.102 185.749 277.154C185.93 277.205 185.852 278.136 185.568 279.248C185.283 280.359 184.921 281.225 184.74 281.174Z" fill="#FAFAFA"/>
<path d="M187.104 279.751C186.949 279.841 186.445 279.195 186.006 278.303C185.566 277.411 185.346 276.649 185.514 276.558C185.683 276.468 186.174 277.127 186.613 278.006C187.053 278.885 187.272 279.751 187.104 279.751Z" fill="#FAFAFA"/>
<path d="M188.176 264.847C188.901 266.499 189.766 268.086 190.762 269.591C191.945 270.96 193.243 272.227 194.639 273.378C192.909 272.658 191.403 271.486 190.28 269.986C189.157 268.485 188.457 266.71 188.254 264.847H188.176Z" fill="#FAFAFA"/>
<path d="M183.665 263.684C183.73 263.516 184.88 263.8 186.173 264.46C187.466 265.119 188.371 265.907 188.267 266.062C188.164 266.218 187.13 265.713 185.863 265.067C184.596 264.421 183.588 263.865 183.665 263.684Z" fill="#FAFAFA"/>
<path d="M186.423 261.176C186.604 261.111 187.095 262.081 187.716 263.283C188.336 264.485 188.711 265.493 188.556 265.584C188.401 265.674 187.69 264.821 187.108 263.567C186.527 262.313 186.242 261.228 186.423 261.176Z" fill="#FAFAFA"/>
<path d="M190.505 261.356C190.66 261.473 190.194 262.326 189.781 263.438C189.367 264.549 189.109 265.48 188.915 265.454C188.721 265.428 188.682 264.381 189.147 263.192C189.613 262.003 190.362 261.24 190.505 261.356Z" fill="#FAFAFA"/>
<path d="M192.224 264.304C192.224 264.498 191.435 264.718 190.608 265.287C189.781 265.855 189.315 266.489 189.082 266.398C188.85 266.308 189.251 265.377 190.233 264.718C191.215 264.059 192.224 264.123 192.224 264.304Z" fill="#FAFAFA"/>
<path d="M187.505 190.146C187.092 188.988 186.738 187.811 186.445 186.617C184.725 180.951 181.977 175.649 178.34 170.976C177.532 170.047 176.773 169.076 176.065 168.067C177.036 168.813 177.905 169.682 178.651 170.653C182.567 175.218 185.373 180.629 186.846 186.462C187.231 187.654 187.453 188.894 187.505 190.146Z" fill="#FAFAFA"/>
<path d="M175.304 164.409C176.053 165.227 176.632 166.185 177.01 167.227C177.589 168.174 177.967 169.23 178.122 170.329C177.368 169.513 176.783 168.555 176.402 167.512C175.831 166.562 175.457 165.507 175.304 164.409Z" fill="#FAFAFA"/>
<path d="M173.793 165.766C173.935 165.649 174.788 166.477 175.835 167.485C176.882 168.493 177.735 169.321 177.619 169.476C177.503 169.631 176.443 169.01 175.37 167.976C174.297 166.942 173.702 165.882 173.793 165.766Z" fill="#FAFAFA"/>
<path d="M172.834 167.718C173.774 167.776 174.686 168.055 175.497 168.532C176.893 169.153 177.966 169.825 177.888 169.967C176.949 169.907 176.037 169.628 175.226 169.153C173.791 168.584 172.757 167.886 172.834 167.718Z" fill="#FAFAFA"/>
<path d="M172.681 170.084C172.681 169.903 173.793 169.773 175.15 169.799C176.507 169.825 177.593 169.993 177.593 170.174C177.593 170.355 176.494 170.497 175.137 170.471C173.78 170.446 172.681 170.277 172.681 170.084Z" fill="#FAFAFA"/>
<path d="M175.446 177.801C175.446 177.724 176.04 177.491 177.087 177.426C178.463 177.371 179.833 177.627 181.095 178.176C182.357 178.724 183.48 179.55 184.378 180.593C185.05 181.408 185.296 182.015 185.231 182.054C183.963 180.725 182.477 179.623 180.836 178.796C179.109 178.161 177.286 177.825 175.446 177.801Z" fill="#FAFAFA"/>
<path d="M172.786 175.862C172.851 175.694 173.924 175.862 175.1 176.495C176.276 177.129 177.065 177.865 176.961 178.008C176.858 178.15 175.927 177.672 174.79 177.103C173.652 176.534 172.735 176.043 172.786 175.862Z" fill="#FAFAFA"/>
<path d="M172.021 177.762C172.021 177.594 172.99 177.154 174.321 177.245C175.653 177.335 176.622 177.878 176.545 178.033C176.467 178.188 175.498 178.033 174.283 177.917C173.068 177.8 172.059 177.956 172.021 177.762Z" fill="#FAFAFA"/>
<path d="M172.605 180.347C172.501 180.192 173.173 179.546 174.117 178.886C175.061 178.227 175.914 177.826 176.017 177.982C176.121 178.137 175.449 178.796 174.505 179.442C173.561 180.089 172.708 180.502 172.605 180.347Z" fill="#FAFAFA"/>
<path d="M175.306 180.865C175.125 180.865 175.177 179.999 175.435 179.055C175.694 178.112 176.03 177.362 176.211 177.414C176.392 177.465 176.34 178.267 176.081 179.223C175.823 180.18 175.487 180.917 175.306 180.865Z" fill="#FAFAFA"/>
<path d="M185.958 170.342C185.406 172.053 185.003 173.809 184.756 175.59C184.73 177.39 184.855 179.189 185.131 180.967C184.3 179.286 183.938 177.411 184.083 175.541C184.229 173.671 184.877 171.874 185.958 170.342Z" fill="#FAFAFA"/>
<path d="M183.331 166.49C183.486 166.4 184.171 167.382 184.701 168.739C185.127 169.531 185.311 170.43 185.231 171.325C185.037 171.325 184.598 170.303 184.081 168.985C183.564 167.666 183.163 166.581 183.331 166.49Z" fill="#FAFAFA"/>
<path d="M187.053 166.425C187.234 166.425 186.962 167.55 186.587 168.83C186.212 170.109 185.889 171.143 185.708 171.118C185.527 171.092 185.566 169.954 185.941 168.636C186.316 167.317 186.885 166.348 187.053 166.425Z" fill="#FAFAFA"/>
<path d="M190.003 169.256C190.003 169.437 189.137 169.786 188.09 170.329C187.042 170.872 186.241 171.428 186.112 171.285C185.983 171.143 186.642 170.329 187.779 169.734C188.917 169.14 189.977 169.075 190.003 169.256Z" fill="#FAFAFA"/>
<path d="M189.304 172.604C189.2 172.759 188.438 172.397 187.442 172.268C186.447 172.139 185.633 172.268 185.568 172.1C185.503 171.932 186.356 171.441 187.533 171.609C188.709 171.777 189.472 172.462 189.304 172.604Z" fill="#FAFAFA"/>
<path d="M197.163 141.348C198.742 142.391 199.933 143.927 200.549 145.717C201.368 147.421 201.608 149.345 201.234 151.198C200.939 149.443 200.507 147.714 199.942 146.027C199.153 144.39 198.223 142.824 197.163 141.348Z" fill="#FAFAFA"/>
<path d="M198.468 136.876C198.662 136.876 198.611 138.065 198.468 139.461C198.326 140.857 198.288 142.046 198.094 142.046C197.9 142.046 197.706 140.883 197.796 139.461C197.887 138.039 198.352 136.837 198.468 136.876Z" fill="#FAFAFA"/>
<path d="M194.899 137.962C195.041 137.832 195.881 138.595 196.644 139.732C197.407 140.87 197.794 141.917 197.639 142.007C197.484 142.098 196.838 141.206 196.088 140.107C195.338 139.009 194.757 138.078 194.899 137.962Z" fill="#FAFAFA"/>
<path d="M192.974 141.555C192.974 141.374 193.982 141.116 195.236 141.335C196.49 141.555 197.382 142.137 197.304 142.292C197.227 142.447 196.296 142.188 195.133 141.995C193.969 141.801 192.987 141.749 192.974 141.555Z" fill="#FAFAFA"/>
<path d="M194.619 144.541C194.464 144.451 194.929 143.559 196.002 143.055C197.075 142.551 198.057 142.732 198.032 142.913C198.006 143.094 197.191 143.223 196.299 143.662C195.407 144.102 194.774 144.658 194.619 144.541Z" fill="#FAFAFA"/>
<path d="M174.555 205.981C173.753 204.287 173.418 202.41 173.586 200.544C173.755 198.678 174.419 196.891 175.511 195.368C174.932 197.073 174.5 198.825 174.219 200.603C174.177 202.402 174.289 204.201 174.555 205.981Z" fill="#FAFAFA"/>
<path d="M171.323 209.354C171.168 209.238 171.75 208.229 172.474 207.014C173.197 205.799 173.831 204.817 173.999 204.907C174.167 204.998 173.805 206.109 173.055 207.363C172.305 208.617 171.465 209.457 171.323 209.354Z" fill="#FAFAFA"/>
<path d="M174.979 210.039C174.811 210.039 174.41 209.031 174.268 207.66C174.126 206.29 174.268 205.179 174.436 205.192C174.604 205.204 174.785 206.264 174.927 207.583C175.07 208.901 175.173 209.948 174.979 210.039Z" fill="#FAFAFA"/>
<path d="M178.37 207.738C178.37 207.906 177.271 207.661 176.263 206.885C175.254 206.11 174.724 205.192 174.867 205.075C175.009 204.959 175.72 205.644 176.663 206.368C177.607 207.092 178.434 207.557 178.37 207.738Z" fill="#FAFAFA"/>
<path d="M178.29 204.326C178.38 204.481 177.553 205.063 176.377 205.011C175.201 204.959 174.412 204.339 174.515 204.197C174.619 204.055 175.394 204.313 176.403 204.339C177.411 204.365 178.212 204.145 178.29 204.326Z" fill="#FAFAFA"/>
<path d="M175.615 249.038C173.761 249.393 171.842 249.135 170.147 248.301C168.362 247.675 166.835 246.475 165.804 244.889C167.255 245.951 168.794 246.885 170.406 247.681C172.102 248.275 173.845 248.729 175.615 249.038Z" fill="#FAFAFA"/>
<path d="M177.838 253.136C177.683 253.239 176.907 252.386 175.964 251.326C175.02 250.266 174.296 249.374 174.426 249.232C174.555 249.09 175.511 249.788 176.481 250.887C177.45 251.986 177.993 253.033 177.838 253.136Z" fill="#FAFAFA"/>
<path d="M179.609 249.853C179.609 250.034 178.471 250.099 177.127 249.853C175.783 249.608 174.774 249.103 174.826 248.922C174.878 248.741 175.951 248.922 177.256 249.194C178.562 249.465 179.635 249.672 179.609 249.853Z" fill="#FAFAFA"/>
<path d="M178.444 245.935C178.599 246.052 178.043 246.957 176.996 247.693C175.949 248.43 174.915 248.637 174.851 248.469C174.786 248.301 175.652 247.823 176.609 247.176C177.565 246.53 178.302 245.819 178.444 245.935Z" fill="#FAFAFA"/>
<path d="M175.173 244.966C175.354 244.966 175.651 245.884 175.25 247.008C174.849 248.133 173.958 248.676 173.958 248.534C173.958 248.391 174.332 247.719 174.668 246.776C175.005 245.832 174.979 244.992 175.173 244.966Z" fill="#FAFAFA"/>
<path d="M225.278 277.864C223.42 278.128 221.525 277.881 219.797 277.15C218.069 276.419 216.572 275.232 215.467 273.715C216.915 274.784 218.455 275.722 220.069 276.52C221.764 277.116 223.506 277.565 225.278 277.864Z" fill="#FAFAFA"/>
<path d="M227.501 281.961C227.345 282.077 226.557 281.224 225.626 280.151C224.696 279.079 223.946 278.2 224.075 278.057C224.204 277.915 225.174 278.613 226.13 279.712C227.087 280.811 227.643 281.858 227.501 281.961Z" fill="#FAFAFA"/>
<path d="M229.274 278.691C229.274 278.872 228.136 278.924 226.792 278.691C225.447 278.459 224.426 277.942 224.478 277.774C224.53 277.606 225.615 277.774 226.921 278.032C228.227 278.291 229.287 278.459 229.274 278.691Z" fill="#FAFAFA"/>
<path d="M228.083 274.762C228.225 274.878 227.682 275.783 226.635 276.52C225.588 277.256 224.541 277.463 224.489 277.295C224.437 277.127 225.278 276.649 226.247 276.003C227.217 275.356 227.966 274.645 228.083 274.762Z" fill="#FAFAFA"/>
<path d="M224.837 273.806C225.005 273.806 225.316 274.723 224.837 275.835C224.359 276.947 223.609 277.503 223.545 277.36C223.48 277.218 223.933 276.546 224.256 275.602C224.579 274.659 224.644 273.832 224.837 273.806Z" fill="#FAFAFA"/>
<path d="M225.278 241.152C223.42 241.523 221.491 241.264 219.797 240.416C218.011 239.797 216.486 238.594 215.467 237.003C216.919 238.066 218.458 239.005 220.069 239.808C221.764 240.404 223.506 240.854 225.278 241.152Z" fill="#FAFAFA"/>
<path d="M227.501 245.251C227.345 245.368 226.557 244.501 225.626 243.441C224.696 242.382 223.946 241.49 224.075 241.347C224.204 241.205 225.174 241.903 226.13 243.002C227.087 244.101 227.643 245.148 227.501 245.251Z" fill="#FAFAFA"/>
<path d="M229.274 241.98C229.274 242.161 228.136 242.213 226.792 241.98C225.447 241.748 224.426 241.231 224.478 241.063C224.53 240.895 225.615 241.063 226.921 241.321C228.227 241.58 229.287 241.786 229.274 241.98Z" fill="#FAFAFA"/>
<path d="M228.083 238.051C228.225 238.167 227.682 239.072 226.635 239.809C225.588 240.546 224.541 240.752 224.489 240.584C224.437 240.416 225.278 239.938 226.247 239.292C227.217 238.645 227.966 237.934 228.083 238.051Z" fill="#FAFAFA"/>
<path d="M224.837 237.095C225.005 237.095 225.316 238.013 224.837 239.124C224.359 240.236 223.609 240.792 223.545 240.649C223.48 240.507 223.933 239.835 224.256 238.892C224.579 237.948 224.644 237.095 224.837 237.095Z" fill="#FAFAFA"/>
<path d="M297.886 290.622C296.03 290.869 294.14 290.614 292.415 289.884C290.69 289.155 289.192 287.977 288.075 286.473C289.526 287.535 291.065 288.469 292.677 289.265C294.373 289.859 296.116 290.313 297.886 290.622Z" fill="#FAFAFA"/>
<path d="M300.148 294.72C299.993 294.823 299.218 293.97 298.274 292.91C297.33 291.85 296.606 290.958 296.736 290.816C296.865 290.674 297.822 291.372 298.778 292.458C299.735 293.544 300.303 294.617 300.148 294.72Z" fill="#FAFAFA"/>
<path d="M301.918 291.385C301.918 291.566 300.78 291.618 299.436 291.385C298.092 291.153 297.071 290.649 297.135 290.468C297.2 290.287 298.26 290.468 299.565 290.726C300.871 290.985 301.931 291.256 301.918 291.385Z" fill="#FAFAFA"/>
<path d="M300.755 287.507C300.897 287.611 300.354 288.528 299.307 289.252C298.26 289.976 297.213 290.209 297.161 290.028C297.11 289.847 297.963 289.394 298.919 288.735C299.876 288.076 300.613 287.391 300.755 287.507Z" fill="#FAFAFA"/>
<path d="M297.485 286.55C297.666 286.55 297.963 287.468 297.562 288.579C297.161 289.691 296.27 290.26 296.27 290.105C296.27 289.949 296.644 289.303 296.98 288.359C297.317 287.416 297.291 286.576 297.485 286.55Z" fill="#FAFAFA"/>
<path d="M285.179 168.584C283.321 168.848 281.426 168.601 279.698 167.87C277.97 167.139 276.473 165.951 275.368 164.435C276.816 165.503 278.356 166.442 279.97 167.24C281.664 167.835 283.407 168.285 285.179 168.584Z" fill="#FAFAFA"/>
<path d="M287.402 172.668C287.246 172.785 286.458 171.931 285.527 170.858C284.596 169.786 283.847 168.907 283.976 168.764C284.105 168.622 285.075 169.32 286.031 170.419C286.988 171.518 287.544 172.565 287.402 172.668Z" fill="#FAFAFA"/>
<path d="M289.175 169.398C289.175 169.579 288.037 169.631 286.693 169.398C285.348 169.166 284.327 168.649 284.379 168.481C284.431 168.313 285.516 168.481 286.822 168.739C288.128 168.998 289.187 169.204 289.175 169.398Z" fill="#FAFAFA"/>
<path d="M288.008 165.469C288.15 165.585 287.607 166.49 286.56 167.227C285.513 167.963 284.466 168.17 284.414 168.002C284.363 167.834 285.203 167.356 286.172 166.71C287.142 166.063 287.866 165.352 288.008 165.469Z" fill="#FAFAFA"/>
<path d="M284.739 164.513C284.907 164.513 285.217 165.43 284.804 166.542C284.39 167.654 283.576 168.21 283.511 168.067C283.446 167.925 283.899 167.253 284.222 166.309C284.545 165.366 284.545 164.539 284.739 164.513Z" fill="#FAFAFA"/>
<path d="M255.229 156.705C253.37 157.06 251.447 156.802 249.748 155.968C247.967 155.34 246.445 154.14 245.417 152.556C246.871 153.612 248.411 154.546 250.019 155.348C251.715 155.944 253.458 156.398 255.229 156.705Z" fill="#FAFAFA"/>
<path d="M257.414 160.828C257.259 160.932 256.47 160.079 255.539 159.019C254.609 157.959 253.859 157.067 253.988 156.925C254.117 156.782 255.087 157.48 256.043 158.566C257 159.652 257.556 160.699 257.414 160.828Z" fill="#FAFAFA"/>
<path d="M259.181 157.519C259.181 157.7 258.044 157.752 256.699 157.519C255.355 157.287 254.334 156.782 254.386 156.601C254.437 156.42 255.523 156.601 256.829 156.86C258.134 157.119 259.194 157.338 259.181 157.519Z" fill="#FAFAFA"/>
<path d="M258.021 153.603C258.163 153.706 257.62 154.624 256.56 155.348C255.5 156.071 254.479 156.304 254.427 156.123C254.375 155.942 255.216 155.49 256.172 154.831C257.129 154.171 257.878 153.473 258.021 153.603Z" fill="#FAFAFA"/>
<path d="M254.751 152.633C254.919 152.633 255.216 153.551 254.816 154.662C254.415 155.774 253.523 156.343 253.523 156.188C253.523 156.032 253.911 155.386 254.234 154.443C254.557 153.499 254.557 152.659 254.751 152.633Z" fill="#FAFAFA"/>
<path d="M322.305 191.968C320.446 192.215 318.555 191.961 316.827 191.232C315.1 190.502 313.599 189.324 312.48 187.818C313.939 188.868 315.478 189.801 317.082 190.61C318.783 191.206 320.529 191.66 322.305 191.968Z" fill="#FAFAFA"/>
<path d="M324.514 196.066C324.358 196.169 323.583 195.316 322.652 194.256C321.721 193.196 320.972 192.304 321.101 192.162C321.23 192.02 322.2 192.718 323.156 193.804C324.113 194.889 324.669 195.962 324.514 196.066Z" fill="#FAFAFA"/>
<path d="M326.324 192.782C326.324 192.963 325.187 193.015 323.843 192.782C322.498 192.549 321.477 192.045 321.529 191.864C321.58 191.683 322.666 191.864 323.972 192.123C325.277 192.381 326.324 192.601 326.324 192.782Z" fill="#FAFAFA"/>
<path d="M325.133 188.865C325.276 188.969 324.733 189.886 323.673 190.61C322.613 191.334 321.592 191.567 321.54 191.386C321.488 191.205 322.328 190.752 323.285 190.093C324.241 189.434 325.03 188.736 325.133 188.865Z" fill="#FAFAFA"/>
<path d="M321.864 187.896C322.032 187.896 322.329 188.814 321.928 189.926C321.528 191.038 320.636 191.606 320.636 191.451C320.636 191.296 321.024 190.65 321.347 189.706C321.67 188.763 321.67 187.974 321.864 187.896Z" fill="#FAFAFA"/>
<path d="M295.532 220.613C293.673 220.968 291.75 220.71 290.051 219.876C288.271 219.248 286.748 218.048 285.721 216.464C287.175 217.52 288.714 218.454 290.323 219.256C292.018 219.852 293.761 220.306 295.532 220.613Z" fill="#FAFAFA"/>
<path d="M297.754 224.71C297.599 224.814 296.811 223.96 295.88 222.9C294.949 221.841 294.2 220.949 294.329 220.806C294.458 220.664 295.428 221.362 296.384 222.448C297.341 223.534 297.884 224.607 297.754 224.71Z" fill="#FAFAFA"/>
<path d="M299.53 221.427C299.53 221.608 298.392 221.66 297.048 221.427C295.704 221.195 294.682 220.691 294.747 220.51C294.812 220.329 295.872 220.51 297.177 220.768C298.483 221.027 299.543 221.246 299.53 221.427Z" fill="#FAFAFA"/>
<path d="M298.363 217.511C298.506 217.614 297.963 218.532 296.916 219.256C295.869 219.98 294.822 220.212 294.77 220.031C294.718 219.85 295.558 219.398 296.528 218.739C297.497 218.079 298.221 217.381 298.363 217.511Z" fill="#FAFAFA"/>
<path d="M295.093 216.542C295.261 216.542 295.571 217.46 295.157 218.571C294.744 219.683 293.929 220.252 293.865 220.097C293.8 219.942 294.252 219.295 294.576 218.352C294.899 217.408 294.899 216.568 295.093 216.542Z" fill="#FAFAFA"/>
<path d="M334.234 254.881C332.377 255.135 330.485 254.883 328.759 254.153C327.032 253.423 325.535 252.241 324.423 250.731C325.871 251.8 327.411 252.739 329.025 253.536C330.72 254.132 332.462 254.582 334.234 254.881Z" fill="#FAFAFA"/>
<path d="M336.455 258.979C336.3 259.095 335.524 258.229 334.581 257.169C333.637 256.109 332.913 255.217 333.042 255.075C333.172 254.933 334.128 255.631 335.085 256.73C336.041 257.828 336.662 258.875 336.455 258.979Z" fill="#FAFAFA"/>
<path d="M338.23 255.708C338.23 255.889 337.093 255.941 335.749 255.708C334.404 255.475 333.383 254.958 333.448 254.79C333.512 254.622 334.572 254.79 335.878 255.049C337.183 255.307 338.243 255.514 338.23 255.708Z" fill="#FAFAFA"/>
<path d="M337.065 251.778C337.207 251.895 336.664 252.799 335.617 253.536C334.57 254.273 333.523 254.48 333.471 254.312C333.42 254.144 334.273 253.666 335.229 253.019C336.186 252.373 336.923 251.662 337.065 251.778Z" fill="#FAFAFA"/>
<path d="M333.797 250.822C333.978 250.822 334.275 251.74 333.874 252.852C333.473 253.963 332.582 254.519 332.582 254.377C332.582 254.235 332.956 253.563 333.293 252.619C333.629 251.675 333.603 250.848 333.797 250.822Z" fill="#FAFAFA"/>
<path d="M220.959 81.3687C220.959 81.3687 220.765 81.5497 220.403 81.7695C219.902 82.0575 219.307 82.1364 218.748 81.9892C217.339 81.666 215.956 79.6625 215.62 77.3745C215.462 76.2838 215.546 75.1716 215.866 74.117C215.939 73.7046 216.112 73.3162 216.368 72.9852C216.625 72.6542 216.958 72.3905 217.339 72.2168C217.587 72.1213 217.86 72.1141 218.112 72.1966C218.364 72.279 218.58 72.446 218.723 72.6693C218.929 73.0054 218.878 73.2639 218.955 73.2768C219.033 73.2897 219.201 73.0312 219.033 72.5271C218.926 72.2202 218.715 71.9599 218.438 71.7903C218.247 71.6719 218.034 71.5946 217.811 71.5635C217.588 71.5323 217.362 71.5479 217.146 71.6093C216.636 71.7753 216.176 72.0692 215.812 72.4629C215.448 72.8566 215.19 73.3371 215.064 73.8585C214.65 75.0219 214.53 76.2698 214.715 77.4908C215.103 80.0761 216.693 82.2994 218.593 82.6614C218.947 82.7218 219.309 82.702 219.653 82.6036C219.998 82.5051 220.316 82.3305 220.584 82.0926C220.972 81.679 221.011 81.3817 220.959 81.3687Z" fill="#EB996E"/>
<path d="M276.687 353.432C276.687 353.432 348.157 288.568 357.425 286.538C366.694 284.509 405.589 279.325 409.661 283.953C413.733 288.581 409.493 306.484 405.964 315.17C402.435 323.857 357.348 363.063 341.565 370.237L301.131 391.617L276.687 353.432Z" fill="#263238"/>
<path d="M280.435 348.714L332.878 375.562C334.844 376.577 336.344 378.31 337.066 380.402C337.788 382.494 337.677 384.783 336.756 386.795L309.184 447.666C309.184 447.666 302.178 449.617 307.995 406.689L261.188 386.485L280.435 348.714Z" fill="#BA68C8"/>
<path d="M296.71 356.65C296.71 356.65 218.893 308.693 209.418 301.61C193.57 289.485 177.244 278.084 170.121 276.584C170.121 276.584 144.449 261.254 131.859 270.69C119.269 280.126 117.252 289.717 116.748 297.758C116.335 304.441 144.359 356.198 169.152 374.773C172.751 377.192 176.853 378.761 181.148 379.362C188.372 380.53 195.781 379.362 202.295 376.027L211.201 371.593C240.622 383.02 278.419 395.43 278.419 395.43L296.71 356.65Z" fill="#263238"/>
<path d="M223.323 310.619L223.685 310.813L224.719 311.434L228.726 313.89L243.811 323.248L296.809 356.392L297.042 356.547L296.926 356.792L278.622 395.572L278.493 395.83L278.221 395.74L259.452 389.625L250.248 386.601C232.306 378.935 214.843 372.834 199.189 366.849C191.433 363.85 183.975 360.903 177.214 357.697C175.534 356.922 173.905 356.068 172.328 355.228C170.751 354.388 169.226 353.483 167.752 352.643C167.007 352.218 166.286 351.752 165.593 351.247L163.538 349.812C162.866 349.334 162.245 348.765 161.638 348.261C161.009 347.766 160.405 347.239 159.828 346.684C155.759 342.733 152.131 338.351 149.009 333.615C146.242 329.466 144.148 325.717 142.545 322.628C140.943 319.538 139.728 317.108 138.926 315.454C138.551 314.626 138.254 314.006 138.047 313.553C137.84 313.101 137.763 312.907 137.763 312.907C137.763 312.907 137.892 313.114 138.099 313.528C138.306 313.941 138.642 314.588 139.042 315.389C139.883 317.031 141.098 319.448 142.778 322.511C144.459 325.575 146.579 329.298 149.358 333.421C152.498 338.103 156.13 342.437 160.19 346.348C164.74 350.678 170.854 354.026 177.498 357.232C184.143 360.438 191.575 363.333 199.473 366.28C215.127 372.226 232.604 378.315 250.571 385.98L259.775 389.005L278.493 395.106L278.079 395.287L296.447 356.508L296.551 356.896L243.591 323.571L228.597 314.058L224.641 311.472L223.62 310.8C223.515 310.749 223.416 310.688 223.323 310.619Z" fill="#455A64"/>
<path d="M318.569 427.008C316.499 426.42 314.371 426.06 312.223 425.935C310.072 426.027 307.939 426.361 305.863 426.931C307.751 425.712 309.979 425.128 312.223 425.263C314.469 425.164 316.69 425.774 318.569 427.008Z" fill="#FAFAFA"/>
<path d="M333.548 395.882C333.088 395.912 332.626 395.873 332.178 395.765C330.937 395.556 329.725 395.196 328.572 394.692C324.665 393.059 321.487 390.058 319.631 386.252C317.776 382.446 317.37 378.094 318.489 374.01C318.798 372.79 319.259 371.613 319.859 370.507C320.055 370.087 320.307 369.695 320.609 369.344C319.935 370.893 319.382 372.492 318.954 374.127C317.999 378.091 318.456 382.266 320.247 385.93C322.038 389.594 325.05 392.519 328.766 394.201C330.314 394.884 331.913 395.445 333.548 395.882Z" fill="#FAFAFA"/>
<path d="M305.329 361.679C305.177 362.173 304.964 362.646 304.696 363.088L302.783 366.823C301.141 369.965 298.905 374.308 296.526 379.155C294.148 384.003 292.067 388.423 290.567 391.629L288.835 395.43C288.648 395.912 288.401 396.368 288.098 396.787C288.213 396.285 288.378 395.796 288.589 395.326C288.938 394.395 289.481 393.064 290.179 391.448C291.562 388.191 293.566 383.692 295.957 378.871C298.349 374.049 300.663 369.693 302.421 366.604C303.3 365.065 304.011 363.824 304.528 362.971C304.751 362.515 305.019 362.082 305.329 361.679Z" fill="#FAFAFA"/>
<path d="M204.518 259.56L189.549 207.738L257.542 227.645L266.526 227.981L336.6 207.738L331.455 261.267L266.526 276.378H257.878L204.518 259.56Z" fill="#263238"/>
<path d="M193.48 208.889C193.48 208.889 195.225 205.98 199.943 206.135C202.416 206.137 204.867 206.601 207.169 207.505L204.92 203.757C216.3 205.661 227.531 208.369 238.529 211.862C254.195 217.11 262.636 223.224 262.339 227.826L257.582 227.645L193.48 208.889Z" fill="#FAFAFA"/>
<path d="M260.515 273.353C260.334 273.353 260.179 263.141 260.179 250.564C260.179 237.986 260.334 227.774 260.515 227.774C260.696 227.774 260.851 237.973 260.851 250.564C260.851 263.154 260.696 273.353 260.515 273.353Z" fill="#455A64"/>
<path d="M265.309 265.351C265.128 265.351 264.973 257.078 264.973 246.879C264.973 236.68 265.128 228.407 265.309 228.407C265.49 228.407 265.645 236.68 265.645 246.879C265.645 257.078 265.568 265.351 265.309 265.351Z" fill="#455A64"/>
<path d="M335.877 207.945C329.616 205.631 322.771 205.426 316.384 207.363L322.214 205.695C307.652 204.383 292.997 206.808 279.634 212.74C272.873 215.739 265.854 220.612 263.075 227.774L266.527 227.993L335.877 207.945Z" fill="#FAFAFA"/>
<path d="M210.399 244.423C209.82 243.356 209.348 242.235 208.99 241.075C208.227 238.955 207.245 236.008 206.314 232.712C205.383 229.415 204.66 226.391 204.207 224.193C203.896 223.017 203.702 221.814 203.625 220.6C204.078 221.728 204.424 222.897 204.66 224.09C205.241 226.248 206.03 229.26 206.961 232.531C207.891 235.801 208.796 238.774 209.442 240.92C209.862 242.058 210.182 243.23 210.399 244.423Z" fill="#FAFAFA"/>
<path d="M244.655 255.786C244.177 255.716 243.708 255.59 243.259 255.411L239.549 254.209C236.421 253.175 232.091 251.766 227.295 250.331C222.499 248.896 218.104 247.616 214.937 246.711L211.189 245.638C210.716 245.545 210.259 245.384 209.832 245.16C210.312 245.181 210.789 245.255 211.253 245.38C212.158 245.561 213.451 245.858 215.054 246.259C218.26 247.034 222.667 248.211 227.489 249.684C232.311 251.158 236.615 252.645 239.704 253.795C241.256 254.377 242.497 254.855 243.35 255.204C243.807 255.344 244.245 255.54 244.655 255.786Z" fill="#FAFAFA"/>
<path d="M249.178 256.561C248.278 253.073 247.596 249.533 247.136 245.961C246.456 242.421 245.994 238.842 245.753 235.245C246.652 238.737 247.334 242.281 247.795 245.858C248.474 249.394 248.936 252.968 249.178 256.561Z" fill="#FAFAFA"/>
<path d="M243.592 234.509C243.058 234.483 242.529 234.396 242.015 234.25C241.019 234.043 239.585 233.707 237.814 233.255C234.272 232.376 229.399 231.006 224.112 229.273C218.825 227.541 214.081 225.744 210.707 224.374C209.014 223.676 207.643 223.082 206.726 222.681C206.229 222.488 205.752 222.245 205.304 221.957C205.823 222.063 206.33 222.223 206.816 222.435L210.875 223.922C214.288 225.214 219.032 226.895 224.318 228.627C229.605 230.359 234.427 231.794 237.93 232.802L242.079 234.004C242.599 234.122 243.106 234.291 243.592 234.509Z" fill="#FAFAFA"/>
<path d="M270.209 223.729C270.209 223.729 276.53 223.095 276.673 230.412C276.789 241.024 275.703 258.294 275.703 258.294L280.447 252.58L283.679 255.579C283.679 255.579 284.209 244.786 284.571 235.194C284.946 225.267 282.658 220.29 278.25 220.226C275.448 221.091 272.751 222.266 270.209 223.729Z" fill="#BA68C8"/>
<path d="M322.254 207.234C322.064 207.316 321.864 207.373 321.659 207.402L319.914 207.777C318.401 208.1 316.204 208.565 313.451 209.186C308.06 210.478 300.666 212.391 292.639 215.015C288.632 216.308 284.883 217.665 281.406 218.893C278.346 219.943 275.358 221.191 272.461 222.629C270.519 223.603 268.712 224.824 267.084 226.261C265.933 227.283 265.39 227.942 265.339 227.903C265.287 227.864 265.442 227.722 265.7 227.399C266.067 226.938 266.469 226.506 266.903 226.106C268.491 224.569 270.288 223.263 272.241 222.228C275.129 220.73 278.118 219.434 281.186 218.35C284.612 217.058 288.412 215.688 292.432 214.369C299.315 212.113 306.314 210.228 313.399 208.72C316.126 208.164 318.337 207.764 319.862 207.531L321.633 207.272C321.836 207.225 322.046 207.212 322.254 207.234Z" fill="#E0E0E0"/>
<path d="M258.601 228.046C257.196 225.635 255.455 223.437 253.43 221.518C251.166 219.488 248.619 217.798 245.868 216.502C242.484 214.951 238.931 213.797 235.281 213.064C231.403 212.237 227.642 211.771 224.216 211.202C220.791 210.634 217.753 210.155 215.168 209.548C213.146 209.091 211.155 208.503 209.209 207.79C208.524 207.531 207.994 207.312 207.645 207.156C207.296 207.001 207.115 206.898 207.128 206.872C207.863 207.056 208.588 207.281 209.299 207.544C211.258 208.157 213.247 208.67 215.258 209.082C217.844 209.625 220.881 210.104 224.307 210.582C227.732 211.06 231.507 211.577 235.424 212.405C239.125 213.148 242.724 214.337 246.14 215.946C248.926 217.272 251.494 219.016 253.753 221.117C255.256 222.548 256.56 224.174 257.631 225.951C257.919 226.437 258.183 226.938 258.42 227.451C258.512 227.638 258.574 227.839 258.601 228.046Z" fill="#E0E0E0"/>
<path d="M240.687 279.66L245.754 272.564C245.754 272.564 253.51 274.102 255.681 272.086C257.853 270.069 271.813 254.945 275.071 254.997C275.473 254.987 275.872 255.08 276.229 255.266C276.586 255.452 276.89 255.726 277.112 256.062C277.334 256.398 277.468 256.785 277.499 257.186C277.531 257.588 277.461 257.991 277.294 258.358C276.493 260.025 263.476 274.27 263.153 275.433C262.83 276.597 262.364 277.954 264.445 277.618C266.526 277.282 287.299 262.869 287.946 262.869C288.592 262.869 290.802 264.381 289.367 267.393L286.989 270.25C287.672 271.311 288.075 272.529 288.159 273.788C288.242 275.048 288.004 276.308 287.467 277.45C287.467 277.45 290.053 279.79 287.467 284.818C284.882 289.846 272.537 298.21 272.537 298.21L258.409 300.795L236.369 300.162C236.369 300.162 240.57 280.552 240.687 279.66Z" fill="#FFBE9D"/>
<path d="M287.015 270.509C286.366 271.457 285.607 272.325 284.753 273.094C282.775 274.996 280.639 276.726 278.367 278.265C276.097 279.799 273.691 281.123 271.18 282.22C270.166 282.736 269.088 283.114 267.974 283.345C268.936 282.757 269.938 282.239 270.973 281.794C273.396 280.58 275.74 279.216 277.992 277.709C280.241 276.185 282.399 274.532 284.455 272.758C285.245 271.939 286.101 271.187 287.015 270.509Z" fill="#EB996E"/>
<path d="M287.416 277.748C286.914 278.482 286.304 279.135 285.606 279.687C284.024 281.122 282.339 282.44 280.565 283.629C278.793 284.817 276.935 285.871 275.006 286.783C274.231 287.22 273.395 287.539 272.525 287.727C272.434 287.546 276.092 285.827 280.19 283.06C284.288 280.294 287.274 277.605 287.416 277.748Z" fill="#EB996E"/>
<path d="M357.424 286.525C329.245 279.738 308.304 296.426 298.467 306.768C296.558 308.766 294.118 310.178 291.435 310.837C288.751 311.497 285.935 311.376 283.317 310.49C276.761 308.337 270.357 305.746 264.147 302.735L199.877 270.703C188.644 265.106 177.153 259.418 164.717 257.777C143.441 254.984 122.06 264.589 105.902 278.73C89.7443 292.872 78.0071 311.15 66.5026 329.247L67.0455 328.381C44.1658 345.107 25.9137 353.859 2.72369 371.128C1.95372 371.671 1.31179 372.376 0.842882 373.193C0.37397 374.011 0.0894122 374.921 0.00914235 375.859C-0.262312 380.784 5.5675 382.064 10.0013 382.167L94.1651 384.274C101.21 384.442 108.85 384.442 114.498 380.215C120.703 375.575 122.655 367.082 122.603 359.339C122.513 345.12 117.187 331.405 114.977 317.316C112.766 303.226 114.485 286.951 125.421 277.787C133.991 270.6 146.414 269.578 157.233 272.37C168.053 275.163 177.657 281.303 187.054 287.326L269.874 340.506C272.808 342.393 275.898 344.319 279.375 344.603C283.472 344.952 287.376 342.923 290.84 340.725C297.691 336.343 304.633 329.505 312.014 322.551L357.424 286.525Z" fill="#455A64"/>
<path d="M315.168 313.361C315.168 313.361 314.961 313.516 314.547 313.774L312.699 314.964C310.256 316.381 307.7 317.596 305.059 318.596C300.887 320.166 296.551 321.259 292.133 321.853C286.255 322.608 280.307 322.635 274.423 321.931C267.299 321.041 260.31 319.283 253.612 316.696C245.937 313.745 238.529 310.143 231.469 305.928C223.972 301.546 216.397 296.466 208.589 291.192C200.782 285.918 192.677 280.45 184.029 275.512C175.381 270.574 166.41 266.464 157.168 264.68C152.652 263.781 148.021 263.62 143.453 264.202C139.08 264.79 134.849 266.165 130.966 268.261C123.365 272.371 117.549 278.421 112.714 284.354C107.88 290.287 104.04 296.414 100.356 301.843C97.1131 306.786 93.5824 311.534 89.7826 316.062C86.8973 319.473 83.6656 322.575 80.1395 325.318C77.8932 327.03 75.4963 328.536 72.9782 329.816L70.9746 330.708C70.5222 330.915 70.2896 330.992 70.2896 330.992L70.9488 330.643L72.9265 329.687C75.4038 328.365 77.761 326.83 79.9714 325.098C83.4573 322.34 86.6498 319.229 89.4982 315.817C93.26 311.283 96.756 306.536 99.9686 301.598C103.614 296.169 107.44 290.054 112.287 284.031C117.135 278.007 122.965 271.932 130.669 267.731C134.616 265.596 138.916 264.19 143.363 263.581C147.999 262.993 152.699 263.154 157.284 264.059C166.643 265.83 175.679 269.993 184.365 274.956C193.052 279.92 201.169 285.401 208.99 290.675C216.81 295.949 224.347 301.016 231.818 305.411C238.826 309.621 246.177 313.232 253.793 316.205C260.448 318.792 267.393 320.563 274.475 321.479C280.322 322.197 286.234 322.197 292.081 321.479C296.492 320.911 300.828 319.858 305.007 318.337C307.647 317.376 310.206 316.204 312.66 314.834L314.547 313.71L315.168 313.361Z" fill="#263238"/>
<path d="M337.155 295.121C336.741 295.686 336.287 296.222 335.798 296.724C335.265 297.343 334.695 297.93 334.092 298.482C333.394 299.128 332.631 299.917 331.688 300.666C330.744 301.416 329.749 302.295 328.585 303.11C327.422 303.924 326.168 304.764 324.824 305.63C318.894 309.246 312.339 311.719 305.499 312.921C303.922 313.153 302.422 313.412 301 313.502C299.578 313.593 298.273 313.696 297.122 313.722C295.972 313.748 294.821 313.722 293.865 313.722C293.048 313.701 292.232 313.637 291.422 313.528C290.724 313.488 290.032 313.384 289.354 313.218C290.05 313.156 290.751 313.156 291.448 313.218C292.107 313.218 292.921 313.309 293.878 313.296C294.834 313.283 295.907 313.296 297.109 313.296C298.312 313.296 299.604 313.179 300.987 312.998C302.37 312.817 303.87 312.611 305.421 312.365C308.784 311.702 312.091 310.777 315.31 309.599C318.5 308.366 321.587 306.879 324.539 305.152C325.832 304.312 327.125 303.549 328.301 302.709C329.477 301.869 330.485 301.106 331.416 300.356C332.347 299.607 333.161 298.883 333.872 298.249C334.583 297.616 335.165 297.06 335.656 296.582C336.116 296.056 336.618 295.567 337.155 295.121Z" fill="#263238"/>
<path d="M82.4649 322.757C82.4649 322.835 81.8702 322.938 80.9266 322.757C79.6876 322.541 78.5162 322.038 77.5062 321.288C76.4962 320.538 75.6756 319.563 75.1097 318.44C74.709 317.574 74.6315 316.979 74.709 316.953C75.5503 318.388 76.63 319.669 77.9018 320.741C79.3019 321.659 80.8435 322.34 82.4649 322.757Z" fill="#FAFAFA"/>
<path d="M114.33 319.952C114.33 320.043 113.037 319.306 111.008 318.363C108.333 317.146 105.514 316.277 102.619 315.777C99.7152 315.29 96.7622 315.168 93.8286 315.415C91.5794 315.622 90.1963 315.919 90.1704 315.803C90.4654 315.645 90.7841 315.536 91.114 315.48C91.9877 315.239 92.8776 315.062 93.7769 314.95C99.7592 314.152 105.843 315.198 111.215 317.949C112.026 318.355 112.807 318.817 113.554 319.332C114.097 319.694 114.33 319.914 114.33 319.952Z" fill="#FAFAFA"/>
<path d="M107.792 288.968C107.792 289.059 107.236 289.188 106.319 289.149C105.113 289.056 103.941 288.708 102.88 288.128C101.818 287.545 100.896 286.738 100.179 285.762C99.6357 285.013 99.4547 284.47 99.5323 284.47C100.611 285.664 101.846 286.707 103.203 287.572C104.663 288.243 106.207 288.712 107.792 288.968Z" fill="#FAFAFA"/>
<path d="M121.764 280.54C120.825 280.094 119.852 279.723 118.855 279.429C117.823 279.342 116.785 279.342 115.753 279.429C116.199 279.067 116.727 278.821 117.29 278.71C117.853 278.6 118.435 278.629 118.985 278.795C120.898 279.118 121.919 280.45 121.764 280.54Z" fill="#FAFAFA"/>
<path d="M148.329 270.987C148.122 270.987 148.083 269.306 147.346 267.432C146.61 265.558 145.524 264.278 145.666 264.136C146.7 264.92 147.496 265.975 147.966 267.185C148.436 268.394 148.562 269.71 148.329 270.987Z" fill="#FAFAFA"/>
<path d="M173.702 268.041C173.637 268.041 173.314 267.782 173.016 267.123C172.65 266.259 172.529 265.311 172.667 264.382C172.792 263.43 173.187 262.533 173.805 261.797C174.283 261.267 174.684 261.073 174.736 261.138C174.08 262.146 173.608 263.262 173.34 264.434C173.26 265.648 173.382 266.867 173.702 268.041Z" fill="#FAFAFA"/>
<path d="M182.995 284.431C182.802 284.366 183.357 282.285 183.422 279.661C183.487 277.037 183.06 274.917 183.254 274.865C183.951 276.367 184.241 278.025 184.094 279.674C184.157 281.329 183.778 282.971 182.995 284.431Z" fill="#FAFAFA"/>
<path d="M210.479 291.45C209.601 289.064 209.413 286.479 209.936 283.991C210.231 281.469 211.24 279.083 212.845 277.114C211.853 279.36 211.099 281.704 210.595 284.107C210.308 286.545 210.269 289.005 210.479 291.45Z" fill="#FAFAFA"/>
<path d="M226.932 303.29C227.29 304.62 227.329 306.015 227.046 307.363C226.763 308.711 226.166 309.972 225.303 311.046C225.135 310.942 225.95 309.365 226.389 307.246C226.829 305.126 226.79 303.316 226.932 303.29Z" fill="#FAFAFA"/>
<path d="M247.898 295.87C247.898 295.961 247.032 296.542 245.894 297.822C244.397 299.476 243.394 301.517 242.999 303.713C242.603 305.909 242.832 308.172 243.658 310.244C244.291 311.847 244.95 312.713 244.86 312.83C244.13 312.192 243.571 311.384 243.231 310.477C242.235 308.346 241.924 305.959 242.341 303.644C242.757 301.329 243.881 299.2 245.558 297.551C246.187 296.805 246.991 296.228 247.898 295.87Z" fill="#FAFAFA"/>
<path d="M269.924 340.272C270.362 336.864 270.249 333.407 269.588 330.034C268.706 326.707 267.287 323.546 265.387 320.676C266.176 321.343 266.841 322.144 267.352 323.041C268.709 325.134 269.689 327.448 270.248 329.879C270.803 332.307 270.939 334.813 270.648 337.286C270.576 338.315 270.332 339.325 269.924 340.272Z" fill="#FAFAFA"/>
<path d="M302.862 329.647C302.654 327.899 302.309 326.17 301.828 324.477C301.138 322.844 300.316 321.271 299.372 319.771C300.871 320.876 301.959 322.45 302.461 324.244C303.177 325.954 303.318 327.85 302.862 329.647Z" fill="#FAFAFA"/>
<path d="M288.925 320.922C288.297 320.919 287.684 320.74 287.154 320.405C285.807 319.71 284.666 318.673 283.847 317.398C283.028 316.122 282.559 314.654 282.487 313.14C282.404 312.515 282.498 311.879 282.759 311.305C282.878 311.896 282.943 312.498 282.953 313.101C283.162 314.482 283.659 315.804 284.413 316.979C285.177 318.17 286.192 319.181 287.386 319.94C288.304 320.573 288.963 320.806 288.925 320.922Z" fill="#FAFAFA"/>
<path d="M309.077 315.945C308.896 315.945 308.831 315.169 308.508 314.342C308.185 313.515 307.745 312.92 307.875 312.778C308.004 312.636 308.754 313.101 309.167 314.071C309.581 315.04 309.258 315.945 309.077 315.945Z" fill="#FAFAFA"/>
<path d="M327.175 309.753C327.007 309.831 326.451 308.939 325.546 308.034C324.641 307.129 323.749 306.561 323.84 306.38C323.93 306.199 325.029 306.548 326.024 307.556C327.02 308.564 327.343 309.702 327.175 309.753Z" fill="#FAFAFA"/>
<path d="M317.392 306.896C315.458 306.074 313.858 304.62 312.855 302.773C311.663 301.044 311.097 298.96 311.252 296.865C311.755 298.797 312.484 300.663 313.424 302.424C314.562 304.069 315.894 305.57 317.392 306.896Z" fill="#FAFAFA"/>
<path d="M333.444 296.219C331.879 295.736 330.516 294.75 329.566 293.414C328.452 292.236 327.745 290.732 327.55 289.123C327.744 289.058 328.455 291.036 330.135 293.001C331.816 294.965 333.548 296.051 333.444 296.219Z" fill="#FAFAFA"/>
<path d="M347.651 293.971C347.496 294.087 346.061 292.225 343.915 290.338C341.769 288.451 339.753 287.223 339.843 287.042C341.545 287.605 343.091 288.562 344.355 289.834C345.765 290.933 346.894 292.351 347.651 293.971Z" fill="#FAFAFA"/>
<path d="M116.787 356.405C116.069 356.511 115.342 356.559 114.616 356.547C113.931 356.547 113.078 356.547 112.031 356.547C110.983 356.547 109.911 356.547 108.67 356.366C107.429 356.185 106.084 356.134 104.624 355.901C103.163 355.668 101.625 355.371 100.009 355.048C93.018 353.458 86.3363 350.728 80.2315 346.969C78.8484 346.077 77.5041 345.262 76.3536 344.383C75.2032 343.504 74.0786 342.69 73.1091 341.902C72.1396 341.113 71.3123 340.35 70.5238 339.691C69.8861 339.133 69.2777 338.542 68.7012 337.92C68.168 337.434 67.6832 336.897 67.2534 336.317C67.8281 336.754 68.3723 337.229 68.8821 337.739C69.3863 338.218 70.0067 338.786 70.7694 339.407C71.5321 340.027 72.3594 340.79 73.3547 341.527C74.35 342.264 75.41 343.117 76.6251 343.931C77.8402 344.745 79.1328 345.586 80.503 346.516C83.5594 348.318 86.7385 349.903 90.0168 351.26C93.3138 352.577 96.7005 353.657 100.151 354.492C101.754 354.828 103.266 355.19 104.701 355.397C106.136 355.604 107.48 355.81 108.721 355.953C109.962 356.095 111.061 356.146 112.043 356.224C113.026 356.302 113.879 356.34 114.629 356.34C115.349 356.301 116.071 356.323 116.787 356.405Z" fill="#FAFAFA"/>
<path d="M56.2897 383.266C55.8287 383.025 55.3953 382.735 54.997 382.4C54.476 382.051 53.9794 381.666 53.5105 381.25C52.859 380.734 52.2376 380.182 51.6491 379.595C50.086 378.1 48.6585 376.469 47.3834 374.722C44.2327 370.436 41.9975 365.547 40.8168 360.36C40.3283 358.236 40.0255 356.074 39.9119 353.897C39.8344 352.98 39.9119 352.139 39.9119 351.415C39.9013 350.789 39.9359 350.163 40.0153 349.541C40.0235 349.004 40.0973 348.47 40.2351 347.951C40.3643 347.951 40.1317 350.239 40.416 353.871C40.5944 355.997 40.9358 358.106 41.4372 360.18C42.0866 362.709 42.9515 365.179 44.0225 367.561C45.1149 369.923 46.4125 372.185 47.9004 374.321C49.1089 376.082 50.4576 377.742 51.9335 379.285C54.4929 381.87 56.3672 383.163 56.2897 383.266Z" fill="#FAFAFA"/>
<path d="M330.276 156.099C331.253 134.662 308.147 66.3911 299.897 54.2917C302.112 58.1695 277.835 18.1679 246.248 23.2662C214.662 28.3644 186.41 70.357 181.615 89.8387C177.78 105.424 155.811 166.938 162.878 180.274L199.712 197.774L261.545 211.016C265.148 197.572 329.299 177.536 330.276 156.099Z" fill="#201400"/>
<path fill-rule="evenodd" clip-rule="evenodd" d="M285.788 101.004C282.776 115.328 278.906 129.938 277.523 132.205C275.17 136.064 258.881 157.212 238.888 148.822C218.895 140.431 212.995 128.961 211.417 110.626C210.815 103.63 211.408 96.6873 212.425 90.7544C212.663 87.2501 213.419 84.0356 214.623 81.1213C215.22 79.0607 215.805 77.3652 216.295 76.1392L217.214 76.2668C223.521 66.8279 235.348 61.5692 249.066 61.0144C270.023 60.1668 287.247 65.2028 288.134 86.1207L288.558 86.1797C288.433 86.9771 288.3 87.7944 288.159 88.6283C288.061 92.9618 287.232 97.1283 285.788 101.004Z" fill="#FFBE9D"/>
</svg>
