<svg width="799" height="425" viewBox="0 0 799 425" fill="none" xmlns="http://www.w3.org/2000/svg">
<path d="M790.205 394.294C787.183 401.751 783.463 408.906 779.094 415.663C777.045 418.885 774.797 421.976 772.364 424.919C772.322 424.977 772.25 425 772.179 425H19.9405C19.8973 425 19.8783 424.946 19.912 424.919C20.5891 424.391 24.5635 421.174 30.7453 415.663C35.1802 411.716 40.7459 406.583 46.9954 400.408C98.1085 350.135 -51.9201 271.837 19.8105 112.106C90.556 -45.4311 231.253 8.6506 235.104 10.1655C235.225 10.2132 235.241 10.2191 235.363 10.2653C260.345 19.7459 305.858 34.2228 365.11 40.8694C367.06 41.0861 369.024 41.3027 371.014 41.4991C402.459 44.7008 434.117 45.2761 465.657 43.2189C466.585 43.1647 467.519 43.097 468.46 43.0293C499.662 40.8384 530.627 36.0483 561.032 28.709C563.002 28.2282 564.945 27.7746 566.882 27.3209C668.194 3.88026 761.591 83.7694 738.239 174.052C729.606 207.446 731.8 243.04 760.583 271.837C807.708 318.84 802 365.132 790.205 394.294Z" fill="url(#paint0_linear)"/>
<path d="M790.205 394.294C787.183 401.751 783.462 408.906 779.094 415.663C777.044 418.885 774.797 421.976 772.363 424.918H19.9121C20.5892 424.39 24.5637 421.174 30.7455 415.663C35.1804 411.715 40.746 406.583 46.9955 400.408L126.302 384.022C127.327 383.811 128.371 383.704 129.417 383.704L213.965 383.582H214.053L255.93 383.528H256.025L291.369 383.487H314.505H338.203L435.31 383.352H435.466H442.989H456.205H472.706H477.093L493.77 383.162H499.281L547.788 383.095H563.279H570.727L626.756 383.02H643.44L696.51 382.946L741.305 382.892C742.553 382.892 743.796 383.04 745.009 383.332L790.205 394.294Z" fill="#201400"/>
<path opacity="0.4" d="M30.7455 415.662H779.094C777.045 418.884 774.797 421.975 772.363 424.918H19.9121C20.5757 424.356 24.5501 421.14 30.7455 415.662Z" fill="black"/>
<path opacity="0.1" d="M514.762 203.384V205.382L446.809 218.436C427.072 222.227 407.051 226.039 387.002 224.584C372.479 223.527 358.91 219.221 344.955 215.443C337.067 213.303 328.705 212.45 326.031 203.621C322.341 191.434 328.347 173.389 329.762 161.039C331.116 148.919 351.963 104.672 349.553 92.6943L474.136 98.111C474.976 104.726 507.903 137.93 505.851 144.275C501.531 157.661 490.955 171.202 496.372 184.182C499.825 192.436 508.627 196.844 514.762 203.384Z" fill="black"/>
<path d="M387.47 169.881C388.208 174.072 388.6 178.683 386.461 182.339C383.61 187.241 377.395 188.805 371.836 189.916L352.539 193.775C351.225 194.039 349.831 194.337 348.849 195.238C347.691 196.274 347.298 197.912 347.129 199.456C346.35 206.443 348.822 213.329 351.076 219.985C355.633 233.466 359.459 247.231 365.221 260.238C370.983 273.245 378.891 285.662 390.178 294.356C401.465 303.05 416.402 307.681 430.221 304.282C442.259 301.323 452.131 292.826 460.642 283.814C467.664 276.366 474.231 268.241 477.637 258.579C479.987 251.944 480.752 244.875 481.49 237.874C482.632 227.14 483.774 216.406 484.916 205.672C485.451 200.634 485.803 194.967 482.532 191.101C481.097 189.401 479.147 188.27 477.156 187.221C469.749 183.287 461.949 180.037 455.056 175.298C448.164 170.558 442.049 164.031 439.957 155.933C438.705 151.071 438.928 145.777 436.795 141.247C434.412 136.169 429.347 132.729 423.931 131.219C418.514 129.709 412.799 129.913 407.22 130.542C401.641 131.172 380.137 132.783 377.828 139.074C376.589 142.459 381.728 149.724 382.947 153.055C384.953 158.518 386.467 164.149 387.47 169.881Z" fill="#FFBE9D"/>
<path opacity="0.1" d="M387.47 169.881C388.208 174.072 388.6 178.683 386.461 182.339C383.61 187.241 377.395 188.805 371.836 189.916L352.539 193.775C351.225 194.039 349.831 194.337 348.849 195.238C347.691 196.274 347.298 197.912 347.129 199.456C346.35 206.443 348.822 213.329 351.076 219.985C355.633 233.466 359.459 247.231 365.221 260.238C370.983 273.245 378.891 285.662 390.178 294.356C401.465 303.05 416.402 307.681 430.221 304.282C442.259 301.323 452.131 292.826 460.642 283.814C467.664 276.366 474.231 268.241 477.637 258.579C479.987 251.944 480.752 244.875 481.49 237.874C482.632 227.14 483.774 216.406 484.916 205.672C485.451 200.634 485.803 194.967 482.532 191.101C481.097 189.401 479.147 188.27 477.156 187.221C469.749 183.287 461.949 180.037 455.056 175.298C448.164 170.558 442.049 164.031 439.957 155.933C438.705 151.071 438.928 145.777 436.795 141.247C434.412 136.169 429.347 132.729 423.931 131.219C418.514 129.709 412.799 129.913 407.22 130.542C401.641 131.172 380.137 132.783 377.828 139.074C376.589 142.459 381.728 149.724 382.947 153.055C384.953 158.518 386.467 164.149 387.47 169.881Z" fill="black"/>
<path d="M433.911 243.506L445.225 219.551C450.527 208.325 455.944 196.53 455.382 184.133C455.273 181.668 455.246 178.587 457.413 177.47C458.353 177.086 459.378 176.955 460.385 177.091C472.296 177.7 484.051 180.078 495.262 184.146C497.435 184.932 499.663 185.839 501.186 187.572C502.71 189.306 503.326 191.635 503.847 193.869C505.623 201.424 506.919 209.084 507.727 216.802C509.758 235.909 508.749 255.186 507.727 274.354L504.721 332.875C504.737 333.705 504.568 334.528 504.226 335.285C503.482 336.639 501.803 337.093 500.293 337.35C494.476 338.346 488.532 338.143 482.641 337.919C441.203 336.348 399.549 333.938 358.382 338.962C358.567 332.873 358.47 326.779 358.091 320.681C356.459 294.349 349.634 268.66 342.931 243.148C339.025 228.252 335.24 212.002 341.53 197.966C342.455 195.749 343.784 193.724 345.45 191.994C348.125 189.373 351.774 187.992 355.39 187.004C361.626 185.307 368.086 184.576 374.544 184.837L417.235 277.78C419.185 282.033 420.789 286.508 422.733 290.706C424.479 283.454 422.38 274.957 424.479 267.096C426.741 258.937 430.302 251.13 433.911 243.506Z" fill="#201400"/>
<path d="M429.448 307.458C437.086 307.939 444.506 304.025 449.761 298.494C455.015 292.962 458.481 285.947 461.413 278.858C465.628 268.753 468.978 258.309 471.427 247.638C473.459 238.565 474.901 229.174 473.499 219.979C471.563 207.283 464.379 195.746 463.153 182.963C462.943 180.728 463.079 178.115 464.873 176.767C465.984 175.934 467.446 175.819 468.827 175.738C481.597 174.98 495.626 175.122 505.518 183.227C508.532 185.691 510.976 188.772 513.921 191.311C520.936 197.405 530.848 200.506 535.351 208.597C536.922 211.414 537.673 214.603 538.77 217.636C541.357 224.813 545.832 231.124 550.281 237.332C545.968 255.533 541.011 273.746 536.698 291.946C534.173 302.624 531.627 313.342 527.659 323.566C525.059 330.269 521.789 337.108 522.588 344.285C522.906 347.108 523.847 349.81 524.666 352.532C527.538 362.085 528.884 372.032 528.655 382.005L335.455 382.479C344.711 369.208 347.426 352.931 346.485 336.783C346.031 329.044 344.284 321.257 340.391 314.561C334.257 304.066 323.464 297.227 312.827 291.371C305.379 287.308 297.383 310.166 289.332 307.546C290.632 298.351 291.228 262.859 290.686 253.603C290.51 250.569 290.239 247.455 291.174 244.557C291.81 242.573 292.982 240.799 293.774 238.869C296.949 231.144 293.923 221.265 299.055 214.691C302.603 210.12 308.825 208.82 313.883 206.004C319.076 203.106 323.091 198.556 327.614 194.669C336.489 187.133 347.333 182.292 358.869 180.715C362.234 186.022 364.279 192.059 364.834 198.319C365.179 202.253 364.929 206.241 365.477 210.154C366.229 215.456 368.422 220.432 370.596 225.335C379.648 245.776 388.735 266.278 400.205 285.473C403.448 290.89 406.976 296.307 411.675 300.525C416.373 304.743 423.138 307.756 429.448 307.458Z" fill="#201400"/>
<g opacity="0.1">
<path opacity="0.1" d="M349.403 173.51C349.43 171.601 349.43 169.673 349.403 167.728C349.2 150.239 348.983 132.587 345.015 115.552C344.129 112.236 343.437 108.872 342.944 105.477C342.804 106.643 342.743 107.817 342.761 108.991C342.842 113.283 344.04 117.461 345.015 121.645C348.963 138.579 349.207 156.123 349.403 173.51Z" fill="black"/>
<path opacity="0.1" d="M490.981 127.611C491.87 123.654 492.167 119.588 491.862 115.545C491.729 117.556 491.434 119.553 490.981 121.517C489.262 128.965 485.22 135.675 483.716 143.143C483.069 146.437 482.886 149.806 483.175 153.15C483.282 151.837 483.463 150.53 483.716 149.237C485.22 141.768 489.262 135.031 490.981 127.611Z" fill="black"/>
<path opacity="0.1" d="M468.286 111.178C468.616 110.216 468.795 109.208 468.814 108.192C468.814 105.612 467.622 103.195 466.437 100.906C459.192 86.877 450.187 71.8728 435.102 67.1196C430.972 65.8196 426.401 65.2915 423.036 62.5628C422.17 61.8171 421.462 60.9059 420.952 59.8827C420.443 58.8596 420.143 57.745 420.071 56.6045C412.731 70.0785 400.124 80.3837 386.46 87.6218C381.043 90.4994 375.173 93.1468 371.476 98.0489C368.003 102.653 366.994 108.645 367.596 114.441C367.938 110.721 369.278 107.163 371.476 104.143C375.173 99.2405 381.037 96.5931 386.46 93.7155C400.124 86.4775 412.731 76.1722 420.071 62.6983C420.143 63.8388 420.443 64.9534 420.952 65.9765C421.462 66.9997 422.17 67.9108 423.036 68.6566C426.422 71.3649 430.972 71.9134 435.102 73.2134C450.16 77.953 459.192 92.9707 466.437 107C467.172 108.337 467.79 109.735 468.286 111.178Z" fill="black"/>
<path opacity="0.1" d="M472.273 182.59C465.773 176.496 462.191 167.965 459.469 159.488C457.836 154.726 456.746 149.795 456.219 144.788C455.589 151.742 457.316 158.858 459.469 165.581C462.178 174.058 465.773 182.603 472.273 188.683C478.773 194.764 488.855 197.784 496.851 193.856C495.89 192.211 494.935 190.539 493.987 188.853C486.559 190.945 478.028 187.966 472.273 182.59Z" fill="black"/>
<path opacity="0.1" d="M388.776 181.554C387.469 192.002 381.077 204.643 370.671 208.773C363.446 211.637 353.161 208.346 345.314 206.525C344.638 208.426 343.865 210.29 342.998 212.111C351.042 213.709 362.708 218.022 370.671 214.867C381.077 210.737 387.469 198.095 388.776 187.648C389.045 185.034 389.095 182.402 388.925 179.78C388.884 180.369 388.823 180.965 388.776 181.554Z" fill="black"/>
</g>
<path d="M541.452 235.228C546.645 235.905 550.674 240.096 553.64 244.402C561.961 256.386 565.55 270.917 569.544 284.953C574.51 302.408 580.348 319.588 587.061 336.492C588.506 340.396 590.263 344.178 592.315 347.8C593.987 350.596 596.018 353.284 596.756 356.46C598.544 364.138 592.213 371.355 585.612 375.635C582.093 378.007 578.25 379.858 574.203 381.133C570.262 382.311 566.152 382.758 562.069 383.204L524.484 387.267C507.185 389.149 489.73 391.032 472.423 389.217C471.333 385.425 473.473 382.744 473.317 378.797C473.209 375.973 471.963 373.346 470.853 370.746C468.805 366.115 467.452 361.208 466.837 356.182C466.641 354.334 466.573 352.438 465.869 350.718C465.165 348.998 463.655 347.454 461.807 347.333C471.963 346.324 479.675 344.408 489.831 343.392C493.603 343.013 497.523 342.586 500.739 340.582C504.727 338.097 506.961 333.615 508.735 329.268C513.13 318.502 515.96 306.64 513.651 295.238C511.755 285.887 506.467 277.18 506.494 267.64C506.494 261.959 508.431 256.454 510.719 251.254C513.143 245.756 516.305 240.136 521.627 237.347C526.949 234.557 535.446 234.415 541.452 235.228Z" fill="#201400"/>
<path d="M193.682 353.086H201.882C206.371 353.086 210.676 354.869 213.851 358.044C217.025 361.218 218.809 365.524 218.809 370.013V395.14H176.755V370.013C176.755 367.79 177.193 365.589 178.043 363.535C178.894 361.482 180.141 359.616 181.713 358.044C183.285 356.472 185.151 355.225 187.204 354.374C189.258 353.524 191.459 353.086 193.682 353.086Z" fill="#201400"/>
<path opacity="0.1" d="M193.682 353.086H201.882C206.371 353.086 210.676 354.869 213.851 358.044C217.025 361.218 218.809 365.524 218.809 370.013V395.14H176.755V370.013C176.755 367.79 177.193 365.589 178.043 363.535C178.894 361.482 180.141 359.616 181.713 358.044C183.285 356.472 185.151 355.225 187.204 354.374C189.258 353.524 191.459 353.086 193.682 353.086Z" fill="black"/>
<path d="M196.099 362.335C197.957 362.335 199.464 360.828 199.464 358.97C199.464 357.111 197.957 355.604 196.099 355.604C194.24 355.604 192.733 357.111 192.733 358.97C192.733 360.828 194.24 362.335 196.099 362.335Z" fill="#201400"/>
<path d="M196.099 358.13C197.957 358.13 199.464 356.623 199.464 354.765C199.464 352.906 197.957 351.399 196.099 351.399C194.24 351.399 192.733 352.906 192.733 354.765C192.733 356.623 194.24 358.13 196.099 358.13Z" fill="#201400"/>
<path d="M196.099 353.926C197.957 353.926 199.464 352.419 199.464 350.56C199.464 348.702 197.957 347.195 196.099 347.195C194.24 347.195 192.733 348.702 192.733 350.56C192.733 352.419 194.24 353.926 196.099 353.926Z" fill="#201400"/>
<path d="M196.099 349.721C197.957 349.721 199.464 348.215 199.464 346.356C199.464 344.498 197.957 342.991 196.099 342.991C194.24 342.991 192.733 344.498 192.733 346.356C192.733 348.215 194.24 349.721 196.099 349.721Z" fill="#201400"/>
<path d="M196.099 345.516C197.957 345.516 199.464 344.01 199.464 342.151C199.464 340.293 197.957 338.786 196.099 338.786C194.24 338.786 192.733 340.293 192.733 342.151C192.733 344.01 194.24 345.516 196.099 345.516Z" fill="#201400"/>
<path d="M196.099 341.311C197.957 341.311 199.464 339.805 199.464 337.946C199.464 336.088 197.957 334.581 196.099 334.581C194.24 334.581 192.733 336.088 192.733 337.946C192.733 339.805 194.24 341.311 196.099 341.311Z" fill="#201400"/>
<path d="M196.099 337.1C197.957 337.1 199.464 335.594 199.464 333.735C199.464 331.877 197.957 330.37 196.099 330.37C194.24 330.37 192.733 331.877 192.733 333.735C192.733 335.594 194.24 337.1 196.099 337.1Z" fill="#201400"/>
<path d="M201.15 338.786C203.009 338.786 204.515 337.279 204.515 335.421C204.515 333.562 203.009 332.056 201.15 332.056C199.292 332.056 197.785 333.562 197.785 335.421C197.785 337.279 199.292 338.786 201.15 338.786Z" fill="#201400"/>
<path d="M204.516 337.1C206.375 337.1 207.882 335.594 207.882 333.735C207.882 331.877 206.375 330.37 204.516 330.37C202.658 330.37 201.151 331.877 201.151 333.735C201.151 335.594 202.658 337.1 204.516 337.1Z" fill="#201400"/>
<path d="M207.881 335.421C209.739 335.421 211.246 333.914 211.246 332.056C211.246 330.197 209.739 328.69 207.881 328.69C206.022 328.69 204.516 330.197 204.516 332.056C204.516 333.914 206.022 335.421 207.881 335.421Z" fill="#201400"/>
<path d="M196.099 332.895C197.957 332.895 199.464 331.389 199.464 329.53C199.464 327.672 197.957 326.165 196.099 326.165C194.24 326.165 192.733 327.672 192.733 329.53C192.733 331.389 194.24 332.895 196.099 332.895Z" fill="#201400"/>
<path d="M196.099 328.69C197.957 328.69 199.464 327.184 199.464 325.325C199.464 323.467 197.957 321.96 196.099 321.96C194.24 321.96 192.733 323.467 192.733 325.325C192.733 327.184 194.24 328.69 196.099 328.69Z" fill="#201400"/>
<path d="M196.099 324.486C197.957 324.486 199.464 322.979 199.464 321.121C199.464 319.262 197.957 317.756 196.099 317.756C194.24 317.756 192.733 319.262 192.733 321.121C192.733 322.979 194.24 324.486 196.099 324.486Z" fill="#201400"/>
<path d="M196.099 320.281C197.957 320.281 199.464 318.774 199.464 316.916C199.464 315.057 197.957 313.551 196.099 313.551C194.24 313.551 192.733 315.057 192.733 316.916C192.733 318.774 194.24 320.281 196.099 320.281Z" fill="#201400"/>
<path d="M210.074 306.062C209.234 306.184 208.395 306.272 207.555 306.326C208.336 305.645 209.06 304.902 209.722 304.105C209.256 302.691 208.57 301.359 207.691 300.158C206.857 300.626 205.934 300.917 204.982 301.011C204.149 301.133 203.31 301.221 202.47 301.282C203.574 300.381 204.603 299.027 205.686 297.896C203.259 295.696 200.15 294.397 196.879 294.217C193.608 294.037 190.374 294.986 187.72 296.906C185.066 298.825 183.151 301.599 182.298 304.762C181.446 307.925 181.705 311.285 183.035 314.279C184.364 317.273 186.682 319.719 189.6 321.208C192.518 322.697 195.859 323.137 199.063 322.456C202.267 321.775 205.14 320.013 207.2 317.466C209.26 314.919 210.382 311.741 210.379 308.466C210.379 307.642 210.306 306.819 210.162 306.008L210.074 306.062Z" fill="#8A611E"/>
<path d="M221.294 322.78C220.436 323.308 219.467 323.63 218.464 323.721C217.631 323.843 216.791 323.938 215.952 323.992C216.844 323.191 217.677 322.327 218.443 321.405C216.415 320.876 214.261 321.123 212.405 322.097C210.548 323.072 209.122 324.703 208.404 326.673C207.687 328.643 207.73 330.81 208.525 332.75C209.32 334.69 210.81 336.264 212.704 337.164C214.598 338.064 216.759 338.225 218.766 337.615C220.772 337.006 222.479 335.671 223.553 333.87C224.627 332.069 224.99 329.932 224.573 327.878C224.155 325.823 222.986 323.998 221.294 322.759V322.78Z" fill="#8A611E"/>
<path d="M191.055 338.786C192.913 338.786 194.42 337.279 194.42 335.421C194.42 333.562 192.913 332.056 191.055 332.056C189.196 332.056 187.689 333.562 187.689 335.421C187.689 337.279 189.196 338.786 191.055 338.786Z" fill="#201400"/>
<path d="M187.69 337.1C189.549 337.1 191.055 335.594 191.055 333.735C191.055 331.877 189.549 330.37 187.69 330.37C185.832 330.37 184.325 331.877 184.325 333.735C184.325 335.594 185.832 337.1 187.69 337.1Z" fill="#201400"/>
<path d="M184.324 335.421C186.183 335.421 187.689 333.914 187.689 332.056C187.689 330.197 186.183 328.69 184.324 328.69C182.466 328.69 180.959 330.197 180.959 332.056C180.959 333.914 182.466 335.421 184.324 335.421Z" fill="#201400"/>
<path d="M170.911 322.78C171.769 323.308 172.738 323.63 173.741 323.721C174.574 323.843 175.414 323.938 176.253 323.992C175.359 323.193 174.527 322.329 173.762 321.405C175.791 320.876 177.944 321.123 179.801 322.097C181.657 323.072 183.084 324.703 183.801 326.673C184.519 328.643 184.476 330.81 183.68 332.75C182.885 334.69 181.395 336.264 179.501 337.164C177.607 338.064 175.446 338.225 173.44 337.615C171.433 337.006 169.726 335.671 168.653 333.87C167.579 332.069 167.215 329.932 167.633 327.878C168.05 325.823 169.219 323.998 170.911 322.759V322.78Z" fill="#8A611E"/>
<path d="M193.682 355.578H201.881C206.371 355.578 210.676 357.362 213.851 360.536C217.025 363.71 218.808 368.016 218.808 372.505V394.761C218.808 395.522 218.506 396.253 217.968 396.791C217.429 397.329 216.699 397.632 215.938 397.632H179.605C178.844 397.632 178.114 397.329 177.575 396.791C177.037 396.253 176.734 395.522 176.734 394.761V372.505C176.734 370.281 177.173 368.078 178.025 366.023C178.877 363.968 180.125 362.101 181.699 360.529C183.273 358.957 185.142 357.71 187.198 356.861C189.254 356.011 191.457 355.575 193.682 355.578Z" fill="#8A611E"/>
<g opacity="0.1">
<path opacity="0.1" d="M210.304 306.983C209.963 307.347 209.602 307.691 209.221 308.013C209.607 308.013 209.986 307.952 210.372 307.911C210.358 307.6 210.338 307.288 210.304 306.983Z" fill="black"/>
<path opacity="0.1" d="M204.17 302.962C205.016 302.908 205.849 302.82 206.689 302.698C207.442 302.603 208.178 302.402 208.876 302.102C208.533 301.426 208.139 300.776 207.698 300.159C207.276 300.416 206.82 300.609 206.343 300.735C205.679 301.534 204.953 302.279 204.17 302.962Z" fill="black"/>
<path opacity="0.1" d="M183.485 310.186C183.48 307.619 184.167 305.098 185.475 302.889C186.782 300.68 188.661 298.864 190.914 297.633C193.166 296.402 195.709 295.801 198.274 295.894C200.84 295.987 203.333 296.77 205.49 298.161L205.707 297.931C204.299 296.678 202.657 295.716 200.875 295.1C199.093 294.485 197.208 294.228 195.326 294.345C193.445 294.461 191.605 294.949 189.913 295.78C188.222 296.611 186.711 297.768 185.468 299.185C184.225 300.603 183.276 302.252 182.673 304.038C182.071 305.824 181.828 307.712 181.958 309.592C182.088 311.472 182.59 313.308 183.433 314.994C184.276 316.68 185.444 318.182 186.87 319.415C184.681 316.839 183.48 313.567 183.485 310.186Z" fill="black"/>
</g>
<g opacity="0.1">
<path opacity="0.1" d="M215.951 325.671C216.791 325.617 217.63 325.529 218.463 325.407C219.467 325.314 220.436 324.989 221.293 324.459C222.244 325.159 223.037 326.052 223.62 327.078C224.203 328.105 224.564 329.243 224.679 330.418C224.712 330.123 224.727 329.827 224.726 329.531C224.733 328.216 224.429 326.917 223.841 325.741C223.253 324.565 222.397 323.544 221.341 322.76C220.483 323.288 219.514 323.61 218.511 323.701L217.833 323.789C217.256 324.464 216.626 325.093 215.951 325.671Z" fill="black"/>
<path opacity="0.1" d="M216.289 322.8C216.57 322.803 216.851 322.824 217.129 322.861C217.569 322.394 218.002 321.893 218.442 321.405C217.198 321.073 215.893 321.031 214.63 321.284C213.366 321.537 212.178 322.077 211.157 322.862C210.135 323.648 209.309 324.658 208.741 325.814C208.172 326.971 207.878 328.242 207.88 329.53C207.88 329.815 207.88 330.093 207.921 330.37C208.129 328.295 209.1 326.372 210.647 324.973C212.193 323.574 214.204 322.8 216.289 322.8Z" fill="black"/>
</g>
<g opacity="0.1">
<path opacity="0.1" d="M176.254 325.671C175.414 325.617 174.574 325.529 173.742 325.407C172.738 325.314 171.769 324.989 170.911 324.459C169.961 325.159 169.168 326.052 168.585 327.078C168.002 328.105 167.641 329.243 167.526 330.418C167.493 330.123 167.477 329.827 167.479 329.531C167.472 328.216 167.775 326.917 168.363 325.741C168.952 324.565 169.808 323.544 170.864 322.76C171.722 323.288 172.691 323.61 173.694 323.701L174.371 323.789C174.945 324.467 175.575 325.097 176.254 325.671Z" fill="black"/>
<path opacity="0.1" d="M175.915 322.8C175.632 322.804 175.349 322.824 175.068 322.861C174.635 322.394 174.202 321.893 173.762 321.405C175.006 321.073 176.311 321.031 177.574 321.284C178.838 321.537 180.026 322.077 181.047 322.862C182.069 323.648 182.895 324.658 183.464 325.814C184.032 326.971 184.326 328.242 184.324 329.53C184.324 329.815 184.324 330.093 184.284 330.37C184.075 328.295 183.104 326.372 181.557 324.973C180.011 323.574 178 322.8 175.915 322.8Z" fill="black"/>
</g>
<path d="M153.096 405.771H86.9447C86.1994 405.771 85.4847 405.475 84.9578 404.948C84.4308 404.421 84.1348 403.706 84.1348 402.961V371.652C84.1346 371.178 84.2545 370.712 84.4832 370.296C84.7119 369.881 85.0421 369.53 85.4428 369.277C85.8436 369.023 86.302 368.875 86.7753 368.847C87.2487 368.818 87.7215 368.91 88.1499 369.113C107.156 378.132 127.631 381.226 151.796 369.256C152.224 369.044 152.699 368.945 153.176 368.968C153.653 368.991 154.117 369.135 154.523 369.386C154.929 369.637 155.265 369.988 155.499 370.404C155.732 370.821 155.856 371.29 155.858 371.768V402.913C155.865 403.282 155.798 403.649 155.663 403.992C155.527 404.336 155.326 404.649 155.069 404.914C154.812 405.18 154.506 405.392 154.168 405.539C153.829 405.686 153.465 405.765 153.096 405.771Z" fill="#8A611E"/>
<path opacity="0.1" d="M153.096 405.771H86.9447C86.1994 405.771 85.4847 405.475 84.9578 404.948C84.4308 404.421 84.1348 403.706 84.1348 402.961V371.652C84.1346 371.178 84.2545 370.712 84.4832 370.296C84.7119 369.881 85.0421 369.53 85.4428 369.277C85.8436 369.023 86.302 368.875 86.7753 368.847C87.2487 368.818 87.7215 368.91 88.1499 369.113C107.156 378.132 127.631 381.226 151.796 369.256C152.224 369.044 152.699 368.945 153.176 368.968C153.653 368.991 154.117 369.135 154.523 369.386C154.929 369.637 155.265 369.988 155.499 370.404C155.732 370.821 155.856 371.29 155.858 371.768V402.913C155.865 403.282 155.798 403.649 155.663 403.992C155.527 404.336 155.326 404.649 155.069 404.914C154.812 405.18 154.506 405.392 154.168 405.539C153.829 405.686 153.465 405.765 153.096 405.771Z" fill="black"/>
<path d="M119.558 381.971C121.719 381.971 123.472 379.676 123.472 376.845C123.472 374.014 121.719 371.72 119.558 371.72C117.397 371.72 115.645 374.014 115.645 376.845C115.645 379.676 117.397 381.971 119.558 381.971Z" fill="#201400"/>
<path d="M119.558 375.708C121.719 375.708 123.472 373.413 123.472 370.583C123.472 367.752 121.719 365.457 119.558 365.457C117.397 365.457 115.645 367.752 115.645 370.583C115.645 373.413 117.397 375.708 119.558 375.708Z" fill="#201400"/>
<path d="M119.558 369.437C121.719 369.437 123.472 367.142 123.472 364.311C123.472 361.48 121.719 359.186 119.558 359.186C117.397 359.186 115.645 361.48 115.645 364.311C115.645 367.142 117.397 369.437 119.558 369.437Z" fill="#201400"/>
<path d="M119.558 363.175C121.719 363.175 123.472 360.88 123.472 358.049C123.472 355.219 121.719 352.924 119.558 352.924C117.397 352.924 115.645 355.219 115.645 358.049C115.645 360.88 117.397 363.175 119.558 363.175Z" fill="#201400"/>
<path d="M119.558 356.904C121.719 356.904 123.472 354.61 123.472 351.779C123.472 348.948 121.719 346.653 119.558 346.653C117.397 346.653 115.645 348.948 115.645 351.779C115.645 354.61 117.397 356.904 119.558 356.904Z" fill="#201400"/>
<path d="M119.558 350.635C121.719 350.635 123.472 348.34 123.472 345.509C123.472 342.679 121.719 340.384 119.558 340.384C117.397 340.384 115.645 342.679 115.645 345.509C115.645 348.34 117.397 350.635 119.558 350.635Z" fill="#201400"/>
<path d="M119.558 344.372C121.719 344.372 123.472 342.077 123.472 339.247C123.472 336.416 121.719 334.121 119.558 334.121C117.397 334.121 115.645 336.416 115.645 339.247C115.645 342.077 117.397 344.372 119.558 344.372Z" fill="#201400"/>
<path d="M134.238 296.36C134.77 295.677 135.256 294.96 135.694 294.214L125.402 292.521L136.534 292.602C137.608 290.275 138.193 287.753 138.255 285.191C138.317 282.63 137.853 280.082 136.892 277.706L121.963 285.452L135.735 275.296C134.445 273.066 132.71 271.125 130.638 269.595C128.565 268.065 126.2 266.977 123.689 266.401C121.179 265.825 118.576 265.772 116.044 266.245C113.512 266.719 111.104 267.709 108.971 269.153C106.838 270.598 105.026 272.467 103.646 274.642C102.267 276.818 101.351 279.254 100.954 281.8C100.558 284.345 100.689 286.945 101.342 289.437C101.994 291.929 103.152 294.261 104.744 296.286C103.908 297.343 103.19 298.49 102.605 299.705L115.957 306.719L101.738 301.912C100.742 304.867 100.496 308.024 101.025 311.097C101.553 314.17 102.838 317.064 104.765 319.516C102.588 322.284 101.234 325.608 100.857 329.109C100.481 332.61 101.097 336.146 102.635 339.313C104.173 342.48 106.572 345.15 109.556 347.019C112.541 348.887 115.991 349.878 119.512 349.878C123.033 349.878 126.483 348.887 129.467 347.019C132.451 345.15 134.85 342.48 136.388 339.313C137.927 336.146 138.543 332.61 138.166 329.109C137.789 325.608 136.435 322.284 134.259 319.516C136.859 316.21 138.273 312.125 138.273 307.918C138.273 303.711 136.859 299.626 134.259 296.319L134.238 296.36Z" fill="#8A611E"/>
<path opacity="0.1" d="M100.719 307.959C100.713 312.167 102.127 316.254 104.734 319.557C102.557 322.325 101.203 325.649 100.826 329.15C100.45 332.651 101.066 336.187 102.604 339.354C104.143 342.521 106.541 345.191 109.525 347.06C112.51 348.928 115.96 349.919 119.481 349.919C123.002 349.919 126.452 348.928 129.436 347.06C132.421 345.191 134.819 342.521 136.357 339.354C137.896 336.187 138.512 332.651 138.135 329.15C137.759 325.649 136.404 322.325 134.228 319.557C136.74 316.368 100.719 305.853 100.719 307.959Z" fill="black"/>
<path d="M153.096 407.43H86.9447C86.1994 407.43 85.4847 407.134 84.9578 406.607C84.4308 406.08 84.1348 405.365 84.1348 404.62V371.652C84.1346 371.178 84.2545 370.712 84.4832 370.296C84.7119 369.881 85.0421 369.53 85.4428 369.277C85.8436 369.023 86.302 368.875 86.7753 368.847C87.2487 368.818 87.7215 368.91 88.1499 369.113C107.156 378.132 122.228 388.647 151.796 369.256C153.55 368.105 155.858 369.675 155.858 371.768V404.606C155.862 405.346 155.574 406.057 155.057 406.585C154.54 407.114 153.835 407.417 153.096 407.43Z" fill="#8A611E"/>
<path d="M643.968 398.106L546.373 411.018L541.492 411.661L493.777 386.176V380.211L642.885 363.947L643.968 398.106Z" fill="#9C9CA1"/>
<path d="M521.429 388.883L627.156 376.418L626.072 395.938L543.718 401.978L521.429 388.883Z" fill="#939498"/>
<path opacity="0.4" d="M546.372 404.605V411.011L541.49 411.688L493.77 386.175V380.21L539.317 404.585C539.317 404.585 545.289 405.147 546.372 404.605Z" fill="black"/>
<path d="M549.55 202.968C542.384 170.207 484.283 66.2519 467.007 51.3219C459.968 44.9227 417.738 4.61084 372.308 25.0864C326.877 45.5619 323.038 112.749 323.678 144.102C324.19 169.184 307.682 269.513 323.678 286.789L437.573 308.546L501.56 277.192C501.56 255.436 556.716 235.729 549.55 202.968Z" fill="#8A611E"/>
<path d="M306.089 226.432C308.547 220.595 311.045 214.569 311.113 208.239C311.188 201.393 308.405 194.893 306.279 188.393C303.65 180.44 301.899 172.223 301.058 163.89C300.884 163.091 301.004 162.257 301.397 161.54C301.959 160.748 303.042 160.585 303.997 160.375C308.682 159.306 312.224 155.521 315.149 151.709C319.686 145.822 323.518 139.422 326.564 132.642C328.805 127.652 331.839 121.565 337.31 121.518C335.107 131.863 332.377 142.089 329.13 152.156C334.852 150.693 340.289 148.567 346.01 147.105C347.13 146.751 348.303 146.595 349.477 146.644C352.903 147.003 355.002 151.641 353.011 154.451C355.808 157.728 360.459 158.608 364.115 160.856C367.772 163.104 370.399 168.67 367.149 171.493C366.512 172.042 365.707 172.428 365.246 173.132C363.675 175.556 367.521 178.339 367.203 181.209C366.946 183.559 363.933 184.656 361.651 184.033C359.369 183.41 357.588 181.704 355.557 180.451C353.526 179.198 350.872 178.42 348.901 179.72C348.373 186.091 347.804 192.584 345.049 198.387C344.04 200.506 342.747 202.49 341.934 204.691C341.157 207.09 340.675 209.575 340.499 212.091L338.041 234.564C326.314 236.913 315.799 233.399 306.089 226.432Z" fill="#FFBE9D"/>
<path d="M303.226 246.575L301.066 231.957C300.86 230.767 300.744 229.563 300.721 228.355C300.721 224.97 302.21 221.74 303.652 218.659C315.603 224.238 328.522 226.222 341.705 226.229C343.445 226.229 345.429 226.066 346.512 224.706C348.753 227.285 348.821 231.436 347.866 234.713C346.911 237.99 345.077 240.942 343.858 244.138C343.242 245.756 342.741 247.523 341.562 248.769C339.734 250.739 336.769 251.078 334.074 251.064C331.239 251.047 328.411 250.777 325.624 250.259C318.406 248.918 310.444 245.282 303.226 246.575Z" fill="white"/>
<path d="M347.797 245.98C338.521 244.924 329.305 243.434 320.151 241.511C315.662 240.57 311.133 239.521 306.555 239.704C303.576 239.826 300.374 240.421 297.753 238.945C300.306 247.632 300.462 256.787 297.408 265.311C295.6 270.389 292.844 275.122 291.517 280.349C288.755 291.284 292.547 303.207 289.093 313.946C288.728 315.349 288.01 316.636 287.008 317.684C285.952 318.652 284.51 319.153 283.535 320.202C282.099 321.746 282.011 324.068 282.004 326.174L281.943 344.828C281.903 356.704 282.058 369.298 288.328 379.359C295.478 390.87 310.53 396.835 323.632 393.334C327.115 392.443 330.378 390.846 333.219 388.642C337.769 385.026 340.667 379.799 343.504 374.708C346.889 368.614 350.275 362.385 351.365 355.526C352.137 350.671 351.703 345.715 351.148 340.833C348.088 313.75 341.446 286.896 342.874 259.712C343.088 254.742 344.805 249.954 347.797 245.98Z" fill="#201400"/>
<path d="M470.817 349.431C460.356 347.772 449.74 344.569 439.367 346.722C433.354 347.968 427.856 350.961 422.859 354.576C425.608 356.777 428.818 358.74 430.565 361.801C431.649 363.918 432.463 366.163 432.989 368.484C434.085 372.546 435.189 376.69 435.358 380.915C435.528 385.14 434.681 389.541 432.163 392.947C445.352 394.247 458.135 390.997 471 387.821C472.471 387.563 473.872 386.998 475.11 386.162C477.141 384.564 477.737 381.721 477.751 379.127C477.751 374.496 476.451 369.98 475.13 365.538C473.559 360.21 472.395 354.725 470.817 349.431Z" fill="white"/>
<path opacity="0.08" d="M541.451 235.228C546.644 235.905 550.673 240.096 553.639 244.402C561.96 256.386 565.549 270.917 569.543 284.953C574.509 302.408 580.347 319.588 587.06 336.492C588.505 340.396 590.262 344.178 592.314 347.8C593.986 350.596 596.017 353.284 596.755 356.46C598.543 364.138 592.212 371.355 585.611 375.635C582.092 378.007 578.249 379.858 574.202 381.133C570.261 382.311 566.151 382.758 562.068 383.204L524.483 387.267C507.184 389.149 489.729 391.032 472.422 389.217C471.332 385.425 473.472 382.744 473.316 378.797C473.208 375.973 471.962 373.346 470.852 370.746C468.804 366.115 467.451 361.208 466.836 356.182C466.64 354.334 466.572 352.438 465.868 350.718C465.164 348.998 463.654 347.454 461.806 347.333C471.962 346.324 479.674 344.408 489.83 343.392C493.602 343.013 497.522 342.586 500.738 340.582C504.726 338.097 506.96 333.615 508.734 329.268C513.129 318.502 515.959 306.64 513.65 295.238C511.754 285.887 506.466 277.18 506.493 267.64C506.493 261.959 508.43 256.454 510.718 251.254C513.142 245.756 516.304 240.136 521.626 237.347C526.948 234.557 535.445 234.415 541.451 235.228Z" fill="black"/>
<path d="M386.568 358.375C381.862 358.645 377.122 358.916 372.437 358.375C369.052 357.968 365.747 357.136 362.389 356.567C353.218 355.086 343.834 355.606 334.883 358.093C325.931 360.581 317.624 364.975 310.531 370.975C307.931 373.196 305.304 376.602 306.739 379.71C308.283 383.054 313.003 382.96 316.638 382.337C312.714 384.211 309.247 386.922 306.482 390.279C305.467 391.518 304.505 392.987 304.701 394.592C305.114 397.943 309.664 398.553 313.03 398.262C311.933 399.44 312.671 401.525 314.066 402.324C315.46 403.123 317.194 402.961 318.771 402.67C322.259 402.031 325.629 400.864 328.765 399.21C328.129 400.868 329.232 402.812 330.796 403.638C332.36 404.464 334.263 404.403 336.017 404.119C344.291 402.764 351.197 397.009 359.268 394.748C372.173 391.139 385.674 396.894 399.087 397.3C403.285 397.429 407.591 397.002 411.417 395.269C416.109 393.136 419.894 389.135 424.85 387.713C430.355 386.142 436.672 387.95 441.71 385.235C445.373 383.264 442.068 368.077 441.134 365.152C439.421 359.803 437.701 356.255 431.993 355.714C417.551 354.299 401.118 357.535 386.568 358.375Z" fill="#FFBE9D"/>
<path d="M422.595 354.231C422.595 354.231 444.458 372.735 431.844 392.926L456.219 384.51V366.845C456.219 366.005 446.963 353.391 446.963 353.391L436.028 351.705L422.595 354.231Z" fill="white"/>
<path fill-rule="evenodd" clip-rule="evenodd" d="M471.589 116.972C471.881 137.699 471.077 159.081 469.871 162.644C467.82 168.709 451.884 203.008 421.639 197.63C391.395 192.251 379.672 178.233 371.787 153.381C368.773 143.883 367.433 134.086 366.996 125.559C366.243 120.67 366.288 116.018 367.037 111.639C367.221 108.589 367.503 106.051 367.8 104.196L369.114 104.086C374.895 89.0775 389.607 78.1293 408.396 73.0947C437.098 65.4039 462.473 67.0063 470.206 95.6439L470.807 95.5937C470.881 96.7254 470.951 97.8866 471.015 99.0726C472.235 105.112 472.386 111.149 471.589 116.972Z" fill="#FFBE9D"/>
<path d="M565.111 302.942L543.2 404.539C542.98 405.556 543.007 406.611 543.28 407.615C543.552 408.62 544.063 409.544 544.768 410.309C545.473 411.075 546.352 411.66 547.331 412.014C548.31 412.368 549.359 412.482 550.391 412.345L689.011 393.996C690.218 393.837 691.356 393.341 692.295 392.565C693.234 391.789 693.935 390.765 694.319 389.609L724.226 299.421C724.556 298.42 724.639 297.354 724.465 296.315C724.292 295.275 723.869 294.294 723.232 293.454C722.595 292.614 721.763 291.942 720.809 291.496C719.854 291.049 718.806 290.841 717.753 290.89L571.151 297.85C569.724 297.918 568.36 298.453 567.269 299.373C566.177 300.294 565.419 301.548 565.111 302.942Z" fill="#8A611E"/>
<path d="M641.28 340.423C641.62 337.188 640.21 334.388 638.131 334.169C636.053 333.951 634.092 336.396 633.751 339.632C633.411 342.867 634.821 345.667 636.9 345.886C638.979 346.104 640.94 343.659 641.28 340.423Z" fill="white"/>
<defs>
<linearGradient id="paint0_linear" x1="409.131" y1="0.130545" x2="409.131" y2="424.998" gradientUnits="userSpaceOnUse">
<stop stop-color="#FFED4A"/>
<stop offset="1" stop-color="#F9A825"/>
</linearGradient>
</defs>
</svg>
