<svg width="624" height="333" viewBox="0 0 624 333" fill="none" xmlns="http://www.w3.org/2000/svg">
<path d="M617.483 308.11C615.121 313.937 612.214 319.528 608.8 324.808C607.199 327.325 605.443 329.741 603.541 332.04C603.508 332.085 603.452 332.104 603.397 332.104H15.5819C15.5482 332.104 15.5333 332.061 15.5596 332.04C16.0887 331.628 19.1944 329.114 24.025 324.808C27.4905 321.723 31.8397 317.713 36.7232 312.887C76.664 273.603 -40.5714 212.419 15.4803 87.602C70.5472 -35.0216 179.851 6.43325 183.675 7.92788C183.796 7.97527 183.835 7.9902 183.957 8.03637C203.487 15.4449 239.034 26.7458 285.305 31.9362C286.828 32.1055 288.363 32.2748 289.918 32.4283C314.49 34.9301 339.228 35.3797 363.874 33.7721C364.599 33.7298 365.329 33.6769 366.065 33.624C390.446 31.912 414.643 28.1689 438.402 22.4338C439.941 22.0581 441.46 21.7036 442.973 21.3491C522.141 3.03211 595.123 65.4592 576.875 136.008C570.129 162.102 571.843 189.917 594.335 212.419C631.159 249.148 626.699 285.322 617.483 308.11Z" fill="url(#paint0_linear)"/>
<path d="M6.44568 308.11C8.80707 313.937 11.7141 319.528 15.128 324.808C16.7292 327.326 18.4857 329.741 20.3872 332.041H608.368C607.839 331.628 604.733 329.115 599.903 324.808C596.437 321.723 592.088 317.713 587.205 312.888L525.233 300.084C524.432 299.919 523.616 299.835 522.799 299.835L456.731 299.74H456.663L423.939 299.698H423.865L396.246 299.666H378.167H359.649L283.767 299.56H283.646H277.767H267.44H254.546H251.117L238.086 299.412H233.779L195.875 299.359H183.77H177.95L134.168 299.301H121.131L79.6609 299.243L44.6565 299.2C43.6816 299.201 42.7101 299.316 41.7623 299.544L6.44568 308.11Z" fill="#201400"/>
<path opacity="0.4" d="M599.903 324.808H15.128C16.7292 327.325 18.4857 329.741 20.3872 332.04H608.368C607.85 331.601 604.744 329.088 599.903 324.808Z" fill="black"/>
<path opacity="0.1" d="M221.685 158.929V160.49L274.784 170.691C290.207 173.653 305.852 176.632 321.518 175.495C332.867 174.669 343.47 171.304 354.375 168.352C360.539 166.68 367.073 166.013 369.163 159.114C372.046 149.591 367.353 135.49 366.248 125.84C365.189 116.369 348.899 81.7932 350.782 72.4336L253.43 76.6663C252.774 81.8355 227.044 107.782 228.648 112.74C232.023 123.2 240.288 133.781 236.055 143.924C233.356 150.374 226.478 153.818 221.685 158.929Z" fill="black"/>
<path d="M321.153 132.748C320.577 136.023 320.27 139.626 321.942 142.483C324.169 146.314 329.026 147.536 333.37 148.404L348.449 151.42C349.476 151.626 350.565 151.859 351.333 152.562C352.237 153.372 352.544 154.652 352.677 155.859C353.285 161.319 351.354 166.7 349.592 171.901C346.031 182.435 343.042 193.191 338.539 203.355C334.037 213.519 327.857 223.222 319.037 230.016C310.217 236.809 298.545 240.428 287.747 237.772C278.34 235.46 270.626 228.82 263.975 221.778C258.488 215.958 253.356 209.609 250.695 202.059C248.859 196.874 248.261 191.35 247.684 185.879C246.792 177.491 245.899 169.103 245.007 160.716C244.589 156.779 244.314 152.351 246.869 149.33C247.991 148.002 249.515 147.118 251.07 146.298C256.859 143.224 262.954 140.684 268.34 136.981C273.726 133.277 278.504 128.177 280.139 121.849C281.117 118.05 280.943 113.912 282.609 110.373C284.472 106.405 288.429 103.717 292.662 102.537C296.895 101.357 301.36 101.516 305.72 102.008C310.08 102.5 326.883 103.759 328.688 108.675C329.656 111.32 325.64 116.997 324.688 119.6C323.12 123.869 321.937 128.269 321.153 132.748Z" fill="#FFBE9D"/>
<path opacity="0.1" d="M321.153 132.748C320.577 136.023 320.27 139.626 321.942 142.483C324.169 146.314 329.026 147.536 333.37 148.404L348.449 151.42C349.476 151.626 350.565 151.859 351.333 152.562C352.237 153.372 352.544 154.652 352.677 155.859C353.285 161.319 351.354 166.7 349.592 171.901C346.031 182.435 343.042 193.191 338.539 203.355C334.037 213.519 327.857 223.222 319.037 230.016C310.217 236.809 298.545 240.428 287.747 237.772C278.34 235.46 270.626 228.82 263.975 221.778C258.488 215.958 253.356 209.609 250.695 202.059C248.859 196.874 248.261 191.35 247.684 185.879C246.792 177.491 245.899 169.103 245.007 160.716C244.589 156.779 244.314 152.351 246.869 149.33C247.991 148.002 249.515 147.118 251.07 146.298C256.859 143.224 262.954 140.684 268.34 136.981C273.726 133.277 278.504 128.177 280.139 121.849C281.117 118.05 280.943 113.912 282.609 110.373C284.472 106.405 288.429 103.717 292.662 102.537C296.895 101.357 301.36 101.516 305.72 102.008C310.08 102.5 326.883 103.759 328.688 108.675C329.656 111.32 325.64 116.997 324.688 119.6C323.12 123.869 321.937 128.269 321.153 132.748Z" fill="black"/>
<path d="M284.863 190.282L276.022 171.563C271.879 162.79 267.646 153.574 268.086 143.886C268.17 141.96 268.191 139.553 266.498 138.68C265.763 138.38 264.962 138.277 264.176 138.383C254.868 138.859 245.683 140.717 236.922 143.897C235.224 144.51 233.483 145.219 232.293 146.574C231.102 147.928 230.621 149.748 230.213 151.494C228.826 157.398 227.813 163.383 227.182 169.414C225.595 184.345 226.383 199.408 227.182 214.387L229.531 260.116C229.518 260.765 229.65 261.408 229.917 262C230.499 263.058 231.811 263.412 232.991 263.613C237.536 264.391 242.181 264.232 246.785 264.058C279.165 262.83 311.714 260.947 343.883 264.873C343.738 260.114 343.814 255.353 344.11 250.587C345.385 230.011 350.719 209.937 355.957 190.001C359.009 178.361 361.967 165.663 357.052 154.695C356.329 152.963 355.29 151.381 353.988 150.029C351.898 147.981 349.047 146.902 346.221 146.129C341.348 144.804 336.3 144.233 331.253 144.436L297.894 217.064C296.371 220.387 295.117 223.884 293.598 227.164C292.233 221.498 293.873 214.858 292.233 208.715C290.466 202.34 287.683 196.239 284.863 190.282Z" fill="#201400"/>
<path d="M288.349 240.254C282.381 240.629 276.582 237.571 272.477 233.249C268.371 228.926 265.662 223.445 263.371 217.905C260.078 210.009 257.46 201.848 255.546 193.509C253.959 186.419 252.832 179.081 253.927 171.896C255.44 161.975 261.054 152.96 262.011 142.97C262.175 141.224 262.07 139.182 260.667 138.129C259.8 137.478 258.657 137.388 257.578 137.325C247.599 136.732 236.636 136.844 228.906 143.177C226.552 145.103 224.642 147.51 222.34 149.494C216.859 154.256 209.113 156.679 205.595 163.002C204.367 165.203 203.78 167.695 202.923 170.065C200.902 175.673 197.404 180.604 193.928 185.456C197.299 199.678 201.171 213.911 204.542 228.132C206.515 236.476 208.505 244.852 211.605 252.841C213.637 258.079 216.192 263.423 215.568 269.031C215.319 271.237 214.584 273.348 213.944 275.475C211.699 282.94 210.648 290.713 210.827 298.506L361.797 298.877C354.565 288.507 352.443 275.787 353.179 263.169C353.533 257.121 354.898 251.037 357.94 245.804C362.734 237.603 371.168 232.259 379.479 227.683C385.299 224.508 391.548 242.37 397.839 240.323C396.823 233.138 396.357 205.403 396.781 198.17C396.918 195.8 397.13 193.366 396.4 191.102C395.902 189.551 394.987 188.165 394.368 186.657C391.887 180.62 394.252 172.901 390.241 167.763C387.469 164.192 382.606 163.176 378.654 160.975C374.596 158.711 371.459 155.155 367.924 152.118C360.989 146.23 352.515 142.446 343.502 141.214C340.872 145.361 339.274 150.078 338.84 154.97C338.57 158.044 338.766 161.16 338.338 164.219C337.75 168.361 336.036 172.25 334.338 176.081C327.264 192.054 320.163 208.075 311.201 223.074C308.666 227.307 305.91 231.54 302.238 234.836C298.566 238.132 293.28 240.487 288.349 240.254Z" fill="#201400"/>
<g opacity="0.1">
<path opacity="0.1" d="M350.898 135.585C350.877 134.093 350.877 132.586 350.898 131.066C351.057 117.4 351.226 103.607 354.327 90.2947C355.019 87.7042 355.56 85.0755 355.946 82.4219C356.054 83.333 356.102 84.2504 356.089 85.1678C356.025 88.5223 355.089 91.7867 354.327 95.0565C351.242 108.289 351.052 121.998 350.898 135.585Z" fill="black"/>
<path opacity="0.1" d="M240.267 99.7174C239.572 96.626 239.34 93.4486 239.579 90.2891C239.683 91.8605 239.913 93.421 240.267 94.9556C241.611 100.776 244.769 106.019 245.944 111.855C246.45 114.429 246.592 117.061 246.367 119.675C246.283 118.648 246.141 117.627 245.944 116.616C244.769 110.781 241.611 105.516 240.267 99.7174Z" fill="black"/>
<path opacity="0.1" d="M258.001 86.8769C257.743 86.1254 257.603 85.3382 257.588 84.5437C257.588 82.5278 258.519 80.639 259.445 78.8507C265.107 67.888 272.143 56.1634 283.931 52.4492C287.159 51.4333 290.73 51.0206 293.36 48.8884C294.037 48.3056 294.59 47.5936 294.988 46.7941C295.386 45.9946 295.62 45.1237 295.677 44.2324C301.413 54.7613 311.264 62.814 321.941 68.47C326.174 70.7186 330.761 72.7873 333.65 76.6179C336.364 80.2157 337.152 84.8981 336.682 89.4271C336.415 86.5205 335.367 83.74 333.65 81.3797C330.761 77.5491 326.179 75.4804 321.941 73.2318C311.264 67.5758 301.413 59.5231 295.677 48.9942C295.62 49.8855 295.386 50.7564 294.988 51.5559C294.59 52.3554 294.037 53.0674 293.36 53.6502C290.714 55.7665 287.159 56.1951 283.931 57.211C272.165 60.9146 265.107 72.6498 259.445 83.6125C258.871 84.6573 258.388 85.7495 258.001 86.8769Z" fill="black"/>
<path opacity="0.1" d="M254.884 142.68C259.963 137.918 262.762 131.251 264.889 124.627C266.165 120.906 267.017 117.053 267.429 113.141C267.921 118.574 266.572 124.135 264.889 129.389C262.773 136.013 259.963 142.69 254.884 147.441C249.805 152.193 241.927 154.552 235.678 151.484C236.429 150.198 237.175 148.891 237.916 147.574C243.72 149.209 250.387 146.881 254.884 142.68Z" fill="black"/>
<path opacity="0.1" d="M320.133 141.871C321.154 150.034 326.148 159.913 334.28 163.14C339.926 165.378 347.963 162.807 354.095 161.383C354.623 162.868 355.226 164.325 355.904 165.748C349.619 166.997 340.503 170.367 334.28 167.902C326.148 164.674 321.154 154.796 320.133 146.632C319.922 144.59 319.883 142.533 320.016 140.484C320.048 140.945 320.096 141.41 320.133 141.871Z" fill="black"/>
</g>
<path d="M200.828 183.812C196.77 184.341 193.622 187.616 191.304 190.981C184.802 200.346 181.998 211.7 178.876 222.668C174.996 236.308 170.433 249.733 165.188 262.942C164.059 265.993 162.686 268.948 161.083 271.778C159.776 273.963 158.189 276.064 157.612 278.545C156.215 284.545 161.162 290.185 166.321 293.529C169.07 295.382 172.073 296.829 175.236 297.825C178.315 298.746 181.527 299.095 184.717 299.444L214.087 302.619C227.605 304.09 241.245 305.56 254.768 304.142C255.62 301.18 253.948 299.084 254.07 296C254.155 293.793 255.128 291.741 255.996 289.709C257.596 286.09 258.653 282.256 259.133 278.328C259.287 276.884 259.34 275.402 259.89 274.058C260.44 272.715 261.62 271.508 263.064 271.413C255.128 270.625 249.102 269.127 241.165 268.334C238.218 268.037 235.155 267.704 232.642 266.138C229.526 264.196 227.78 260.694 226.393 257.297C222.96 248.884 220.748 239.615 222.552 230.705C224.034 223.398 228.166 216.594 228.145 209.139C228.145 204.7 226.631 200.399 224.843 196.335C222.949 192.039 220.478 187.648 216.319 185.468C212.161 183.288 205.521 183.177 200.828 183.812Z" fill="#201400"/>
<path d="M472.584 275.908H466.177C462.669 275.908 459.305 277.302 456.824 279.782C454.343 282.263 452.95 285.627 452.95 289.135V308.77H485.812V289.135C485.812 287.398 485.469 285.678 484.805 284.074C484.14 282.469 483.166 281.011 481.937 279.782C480.709 278.554 479.251 277.58 477.646 276.915C476.041 276.25 474.321 275.908 472.584 275.908Z" fill="#201400"/>
<path opacity="0.1" d="M472.584 275.908H466.177C462.669 275.908 459.305 277.302 456.824 279.782C454.343 282.263 452.95 285.627 452.95 289.135V308.77H485.812V289.135C485.812 287.398 485.469 285.678 484.805 284.074C484.14 282.469 483.166 281.011 481.937 279.782C480.709 278.554 479.251 277.58 477.646 276.915C476.041 276.25 474.321 275.908 472.584 275.908Z" fill="black"/>
<path d="M470.695 283.136C469.242 283.136 468.065 281.959 468.065 280.507C468.065 279.054 469.242 277.877 470.695 277.877C472.147 277.877 473.324 279.054 473.324 280.507C473.324 281.959 472.147 283.136 470.695 283.136Z" fill="#201400"/>
<path d="M470.695 279.851C469.242 279.851 468.065 278.674 468.065 277.221C468.065 275.769 469.242 274.592 470.695 274.592C472.147 274.592 473.324 275.769 473.324 277.221C473.324 278.674 472.147 279.851 470.695 279.851Z" fill="#201400"/>
<path d="M470.695 276.566C469.242 276.566 468.065 275.388 468.065 273.936C468.065 272.484 469.242 271.307 470.695 271.307C472.147 271.307 473.324 272.484 473.324 273.936C473.324 275.388 472.147 276.566 470.695 276.566Z" fill="#201400"/>
<path d="M470.695 273.28C469.242 273.28 468.065 272.102 468.065 270.65C468.065 269.198 469.242 268.021 470.695 268.021C472.147 268.021 473.324 269.198 473.324 270.65C473.324 272.102 472.147 273.28 470.695 273.28Z" fill="#201400"/>
<path d="M470.695 269.994C469.242 269.994 468.065 268.816 468.065 267.364C468.065 265.912 469.242 264.734 470.695 264.734C472.147 264.734 473.324 265.912 473.324 267.364C473.324 268.816 472.147 269.994 470.695 269.994Z" fill="#201400"/>
<path d="M470.695 266.708C469.242 266.708 468.065 265.531 468.065 264.079C468.065 262.627 469.242 261.449 470.695 261.449C472.147 261.449 473.324 262.627 473.324 264.079C473.324 265.531 472.147 266.708 470.695 266.708Z" fill="#201400"/>
<path d="M470.695 263.417C469.242 263.417 468.065 262.24 468.065 260.788C468.065 259.336 469.242 258.158 470.695 258.158C472.147 258.158 473.324 259.336 473.324 260.788C473.324 262.24 472.147 263.417 470.695 263.417Z" fill="#201400"/>
<path d="M466.747 264.735C465.295 264.735 464.118 263.557 464.118 262.105C464.118 260.653 465.295 259.476 466.747 259.476C468.2 259.476 469.377 260.653 469.377 262.105C469.377 263.557 468.2 264.735 466.747 264.735Z" fill="#201400"/>
<path d="M464.118 263.417C462.665 263.417 461.488 262.24 461.488 260.788C461.488 259.336 462.665 258.158 464.118 258.158C465.57 258.158 466.747 259.336 466.747 260.788C466.747 262.24 465.57 263.417 464.118 263.417Z" fill="#201400"/>
<path d="M461.489 262.105C460.036 262.105 458.859 260.928 458.859 259.475C458.859 258.023 460.036 256.846 461.489 256.846C462.941 256.846 464.118 258.023 464.118 259.475C464.118 260.928 462.941 262.105 461.489 262.105Z" fill="#201400"/>
<path d="M470.695 260.132C469.242 260.132 468.065 258.955 468.065 257.503C468.065 256.05 469.242 254.873 470.695 254.873C472.147 254.873 473.324 256.05 473.324 257.503C473.324 258.955 472.147 260.132 470.695 260.132Z" fill="#201400"/>
<path d="M470.695 256.846C469.242 256.846 468.065 255.669 468.065 254.216C468.065 252.764 469.242 251.587 470.695 251.587C472.147 251.587 473.324 252.764 473.324 254.216C473.324 255.669 472.147 256.846 470.695 256.846Z" fill="#201400"/>
<path d="M470.695 253.56C469.242 253.56 468.065 252.383 468.065 250.93C468.065 249.478 469.242 248.301 470.695 248.301C472.147 248.301 473.324 249.478 473.324 250.93C473.324 252.383 472.147 253.56 470.695 253.56Z" fill="#201400"/>
<path d="M470.695 250.275C469.242 250.275 468.065 249.097 468.065 247.645C468.065 246.193 469.242 245.016 470.695 245.016C472.147 245.016 473.324 246.193 473.324 247.645C473.324 249.097 472.147 250.275 470.695 250.275Z" fill="#201400"/>
<path d="M459.774 239.163C460.43 239.259 461.086 239.327 461.742 239.37C461.132 238.838 460.566 238.257 460.049 237.634C460.413 236.529 460.949 235.489 461.636 234.55C462.288 234.916 463.009 235.143 463.753 235.216C464.403 235.312 465.059 235.38 465.716 235.428C464.853 234.724 464.049 233.666 463.202 232.783C465.099 231.064 467.529 230.049 470.085 229.908C472.641 229.767 475.168 230.508 477.242 232.008C479.316 233.509 480.812 235.676 481.478 238.148C482.145 240.619 481.942 243.245 480.903 245.584C479.864 247.924 478.053 249.835 475.773 250.999C473.493 252.162 470.882 252.506 468.378 251.974C465.874 251.442 463.629 250.065 462.02 248.075C460.41 246.085 459.533 243.602 459.536 241.042C459.536 240.398 459.592 239.755 459.705 239.121L459.774 239.163Z" fill="#8A611E"/>
<path d="M451.007 252.227C451.677 252.64 452.434 252.892 453.218 252.963C453.869 253.058 454.525 253.132 455.181 253.174C454.484 252.549 453.833 251.874 453.234 251.153C454.82 250.74 456.502 250.933 457.953 251.694C459.404 252.455 460.518 253.73 461.079 255.27C461.64 256.809 461.606 258.503 460.985 260.019C460.363 261.535 459.199 262.764 457.719 263.467C456.239 264.17 454.55 264.296 452.982 263.82C451.415 263.344 450.081 262.301 449.242 260.893C448.403 259.486 448.118 257.817 448.445 256.211C448.771 254.605 449.685 253.179 451.007 252.212V252.227Z" fill="#8A611E"/>
<path d="M474.636 264.735C473.184 264.735 472.006 263.557 472.006 262.105C472.006 260.653 473.184 259.476 474.636 259.476C476.088 259.476 477.266 260.653 477.266 262.105C477.266 263.557 476.088 264.735 474.636 264.735Z" fill="#201400"/>
<path d="M477.266 263.417C475.814 263.417 474.636 262.24 474.636 260.788C474.636 259.336 475.814 258.158 477.266 258.158C478.718 258.158 479.896 259.336 479.896 260.788C479.896 262.24 478.718 263.417 477.266 263.417Z" fill="#201400"/>
<path d="M479.896 262.105C478.444 262.105 477.266 260.928 477.266 259.475C477.266 258.023 478.444 256.846 479.896 256.846C481.348 256.846 482.525 258.023 482.525 259.475C482.525 260.928 481.348 262.105 479.896 262.105Z" fill="#201400"/>
<path d="M490.376 252.227C489.706 252.64 488.949 252.892 488.165 252.963C487.514 253.058 486.858 253.132 486.202 253.174C486.901 252.55 487.551 251.875 488.149 251.153C486.564 250.74 484.881 250.933 483.43 251.694C481.979 252.455 480.865 253.73 480.304 255.27C479.743 256.809 479.777 258.503 480.398 260.019C481.02 261.535 482.184 262.764 483.664 263.467C485.144 264.17 486.833 264.296 488.401 263.82C489.968 263.344 491.302 262.301 492.141 260.893C492.981 259.486 493.265 257.817 492.938 256.211C492.612 254.605 491.698 253.179 490.376 252.212V252.227Z" fill="#8A611E"/>
<path d="M472.583 277.856H466.176C462.668 277.856 459.303 279.25 456.823 281.731C454.342 284.211 452.949 287.576 452.949 291.084V308.475C452.949 309.07 453.185 309.64 453.606 310.061C454.026 310.482 454.597 310.718 455.192 310.718H483.583C484.178 310.718 484.748 310.482 485.169 310.061C485.59 309.64 485.826 309.07 485.826 308.475V291.084C485.826 289.345 485.484 287.624 484.818 286.018C484.152 284.412 483.176 282.953 481.946 281.725C480.716 280.497 479.256 279.523 477.65 278.859C476.043 278.195 474.321 277.854 472.583 277.856Z" fill="#8A611E"/>
<g opacity="0.1">
<path opacity="0.1" d="M459.595 239.884C459.861 240.168 460.144 240.437 460.441 240.688C460.14 240.688 459.844 240.64 459.542 240.609C459.553 240.365 459.568 240.122 459.595 239.884Z" fill="black"/>
<path opacity="0.1" d="M464.388 236.741C463.726 236.699 463.076 236.63 462.419 236.535C461.831 236.46 461.256 236.304 460.711 236.069C460.978 235.54 461.286 235.033 461.631 234.551C461.96 234.751 462.317 234.903 462.689 235.001C463.208 235.625 463.776 236.207 464.388 236.741Z" fill="black"/>
<path opacity="0.1" d="M480.552 242.386C480.556 240.38 480.018 238.411 478.997 236.684C477.975 234.958 476.507 233.539 474.747 232.577C472.986 231.615 470.999 231.146 468.995 231.219C466.99 231.291 465.042 231.903 463.356 232.99L463.187 232.81C464.287 231.831 465.571 231.079 466.963 230.598C468.355 230.117 469.828 229.917 471.299 230.008C472.769 230.099 474.206 230.48 475.528 231.129C476.85 231.778 478.031 232.683 479.002 233.79C479.973 234.898 480.715 236.186 481.186 237.582C481.657 238.978 481.847 240.453 481.745 241.922C481.643 243.392 481.251 244.826 480.592 246.144C479.934 247.461 479.021 248.635 477.906 249.598C479.617 247.585 480.555 245.028 480.552 242.386Z" fill="black"/>
</g>
<g opacity="0.1">
<path opacity="0.1" d="M455.182 254.486C454.526 254.444 453.869 254.375 453.219 254.28C452.434 254.207 451.677 253.953 451.007 253.539C450.264 254.086 449.645 254.783 449.189 255.585C448.733 256.388 448.451 257.277 448.362 258.195C448.336 257.965 448.324 257.733 448.325 257.502C448.32 256.474 448.557 255.46 449.016 254.541C449.476 253.622 450.145 252.824 450.97 252.211C451.641 252.623 452.398 252.875 453.182 252.946L453.711 253.015C454.162 253.543 454.654 254.035 455.182 254.486Z" fill="black"/>
<path opacity="0.1" d="M454.917 252.243C454.698 252.245 454.478 252.261 454.261 252.29C453.917 251.925 453.578 251.534 453.235 251.153C454.207 250.893 455.227 250.861 456.214 251.058C457.201 251.255 458.13 251.677 458.928 252.291C459.726 252.905 460.372 253.694 460.816 254.598C461.26 255.502 461.49 256.495 461.488 257.502C461.488 257.724 461.488 257.941 461.457 258.158C461.294 256.537 460.535 255.034 459.326 253.941C458.118 252.848 456.546 252.243 454.917 252.243Z" fill="black"/>
</g>
<g opacity="0.1">
<path opacity="0.1" d="M486.202 254.486C486.858 254.444 487.514 254.375 488.164 254.28C488.949 254.207 489.706 253.953 490.376 253.539C491.119 254.086 491.738 254.783 492.194 255.585C492.65 256.388 492.932 257.277 493.021 258.195C493.047 257.965 493.06 257.733 493.059 257.502C493.064 256.474 492.827 255.46 492.367 254.541C491.908 253.622 491.238 252.824 490.413 252.211C489.743 252.623 488.986 252.875 488.201 252.946L487.672 253.015C487.224 253.545 486.732 254.037 486.202 254.486Z" fill="black"/>
<path opacity="0.1" d="M486.466 252.243C486.687 252.246 486.908 252.261 487.127 252.29C487.466 251.925 487.805 251.534 488.148 251.153C487.176 250.893 486.156 250.861 485.169 251.058C484.182 251.255 483.253 251.677 482.455 252.291C481.657 252.905 481.011 253.694 480.567 254.598C480.123 255.502 479.893 256.495 479.895 257.502C479.895 257.724 479.895 257.941 479.926 258.158C480.089 256.537 480.848 255.034 482.057 253.941C483.265 252.848 484.837 252.243 486.466 252.243Z" fill="black"/>
</g>
<path d="M504.297 317.078H555.989C556.571 317.078 557.13 316.846 557.541 316.435C557.953 316.023 558.185 315.464 558.185 314.882V290.417C558.185 290.046 558.091 289.682 557.912 289.357C557.734 289.033 557.476 288.759 557.162 288.561C556.849 288.363 556.491 288.247 556.121 288.225C555.751 288.202 555.382 288.274 555.047 288.433C540.196 295.48 524.196 297.898 505.313 288.544C504.978 288.379 504.607 288.302 504.234 288.32C503.861 288.337 503.499 288.45 503.182 288.646C502.864 288.842 502.602 289.116 502.419 289.442C502.237 289.767 502.14 290.134 502.138 290.507V314.845C502.133 315.133 502.185 315.42 502.291 315.688C502.397 315.956 502.555 316.201 502.755 316.409C502.956 316.616 503.195 316.782 503.459 316.897C503.724 317.011 504.009 317.073 504.297 317.078Z" fill="#8A611E"/>
<path opacity="0.1" d="M504.297 317.078H555.989C556.571 317.078 557.13 316.846 557.541 316.435C557.953 316.023 558.185 315.464 558.185 314.882V290.417C558.185 290.046 558.091 289.682 557.912 289.357C557.734 289.033 557.476 288.759 557.162 288.561C556.849 288.363 556.491 288.247 556.121 288.225C555.751 288.202 555.382 288.274 555.047 288.433C540.196 295.48 524.196 297.898 505.313 288.544C504.978 288.379 504.607 288.302 504.234 288.32C503.861 288.337 503.499 288.45 503.182 288.646C502.864 288.842 502.602 289.116 502.419 289.442C502.237 289.767 502.14 290.134 502.138 290.507V314.845C502.133 315.133 502.185 315.42 502.291 315.688C502.397 315.956 502.555 316.201 502.755 316.409C502.956 316.616 503.195 316.782 503.459 316.897C503.724 317.011 504.009 317.073 504.297 317.078Z" fill="black"/>
<path d="M530.503 298.481C528.814 298.481 527.445 296.688 527.445 294.476C527.445 292.264 528.814 290.471 530.503 290.471C532.192 290.471 533.562 292.264 533.562 294.476C533.562 296.688 532.192 298.481 530.503 298.481Z" fill="#201400"/>
<path d="M530.503 293.587C528.814 293.587 527.445 291.793 527.445 289.581C527.445 287.369 528.814 285.576 530.503 285.576C532.192 285.576 533.562 287.369 533.562 289.581C533.562 291.793 532.192 293.587 530.503 293.587Z" fill="#201400"/>
<path d="M530.503 288.686C528.814 288.686 527.445 286.893 527.445 284.681C527.445 282.469 528.814 280.676 530.503 280.676C532.192 280.676 533.562 282.469 533.562 284.681C533.562 286.893 532.192 288.686 530.503 288.686Z" fill="#201400"/>
<path d="M530.503 283.794C528.814 283.794 527.445 282 527.445 279.788C527.445 277.576 528.814 275.783 530.503 275.783C532.192 275.783 533.562 277.576 533.562 279.788C533.562 282 532.192 283.794 530.503 283.794Z" fill="#201400"/>
<path d="M530.503 278.893C528.814 278.893 527.445 277.1 527.445 274.888C527.445 272.676 528.814 270.883 530.503 270.883C532.192 270.883 533.562 272.676 533.562 274.888C533.562 277.1 532.192 278.893 530.503 278.893Z" fill="#201400"/>
<path d="M530.503 273.995C528.814 273.995 527.445 272.202 527.445 269.99C527.445 267.778 528.814 265.984 530.503 265.984C532.192 265.984 533.562 267.778 533.562 269.99C533.562 272.202 532.192 273.995 530.503 273.995Z" fill="#201400"/>
<path d="M530.503 269.1C528.814 269.1 527.445 267.307 527.445 265.095C527.445 262.883 528.814 261.09 530.503 261.09C532.192 261.09 533.562 262.883 533.562 265.095C533.562 267.307 532.192 269.1 530.503 269.1Z" fill="#201400"/>
<path d="M519.032 231.583C518.617 231.049 518.237 230.489 517.895 229.906L525.937 228.583L517.239 228.646C516.399 226.828 515.941 224.857 515.893 222.855C515.845 220.853 516.207 218.863 516.958 217.006L528.625 223.059L517.863 215.123C518.871 213.38 520.226 211.864 521.846 210.668C523.465 209.472 525.313 208.623 527.275 208.172C529.237 207.722 531.271 207.681 533.25 208.051C535.228 208.421 537.11 209.194 538.776 210.323C540.443 211.452 541.859 212.912 542.937 214.612C544.015 216.312 544.731 218.216 545.041 220.205C545.351 222.194 545.248 224.226 544.738 226.173C544.229 228.121 543.324 229.942 542.079 231.525C542.733 232.351 543.294 233.247 543.751 234.196L533.318 239.678L544.428 235.921C545.207 238.23 545.399 240.697 544.986 243.099C544.573 245.5 543.569 247.761 542.063 249.678C543.764 251.84 544.822 254.438 545.117 257.173C545.411 259.909 544.93 262.672 543.728 265.147C542.525 267.622 540.651 269.708 538.319 271.168C535.987 272.628 533.291 273.402 530.54 273.402C527.788 273.402 525.093 272.628 522.76 271.168C520.428 269.708 518.554 267.622 517.352 265.147C516.15 262.672 515.669 259.909 515.963 257.173C516.257 254.438 517.315 251.84 519.016 249.678C516.984 247.094 515.879 243.902 515.879 240.614C515.879 237.327 516.984 234.135 519.016 231.551L519.032 231.583Z" fill="#8A611E"/>
<path opacity="0.1" d="M545.227 240.646C545.231 243.934 544.126 247.127 542.089 249.709C543.79 251.872 544.848 254.469 545.142 257.205C545.437 259.94 544.955 262.703 543.753 265.178C542.551 267.653 540.677 269.74 538.345 271.2C536.013 272.66 533.317 273.434 530.566 273.434C527.814 273.434 525.118 272.66 522.786 271.2C520.454 269.74 518.58 267.653 517.378 265.178C516.176 262.703 515.694 259.94 515.989 257.205C516.283 254.469 517.341 251.872 519.042 249.709C517.079 247.217 545.227 239 545.227 240.646Z" fill="black"/>
<path d="M504.297 318.374H555.989C556.571 318.374 557.13 318.143 557.541 317.731C557.953 317.319 558.185 316.761 558.185 316.178V290.417C558.185 290.046 558.091 289.682 557.912 289.357C557.734 289.033 557.476 288.759 557.162 288.561C556.849 288.363 556.491 288.247 556.121 288.225C555.751 288.202 555.382 288.274 555.047 288.433C540.196 295.48 528.418 303.697 505.313 288.544C503.942 287.645 502.138 288.872 502.138 290.507V316.168C502.135 316.746 502.36 317.301 502.764 317.714C503.169 318.127 503.719 318.364 504.297 318.374Z" fill="#8A611E"/>
<path d="M120.719 311.089L196.981 321.179L200.796 321.681L238.081 301.766V297.105L121.565 284.396L120.719 311.089Z" fill="#9C9CA1"/>
<path d="M216.474 303.882L133.856 294.142L134.703 309.395L199.056 314.115L216.474 303.882Z" fill="#939498"/>
<path opacity="0.4" d="M196.982 316.168V321.173L200.797 321.702L238.087 301.766V297.104L202.495 316.152C202.495 316.152 197.829 316.591 196.982 316.168Z" fill="black"/>
<path d="M194.499 158.604C200.099 133.004 245.5 51.7709 259 40.1043C264.5 35.1038 297.5 3.60331 333 19.6033C368.5 35.6033 371.5 88.1043 371 112.604C370.6 132.204 383.5 210.604 371 224.104L282 241.104L231.999 216.604C231.999 199.604 188.899 184.204 194.499 158.604Z" fill="#8A611E"/>
<path d="M384.744 176.938C382.824 172.378 380.871 167.669 380.818 162.722C380.76 157.373 382.935 152.293 384.596 147.214C386.651 141 388.018 134.579 388.675 128.066C388.812 127.443 388.718 126.79 388.411 126.23C387.972 125.611 387.125 125.484 386.379 125.32C382.718 124.484 379.951 121.527 377.665 118.548C374.119 113.948 371.125 108.947 368.745 103.649C366.993 99.7496 364.623 94.9931 360.348 94.9561C362.069 103.04 364.202 111.031 366.739 118.897C362.269 117.754 358.02 116.093 353.549 114.95C352.674 114.674 351.757 114.552 350.84 114.591C348.163 114.871 346.523 118.495 348.078 120.691C345.893 123.252 342.258 123.94 339.401 125.696C336.544 127.453 334.491 131.802 337.031 134.008C337.528 134.437 338.158 134.738 338.518 135.288C339.745 137.183 336.74 139.357 336.989 141.6C337.19 143.436 339.544 144.294 341.327 143.807C343.11 143.32 344.502 141.987 346.089 141.008C347.676 140.029 349.75 139.421 351.29 140.436C351.703 145.415 352.147 150.489 354.301 155.023C355.089 156.679 356.099 158.23 356.734 159.949C357.342 161.824 357.718 163.766 357.856 165.732L359.777 183.293C368.94 185.129 377.157 182.383 384.744 176.938Z" fill="#FFBE9D"/>
<path d="M386.983 192.679L388.671 181.256C388.832 180.326 388.922 179.385 388.94 178.441C388.94 175.795 387.776 173.272 386.649 170.864C377.311 175.224 367.216 176.774 356.915 176.779C355.555 176.779 354.005 176.652 353.158 175.589C351.407 177.605 351.354 180.848 352.1 183.409C352.846 185.97 354.28 188.277 355.232 190.774C355.714 192.038 356.105 193.419 357.026 194.393C358.454 195.932 360.772 196.197 362.878 196.186C365.093 196.172 367.303 195.962 369.481 195.557C375.121 194.509 381.343 191.668 386.983 192.679Z" fill="white"/>
<path d="M352.153 192.214C359.402 191.389 366.602 190.225 373.756 188.722C377.264 187.987 380.803 187.167 384.38 187.309C386.708 187.405 389.21 187.87 391.258 186.717C389.263 193.505 389.142 200.658 391.528 207.319C392.94 211.288 395.094 214.986 396.131 219.071C398.29 227.615 395.327 236.933 398.025 245.324C398.31 246.42 398.871 247.426 399.655 248.244C400.48 249.001 401.607 249.393 402.369 250.213C403.49 251.419 403.559 253.234 403.565 254.879L403.612 269.456C403.644 278.736 403.522 288.577 398.623 296.439C393.036 305.434 381.274 310.095 371.036 307.36C368.314 306.663 365.764 305.415 363.544 303.693C359.989 300.868 357.724 296.783 355.507 292.804C352.862 288.042 350.217 283.175 349.365 277.815C348.762 274.022 349.1 270.149 349.534 266.334C351.926 245.17 357.116 224.187 355.999 202.944C355.832 199.061 354.491 195.319 352.153 192.214Z" fill="#201400"/>
<path d="M256.023 273.052C264.197 271.756 272.493 269.253 280.599 270.936C285.297 271.909 289.593 274.248 293.498 277.073C291.35 278.793 288.842 280.327 287.477 282.719C286.63 284.373 285.993 286.128 285.583 287.941C284.726 291.115 283.863 294.353 283.731 297.655C283.599 300.956 284.26 304.395 286.228 307.057C275.922 308.073 265.933 305.533 255.88 303.052C254.73 302.85 253.636 302.408 252.668 301.755C251.081 300.507 250.615 298.284 250.605 296.258C250.605 292.639 251.621 289.11 252.652 285.639C253.88 281.475 254.79 277.19 256.023 273.052Z" fill="white"/>
<path opacity="0.08" d="M200.828 183.812C196.77 184.341 193.622 187.616 191.304 190.981C184.802 200.346 181.998 211.7 178.876 222.668C174.996 236.308 170.433 249.733 165.188 262.942C164.059 265.993 162.686 268.948 161.083 271.778C159.776 273.963 158.189 276.064 157.612 278.545C156.215 284.545 161.162 290.185 166.321 293.529C169.07 295.382 172.073 296.829 175.236 297.825C178.315 298.746 181.527 299.095 184.717 299.444L214.087 302.619C227.605 304.09 241.245 305.56 254.768 304.142C255.62 301.18 253.948 299.084 254.07 296C254.155 293.793 255.128 291.741 255.996 289.709C257.596 286.09 258.653 282.256 259.133 278.328C259.287 276.884 259.34 275.402 259.89 274.058C260.44 272.715 261.62 271.508 263.064 271.413C255.128 270.625 249.102 269.127 241.165 268.334C238.218 268.037 235.155 267.704 232.642 266.138C229.526 264.196 227.78 260.694 226.393 257.297C222.96 248.884 220.748 239.615 222.552 230.705C224.034 223.398 228.166 216.594 228.145 209.139C228.145 204.7 226.631 200.399 224.843 196.335C222.949 192.039 220.478 187.648 216.319 185.468C212.161 183.288 205.521 183.177 200.828 183.812Z" fill="black"/>
<path d="M321.857 280.042C325.535 280.254 329.238 280.465 332.9 280.042C335.545 279.724 338.127 279.074 340.751 278.629C347.918 277.472 355.251 277.879 362.245 279.822C369.24 281.766 375.732 285.2 381.274 289.888C383.306 291.624 385.359 294.285 384.237 296.714C383.031 299.327 379.343 299.253 376.502 298.766C379.568 300.231 382.277 302.349 384.438 304.973C385.232 305.941 385.983 307.089 385.83 308.343C385.507 310.962 381.951 311.438 379.322 311.211C380.179 312.131 379.602 313.761 378.512 314.385C377.422 315.009 376.068 314.882 374.835 314.655C372.11 314.156 369.476 313.244 367.026 311.951C367.523 313.248 366.661 314.766 365.438 315.411C364.216 316.057 362.73 316.009 361.359 315.787C354.894 314.729 349.497 310.232 343.19 308.465C333.106 305.645 322.556 310.142 312.075 310.459C308.794 310.56 305.429 310.226 302.44 308.872C298.773 307.205 295.816 304.078 291.943 302.967C287.641 301.74 282.705 303.153 278.769 301.031C275.906 299.491 278.488 287.624 279.218 285.338C280.557 281.158 281.901 278.386 286.361 277.963C297.646 276.857 310.487 279.386 321.857 280.042Z" fill="#FFBE9D"/>
<path d="M293.704 276.804C293.704 276.804 276.62 291.264 286.477 307.041L267.43 300.464V286.661C267.43 286.004 274.662 276.148 274.662 276.148L283.207 274.83L293.704 276.804Z" fill="white"/>
<path fill-rule="evenodd" clip-rule="evenodd" d="M255.422 91.409C255.193 107.604 255.822 124.31 256.764 127.093C258.367 131.833 270.82 158.635 294.454 154.432C318.087 150.229 327.248 139.275 333.409 119.855C335.765 112.431 336.812 104.772 337.153 98.1077C337.741 94.2924 337.705 90.6615 337.121 87.2432C336.978 84.857 336.757 82.8714 336.525 81.421L335.498 81.3353C330.98 69.607 319.484 61.0518 304.802 57.1177C282.373 51.108 262.545 52.3601 256.502 74.738L256.033 74.6989C255.975 75.5817 255.921 76.4876 255.871 77.4128C254.916 82.1353 254.798 86.8554 255.422 91.409Z" fill="#FFBE9D"/>
<path d="M182.341 236.725L199.463 316.115C199.635 316.909 199.614 317.734 199.401 318.519C199.188 319.304 198.789 320.026 198.238 320.624C197.687 321.222 197 321.679 196.235 321.956C195.47 322.233 194.65 322.322 193.844 322.215L85.5235 307.877C84.58 307.752 83.6905 307.365 82.9569 306.758C82.2234 306.152 81.6753 305.352 81.3755 304.448L58.0057 233.974C57.7474 233.192 57.6832 232.359 57.8185 231.546C57.9538 230.734 58.2846 229.967 58.7824 229.311C59.2801 228.655 59.9299 228.13 60.6758 227.781C61.4216 227.432 62.2411 227.269 63.0637 227.307L177.622 232.746C178.736 232.799 179.802 233.217 180.655 233.936C181.508 234.656 182.101 235.636 182.341 236.725Z" fill="#8A611E"/>
<path d="M122.822 266.013C122.556 263.485 123.657 261.297 125.282 261.126C126.906 260.955 128.439 262.867 128.704 265.395C128.97 267.923 127.869 270.111 126.244 270.282C124.62 270.453 123.087 268.541 122.822 266.013Z" fill="white"/>
<defs>
<linearGradient id="paint0_linear" x1="319.704" y1="0.10201" x2="319.704" y2="332.102" gradientUnits="userSpaceOnUse">
<stop stop-color="#FFED4A"/>
<stop offset="1" stop-color="#F9A825"/>
</linearGradient>
</defs>
</svg>
