<svg width="310" height="314" viewBox="0 0 310 314" fill="none" xmlns="http://www.w3.org/2000/svg">
<path d="M251.955 207.378C244.48 218.878 235.616 226.581 225.642 231.632C222.354 233.294 218.939 234.691 215.431 235.809C184.333 245.814 144.628 236.546 103.332 236.494C-18.5651 236.34 30.0443 141.223 69.5959 88.8492C85.5545 67.716 107.328 53.0089 131.067 46.3416C136.056 44.9367 141.137 43.892 146.272 43.2155C170.371 40.0334 195.591 45.0215 218.224 59.7321C257.053 84.9705 274.922 130.049 266.521 171.745C263.961 184.432 259.018 196.524 251.955 207.378Z" fill="url(#paint0_linear)"/>
<path d="M195.039 92.3145L145.759 98.5613C147.385 96.6161 149.142 94.7965 151.016 93.1165L195.039 92.3145Z" fill="#545139"/>
<path d="M231.827 147.895C230.934 149.34 229.92 150.714 228.795 152.006L186.017 147.147L231.827 147.895Z" fill="#545139"/>
<path d="M234.604 118.69L162.419 108.973L232.867 113.295C233.543 115.058 234.124 116.859 234.604 118.69Z" fill="#545139"/>
<path d="M136.736 94.7437C136.736 94.872 136.732 94.9984 136.721 95.123C136.665 95.895 136.437 96.6448 136.054 97.3177C135.672 97.9906 135.144 98.5696 134.509 99.0127C133.874 99.4557 133.148 99.7516 132.385 99.8788C131.621 100.006 130.839 99.9611 130.095 99.7477C129.351 99.5343 128.663 99.1576 128.083 98.645C127.503 98.1324 127.045 97.4969 126.741 96.7848C126.438 96.0726 126.297 95.3017 126.329 94.5283C126.361 93.7549 126.566 92.9983 126.927 92.3138C127.039 92.0993 127.167 91.8936 127.31 91.6984C127.933 90.835 128.805 90.1832 129.809 89.8311C130.814 89.4789 131.902 89.4433 132.928 89.7291C133.953 90.0148 134.866 90.6081 135.544 91.429C136.222 92.2499 136.631 93.2589 136.717 94.3198C136.73 94.4592 136.736 94.6005 136.736 94.7437Z" fill="#F9A826"/>
<path d="M136.737 94.5284C136.737 94.7185 136.733 94.9058 136.722 95.0903L129.102 93.7021L136.718 93.9005C136.731 94.107 136.737 94.3164 136.737 94.5284Z" fill="#D0CDE1"/>
<path d="M134.655 97.1729L127.561 97.8669C127.36 97.6846 127.178 97.4881 127.02 97.2799L134.655 97.1729Z" fill="#D0CDE1"/>
<path d="M133.266 91.6201L127.02 92.3142C127.138 92.1046 127.273 91.9035 127.425 91.7128L133.266 91.6201Z" fill="#D0CDE1"/>
<path d="M208.315 188.11C208.255 188.223 208.193 188.333 208.124 188.438C207.713 189.094 207.16 189.649 206.506 190.064C205.853 190.479 205.115 190.743 204.347 190.837C203.578 190.931 202.798 190.852 202.064 190.606C201.33 190.361 200.66 189.954 200.103 189.417C199.546 188.879 199.115 188.225 198.843 187.5C198.571 186.775 198.464 185.999 198.53 185.227C198.595 184.456 198.832 183.709 199.223 183.041C199.614 182.373 200.149 181.8 200.79 181.365C200.989 181.228 201.199 181.106 201.416 181.001C202.371 180.53 203.447 180.363 204.5 180.523C205.552 180.683 206.53 181.161 207.302 181.895C208.074 182.628 208.602 183.58 208.816 184.623C209.03 185.666 208.919 186.749 208.498 187.727C208.444 187.856 208.382 187.983 208.315 188.11Z" fill="#F9A826"/>
<path d="M208.042 188.438C207.981 188.56 207.917 188.68 207.848 188.793L201.287 183.935L208.228 188.022C208.173 188.162 208.11 188.3 208.042 188.438Z" fill="#D0CDE1"/>
<path d="M205.452 189.488L198.653 186.912C198.579 186.618 198.531 186.319 198.511 186.018L205.452 189.488Z" fill="#D0CDE1"/>
<path d="M206.145 183.24L200.592 181.461C200.792 181.347 201.002 181.246 201.22 181.158L206.145 183.24Z" fill="#D0CDE1"/>
<path d="M244.924 98.7437C245.014 98.8356 245.1 98.9287 245.179 99.0256C245.677 99.6177 246.038 100.313 246.234 101.062C246.43 101.811 246.456 102.595 246.311 103.355C246.166 104.115 245.853 104.834 245.395 105.458C244.937 106.082 244.345 106.596 243.664 106.963C242.982 107.33 242.227 107.54 241.453 107.578C240.68 107.616 239.908 107.481 239.193 107.183C238.479 106.885 237.84 106.432 237.323 105.856C236.805 105.279 236.423 104.595 236.204 103.853C236.135 103.621 236.083 103.384 236.049 103.145C235.892 102.092 236.061 101.016 236.534 100.063C237.008 99.1094 237.762 98.324 238.696 97.8127C239.63 97.3013 240.698 97.0885 241.756 97.2031C242.815 97.3176 243.812 97.754 244.615 98.4533C244.722 98.544 244.824 98.6413 244.924 98.7437Z" fill="#F9A826"/>
<path d="M240.156 99.2559L236.158 103.42C236.084 103.212 236.028 102.999 235.992 102.784L240.156 99.2559Z" fill="#D0CDE1"/>
<path d="M142.491 141.237L142.404 141.226L142.615 142.022C142.814 143.133 143.103 144.225 143.48 145.289L149.658 168.635C149.855 169.38 150.267 170.052 150.843 170.568C151.418 171.084 152.133 171.421 152.899 171.539L165.499 173.477C166.314 173.602 167.147 173.473 167.885 173.107C168.623 172.741 169.228 172.156 169.617 171.434L181.591 149.203C181.965 148.587 182.307 147.952 182.615 147.301L183.022 146.546L182.958 146.538C184.228 143.553 184.786 140.318 184.591 137.083C184.396 133.849 183.451 130.703 181.832 127.89C180.212 125.078 177.961 122.676 175.254 120.87C172.547 119.065 169.457 117.905 166.225 117.482C162.993 117.059 159.706 117.383 156.621 118.43C153.536 119.476 150.736 121.217 148.439 123.516C146.141 125.816 144.409 128.611 143.378 131.685C142.346 134.759 142.042 138.028 142.491 141.237H142.491Z" fill="#F9A826"/>
<path d="M166.187 174.911C165.963 174.911 165.74 174.894 165.519 174.86L152.241 172.84C151.397 172.712 150.611 172.344 149.977 171.783C149.343 171.221 148.89 170.489 148.673 169.677L142.162 145.337C141.764 144.223 141.458 143.079 141.247 141.916L141.083 140.852C140.64 137.45 141.007 133.993 142.155 130.755C143.303 127.517 145.201 124.585 147.699 122.192C150.197 119.799 153.226 118.009 156.548 116.964C159.87 115.92 163.393 115.649 166.839 116.173L166.782 116.537C163.373 116.021 159.888 116.295 156.606 117.337C153.324 118.38 150.335 120.163 147.878 122.543C145.421 124.923 143.563 127.836 142.454 131.047C141.344 134.259 141.013 137.681 141.487 141.041L141.613 141.837C141.822 142.99 142.126 144.124 142.52 145.229L149.035 169.584C149.234 170.326 149.648 170.995 150.228 171.509C150.807 172.022 151.527 172.359 152.298 172.476L165.576 174.496C166.396 174.62 167.235 174.491 167.977 174.126C168.72 173.762 169.329 173.18 169.722 172.461L170.052 172.635C169.677 173.323 169.12 173.897 168.439 174.298C167.758 174.698 166.98 174.91 166.187 174.911Z" fill="#2F2E41"/>
<path d="M169.385 146.548L161.383 168.396L161.834 168.562L169.836 146.713L169.385 146.548Z" fill="#2F2E41"/>
<path d="M156.32 144.526L155.84 144.547L156.862 167.793L157.342 167.772L156.32 144.526Z" fill="#2F2E41"/>
<path d="M164.652 186.01L148.236 183.475C148.114 183.455 148.005 183.388 147.932 183.288C147.859 183.188 147.829 183.064 147.848 182.942C147.867 182.82 147.933 182.71 148.033 182.637C148.132 182.564 148.257 182.533 148.379 182.551L164.795 185.087C164.856 185.096 164.915 185.117 164.968 185.149C165.021 185.181 165.067 185.222 165.103 185.272C165.14 185.322 165.166 185.378 165.181 185.438C165.196 185.498 165.198 185.56 165.189 185.621C165.18 185.681 165.158 185.74 165.126 185.792C165.094 185.845 165.052 185.891 165.002 185.927C164.952 185.963 164.896 185.989 164.836 186.004C164.776 186.018 164.713 186.02 164.652 186.01Z" fill="#3F3D56"/>
<path d="M165.325 182.541L148.257 180.005C148.194 179.996 148.133 179.975 148.078 179.944C148.023 179.912 147.975 179.87 147.937 179.82C147.899 179.771 147.872 179.714 147.856 179.655C147.841 179.595 147.838 179.533 147.848 179.472C147.858 179.411 147.88 179.353 147.913 179.3C147.947 179.248 147.991 179.202 148.043 179.166C148.094 179.129 148.153 179.103 148.216 179.089C148.278 179.075 148.343 179.072 148.406 179.082L165.474 181.617C165.537 181.626 165.598 181.647 165.653 181.679C165.708 181.711 165.756 181.753 165.794 181.802C165.832 181.852 165.859 181.908 165.875 181.968C165.89 182.028 165.893 182.09 165.883 182.151C165.873 182.212 165.851 182.27 165.818 182.323C165.784 182.375 165.74 182.421 165.688 182.457C165.637 182.493 165.578 182.519 165.515 182.534C165.453 182.548 165.388 182.55 165.325 182.541Z" fill="#3F3D56"/>
<path d="M166.025 179.071L148.946 176.534C148.819 176.515 148.705 176.448 148.63 176.348C148.554 176.248 148.523 176.123 148.542 176.001C148.562 175.879 148.631 175.77 148.735 175.697C148.838 175.623 148.968 175.592 149.095 175.611L166.173 178.147C166.3 178.167 166.414 178.234 166.49 178.334C166.565 178.433 166.597 178.558 166.577 178.68C166.558 178.802 166.488 178.912 166.385 178.985C166.281 179.058 166.152 179.089 166.025 179.071H166.025Z" fill="#3F3D56"/>
<path d="M155.909 188.001C159.158 188.484 162.072 187.135 162.418 184.989L150.652 183.24C150.306 185.386 152.66 187.518 155.909 188.001Z" fill="#3F3D56"/>
<path d="M161.969 141.758C161.23 141.658 160.619 141.144 160.284 140.8C160.174 140.687 160.067 140.57 159.959 140.453C159.569 140.025 159.2 139.622 158.687 139.411C157.554 138.947 156.219 139.596 155.063 140.292L154.784 139.934C156.055 139.168 157.537 138.461 158.896 139.018C159.513 139.271 159.936 139.734 160.344 140.181C160.448 140.295 160.552 140.408 160.659 140.518C161.007 140.875 161.702 141.455 162.447 141.322C162.761 141.241 163.053 141.105 163.305 140.922C163.497 140.796 163.7 140.684 163.913 140.585C164.343 140.404 164.824 140.339 165.296 140.397C165.769 140.456 166.211 140.636 166.567 140.915C166.694 141.021 166.814 141.133 166.927 141.25C167.149 141.473 167.359 141.683 167.632 141.759C168.035 141.873 168.462 141.67 168.914 141.456C169.38 141.235 169.862 141.006 170.408 141.062C170.426 141.064 170.444 141.066 170.461 141.069C171.434 141.201 171.882 142.146 172.136 142.852L171.665 142.983C171.32 142.024 170.901 141.547 170.35 141.493C169.959 141.453 169.565 141.64 169.148 141.838C168.626 142.086 168.085 142.342 167.482 142.173C167.078 142.06 166.812 141.794 166.556 141.537C166.455 141.431 166.347 141.331 166.234 141.236C165.95 141.017 165.6 140.876 165.227 140.83C164.854 140.784 164.473 140.834 164.132 140.974C163.943 141.063 163.762 141.164 163.59 141.277C163.284 141.496 162.928 141.657 162.546 141.747C162.356 141.781 162.161 141.785 161.969 141.758Z" fill="#2F2E41"/>
<path d="M75.5972 150.449L55.6939 155.271L55.629 155.287L53.4655 157.245L52.8428 157.808L51.5078 157.566L49.1445 157.139L50.7914 151.581L51.1002 140.979L49.968 134.495L56.2466 130.172C56.2466 130.172 68.4951 129.451 75.5972 150.449Z" fill="#D0CDE1"/>
<path opacity="0.1" d="M55.6939 155.271C55.4242 155.846 55.9893 155.467 55.6805 156.058L52.7985 156.985L51.5078 157.566L49.1445 157.139L50.7914 151.581L51.1002 140.979L49.968 134.495L56.2466 130.172C56.2466 130.172 62.9853 139.715 55.6939 155.271Z" fill="black"/>
<path d="M99.0653 135.216C99.0653 135.216 72.9215 147.361 62.3198 149.214C51.7182 151.067 52.6445 161.668 52.6445 161.668L112.034 152.405C112.034 152.405 109.976 142.833 99.0653 135.216Z" fill="#D0CDE1"/>
<path d="M48.6309 133.157C48.6309 133.157 53.1597 144.171 48.1162 157.86L53.9831 160.536L56.2476 157.86L56.299 157.603L50.0718 157.037C50.0718 157.037 55.2183 143.244 50.9982 133.672C50.9982 133.672 50.0719 131.613 48.6309 133.157Z" fill="#F9A826"/>
<path d="M134.987 214.779C111.828 209.632 90.2647 220.285 90.2647 220.285L90.206 220.233L81.6187 212.566L48.064 157.808L56.2468 157.859C78.994 144.272 111.005 146.125 111.005 146.125C124.797 161.77 134.987 214.779 134.987 214.779Z" fill="#3F3D56"/>
<path opacity="0.1" d="M90.2061 220.234L81.6187 212.567L48.064 157.809L56.2468 157.86C56.2468 157.86 88.8608 200.935 90.2061 220.234Z" fill="black"/>
<path d="M93.9756 177.508C100.986 175.358 105.562 170.002 104.195 165.546C102.828 161.089 96.0364 159.22 89.0256 161.37C82.0149 163.52 77.4396 168.876 78.8065 173.333C80.1734 177.789 86.9648 179.659 93.9756 177.508Z" fill="#D0CDE1"/>
<defs>
<linearGradient id="paint0_linear" x1="217.863" y1="59.4977" x2="105.909" y2="231.741" gradientUnits="userSpaceOnUse">
<stop stop-color="#FFF176"/>
<stop offset="0.364583" stop-color="#FFD94A"/>
<stop offset="1" stop-color="#FFCC31"/>
</linearGradient>
</defs>
</svg>
