<svg width="310" height="310" viewBox="0 0 310 310" fill="none" xmlns="http://www.w3.org/2000/svg">
<g clip-path="url(#clip0)">
<path d="M285.96 232.283C276.587 246.523 265.471 256.061 252.963 262.316C248.839 264.374 244.557 266.103 240.158 267.488C201.159 279.876 151.369 268.4 99.5823 268.336C-53.2812 268.145 7.67657 150.368 57.2756 85.5165C77.2883 59.3485 104.593 41.1376 134.363 32.882C140.619 31.1424 146.991 29.8488 153.43 29.0111C183.651 25.0709 215.278 31.2473 243.66 49.4625C292.354 80.7137 314.761 136.531 304.227 188.162C301.017 203.87 294.817 218.844 285.96 232.283Z" fill="url(#paint0_linear)"/>
<path d="M214.586 89.8066L152.787 97.5417C154.826 95.1332 157.029 92.8801 159.379 90.7997L214.586 89.8066Z" fill="#545139"/>
<path d="M260.718 158.63C259.598 160.419 258.327 162.121 256.917 163.72L203.271 157.704L260.718 158.63Z" fill="#545139"/>
<path d="M264.202 122.466L173.679 110.434L262.023 115.786C262.871 117.969 263.599 120.199 264.202 122.466Z" fill="#545139"/>
<path d="M141.472 92.8149C141.472 92.9738 141.467 93.1303 141.453 93.2845C141.382 94.2405 141.097 95.169 140.617 96.0022C140.137 96.8354 139.475 97.5524 138.679 98.101C137.883 98.6496 136.973 99.0159 136.015 99.1734C135.058 99.3308 134.076 99.2754 133.143 99.0111C132.21 98.7468 131.348 98.2804 130.621 97.6457C129.893 97.011 129.318 96.2241 128.938 95.3423C128.557 94.4605 128.381 93.5059 128.421 92.5482C128.461 91.5905 128.718 90.6537 129.171 89.8061C129.311 89.5405 129.472 89.2858 129.651 89.0441C130.432 87.975 131.526 87.168 132.786 86.7319C134.045 86.2959 135.41 86.2518 136.696 86.6056C137.982 86.9594 139.127 87.6941 139.977 88.7105C140.827 89.727 141.34 90.9763 141.448 92.2901C141.465 92.4627 141.472 92.6377 141.472 92.8149Z" fill="#F9A826"/>
<path d="M141.473 92.5495C141.473 92.7848 141.468 93.0168 141.454 93.2453L131.898 91.5264L141.45 91.7719C141.466 92.0277 141.473 92.2869 141.473 92.5495Z" fill="#D0CDE1"/>
<path d="M138.862 95.8242L129.966 96.6837C129.714 96.4578 129.486 96.2146 129.287 95.9567L138.862 95.8242Z" fill="#D0CDE1"/>
<path d="M137.121 88.9463L129.287 89.8057C129.436 89.5461 129.605 89.2972 129.795 89.061L137.121 88.9463Z" fill="#D0CDE1"/>
<path d="M231.235 208.424C231.159 208.564 231.081 208.7 230.995 208.83C230.479 209.642 229.786 210.33 228.966 210.843C228.147 211.357 227.221 211.684 226.258 211.8C225.294 211.916 224.316 211.819 223.396 211.515C222.475 211.211 221.635 210.707 220.936 210.042C220.237 209.377 219.697 208.566 219.356 207.668C219.015 206.771 218.881 205.809 218.963 204.854C219.046 203.899 219.343 202.974 219.833 202.147C220.323 201.319 220.994 200.611 221.797 200.072C222.047 199.902 222.31 199.751 222.583 199.621C223.781 199.038 225.13 198.831 226.45 199.029C227.77 199.227 228.996 199.82 229.964 200.728C230.932 201.635 231.595 202.815 231.863 204.106C232.131 205.397 231.991 206.739 231.463 207.949C231.396 208.109 231.319 208.267 231.235 208.424Z" fill="#F9A826"/>
<path d="M230.892 208.831C230.815 208.983 230.735 209.13 230.648 209.271L222.42 203.255L231.125 208.316C231.056 208.49 230.978 208.661 230.892 208.831Z" fill="#D0CDE1"/>
<path d="M227.644 210.132L219.118 206.942C219.025 206.579 218.965 206.208 218.939 205.835L227.644 210.132Z" fill="#D0CDE1"/>
<path d="M228.513 202.396L221.55 200.192C221.8 200.051 222.063 199.926 222.336 199.817L228.513 202.396Z" fill="#D0CDE1"/>
<path d="M277.143 97.7694C277.256 97.8831 277.363 97.9984 277.462 98.1184C278.088 98.8515 278.54 99.7131 278.785 100.64C279.031 101.568 279.064 102.538 278.882 103.479C278.7 104.421 278.307 105.31 277.733 106.083C277.159 106.856 276.417 107.493 275.562 107.947C274.707 108.401 273.76 108.661 272.79 108.708C271.821 108.755 270.853 108.588 269.956 108.219C269.06 107.85 268.259 107.289 267.61 106.575C266.962 105.862 266.483 105.015 266.208 104.095C266.121 103.809 266.055 103.515 266.013 103.219C265.816 101.915 266.028 100.583 266.622 99.4027C267.216 98.2221 268.162 97.2496 269.333 96.6164C270.503 95.9832 271.843 95.7198 273.17 95.8616C274.498 96.0035 275.749 96.5438 276.755 97.4097C276.889 97.522 277.018 97.6424 277.143 97.7694Z" fill="#F9A826"/>
<path d="M271.164 98.4023L266.15 103.559C266.057 103.301 265.987 103.038 265.941 102.771L271.164 98.4023Z" fill="#D0CDE1"/>
<path d="M148.688 150.385L148.579 150.371L148.843 151.357C149.093 152.732 149.456 154.085 149.928 155.402L157.676 184.31C157.923 185.233 158.439 186.065 159.161 186.703C159.883 187.342 160.78 187.76 161.74 187.906L177.541 190.305C178.563 190.46 179.608 190.3 180.533 189.847C181.458 189.394 182.217 188.67 182.705 187.776L197.721 160.248C198.19 159.485 198.619 158.7 199.005 157.893L199.515 156.959L199.436 156.949C201.028 153.253 201.728 149.246 201.483 145.241C201.238 141.236 200.054 137.34 198.023 133.858C195.992 130.376 193.169 127.401 189.774 125.166C186.379 122.93 182.504 121.495 178.451 120.97C174.398 120.446 170.277 120.848 166.408 122.144C162.539 123.44 159.027 125.595 156.147 128.442C153.266 131.289 151.094 134.751 149.8 138.557C148.506 142.363 148.126 146.411 148.688 150.385H148.688Z" fill="#F9A826"/>
<path d="M178.404 192.082C178.123 192.082 177.843 192.061 177.566 192.019L160.915 189.518C159.858 189.359 158.871 188.904 158.076 188.208C157.281 187.512 156.713 186.606 156.44 185.601L148.276 155.463C147.777 154.083 147.393 152.666 147.129 151.227L146.922 149.908C146.367 145.696 146.827 141.416 148.267 137.406C149.707 133.396 152.087 129.766 155.22 126.803C158.352 123.839 162.151 121.624 166.316 120.33C170.482 119.037 174.9 118.701 179.222 119.35L179.15 119.801C174.875 119.162 170.505 119.501 166.389 120.792C162.274 122.083 158.525 124.291 155.444 127.238C152.363 130.185 150.033 133.791 148.642 137.768C147.25 141.745 146.835 145.982 147.429 150.142L147.588 151.129C147.85 152.556 148.23 153.961 148.725 155.329L156.895 185.485C157.144 186.404 157.664 187.233 158.391 187.869C159.117 188.505 160.02 188.921 160.987 189.066L177.638 191.568C178.666 191.721 179.718 191.561 180.649 191.11C181.581 190.659 182.345 189.939 182.837 189.048L183.251 189.264C182.781 190.115 182.082 190.826 181.228 191.322C180.375 191.819 179.399 192.081 178.404 192.082Z" fill="#2F2E41"/>
<path d="M182.416 156.96L172.381 184.015L172.946 184.219L182.981 157.165L182.416 156.96Z" fill="#2F2E41"/>
<path d="M166.03 154.457L165.43 154.483L166.711 183.267L167.311 183.241L166.03 154.457Z" fill="#2F2E41"/>
<path d="M176.48 205.826L155.893 202.686C155.74 202.662 155.603 202.579 155.512 202.455C155.421 202.331 155.383 202.177 155.406 202.026C155.43 201.875 155.513 201.74 155.638 201.649C155.763 201.558 155.919 201.52 156.073 201.542L176.659 204.683C176.736 204.694 176.809 204.72 176.876 204.759C176.942 204.798 177 204.85 177.045 204.912C177.091 204.973 177.124 205.043 177.143 205.117C177.161 205.191 177.165 205.268 177.153 205.343C177.141 205.419 177.114 205.491 177.074 205.556C177.034 205.621 176.981 205.678 176.918 205.723C176.856 205.768 176.785 205.8 176.71 205.818C176.634 205.835 176.556 205.838 176.48 205.826Z" fill="#3F3D56"/>
<path d="M177.323 201.528L155.92 198.389C155.84 198.378 155.764 198.352 155.695 198.312C155.626 198.273 155.566 198.221 155.518 198.16C155.471 198.098 155.436 198.029 155.417 197.955C155.398 197.881 155.394 197.804 155.407 197.728C155.419 197.653 155.447 197.581 155.489 197.516C155.531 197.45 155.586 197.394 155.651 197.349C155.716 197.304 155.789 197.272 155.868 197.254C155.946 197.236 156.027 197.234 156.106 197.246L177.51 200.385C177.589 200.396 177.666 200.422 177.735 200.462C177.804 200.501 177.864 200.553 177.911 200.614C177.959 200.675 177.993 200.745 178.013 200.819C178.032 200.893 178.035 200.97 178.023 201.046C178.011 201.121 177.983 201.193 177.941 201.258C177.899 201.323 177.844 201.38 177.779 201.425C177.714 201.47 177.64 201.502 177.562 201.52C177.484 201.537 177.403 201.54 177.323 201.528Z" fill="#3F3D56"/>
<path d="M178.2 197.232L156.784 194.092C156.624 194.067 156.482 193.984 156.387 193.861C156.292 193.737 156.253 193.583 156.277 193.432C156.302 193.281 156.389 193.145 156.518 193.054C156.648 192.963 156.811 192.925 156.97 192.948L178.387 196.089C178.546 196.113 178.689 196.196 178.784 196.319C178.879 196.443 178.918 196.597 178.894 196.748C178.869 196.9 178.782 197.035 178.652 197.126C178.522 197.217 178.36 197.255 178.2 197.232H178.2Z" fill="#3F3D56"/>
<path d="M165.515 208.289C169.59 208.887 173.244 207.218 173.677 204.56L158.923 202.395C158.489 205.052 161.441 207.691 165.515 208.289Z" fill="#3F3D56"/>
<path d="M173.116 151.03C172.189 150.906 171.422 150.27 171.002 149.843C170.864 149.704 170.73 149.559 170.595 149.413C170.106 148.884 169.643 148.385 169 148.124C167.579 147.549 165.904 148.352 164.455 149.215L164.104 148.772C165.698 147.823 167.557 146.947 169.261 147.637C170.036 147.95 170.565 148.523 171.078 149.077C171.208 149.218 171.338 149.358 171.472 149.494C171.909 149.937 172.781 150.655 173.715 150.489C174.109 150.39 174.475 150.221 174.791 149.995C175.032 149.839 175.286 149.699 175.552 149.578C176.092 149.353 176.696 149.272 177.288 149.345C177.88 149.418 178.434 149.641 178.881 149.986C179.04 150.117 179.191 150.256 179.333 150.401C179.611 150.676 179.874 150.937 180.216 151.031C180.722 151.172 181.257 150.92 181.824 150.655C182.408 150.381 183.013 150.098 183.698 150.168C183.72 150.17 183.743 150.173 183.765 150.176C184.984 150.34 185.547 151.511 185.865 152.385L185.274 152.546C184.842 151.359 184.316 150.768 183.625 150.702C183.135 150.652 182.641 150.883 182.118 151.128C181.463 151.435 180.785 151.753 180.028 151.543C179.522 151.403 179.189 151.074 178.867 150.755C178.74 150.625 178.605 150.501 178.463 150.383C178.107 150.112 177.669 149.938 177.201 149.88C176.732 149.823 176.255 149.885 175.827 150.059C175.59 150.169 175.363 150.294 175.148 150.434C174.764 150.706 174.318 150.904 173.839 151.016C173.601 151.058 173.356 151.063 173.116 151.03Z" fill="#2F2E41"/>
<path d="M64.8019 161.792L39.8425 167.763L39.7612 167.782L37.048 170.208L36.2671 170.905L34.593 170.605L31.6294 170.076L33.6946 163.194L34.0818 150.067L32.662 142.037L40.5357 136.684C40.5357 136.684 55.8957 135.792 64.8019 161.792Z" fill="#D0CDE1"/>
<path opacity="0.1" d="M39.8425 167.762C39.5043 168.475 40.2129 168.004 39.8257 168.737L36.2116 169.884L34.593 170.604L31.6294 170.076L33.6946 163.193L34.0818 150.066L32.662 142.037L40.5356 136.684C40.5356 136.684 48.9862 148.501 39.8425 167.762Z" fill="black"/>
<path d="M94.2322 142.929C94.2322 142.929 61.4468 157.968 48.152 160.262C34.8572 162.556 36.0189 175.683 36.0189 175.683L110.496 164.213C110.496 164.213 107.914 152.36 94.2322 142.929Z" fill="#D0CDE1"/>
<path d="M30.9847 140.381C30.9847 140.381 36.6641 154.018 30.3394 170.969L37.6967 174.283L40.5364 170.969L40.6009 170.65L32.7918 169.949C32.7918 169.949 39.2456 152.871 33.9535 141.018C33.9535 141.018 32.7918 138.469 30.9847 140.381Z" fill="#F9A826"/>
<path d="M139.279 241.448C110.237 235.075 83.1951 248.266 83.1951 248.266L83.1215 248.201L72.3527 238.707L30.2739 170.904L40.5355 170.968C69.0613 154.144 109.204 156.438 109.204 156.438C126.5 175.811 139.279 241.448 139.279 241.448Z" fill="#3F3D56"/>
<path opacity="0.1" d="M83.1216 248.203L72.3527 238.709L30.2739 170.905L40.5355 170.969C40.5355 170.969 81.4345 224.306 83.1216 248.203Z" fill="black"/>
<path d="M87.8484 195.299C96.6401 192.636 102.378 186.004 100.664 180.486C98.9494 174.968 90.4327 172.653 81.641 175.316C72.8493 177.978 67.1117 184.61 68.8259 190.128C70.54 195.646 79.0567 197.961 87.8484 195.299Z" fill="#D0CDE1"/>
</g>
<defs>
<linearGradient id="paint0_linear" x1="243.208" y1="49.1723" x2="105.303" y2="264.048" gradientUnits="userSpaceOnUse">
<stop stop-color="#FFF176"/>
<stop offset="0.364583" stop-color="#FFD94A"/>
<stop offset="1" stop-color="#FFCC31"/>
</linearGradient>
<clipPath id="clip0">
<rect width="310" height="310" fill="white"/>
</clipPath>
</defs>
</svg>
